%TF.GenerationSoftware,KiCad,Pcbnew,(6.0.7-1)-1*%
%TF.CreationDate,2022-09-06T17:11:03+08:00*%
%TF.ProjectId,ESP_PD210,4553505f-5044-4323-9130-2e6b69636164,rev?*%
%TF.SameCoordinates,Original*%
%TF.FileFunction,Copper,L4,Bot*%
%TF.FilePolarity,Positive*%
%FSLAX46Y46*%
G04 Gerber Fmt 4.6, Leading zero omitted, Abs format (unit mm)*
G04 Created by KiCad (PCBNEW (6.0.7-1)-1) date 2022-09-06 17:11:03*
%MOMM*%
%LPD*%
G01*
G04 APERTURE LIST*
G04 Aperture macros list*
%AMRoundRect*
0 Rectangle with rounded corners*
0 $1 Rounding radius*
0 $2 $3 $4 $5 $6 $7 $8 $9 X,Y pos of 4 corners*
0 Add a 4 corners polygon primitive as box body*
4,1,4,$2,$3,$4,$5,$6,$7,$8,$9,$2,$3,0*
0 Add four circle primitives for the rounded corners*
1,1,$1+$1,$2,$3*
1,1,$1+$1,$4,$5*
1,1,$1+$1,$6,$7*
1,1,$1+$1,$8,$9*
0 Add four rect primitives between the rounded corners*
20,1,$1+$1,$2,$3,$4,$5,0*
20,1,$1+$1,$4,$5,$6,$7,0*
20,1,$1+$1,$6,$7,$8,$9,0*
20,1,$1+$1,$8,$9,$2,$3,0*%
%AMFreePoly0*
4,1,17,-3.000000,0.500000,-2.988336,0.607368,-2.938573,0.740112,-2.853553,0.853553,-2.740112,0.938573,-2.607368,0.988336,-2.500000,1.000000,2.500000,1.000000,2.607368,0.988336,2.740112,0.938573,2.853553,0.853553,2.938573,0.740112,2.988336,0.607368,3.000000,0.500000,3.000000,-1.000000,-3.000000,-1.000000,-3.000000,0.500000,-3.000000,0.500000,$1*%
G04 Aperture macros list end*
%TA.AperFunction,ComponentPad*%
%ADD10FreePoly0,0.000000*%
%TD*%
%TA.AperFunction,ComponentPad*%
%ADD11FreePoly0,180.000000*%
%TD*%
%TA.AperFunction,ComponentPad*%
%ADD12O,2.100000X1.000000*%
%TD*%
%TA.AperFunction,ComponentPad*%
%ADD13O,1.600000X1.000000*%
%TD*%
%TA.AperFunction,SMDPad,CuDef*%
%ADD14RoundRect,0.140000X0.170000X-0.140000X0.170000X0.140000X-0.170000X0.140000X-0.170000X-0.140000X0*%
%TD*%
%TA.AperFunction,SMDPad,CuDef*%
%ADD15RoundRect,0.135000X0.185000X-0.135000X0.185000X0.135000X-0.185000X0.135000X-0.185000X-0.135000X0*%
%TD*%
%TA.AperFunction,SMDPad,CuDef*%
%ADD16RoundRect,0.250000X-0.375000X-0.850000X0.375000X-0.850000X0.375000X0.850000X-0.375000X0.850000X0*%
%TD*%
%TA.AperFunction,SMDPad,CuDef*%
%ADD17RoundRect,0.150000X0.512500X0.150000X-0.512500X0.150000X-0.512500X-0.150000X0.512500X-0.150000X0*%
%TD*%
%TA.AperFunction,SMDPad,CuDef*%
%ADD18RoundRect,0.062500X0.287500X0.062500X-0.287500X0.062500X-0.287500X-0.062500X0.287500X-0.062500X0*%
%TD*%
%TA.AperFunction,SMDPad,CuDef*%
%ADD19RoundRect,0.415000X0.415000X0.775000X-0.415000X0.775000X-0.415000X-0.775000X0.415000X-0.775000X0*%
%TD*%
%TA.AperFunction,SMDPad,CuDef*%
%ADD20RoundRect,0.135000X0.135000X0.185000X-0.135000X0.185000X-0.135000X-0.185000X0.135000X-0.185000X0*%
%TD*%
%TA.AperFunction,SMDPad,CuDef*%
%ADD21RoundRect,0.140000X-0.170000X0.140000X-0.170000X-0.140000X0.170000X-0.140000X0.170000X0.140000X0*%
%TD*%
%TA.AperFunction,SMDPad,CuDef*%
%ADD22RoundRect,0.150000X0.150000X-0.512500X0.150000X0.512500X-0.150000X0.512500X-0.150000X-0.512500X0*%
%TD*%
%TA.AperFunction,SMDPad,CuDef*%
%ADD23RoundRect,0.150000X0.587500X0.150000X-0.587500X0.150000X-0.587500X-0.150000X0.587500X-0.150000X0*%
%TD*%
%TA.AperFunction,SMDPad,CuDef*%
%ADD24RoundRect,0.140000X0.140000X0.170000X-0.140000X0.170000X-0.140000X-0.170000X0.140000X-0.170000X0*%
%TD*%
%TA.AperFunction,SMDPad,CuDef*%
%ADD25RoundRect,0.250000X-1.000000X0.250000X-1.000000X-0.250000X1.000000X-0.250000X1.000000X0.250000X0*%
%TD*%
%TA.AperFunction,SMDPad,CuDef*%
%ADD26RoundRect,0.135000X-0.185000X0.135000X-0.185000X-0.135000X0.185000X-0.135000X0.185000X0.135000X0*%
%TD*%
%TA.AperFunction,SMDPad,CuDef*%
%ADD27RoundRect,0.140000X-0.140000X-0.170000X0.140000X-0.170000X0.140000X0.170000X-0.140000X0.170000X0*%
%TD*%
%TA.AperFunction,ViaPad*%
%ADD28C,0.604800*%
%TD*%
%TA.AperFunction,Conductor*%
%ADD29C,0.254000*%
%TD*%
%TA.AperFunction,Conductor*%
%ADD30C,0.381000*%
%TD*%
%TA.AperFunction,Conductor*%
%ADD31C,0.152400*%
%TD*%
%TA.AperFunction,Conductor*%
%ADD32C,0.406400*%
%TD*%
G04 APERTURE END LIST*
D10*
%TO.P,J2,1,Pin_1*%
%TO.N,GND*%
X109780000Y-95865000D03*
D11*
X109780000Y-102265000D03*
D10*
%TO.P,J2,2,Pin_2*%
X125780000Y-96465000D03*
D11*
X125780000Y-101665000D03*
%TO.P,J2,3,Pin_3*%
%TO.N,/CART*%
X136280000Y-101265000D03*
D10*
X136280000Y-96865000D03*
%TD*%
D12*
%TO.P,J3,S1,SHIELD*%
%TO.N,GND*%
X182170800Y-103385000D03*
X182170800Y-94745000D03*
D13*
X186350800Y-103385000D03*
X186350800Y-94745000D03*
%TD*%
D14*
%TO.P,C19,1*%
%TO.N,Net-(C19-Pad1)*%
X185609200Y-97538036D03*
%TO.P,C19,2*%
%TO.N,GND*%
X185609200Y-96578036D03*
%TD*%
D15*
%TO.P,R15,1*%
%TO.N,Net-(C19-Pad1)*%
X184029200Y-97568036D03*
%TO.P,R15,2*%
%TO.N,VCC*%
X184029200Y-96548036D03*
%TD*%
D16*
%TO.P,L3,1,1*%
%TO.N,+3V3*%
X176860001Y-101600000D03*
%TO.P,L3,2,2*%
%TO.N,Net-(C21-Pad2)*%
X179010001Y-101600000D03*
%TD*%
D17*
%TO.P,U5,1,VDD*%
%TO.N,Net-(C19-Pad1)*%
X186747500Y-98808036D03*
%TO.P,U5,2,GND*%
%TO.N,GND*%
X186747500Y-99758036D03*
%TO.P,U5,3,PG*%
%TO.N,unconnected-(U5-Pad3)*%
X186747500Y-100708036D03*
%TO.P,U5,4,CFG*%
%TO.N,Net-(R17-Pad2)*%
X184472500Y-100708036D03*
%TO.P,U5,5,CC1*%
%TO.N,Net-(J3-PadA5)*%
X184472500Y-99758036D03*
%TO.P,U5,6,CC2*%
%TO.N,Net-(J3-PadB5)*%
X184472500Y-98808036D03*
%TD*%
D15*
%TO.P,R7,1*%
%TO.N,GND*%
X150010000Y-96390000D03*
%TO.P,R7,2*%
%TO.N,Net-(Q1-Pad1)*%
X150010000Y-95370000D03*
%TD*%
D17*
%TO.P,U3,1*%
%TO.N,/TEMP*%
X139397500Y-103000000D03*
%TO.P,U3,2,GND*%
%TO.N,GND*%
X139397500Y-103950000D03*
%TO.P,U3,3,+*%
%TO.N,Net-(D1-Pad2)*%
X139397500Y-104900000D03*
%TO.P,U3,4,-*%
%TO.N,Net-(R10-Pad1)*%
X137122500Y-104900000D03*
%TO.P,U3,5,V+*%
%TO.N,+3V3*%
X137122500Y-103000000D03*
%TD*%
D18*
%TO.P,Q2,1,S*%
%TO.N,VCC*%
X143375000Y-94435000D03*
%TO.P,Q2,2,S*%
X143375000Y-94935000D03*
%TO.P,Q2,3,S*%
X143375000Y-95435000D03*
%TO.P,Q2,4,G*%
%TO.N,Net-(Q2-Pad4)*%
X143375000Y-95935000D03*
%TO.P,Q2,5,D*%
%TO.N,/CART*%
X140575000Y-95935000D03*
%TO.P,Q2,6,D*%
X140575000Y-95435000D03*
%TO.P,Q2,7,D*%
X140575000Y-94935000D03*
%TO.P,Q2,8,D*%
X140575000Y-94435000D03*
D19*
%TO.P,Q2,9,D*%
X141975000Y-95185000D03*
%TD*%
D20*
%TO.P,R4,1*%
%TO.N,Net-(Q1-Pad2)*%
X144540000Y-97470000D03*
%TO.P,R4,2*%
%TO.N,Net-(Q2-Pad4)*%
X143520000Y-97470000D03*
%TD*%
D21*
%TO.P,C21,1*%
%TO.N,Net-(C21-Pad1)*%
X179460000Y-97720000D03*
%TO.P,C21,2*%
%TO.N,Net-(C21-Pad2)*%
X179460000Y-98680000D03*
%TD*%
D15*
%TO.P,R11,1*%
%TO.N,Net-(R11-Pad1)*%
X175119615Y-97590000D03*
%TO.P,R11,2*%
%TO.N,GND*%
X175119615Y-96570000D03*
%TD*%
%TO.P,R6,1*%
%TO.N,/DRIVE*%
X151090000Y-96390000D03*
%TO.P,R6,2*%
%TO.N,Net-(Q1-Pad1)*%
X151090000Y-95370000D03*
%TD*%
D22*
%TO.P,U4,1,BST*%
%TO.N,Net-(C21-Pad2)*%
X178240001Y-99337500D03*
%TO.P,U4,2,GND*%
%TO.N,GND*%
X177290001Y-99337500D03*
%TO.P,U4,3,FB*%
%TO.N,Net-(R11-Pad1)*%
X176340001Y-99337500D03*
%TO.P,U4,4,EN*%
%TO.N,Net-(R16-Pad2)*%
X176340001Y-97062500D03*
%TO.P,U4,5,VIN*%
%TO.N,VCC*%
X177290001Y-97062500D03*
%TO.P,U4,6,SW*%
%TO.N,Net-(C21-Pad1)*%
X178240001Y-97062500D03*
%TD*%
D23*
%TO.P,Q1,1,B*%
%TO.N,Net-(Q1-Pad1)*%
X148257500Y-95370000D03*
%TO.P,Q1,2,C*%
%TO.N,Net-(Q1-Pad2)*%
X148257500Y-97270000D03*
%TO.P,Q1,3,E*%
%TO.N,GND*%
X146382500Y-96320000D03*
%TD*%
D14*
%TO.P,C20,1*%
%TO.N,+3V3*%
X175140001Y-102090000D03*
%TO.P,C20,2*%
%TO.N,GND*%
X175140001Y-101130000D03*
%TD*%
D21*
%TO.P,C24,1*%
%TO.N,+3V3*%
X135040000Y-102999997D03*
%TO.P,C24,2*%
%TO.N,GND*%
X135040000Y-103959997D03*
%TD*%
D24*
%TO.P,C25,1*%
%TO.N,/TEMP*%
X161630004Y-103349997D03*
%TO.P,C25,2*%
%TO.N,GND*%
X160670004Y-103349997D03*
%TD*%
D25*
%TO.P,SW2,1,1*%
%TO.N,/MOVE*%
X171790000Y-97890000D03*
%TO.P,SW2,2,2*%
%TO.N,GND*%
X171790000Y-100240000D03*
%TD*%
D26*
%TO.P,R3,1*%
%TO.N,VCC*%
X144490000Y-95550000D03*
%TO.P,R3,2*%
%TO.N,Net-(Q2-Pad4)*%
X144490000Y-96570000D03*
%TD*%
D20*
%TO.P,R16,1*%
%TO.N,VCC*%
X176920001Y-95650000D03*
%TO.P,R16,2*%
%TO.N,Net-(R16-Pad2)*%
X175900001Y-95650000D03*
%TD*%
D27*
%TO.P,C18,1*%
%TO.N,VCC*%
X177820001Y-95650000D03*
%TO.P,C18,2*%
%TO.N,GND*%
X178780001Y-95650000D03*
%TD*%
D15*
%TO.P,R17,1*%
%TO.N,Net-(C19-Pad1)*%
X187189200Y-97568036D03*
%TO.P,R17,2*%
%TO.N,Net-(R17-Pad2)*%
X187189200Y-96548036D03*
%TD*%
%TO.P,R12,1*%
%TO.N,+3V3*%
X175119615Y-99830000D03*
%TO.P,R12,2*%
%TO.N,Net-(R11-Pad1)*%
X175119615Y-98810000D03*
%TD*%
D28*
%TO.N,GND*%
X160828002Y-98303012D03*
X179250000Y-94950000D03*
X152489992Y-100419992D03*
X173340000Y-104010000D03*
X160828002Y-99065012D03*
X161590002Y-99065012D03*
X154929992Y-95039993D03*
X163460000Y-102970000D03*
X184590000Y-95290000D03*
X168860000Y-100790000D03*
X185610000Y-99758036D03*
X167040001Y-95269990D03*
X173870000Y-98870000D03*
X167999994Y-96990002D03*
X161590002Y-98303012D03*
X162352002Y-98303012D03*
X180670000Y-104630000D03*
X160828002Y-99827012D03*
X168370000Y-102640000D03*
X162351999Y-99065004D03*
X138270000Y-103380000D03*
X161590002Y-99827012D03*
X162352002Y-99827012D03*
X156510000Y-97970000D03*
%TO.N,+3V3*%
X163889995Y-96479995D03*
X163520000Y-103960000D03*
X158343732Y-99685798D03*
X158250001Y-96939989D03*
X173949995Y-100019993D03*
X165400000Y-102290000D03*
X136230004Y-102999997D03*
X167920000Y-99240000D03*
X173949995Y-100693220D03*
X166540002Y-96925511D03*
X168429991Y-95375000D03*
%TO.N,/CART*%
X138680012Y-97219999D03*
X135109991Y-97219999D03*
X137449992Y-97219999D03*
X133880000Y-101690000D03*
X141440000Y-100120000D03*
X133879996Y-96430008D03*
X137450000Y-101690000D03*
X141400000Y-99000000D03*
X140029997Y-95935013D03*
X138680012Y-96379995D03*
X135110000Y-100880000D03*
X142100000Y-100780000D03*
X133880000Y-100880000D03*
X138680000Y-100880000D03*
X141680006Y-95947000D03*
X141010000Y-101920000D03*
X141680006Y-94423000D03*
X137450000Y-100880000D03*
X137449992Y-96379995D03*
X140029997Y-94434990D03*
X141050000Y-101030000D03*
X139910007Y-96860004D03*
X140889990Y-96709992D03*
X141680006Y-95185000D03*
X133879996Y-97219999D03*
X141770000Y-101610000D03*
X135109991Y-96430008D03*
X138680000Y-101690001D03*
X135110000Y-101690000D03*
X140040000Y-101070000D03*
X139920000Y-101880000D03*
X142130000Y-99450000D03*
%TO.N,VCC*%
X143555999Y-94031994D03*
X148127999Y-94031994D03*
X155748000Y-94032000D03*
X173274000Y-93270000D03*
X170226000Y-93270000D03*
X158796000Y-94032000D03*
X180894000Y-94032000D03*
X175560000Y-93270000D03*
X161844000Y-94032000D03*
X167940000Y-94032000D03*
X144317999Y-93269994D03*
X170226000Y-94032000D03*
X170988000Y-93270000D03*
X158034000Y-93270000D03*
X167178000Y-94032000D03*
X148890000Y-93270000D03*
X154986000Y-94032000D03*
X150414000Y-94032000D03*
X165654000Y-94032000D03*
X167178000Y-93270000D03*
X182640000Y-99000000D03*
X161082000Y-94032000D03*
X168702000Y-93270000D03*
X174798000Y-93270000D03*
X143555999Y-93269994D03*
X168702000Y-94032000D03*
X169464000Y-93270000D03*
X169464000Y-94032000D03*
X145079999Y-93269994D03*
X182418000Y-93270000D03*
X152700000Y-94032000D03*
X177846000Y-93270000D03*
X152700000Y-93270000D03*
X154224000Y-93270000D03*
X149652000Y-93270000D03*
X153462000Y-94032000D03*
X166416000Y-93270000D03*
X158796000Y-93270000D03*
X174798000Y-94032000D03*
X161082000Y-93270000D03*
X160319999Y-94031994D03*
X165654000Y-93270000D03*
X176322000Y-93270000D03*
X175560000Y-94032000D03*
X159557999Y-94031994D03*
X153462000Y-93270000D03*
X176322000Y-94032000D03*
X171750000Y-94032000D03*
X183180000Y-93270000D03*
X164130000Y-93270000D03*
X179370000Y-94032000D03*
X151938000Y-93270000D03*
X156510000Y-94032000D03*
X159558000Y-93270000D03*
X177084000Y-93270000D03*
X180132000Y-93270000D03*
X170988000Y-94032000D03*
X178608000Y-94032000D03*
X145079999Y-94031994D03*
X144610000Y-94750000D03*
X167940000Y-93270000D03*
X173274000Y-94032000D03*
X179370000Y-93270000D03*
X154224000Y-94032000D03*
X161844000Y-93270000D03*
X149652000Y-94032000D03*
X148127999Y-93269994D03*
X146603999Y-93269994D03*
X148889999Y-94031994D03*
X180894000Y-93270000D03*
X164130000Y-94032000D03*
X160320000Y-93270000D03*
X154986000Y-93270000D03*
X151938000Y-94032000D03*
X181225000Y-101515000D03*
X171750000Y-93270000D03*
X162606000Y-94032000D03*
X172512000Y-93270000D03*
X166416000Y-94032000D03*
X177084000Y-94032000D03*
X158034000Y-94032000D03*
X163368000Y-94032000D03*
X144317999Y-94031994D03*
X174036000Y-93270000D03*
X177846000Y-94032000D03*
X162606000Y-93270000D03*
X151176000Y-94032000D03*
X181210000Y-96620000D03*
X180132000Y-94032000D03*
X183220000Y-101050000D03*
X146603999Y-94031994D03*
X178608000Y-93270000D03*
X157272000Y-94032000D03*
X164892000Y-94032000D03*
X181656000Y-93270000D03*
X174036000Y-94032000D03*
X147365999Y-93269994D03*
X157272000Y-93270000D03*
X151176000Y-93270000D03*
X163368000Y-93270000D03*
X145841999Y-94031994D03*
X150414000Y-93270000D03*
X172512000Y-94032000D03*
X164892000Y-93270000D03*
X147365999Y-94031994D03*
X155748000Y-93270000D03*
X145841999Y-93269994D03*
X156510000Y-93270000D03*
%TO.N,Net-(J3-PadA5)*%
X182784057Y-100009057D03*
%TO.N,Net-(J3-PadB5)*%
X182750000Y-98025000D03*
%TO.N,/DRIVE*%
X151929998Y-98639706D03*
X151929998Y-96359497D03*
X164452305Y-100032064D03*
%TO.N,/TEMP*%
X161630004Y-102451306D03*
X140480000Y-103430000D03*
%TO.N,/MOVE*%
X165280010Y-99849991D03*
%TO.N,Net-(D1-Pad2)*%
X136180000Y-104160000D03*
%TO.N,/SW_A*%
X159509993Y-95139891D03*
X149810000Y-97494300D03*
%TO.N,/SW_P*%
X163165712Y-96004187D03*
X150540000Y-97950000D03*
%TO.N,/SW_C*%
X162918959Y-95284154D03*
X149820000Y-98555300D03*
%TO.N,/SW_B*%
X161416226Y-95909196D03*
X149420000Y-99610000D03*
%TO.N,/SW_D*%
X162453901Y-96285634D03*
X149069070Y-98860100D03*
%TO.N,Net-(R10-Pad1)*%
X136000007Y-104899993D03*
%TD*%
D29*
%TO.N,+3V3*%
X136230007Y-103000000D02*
X136230004Y-102999997D01*
X137122500Y-103000000D02*
X136230007Y-103000000D01*
D30*
X176370001Y-102090000D02*
X176860001Y-101600000D01*
X175140001Y-102090000D02*
X176370001Y-102090000D01*
D29*
X136230004Y-102999997D02*
X135040000Y-102999997D01*
D30*
%TO.N,VCC*%
X177820001Y-95650000D02*
X177660001Y-95650000D01*
X177290001Y-96020000D02*
X176920001Y-95650000D01*
X177820001Y-95650000D02*
X177820001Y-94057999D01*
X177290001Y-97062500D02*
X177290001Y-96020000D01*
X177660001Y-95650000D02*
X177290001Y-96020000D01*
X177820001Y-94057999D02*
X177846000Y-94032000D01*
D29*
%TO.N,Net-(J3-PadA5)*%
X182784057Y-100009057D02*
X183035078Y-99758036D01*
X183035078Y-99758036D02*
X184472500Y-99758036D01*
%TO.N,Net-(J3-PadB5)*%
X182750000Y-98025000D02*
X183523036Y-98798036D01*
X183523036Y-98798036D02*
X183523036Y-98808036D01*
X183523036Y-98808036D02*
X184472500Y-98808036D01*
%TO.N,Net-(Q1-Pad1)*%
X150010000Y-95370000D02*
X151090000Y-95370000D01*
X148257500Y-95370000D02*
X150010000Y-95370000D01*
%TO.N,Net-(Q1-Pad2)*%
X145007005Y-98550898D02*
X147839102Y-98550898D01*
X147839102Y-98550898D02*
X148260000Y-98130000D01*
X144540000Y-97470000D02*
X144540000Y-98083893D01*
X148257500Y-98127500D02*
X148257500Y-97270000D01*
X148260000Y-98130000D02*
X148257500Y-98127500D01*
X144540000Y-98083893D02*
X145007005Y-98550898D01*
%TO.N,/DRIVE*%
X151089995Y-96390003D02*
X151899493Y-96390003D01*
X158269991Y-100349990D02*
X159790003Y-101870002D01*
X164039998Y-101870002D02*
X164452300Y-101457700D01*
X159790003Y-101870002D02*
X164039998Y-101870002D01*
X153640307Y-100349990D02*
X158269991Y-100349990D01*
X151929998Y-98639706D02*
X153640307Y-100349990D01*
X164452300Y-101457700D02*
X164452300Y-100032058D01*
D31*
X151899500Y-96390000D02*
X151930000Y-96359500D01*
D30*
%TO.N,Net-(C21-Pad1)*%
X179230001Y-97720000D02*
X178572501Y-97062500D01*
X178572501Y-97062500D02*
X178240001Y-97062500D01*
X179460000Y-97720000D02*
X179230001Y-97720000D01*
D29*
%TO.N,/TEMP*%
X150210000Y-101190000D02*
X158520000Y-101190000D01*
X147935208Y-103464792D02*
X150210000Y-101190000D01*
X140514792Y-103464792D02*
X147935208Y-103464792D01*
X161630004Y-102451306D02*
X161630004Y-103349997D01*
X140480000Y-103430000D02*
X140514792Y-103464792D01*
X140050000Y-103000000D02*
X139397500Y-103000000D01*
X140480000Y-103430000D02*
X140050000Y-103000000D01*
X159781306Y-102451306D02*
X161630004Y-102451306D01*
X158520000Y-101190000D02*
X159781306Y-102451306D01*
D30*
%TO.N,Net-(C21-Pad2)*%
X179449615Y-98680000D02*
X179460000Y-98680000D01*
X178792115Y-99337500D02*
X179449615Y-98680000D01*
D32*
X179010001Y-101600000D02*
X179010001Y-99555386D01*
D30*
X178240001Y-99337500D02*
X178792115Y-99337500D01*
D32*
X179010001Y-99555386D02*
X178792115Y-99337500D01*
D31*
%TO.N,/MOVE*%
X168060948Y-99850000D02*
X170020948Y-97890000D01*
X165280000Y-99850000D02*
X168060948Y-99850000D01*
X170020948Y-97890000D02*
X171790000Y-97890000D01*
D29*
%TO.N,Net-(Q2-Pad4)*%
X143855000Y-95935000D02*
X144490000Y-96570000D01*
X143590000Y-97470000D02*
X144490000Y-96570000D01*
X143375000Y-95935000D02*
X143855000Y-95935000D01*
X143520000Y-97470000D02*
X143590000Y-97470000D01*
%TO.N,Net-(D1-Pad2)*%
X137670000Y-104160000D02*
X138410000Y-104900000D01*
X136180000Y-104160000D02*
X137670000Y-104160000D01*
X138410000Y-104900000D02*
X139397500Y-104900000D01*
D31*
%TO.N,/SW_A*%
X149810000Y-97494300D02*
X150109500Y-97194800D01*
X150109500Y-97194800D02*
X155116252Y-97194800D01*
X157171152Y-95139900D02*
X159510000Y-95139900D01*
X155116252Y-97194800D02*
X157171152Y-95139900D01*
%TO.N,/SW_P*%
X162859961Y-95940746D02*
X163102271Y-95940746D01*
X162485686Y-95754634D02*
X162673849Y-95754634D01*
X162673849Y-95754634D02*
X162859961Y-95940746D01*
X163102271Y-95940746D02*
X163165712Y-96004187D01*
X150990400Y-97499600D02*
X155242504Y-97499600D01*
X150540000Y-97950000D02*
X150990400Y-97499600D01*
X161804948Y-95073896D02*
X162485686Y-95754634D01*
X159290052Y-95670900D02*
X159879100Y-95670900D01*
X159879100Y-95670900D02*
X160476104Y-95073896D01*
X159063852Y-95444700D02*
X159290052Y-95670900D01*
X160476104Y-95073896D02*
X161804948Y-95073896D01*
X155242504Y-97499600D02*
X157297404Y-95444700D01*
X157297404Y-95444700D02*
X159063852Y-95444700D01*
%TO.N,/SW_C*%
X162918959Y-95284154D02*
X162403901Y-94769096D01*
X149663352Y-96890000D02*
X149279000Y-97274352D01*
X154990000Y-96890000D02*
X149663352Y-96890000D01*
X162403901Y-94769096D02*
X159890144Y-94769096D01*
X149279000Y-97274352D02*
X149279000Y-98014300D01*
X149279000Y-98014300D02*
X149820000Y-98555300D01*
X159290052Y-94608900D02*
X159063852Y-94835100D01*
X159063852Y-94835100D02*
X157044900Y-94835100D01*
X157044900Y-94835100D02*
X154990000Y-96890000D01*
X159729948Y-94608900D02*
X159290052Y-94608900D01*
X159890144Y-94769096D02*
X159729948Y-94608900D01*
%TO.N,/SW_B*%
X160131604Y-96280500D02*
X159037548Y-96280500D01*
X161416226Y-95909196D02*
X160502908Y-95909196D01*
X160502908Y-95909196D02*
X160131604Y-96280500D01*
X149638900Y-99391100D02*
X149420000Y-99610000D01*
X151562800Y-98109200D02*
X150280900Y-99391100D01*
X155495008Y-98109200D02*
X151562800Y-98109200D01*
X158811348Y-96054300D02*
X157549908Y-96054300D01*
X157549908Y-96054300D02*
X155495008Y-98109200D01*
X150280900Y-99391100D02*
X149638900Y-99391100D01*
X159037548Y-96280500D02*
X158811348Y-96054300D01*
%TO.N,/SW_D*%
X160602356Y-95378696D02*
X160005352Y-95975700D01*
X162453901Y-96285634D02*
X162453901Y-96153901D01*
X159163800Y-95975700D02*
X158937600Y-95749500D01*
X151436548Y-97804400D02*
X150154648Y-99086300D01*
X150154648Y-99086300D02*
X149600052Y-99086300D01*
X161678696Y-95378696D02*
X160602356Y-95378696D01*
X158937600Y-95749500D02*
X157423656Y-95749500D01*
X149373852Y-98860100D02*
X149069070Y-98860100D01*
X155368756Y-97804400D02*
X151436548Y-97804400D01*
X160005352Y-95975700D02*
X159163800Y-95975700D01*
X157423656Y-95749500D02*
X155368756Y-97804400D01*
X162453901Y-96153901D02*
X161678696Y-95378696D01*
X149600052Y-99086300D02*
X149373852Y-98860100D01*
D30*
%TO.N,Net-(R16-Pad2)*%
X175900001Y-96070000D02*
X175900001Y-95650000D01*
X176340001Y-97062500D02*
X176340001Y-96510000D01*
X176340001Y-96510000D02*
X175900001Y-96070000D01*
D29*
%TO.N,Net-(R10-Pad1)*%
X136000000Y-104900000D02*
X137122500Y-104900000D01*
%TO.N,Net-(R17-Pad2)*%
X187437863Y-101287436D02*
X185872436Y-101287436D01*
X185293036Y-100708036D02*
X184472500Y-100708036D01*
X187788600Y-96823600D02*
X187788600Y-100936699D01*
X187788600Y-100936699D02*
X187437863Y-101287436D01*
X187189200Y-96548036D02*
X187513036Y-96548036D01*
X187513036Y-96548036D02*
X187788600Y-96823600D01*
X185872436Y-101287436D02*
X185293036Y-100708036D01*
D30*
%TO.N,Net-(R11-Pad1)*%
X175119615Y-98810000D02*
X175119615Y-97590000D01*
X175647115Y-99337500D02*
X175119615Y-98810000D01*
X176340001Y-99337500D02*
X175647115Y-99337500D01*
D29*
%TO.N,Net-(C19-Pad1)*%
X186747500Y-98808036D02*
X186063036Y-98808036D01*
X185609200Y-98354200D02*
X185609200Y-97538036D01*
X185609200Y-97538036D02*
X184059200Y-97538036D01*
X184059200Y-97538036D02*
X184029200Y-97568036D01*
X187189200Y-97568036D02*
X187189200Y-97935800D01*
X186747500Y-98377500D02*
X186747500Y-98808036D01*
X187189200Y-97935800D02*
X186747500Y-98377500D01*
X186063036Y-98808036D02*
X185609200Y-98354200D01*
%TD*%
%TA.AperFunction,Conductor*%
%TO.N,GND*%
G36*
X188108530Y-92871441D02*
G01*
X188116220Y-92872796D01*
X188128783Y-92875010D01*
X188135261Y-92873867D01*
X188139313Y-92873867D01*
X188153981Y-92875311D01*
X188184431Y-92881365D01*
X188188625Y-92882199D01*
X188215734Y-92893426D01*
X188254027Y-92919009D01*
X188274776Y-92939756D01*
X188300366Y-92978050D01*
X188311597Y-93005161D01*
X188318442Y-93039572D01*
X188319887Y-93054246D01*
X188319887Y-93058520D01*
X188318744Y-93065000D01*
X188319886Y-93071477D01*
X188319886Y-93071478D01*
X188322312Y-93085235D01*
X188323454Y-93098293D01*
X188323454Y-105031735D01*
X188322311Y-105044794D01*
X188319891Y-105058518D01*
X188319891Y-105058522D01*
X188318749Y-105065000D01*
X188319891Y-105071477D01*
X188319891Y-105075529D01*
X188318447Y-105090194D01*
X188312342Y-105120889D01*
X188311559Y-105124824D01*
X188300328Y-105151935D01*
X188274748Y-105190214D01*
X188254000Y-105210960D01*
X188215721Y-105236535D01*
X188188611Y-105247763D01*
X188153781Y-105254688D01*
X188139112Y-105256132D01*
X188135263Y-105256132D01*
X188128784Y-105254989D01*
X188109209Y-105258439D01*
X188108533Y-105258558D01*
X188095481Y-105259699D01*
X157925808Y-105259699D01*
X157877470Y-105242106D01*
X157851750Y-105197557D01*
X157850608Y-105184515D01*
X157850605Y-105167623D01*
X157850352Y-103954380D01*
X163060052Y-103954380D01*
X163060746Y-103959687D01*
X163060746Y-103959690D01*
X163065735Y-103997839D01*
X163076963Y-104083698D01*
X163129488Y-104203072D01*
X163213407Y-104302906D01*
X163321973Y-104375173D01*
X163446458Y-104414065D01*
X163513560Y-104415295D01*
X163571492Y-104416357D01*
X163571494Y-104416357D01*
X163576854Y-104416455D01*
X163582025Y-104415045D01*
X163582027Y-104415045D01*
X163649786Y-104396572D01*
X163702681Y-104382151D01*
X163813822Y-104313910D01*
X163817414Y-104309942D01*
X163817416Y-104309940D01*
X163897747Y-104221191D01*
X163897748Y-104221190D01*
X163901342Y-104217219D01*
X163906209Y-104207175D01*
X163955870Y-104104673D01*
X163958207Y-104099850D01*
X163979845Y-103971238D01*
X163979982Y-103960000D01*
X163970005Y-103890331D01*
X163962253Y-103836201D01*
X163962252Y-103836197D01*
X163961493Y-103830898D01*
X163956840Y-103820663D01*
X163909732Y-103717055D01*
X163909731Y-103717054D01*
X163907513Y-103712175D01*
X163903450Y-103707459D01*
X163825881Y-103617436D01*
X163822381Y-103613374D01*
X163712940Y-103542439D01*
X163631844Y-103518186D01*
X163593124Y-103506606D01*
X163593121Y-103506606D01*
X163587990Y-103505071D01*
X163582635Y-103505038D01*
X163582633Y-103505038D01*
X163524142Y-103504681D01*
X163457573Y-103504274D01*
X163332175Y-103540113D01*
X163221877Y-103609706D01*
X163135544Y-103707459D01*
X163133268Y-103712306D01*
X163133267Y-103712308D01*
X163118501Y-103743759D01*
X163080117Y-103825514D01*
X163060052Y-103954380D01*
X157850352Y-103954380D01*
X157850234Y-103385859D01*
X157850003Y-102278259D01*
X157850003Y-102278258D01*
X157850000Y-102265000D01*
X150250000Y-102265000D01*
X150250122Y-102849577D01*
X150250607Y-105184483D01*
X150233024Y-105232825D01*
X150188481Y-105258554D01*
X150175407Y-105259699D01*
X140263981Y-105259699D01*
X140215643Y-105242106D01*
X140189923Y-105197557D01*
X140195203Y-105154092D01*
X140201129Y-105140687D01*
X140209882Y-105120889D01*
X140212900Y-105095004D01*
X140212900Y-104704996D01*
X140209758Y-104678588D01*
X140163952Y-104575464D01*
X140096514Y-104508143D01*
X140089007Y-104500649D01*
X140089006Y-104500648D01*
X140084093Y-104495744D01*
X140077743Y-104492937D01*
X140077742Y-104492936D01*
X139992244Y-104455138D01*
X139980889Y-104450118D01*
X139957260Y-104447363D01*
X139957166Y-104447352D01*
X139957165Y-104447352D01*
X139955004Y-104447100D01*
X138839996Y-104447100D01*
X138837789Y-104447363D01*
X138837782Y-104447363D01*
X138819191Y-104449575D01*
X138819189Y-104449576D01*
X138813588Y-104450242D01*
X138710464Y-104496048D01*
X138705562Y-104500959D01*
X138636080Y-104570562D01*
X138630744Y-104575907D01*
X138627937Y-104582256D01*
X138624426Y-104587384D01*
X138582601Y-104617329D01*
X138562377Y-104620100D01*
X138557086Y-104620100D01*
X138508748Y-104602507D01*
X138503912Y-104598074D01*
X137903677Y-103997839D01*
X137900554Y-103994221D01*
X137898601Y-103990226D01*
X137881224Y-103974106D01*
X137864566Y-103958654D01*
X137862534Y-103956696D01*
X137849512Y-103943674D01*
X137846656Y-103941714D01*
X137844872Y-103940232D01*
X137841792Y-103937528D01*
X137827245Y-103924034D01*
X137822156Y-103919313D01*
X137815711Y-103916742D01*
X137815710Y-103916741D01*
X137810438Y-103914638D01*
X137795768Y-103906805D01*
X137791090Y-103903596D01*
X137785364Y-103899668D01*
X137778606Y-103898064D01*
X137778605Y-103898064D01*
X137760015Y-103893653D01*
X137749517Y-103890334D01*
X137725308Y-103880675D01*
X137719444Y-103880100D01*
X137711707Y-103880100D01*
X137694343Y-103878068D01*
X137683910Y-103875592D01*
X137677032Y-103876528D01*
X137677031Y-103876528D01*
X137655834Y-103879413D01*
X137645693Y-103880100D01*
X136574345Y-103880100D01*
X136526007Y-103862507D01*
X136517376Y-103853987D01*
X136485883Y-103817437D01*
X136485879Y-103817433D01*
X136482381Y-103813374D01*
X136372940Y-103742439D01*
X136277439Y-103713878D01*
X136253124Y-103706606D01*
X136253121Y-103706606D01*
X136247990Y-103705071D01*
X136242635Y-103705038D01*
X136242633Y-103705038D01*
X136184142Y-103704681D01*
X136117573Y-103704274D01*
X135992175Y-103740113D01*
X135881877Y-103809706D01*
X135795544Y-103907459D01*
X135793268Y-103912306D01*
X135793267Y-103912308D01*
X135772427Y-103956696D01*
X135740117Y-104025514D01*
X135720052Y-104154380D01*
X135736963Y-104283698D01*
X135739119Y-104288598D01*
X135780903Y-104383560D01*
X135789488Y-104403072D01*
X135791634Y-104405625D01*
X135802069Y-104455138D01*
X135777841Y-104500515D01*
X135767746Y-104508143D01*
X135706414Y-104546840D01*
X135706410Y-104546843D01*
X135701884Y-104549699D01*
X135615551Y-104647452D01*
X135613275Y-104652299D01*
X135613274Y-104652301D01*
X135598302Y-104684191D01*
X135560124Y-104765507D01*
X135540059Y-104894373D01*
X135540753Y-104899680D01*
X135540753Y-104899683D01*
X135546047Y-104940162D01*
X135556970Y-105023691D01*
X135559126Y-105028591D01*
X135597266Y-105115271D01*
X135609495Y-105143065D01*
X135611620Y-105145594D01*
X135622052Y-105195095D01*
X135597823Y-105240471D01*
X135547602Y-105259699D01*
X100313293Y-105259699D01*
X100300235Y-105258557D01*
X100286477Y-105256131D01*
X100280000Y-105254989D01*
X100273523Y-105256131D01*
X100269470Y-105256131D01*
X100254801Y-105254686D01*
X100237723Y-105251289D01*
X100220163Y-105247796D01*
X100193058Y-105236568D01*
X100154764Y-105210982D01*
X100134018Y-105190238D01*
X100108430Y-105151942D01*
X100097203Y-105124838D01*
X100090312Y-105090194D01*
X100088867Y-105075520D01*
X100088867Y-105071481D01*
X100090010Y-105065000D01*
X100086442Y-105044764D01*
X100085300Y-105031707D01*
X100085300Y-102022607D01*
X100102893Y-101974269D01*
X100107326Y-101969433D01*
X100484433Y-101592326D01*
X100531053Y-101570586D01*
X100537607Y-101570300D01*
X119124560Y-101570300D01*
X119130119Y-101570708D01*
X119134628Y-101572256D01*
X119185316Y-101570353D01*
X119188136Y-101570300D01*
X119208393Y-101570300D01*
X119211797Y-101569666D01*
X119215249Y-101569347D01*
X119215265Y-101569519D01*
X119219383Y-101569074D01*
X119241343Y-101568250D01*
X119241346Y-101568249D01*
X119248282Y-101567989D01*
X119254661Y-101565248D01*
X119254663Y-101565248D01*
X119261623Y-101562258D01*
X119277535Y-101557424D01*
X119284984Y-101556036D01*
X119284986Y-101556035D01*
X119291811Y-101554764D01*
X119297720Y-101551122D01*
X119297722Y-101551121D01*
X119316434Y-101539587D01*
X119326210Y-101534509D01*
X119347897Y-101525192D01*
X119347900Y-101525190D01*
X119352779Y-101523094D01*
X119357744Y-101519015D01*
X119364275Y-101512484D01*
X119377989Y-101501643D01*
X119382717Y-101498729D01*
X119382718Y-101498728D01*
X119388628Y-101495085D01*
X119407624Y-101470104D01*
X119414302Y-101462457D01*
X119884433Y-100992326D01*
X119931053Y-100970586D01*
X119937607Y-100970300D01*
X131324560Y-100970300D01*
X131330119Y-100970708D01*
X131334628Y-100972256D01*
X131385316Y-100970353D01*
X131388136Y-100970300D01*
X131408393Y-100970300D01*
X131411797Y-100969666D01*
X131415249Y-100969347D01*
X131415265Y-100969519D01*
X131419383Y-100969074D01*
X131441343Y-100968250D01*
X131441346Y-100968249D01*
X131448282Y-100967989D01*
X131454661Y-100965248D01*
X131454663Y-100965248D01*
X131461623Y-100962258D01*
X131477535Y-100957424D01*
X131484984Y-100956036D01*
X131484986Y-100956035D01*
X131491811Y-100954764D01*
X131497720Y-100951122D01*
X131497722Y-100951121D01*
X131516434Y-100939587D01*
X131526210Y-100934509D01*
X131547897Y-100925192D01*
X131547900Y-100925190D01*
X131552779Y-100923094D01*
X131557744Y-100919015D01*
X131564275Y-100912484D01*
X131577989Y-100901643D01*
X131582717Y-100898729D01*
X131582718Y-100898728D01*
X131588628Y-100895085D01*
X131607624Y-100870104D01*
X131614302Y-100862457D01*
X131884433Y-100592326D01*
X131931053Y-100570586D01*
X131937607Y-100570300D01*
X132873430Y-100570300D01*
X132921768Y-100587893D01*
X132947488Y-100632442D01*
X132947865Y-100656202D01*
X132946996Y-100662250D01*
X132942100Y-100696300D01*
X132942100Y-102364000D01*
X132945708Y-102397563D01*
X132946134Y-102399520D01*
X132946135Y-102399528D01*
X132956095Y-102445313D01*
X132957094Y-102449905D01*
X132992053Y-102519744D01*
X133038546Y-102573400D01*
X133113394Y-102621502D01*
X133181515Y-102641504D01*
X133184163Y-102641885D01*
X133184169Y-102641886D01*
X133223340Y-102647518D01*
X133223346Y-102647518D01*
X133226000Y-102647900D01*
X134528014Y-102647900D01*
X134576352Y-102665493D01*
X134602072Y-102710042D01*
X134596792Y-102753506D01*
X134580018Y-102791448D01*
X134579363Y-102797066D01*
X134578691Y-102802834D01*
X134577100Y-102816476D01*
X134577101Y-103183517D01*
X134580138Y-103209052D01*
X134624432Y-103308771D01*
X134645135Y-103329438D01*
X134696441Y-103380654D01*
X134701655Y-103385859D01*
X134801451Y-103429979D01*
X134807069Y-103430634D01*
X134824317Y-103432645D01*
X134824318Y-103432645D01*
X134826479Y-103432897D01*
X135038007Y-103432897D01*
X135253520Y-103432896D01*
X135279055Y-103429859D01*
X135378774Y-103385565D01*
X135435233Y-103329007D01*
X135450958Y-103313255D01*
X135450959Y-103313254D01*
X135455862Y-103308342D01*
X135456488Y-103308967D01*
X135493227Y-103282666D01*
X135513447Y-103279897D01*
X135835423Y-103279897D01*
X135883761Y-103297490D01*
X135892981Y-103306702D01*
X135923411Y-103342903D01*
X135927870Y-103345871D01*
X136007747Y-103399041D01*
X136031977Y-103415170D01*
X136156462Y-103454062D01*
X136223564Y-103455292D01*
X136281496Y-103456354D01*
X136281498Y-103456354D01*
X136286858Y-103456452D01*
X136292029Y-103455042D01*
X136292031Y-103455042D01*
X136359790Y-103436569D01*
X136412685Y-103422148D01*
X136414887Y-103420796D01*
X136465089Y-103417815D01*
X136474010Y-103421101D01*
X136539111Y-103449882D01*
X136544729Y-103450537D01*
X136562834Y-103452648D01*
X136562835Y-103452648D01*
X136564996Y-103452900D01*
X137680004Y-103452900D01*
X137682211Y-103452637D01*
X137682218Y-103452637D01*
X137700809Y-103450425D01*
X137700811Y-103450424D01*
X137706412Y-103449758D01*
X137809536Y-103403952D01*
X137874569Y-103338806D01*
X137884351Y-103329007D01*
X137884352Y-103329006D01*
X137889256Y-103324093D01*
X137894048Y-103313255D01*
X137932594Y-103226064D01*
X137934882Y-103220889D01*
X137937900Y-103195004D01*
X137937900Y-102804996D01*
X137937146Y-102798654D01*
X137935425Y-102784191D01*
X137935424Y-102784189D01*
X137934758Y-102778588D01*
X137923670Y-102753625D01*
X137920127Y-102702308D01*
X137950400Y-102660719D01*
X137992396Y-102647900D01*
X138527659Y-102647900D01*
X138575997Y-102665493D01*
X138601717Y-102710042D01*
X138596438Y-102753506D01*
X138585118Y-102779111D01*
X138582100Y-102804996D01*
X138582100Y-103195004D01*
X138582363Y-103197211D01*
X138582363Y-103197218D01*
X138584511Y-103215271D01*
X138585242Y-103221412D01*
X138631048Y-103324536D01*
X138635959Y-103329438D01*
X138705683Y-103399041D01*
X138710907Y-103404256D01*
X138717257Y-103407063D01*
X138717258Y-103407064D01*
X138751378Y-103422148D01*
X138814111Y-103449882D01*
X138819729Y-103450537D01*
X138837834Y-103452648D01*
X138837835Y-103452648D01*
X138839996Y-103452900D01*
X139955004Y-103452900D01*
X139955004Y-103453376D01*
X140002598Y-103467571D01*
X140030909Y-103510520D01*
X140032319Y-103518186D01*
X140036963Y-103553698D01*
X140039119Y-103558598D01*
X140077365Y-103645519D01*
X140089488Y-103673072D01*
X140173407Y-103772906D01*
X140177866Y-103775874D01*
X140260393Y-103830808D01*
X140281973Y-103845173D01*
X140406458Y-103884065D01*
X140473560Y-103885295D01*
X140531492Y-103886357D01*
X140531494Y-103886357D01*
X140536854Y-103886455D01*
X140542025Y-103885045D01*
X140542027Y-103885045D01*
X140624695Y-103862507D01*
X140662681Y-103852151D01*
X140773822Y-103783910D01*
X140786931Y-103769428D01*
X140832411Y-103745397D01*
X140842683Y-103744692D01*
X147884643Y-103744692D01*
X147889405Y-103745042D01*
X147893611Y-103746486D01*
X147900546Y-103746226D01*
X147900549Y-103746226D01*
X147939983Y-103744745D01*
X147942804Y-103744692D01*
X147961239Y-103744692D01*
X147964644Y-103744058D01*
X147966962Y-103743844D01*
X147971051Y-103743579D01*
X147990869Y-103742835D01*
X147990871Y-103742834D01*
X147997809Y-103742574D01*
X148004187Y-103739834D01*
X148004191Y-103739833D01*
X148009402Y-103737594D01*
X148025314Y-103732760D01*
X148030889Y-103731722D01*
X148030896Y-103731719D01*
X148037716Y-103730449D01*
X148043624Y-103726807D01*
X148043627Y-103726806D01*
X148059899Y-103716776D01*
X148069671Y-103711699D01*
X148078015Y-103708114D01*
X148093612Y-103701413D01*
X148098165Y-103697673D01*
X148103633Y-103692205D01*
X148117345Y-103681365D01*
X148126479Y-103675735D01*
X148143634Y-103653175D01*
X148150319Y-103645519D01*
X150303912Y-101491926D01*
X150350532Y-101470186D01*
X150357086Y-101469900D01*
X158372914Y-101469900D01*
X158421252Y-101487493D01*
X158426088Y-101491926D01*
X158988493Y-102054332D01*
X159547631Y-102613470D01*
X159550753Y-102617086D01*
X159552705Y-102621080D01*
X159557793Y-102625800D01*
X159557794Y-102625801D01*
X159586726Y-102652639D01*
X159588758Y-102654597D01*
X159601793Y-102667632D01*
X159604650Y-102669592D01*
X159606453Y-102671090D01*
X159609527Y-102673789D01*
X159613863Y-102677812D01*
X159624060Y-102687272D01*
X159624062Y-102687274D01*
X159629150Y-102691993D01*
X159640870Y-102696668D01*
X159655538Y-102704501D01*
X159665942Y-102711638D01*
X159672696Y-102713241D01*
X159672699Y-102713242D01*
X159691291Y-102717653D01*
X159701789Y-102720972D01*
X159725998Y-102730631D01*
X159731862Y-102731206D01*
X159739599Y-102731206D01*
X159756962Y-102733238D01*
X159767396Y-102735714D01*
X159774274Y-102734778D01*
X159774275Y-102734778D01*
X159795472Y-102731893D01*
X159805613Y-102731206D01*
X161235423Y-102731206D01*
X161283761Y-102748799D01*
X161292981Y-102758011D01*
X161323411Y-102794212D01*
X161325569Y-102795649D01*
X161349335Y-102839973D01*
X161350104Y-102850698D01*
X161350104Y-102876562D01*
X161332511Y-102924900D01*
X161322775Y-102933743D01*
X161321230Y-102934429D01*
X161316329Y-102939339D01*
X161316327Y-102939340D01*
X161249047Y-103006738D01*
X161244142Y-103011652D01*
X161200022Y-103111448D01*
X161197104Y-103136476D01*
X161197105Y-103563517D01*
X161200142Y-103589052D01*
X161244436Y-103688771D01*
X161260765Y-103705071D01*
X161316445Y-103760654D01*
X161321659Y-103765859D01*
X161328009Y-103768666D01*
X161328010Y-103768667D01*
X161344312Y-103775874D01*
X161421455Y-103809979D01*
X161427073Y-103810634D01*
X161444321Y-103812645D01*
X161444322Y-103812645D01*
X161446483Y-103812897D01*
X161628291Y-103812897D01*
X161813524Y-103812896D01*
X161839059Y-103809859D01*
X161938778Y-103765565D01*
X161996129Y-103708114D01*
X162010961Y-103693256D01*
X162010962Y-103693255D01*
X162015866Y-103688342D01*
X162018952Y-103681363D01*
X162034798Y-103645519D01*
X162059986Y-103588546D01*
X162062904Y-103563518D01*
X162062903Y-103136477D01*
X162059866Y-103110942D01*
X162015572Y-103011223D01*
X161976819Y-102972538D01*
X161943262Y-102939039D01*
X161943261Y-102939038D01*
X161938349Y-102934135D01*
X161938974Y-102933509D01*
X161912673Y-102896770D01*
X161909904Y-102876550D01*
X161909904Y-102849577D01*
X161929351Y-102799112D01*
X162007751Y-102712497D01*
X162007752Y-102712496D01*
X162011346Y-102708525D01*
X162022353Y-102685808D01*
X162043632Y-102641886D01*
X162068211Y-102591156D01*
X162089849Y-102462544D01*
X162089986Y-102451306D01*
X162077864Y-102366660D01*
X162072257Y-102327507D01*
X162072256Y-102327503D01*
X162071497Y-102322204D01*
X162063269Y-102304106D01*
X162054300Y-102284380D01*
X164940052Y-102284380D01*
X164940746Y-102289687D01*
X164940746Y-102289690D01*
X164944998Y-102322204D01*
X164956963Y-102413698D01*
X164959119Y-102418598D01*
X165004897Y-102522637D01*
X165009488Y-102533072D01*
X165093407Y-102632906D01*
X165115609Y-102647685D01*
X165181661Y-102691652D01*
X165201973Y-102705173D01*
X165326458Y-102744065D01*
X165393560Y-102745295D01*
X165451492Y-102746357D01*
X165451494Y-102746357D01*
X165456854Y-102746455D01*
X165462025Y-102745045D01*
X165462027Y-102745045D01*
X165529786Y-102726572D01*
X165582681Y-102712151D01*
X165678060Y-102653588D01*
X165689257Y-102646713D01*
X165693822Y-102643910D01*
X165697414Y-102639942D01*
X165697416Y-102639940D01*
X165777747Y-102551191D01*
X165777748Y-102551190D01*
X165781342Y-102547219D01*
X165786209Y-102537175D01*
X165826454Y-102454108D01*
X165838207Y-102429850D01*
X165859845Y-102301238D01*
X165859982Y-102290000D01*
X165847801Y-102204942D01*
X165842253Y-102166201D01*
X165842252Y-102166197D01*
X165841493Y-102160898D01*
X165837310Y-102151696D01*
X165789732Y-102047055D01*
X165789731Y-102047054D01*
X165787513Y-102042175D01*
X165783450Y-102037459D01*
X165705881Y-101947436D01*
X165702381Y-101943374D01*
X165592940Y-101872439D01*
X165517334Y-101849828D01*
X165473124Y-101836606D01*
X165473121Y-101836606D01*
X165467990Y-101835071D01*
X165462635Y-101835038D01*
X165462633Y-101835038D01*
X165404142Y-101834681D01*
X165337573Y-101834274D01*
X165212175Y-101870113D01*
X165101877Y-101939706D01*
X165015544Y-102037459D01*
X165013268Y-102042306D01*
X165013267Y-102042308D01*
X165009312Y-102050732D01*
X164960117Y-102155514D01*
X164940052Y-102284380D01*
X162054300Y-102284380D01*
X162041499Y-102256227D01*
X162037508Y-102204942D01*
X162067415Y-102163091D01*
X162109955Y-102149902D01*
X163989433Y-102149902D01*
X163994195Y-102150252D01*
X163998401Y-102151696D01*
X164005336Y-102151436D01*
X164005339Y-102151436D01*
X164044773Y-102149955D01*
X164047594Y-102149902D01*
X164066029Y-102149902D01*
X164069434Y-102149268D01*
X164071752Y-102149054D01*
X164075841Y-102148789D01*
X164095659Y-102148045D01*
X164095661Y-102148044D01*
X164102599Y-102147784D01*
X164108977Y-102145044D01*
X164108981Y-102145043D01*
X164114192Y-102142804D01*
X164130104Y-102137970D01*
X164135679Y-102136932D01*
X164135686Y-102136929D01*
X164142506Y-102135659D01*
X164148414Y-102132017D01*
X164148417Y-102132016D01*
X164164689Y-102121986D01*
X164174461Y-102116909D01*
X164179269Y-102114843D01*
X164198402Y-102106623D01*
X164202955Y-102102883D01*
X164208423Y-102097415D01*
X164222135Y-102086575D01*
X164231269Y-102080945D01*
X164248421Y-102058389D01*
X164255106Y-102050732D01*
X164614468Y-101691371D01*
X164618080Y-101688253D01*
X164622074Y-101686301D01*
X164644220Y-101662428D01*
X164653634Y-101652279D01*
X164655592Y-101650247D01*
X164668626Y-101637213D01*
X164670586Y-101634356D01*
X164672084Y-101632553D01*
X164674789Y-101629473D01*
X164688266Y-101614946D01*
X164688268Y-101614944D01*
X164692987Y-101609856D01*
X164697662Y-101598136D01*
X164705495Y-101583468D01*
X164712632Y-101573064D01*
X164714235Y-101566310D01*
X164714236Y-101566307D01*
X164718254Y-101549372D01*
X164718647Y-101547714D01*
X164721966Y-101537217D01*
X164731625Y-101513008D01*
X164732200Y-101507144D01*
X164732200Y-101499407D01*
X164734232Y-101482043D01*
X164735105Y-101478363D01*
X164736708Y-101471610D01*
X164732887Y-101443534D01*
X164732200Y-101433393D01*
X164732200Y-100430341D01*
X164751647Y-100379877D01*
X164830049Y-100293259D01*
X164830052Y-100293255D01*
X164833647Y-100289283D01*
X164835983Y-100284461D01*
X164835986Y-100284457D01*
X164865456Y-100223630D01*
X164902365Y-100187800D01*
X164953670Y-100184077D01*
X164974800Y-100193818D01*
X165067313Y-100255399D01*
X165081983Y-100265164D01*
X165206468Y-100304056D01*
X165273570Y-100305286D01*
X165331502Y-100306348D01*
X165331504Y-100306348D01*
X165336864Y-100306446D01*
X165342035Y-100305036D01*
X165342037Y-100305036D01*
X165409796Y-100286563D01*
X165462691Y-100272142D01*
X165573832Y-100203901D01*
X165577424Y-100199933D01*
X165577426Y-100199931D01*
X165661352Y-100107210D01*
X165662520Y-100108267D01*
X165698646Y-100082015D01*
X165719381Y-100079100D01*
X168052988Y-100079100D01*
X168056925Y-100079203D01*
X168097587Y-100081334D01*
X168120698Y-100072463D01*
X168131990Y-100069118D01*
X168156213Y-100063969D01*
X168162606Y-100059324D01*
X168162608Y-100059323D01*
X168163200Y-100058893D01*
X168180450Y-100049527D01*
X168181132Y-100049265D01*
X168181133Y-100049264D01*
X168188512Y-100046432D01*
X168206008Y-100028936D01*
X168214980Y-100021272D01*
X168228613Y-100011367D01*
X168235006Y-100006722D01*
X168239324Y-99999243D01*
X168251275Y-99983669D01*
X168659329Y-99575615D01*
X173424319Y-99575615D01*
X173424337Y-100066357D01*
X173424366Y-100893681D01*
X173427975Y-100927241D01*
X173439361Y-100979578D01*
X173474318Y-101049413D01*
X173520810Y-101103069D01*
X173595656Y-101151171D01*
X173663776Y-101171174D01*
X173682751Y-101173903D01*
X173705602Y-101177189D01*
X173705609Y-101177189D01*
X173708262Y-101177571D01*
X174374569Y-101177581D01*
X174557714Y-101177584D01*
X174558455Y-101177584D01*
X174559189Y-101177554D01*
X174559200Y-101177554D01*
X174562886Y-101177404D01*
X174571246Y-101177065D01*
X174571971Y-101177006D01*
X174571989Y-101177005D01*
X174588160Y-101175691D01*
X174588165Y-101175690D01*
X174591600Y-101175411D01*
X174647185Y-101160358D01*
X174711180Y-101129615D01*
X174777273Y-101070058D01*
X174800379Y-101032521D01*
X174811566Y-101014347D01*
X174811567Y-101014344D01*
X174813712Y-101010860D01*
X174817883Y-100998837D01*
X174823061Y-100987200D01*
X174824172Y-100985182D01*
X174824435Y-100985298D01*
X174851002Y-100925206D01*
X174866558Y-100902487D01*
X174882306Y-100886711D01*
X174905001Y-100871113D01*
X174905253Y-100871001D01*
X174926698Y-100861476D01*
X174957224Y-100855001D01*
X175140357Y-100855000D01*
X175322721Y-100855000D01*
X175353128Y-100861422D01*
X175374795Y-100871001D01*
X175397514Y-100886556D01*
X175413291Y-100902306D01*
X175428886Y-100924996D01*
X175447004Y-100965785D01*
X175451439Y-100978921D01*
X175452421Y-100983053D01*
X175458551Y-100999935D01*
X175487636Y-101049444D01*
X175489889Y-101052044D01*
X175530580Y-101099005D01*
X175534128Y-101103100D01*
X175608973Y-101151202D01*
X175677092Y-101171205D01*
X175679751Y-101171587D01*
X175679754Y-101171588D01*
X175699335Y-101174403D01*
X175721579Y-101177602D01*
X175855594Y-101177604D01*
X176006902Y-101177606D01*
X176055239Y-101195200D01*
X176080959Y-101239749D01*
X176082101Y-101252806D01*
X176082101Y-101671400D01*
X176064508Y-101719738D01*
X176019959Y-101745458D01*
X176006901Y-101746600D01*
X175551993Y-101746600D01*
X175503655Y-101729007D01*
X175498865Y-101724621D01*
X175483260Y-101709043D01*
X175483259Y-101709042D01*
X175478346Y-101704138D01*
X175378550Y-101660018D01*
X175355778Y-101657363D01*
X175355684Y-101657352D01*
X175355683Y-101657352D01*
X175353522Y-101657100D01*
X175141994Y-101657100D01*
X174926481Y-101657101D01*
X174900946Y-101660138D01*
X174801227Y-101704432D01*
X174724139Y-101781655D01*
X174680019Y-101881451D01*
X174677101Y-101906479D01*
X174677102Y-102273520D01*
X174680139Y-102299055D01*
X174724433Y-102398774D01*
X174759120Y-102433400D01*
X174796442Y-102470657D01*
X174801656Y-102475862D01*
X174901452Y-102519982D01*
X174907070Y-102520637D01*
X174924318Y-102522648D01*
X174924319Y-102522648D01*
X174926480Y-102522900D01*
X175138008Y-102522900D01*
X175353521Y-102522899D01*
X175379056Y-102519862D01*
X175478775Y-102475568D01*
X175498836Y-102455472D01*
X175545438Y-102433692D01*
X175552057Y-102433400D01*
X176010223Y-102433400D01*
X176058561Y-102450993D01*
X176084497Y-102496836D01*
X176097044Y-102576055D01*
X176109271Y-102600051D01*
X176145467Y-102671090D01*
X176154985Y-102689771D01*
X176245230Y-102780016D01*
X176250504Y-102782703D01*
X176250507Y-102782705D01*
X176279947Y-102797705D01*
X176358946Y-102837957D01*
X176364793Y-102838883D01*
X176450375Y-102852438D01*
X176450377Y-102852438D01*
X176453293Y-102852900D01*
X177266709Y-102852900D01*
X177269625Y-102852438D01*
X177269627Y-102852438D01*
X177355209Y-102838883D01*
X177361056Y-102837957D01*
X177440055Y-102797705D01*
X177469495Y-102782705D01*
X177469498Y-102782703D01*
X177474772Y-102780016D01*
X177565017Y-102689771D01*
X177574536Y-102671090D01*
X177610731Y-102600051D01*
X177622958Y-102576055D01*
X177637901Y-102481708D01*
X177637901Y-100962200D01*
X177640649Y-100942974D01*
X177640578Y-100942959D01*
X177640794Y-100941956D01*
X177640912Y-100941134D01*
X177640977Y-100940914D01*
X177641897Y-100937760D01*
X177642333Y-100934696D01*
X177645489Y-100912484D01*
X177648221Y-100893262D01*
X177648211Y-100886711D01*
X177647373Y-100375390D01*
X177647214Y-100278435D01*
X177643578Y-100245004D01*
X177638088Y-100219866D01*
X177633194Y-100197454D01*
X177633193Y-100197451D01*
X177632192Y-100192868D01*
X177630091Y-100188675D01*
X177630090Y-100188672D01*
X177599366Y-100127356D01*
X177599364Y-100127353D01*
X177597261Y-100123156D01*
X177550768Y-100069500D01*
X177475920Y-100021398D01*
X177418037Y-100004402D01*
X177410374Y-100002152D01*
X177410373Y-100002152D01*
X177407799Y-100001396D01*
X177405151Y-100001015D01*
X177405145Y-100001014D01*
X177365974Y-99995382D01*
X177365968Y-99995382D01*
X177363314Y-99995000D01*
X177125165Y-99995000D01*
X177094760Y-99988579D01*
X177069460Y-99977394D01*
X177046745Y-99961841D01*
X177015538Y-99930688D01*
X177010418Y-99926569D01*
X177004006Y-99921412D01*
X176989231Y-99909527D01*
X176978856Y-99902872D01*
X176958359Y-99889726D01*
X176944141Y-99880606D01*
X176926672Y-99874809D01*
X176874480Y-99857489D01*
X176874477Y-99857488D01*
X176870019Y-99856009D01*
X176862800Y-99855499D01*
X176861502Y-99854920D01*
X176860714Y-99854764D01*
X176860750Y-99854584D01*
X176815823Y-99834542D01*
X176793307Y-99788291D01*
X176792901Y-99780486D01*
X176792901Y-98779996D01*
X176791725Y-98770107D01*
X176790426Y-98759191D01*
X176790425Y-98759189D01*
X176789759Y-98753588D01*
X176743953Y-98650464D01*
X176695851Y-98602446D01*
X176669008Y-98575649D01*
X176669007Y-98575648D01*
X176664094Y-98570744D01*
X176657744Y-98567937D01*
X176657743Y-98567936D01*
X176569329Y-98528849D01*
X176560890Y-98525118D01*
X176537261Y-98522363D01*
X176537167Y-98522352D01*
X176537166Y-98522352D01*
X176535005Y-98522100D01*
X176144997Y-98522100D01*
X176142790Y-98522363D01*
X176142783Y-98522363D01*
X176124192Y-98524575D01*
X176124190Y-98524576D01*
X176118589Y-98525242D01*
X176015465Y-98571048D01*
X176010563Y-98575959D01*
X175941081Y-98645562D01*
X175935745Y-98650907D01*
X175932938Y-98657257D01*
X175932937Y-98657258D01*
X175922835Y-98680108D01*
X175890119Y-98754111D01*
X175889464Y-98759729D01*
X175887874Y-98773370D01*
X175887101Y-98779996D01*
X175887101Y-98910297D01*
X175869508Y-98958635D01*
X175824959Y-98984355D01*
X175774301Y-98975422D01*
X175758727Y-98963471D01*
X175614541Y-98819285D01*
X175592801Y-98772665D01*
X175592515Y-98766111D01*
X175592515Y-98632228D01*
X175589528Y-98607124D01*
X175545991Y-98509107D01*
X175541080Y-98504205D01*
X175541079Y-98504203D01*
X175485087Y-98448310D01*
X175463307Y-98401709D01*
X175463015Y-98395089D01*
X175463015Y-98004993D01*
X175480608Y-97956655D01*
X175484994Y-97951865D01*
X175541375Y-97895385D01*
X175541376Y-97895384D01*
X175546280Y-97890471D01*
X175554184Y-97872594D01*
X175581749Y-97810241D01*
X175589646Y-97792379D01*
X175592515Y-97767772D01*
X175592515Y-97412228D01*
X175589528Y-97387124D01*
X175545991Y-97289107D01*
X175541080Y-97284205D01*
X175541079Y-97284203D01*
X175475000Y-97218240D01*
X175474999Y-97218239D01*
X175470086Y-97213335D01*
X175463736Y-97210528D01*
X175463735Y-97210527D01*
X175405926Y-97184970D01*
X175371994Y-97169969D01*
X175362990Y-97168919D01*
X175349549Y-97167352D01*
X175349548Y-97167352D01*
X175347387Y-97167100D01*
X174891843Y-97167100D01*
X174889636Y-97167363D01*
X174889629Y-97167363D01*
X174873467Y-97169287D01*
X174866739Y-97170087D01*
X174768722Y-97213624D01*
X174763820Y-97218535D01*
X174763818Y-97218536D01*
X174697855Y-97284615D01*
X174692950Y-97289529D01*
X174690143Y-97295879D01*
X174690142Y-97295880D01*
X174678859Y-97321403D01*
X174649584Y-97387621D01*
X174646715Y-97412228D01*
X174646715Y-97767772D01*
X174646978Y-97769979D01*
X174646978Y-97769986D01*
X174647712Y-97776152D01*
X174649702Y-97792876D01*
X174693239Y-97890893D01*
X174698150Y-97895795D01*
X174698151Y-97895797D01*
X174736265Y-97933844D01*
X174752750Y-97950299D01*
X174754143Y-97951690D01*
X174775923Y-97998291D01*
X174776215Y-98004911D01*
X174776215Y-98395007D01*
X174758622Y-98443345D01*
X174754236Y-98448135D01*
X174697855Y-98504615D01*
X174692950Y-98509529D01*
X174690143Y-98515879D01*
X174690142Y-98515880D01*
X174668484Y-98564871D01*
X174649584Y-98607621D01*
X174646715Y-98632228D01*
X174646715Y-98987772D01*
X174646978Y-98989979D01*
X174646978Y-98989986D01*
X174647468Y-98994100D01*
X174649702Y-99012876D01*
X174693239Y-99110893D01*
X174698150Y-99115795D01*
X174698151Y-99115797D01*
X174739853Y-99157425D01*
X174761633Y-99204026D01*
X174748363Y-99253725D01*
X174706252Y-99283266D01*
X174686968Y-99285846D01*
X174394581Y-99286793D01*
X173707300Y-99289017D01*
X173673996Y-99292679D01*
X173672034Y-99293109D01*
X173672029Y-99293110D01*
X173626636Y-99303062D01*
X173626634Y-99303063D01*
X173622058Y-99304066D01*
X173617873Y-99306165D01*
X173617871Y-99306166D01*
X173556654Y-99336873D01*
X173556652Y-99336874D01*
X173552466Y-99338974D01*
X173498812Y-99385469D01*
X173495905Y-99389993D01*
X173495904Y-99389994D01*
X173458691Y-99447904D01*
X173450714Y-99460317D01*
X173430714Y-99528438D01*
X173424319Y-99572925D01*
X173424319Y-99575615D01*
X168659329Y-99575615D01*
X170093818Y-98141126D01*
X170140438Y-98119386D01*
X170146992Y-98119100D01*
X170314541Y-98119100D01*
X170362879Y-98136693D01*
X170388815Y-98182536D01*
X170402043Y-98266055D01*
X170423315Y-98307804D01*
X170455849Y-98371655D01*
X170459984Y-98379771D01*
X170550229Y-98470016D01*
X170555505Y-98472704D01*
X170555506Y-98472705D01*
X170597923Y-98494317D01*
X170663945Y-98527957D01*
X170669792Y-98528883D01*
X170755374Y-98542438D01*
X170755376Y-98542438D01*
X170758292Y-98542900D01*
X172821708Y-98542900D01*
X172824624Y-98542438D01*
X172824626Y-98542438D01*
X172910208Y-98528883D01*
X172916055Y-98527957D01*
X172982077Y-98494317D01*
X173024494Y-98472705D01*
X173024495Y-98472704D01*
X173029771Y-98470016D01*
X173120016Y-98379771D01*
X173124152Y-98371655D01*
X173156685Y-98307804D01*
X173177957Y-98266055D01*
X173187045Y-98208674D01*
X173192438Y-98174626D01*
X173192438Y-98174624D01*
X173192900Y-98171708D01*
X173192900Y-97608292D01*
X173177957Y-97513945D01*
X173127265Y-97414456D01*
X173122705Y-97405506D01*
X173122704Y-97405505D01*
X173120016Y-97400229D01*
X173029771Y-97309984D01*
X173002091Y-97295880D01*
X172970571Y-97279820D01*
X172916055Y-97252043D01*
X172873639Y-97245325D01*
X172824626Y-97237562D01*
X172824624Y-97237562D01*
X172821708Y-97237100D01*
X170758292Y-97237100D01*
X170755376Y-97237562D01*
X170755374Y-97237562D01*
X170706361Y-97245325D01*
X170663945Y-97252043D01*
X170609429Y-97279820D01*
X170577910Y-97295880D01*
X170550229Y-97309984D01*
X170459984Y-97400229D01*
X170457296Y-97405505D01*
X170457295Y-97405506D01*
X170452735Y-97414456D01*
X170402043Y-97513945D01*
X170389279Y-97594536D01*
X170388815Y-97597464D01*
X170363877Y-97642454D01*
X170314541Y-97660900D01*
X170028928Y-97660900D01*
X170024993Y-97660797D01*
X169992200Y-97659078D01*
X169992197Y-97659078D01*
X169984309Y-97658665D01*
X169976932Y-97661497D01*
X169976930Y-97661497D01*
X169961205Y-97667533D01*
X169949893Y-97670885D01*
X169925683Y-97676031D01*
X169919286Y-97680679D01*
X169918696Y-97681107D01*
X169901446Y-97690473D01*
X169900764Y-97690735D01*
X169900763Y-97690736D01*
X169893384Y-97693568D01*
X169875888Y-97711064D01*
X169866916Y-97718728D01*
X169846890Y-97733278D01*
X169842938Y-97740123D01*
X169842572Y-97740757D01*
X169830621Y-97756331D01*
X168474022Y-99112929D01*
X168427402Y-99134669D01*
X168377715Y-99121355D01*
X168352392Y-99090881D01*
X168334672Y-99051909D01*
X168307513Y-98992175D01*
X168303450Y-98987459D01*
X168225881Y-98897436D01*
X168222381Y-98893374D01*
X168112940Y-98822439D01*
X168037856Y-98799984D01*
X167993124Y-98786606D01*
X167993121Y-98786606D01*
X167987990Y-98785071D01*
X167982635Y-98785038D01*
X167982633Y-98785038D01*
X167924142Y-98784681D01*
X167857573Y-98784274D01*
X167732175Y-98820113D01*
X167621877Y-98889706D01*
X167535544Y-98987459D01*
X167533268Y-98992306D01*
X167533267Y-98992308D01*
X167521188Y-99018036D01*
X167480117Y-99105514D01*
X167460052Y-99234380D01*
X167460746Y-99239687D01*
X167460746Y-99239690D01*
X167467647Y-99292459D01*
X167476963Y-99363698D01*
X167479119Y-99368598D01*
X167513394Y-99446494D01*
X167529488Y-99483072D01*
X167532937Y-99487175D01*
X167541458Y-99497312D01*
X167559094Y-99545634D01*
X167541543Y-99593987D01*
X167497017Y-99619746D01*
X167483894Y-99620900D01*
X165718134Y-99620900D01*
X165669796Y-99603307D01*
X165661165Y-99594787D01*
X165585891Y-99507427D01*
X165582391Y-99503365D01*
X165472950Y-99432430D01*
X165410475Y-99413746D01*
X165353134Y-99396597D01*
X165353131Y-99396597D01*
X165348000Y-99395062D01*
X165342645Y-99395029D01*
X165342643Y-99395029D01*
X165284152Y-99394672D01*
X165217583Y-99394265D01*
X165092185Y-99430104D01*
X164981887Y-99499697D01*
X164895554Y-99597450D01*
X164893278Y-99602297D01*
X164893277Y-99602299D01*
X164867353Y-99657516D01*
X164830884Y-99693794D01*
X164779629Y-99698143D01*
X164754987Y-99684973D01*
X164754686Y-99685438D01*
X164750806Y-99682923D01*
X164645245Y-99614503D01*
X164579319Y-99594787D01*
X164525429Y-99578670D01*
X164525426Y-99578670D01*
X164520295Y-99577135D01*
X164514940Y-99577102D01*
X164514938Y-99577102D01*
X164456447Y-99576745D01*
X164389878Y-99576338D01*
X164264480Y-99612177D01*
X164154182Y-99681770D01*
X164067849Y-99779523D01*
X164065573Y-99784370D01*
X164065572Y-99784372D01*
X164051476Y-99814396D01*
X164012422Y-99897578D01*
X163992357Y-100026444D01*
X163993051Y-100031751D01*
X163993051Y-100031754D01*
X163998098Y-100070346D01*
X164009268Y-100155762D01*
X164011424Y-100160662D01*
X164059373Y-100269635D01*
X164061793Y-100275136D01*
X164145712Y-100374970D01*
X164147865Y-100376403D01*
X164171631Y-100420723D01*
X164172400Y-100431451D01*
X164172400Y-101310614D01*
X164154807Y-101358952D01*
X164150374Y-101363788D01*
X163946086Y-101568076D01*
X163899466Y-101589816D01*
X163892912Y-101590102D01*
X159937090Y-101590102D01*
X159888752Y-101572509D01*
X159883916Y-101568076D01*
X159207511Y-100891671D01*
X158530220Y-100214381D01*
X158508480Y-100167761D01*
X158521794Y-100118074D01*
X158544046Y-100097123D01*
X158621562Y-100049527D01*
X158637554Y-100039708D01*
X158641146Y-100035740D01*
X158641148Y-100035738D01*
X158721479Y-99946989D01*
X158721480Y-99946988D01*
X158725074Y-99943017D01*
X158731048Y-99930688D01*
X158758121Y-99874809D01*
X158781939Y-99825648D01*
X158803577Y-99697036D01*
X158803714Y-99685798D01*
X158795916Y-99631347D01*
X158785985Y-99561999D01*
X158785984Y-99561995D01*
X158785225Y-99556696D01*
X158781191Y-99547822D01*
X158733464Y-99442853D01*
X158733463Y-99442852D01*
X158731245Y-99437973D01*
X158727182Y-99433257D01*
X158649613Y-99343234D01*
X158646113Y-99339172D01*
X158536672Y-99268237D01*
X158474197Y-99249553D01*
X158416856Y-99232404D01*
X158416853Y-99232404D01*
X158411722Y-99230869D01*
X158406367Y-99230836D01*
X158406365Y-99230836D01*
X158347874Y-99230479D01*
X158281305Y-99230072D01*
X158155907Y-99265911D01*
X158045609Y-99335504D01*
X157959276Y-99433257D01*
X157957000Y-99438104D01*
X157956999Y-99438106D01*
X157953425Y-99445719D01*
X157903849Y-99551312D01*
X157883784Y-99680178D01*
X157884478Y-99685485D01*
X157884478Y-99685488D01*
X157887151Y-99705924D01*
X157900695Y-99809496D01*
X157902851Y-99814396D01*
X157937339Y-99892776D01*
X157953220Y-99928870D01*
X157956668Y-99932972D01*
X157968042Y-99946503D01*
X157985677Y-99994825D01*
X157968125Y-100043178D01*
X157923599Y-100068936D01*
X157910477Y-100070090D01*
X153787393Y-100070090D01*
X153739055Y-100052497D01*
X153734219Y-100048065D01*
X152975154Y-99289011D01*
X152409661Y-98723526D01*
X152387921Y-98676907D01*
X152388677Y-98657876D01*
X152389361Y-98653813D01*
X152389362Y-98653804D01*
X152389843Y-98650944D01*
X152389980Y-98639706D01*
X152379702Y-98567936D01*
X152372251Y-98515907D01*
X152372250Y-98515903D01*
X152371491Y-98510604D01*
X152341492Y-98444624D01*
X152337501Y-98393341D01*
X152367408Y-98351489D01*
X152409948Y-98338300D01*
X155487048Y-98338300D01*
X155490985Y-98338403D01*
X155531647Y-98340534D01*
X155554758Y-98331663D01*
X155566050Y-98328318D01*
X155590273Y-98323169D01*
X155596666Y-98318524D01*
X155596668Y-98318523D01*
X155597260Y-98318093D01*
X155614510Y-98308727D01*
X155615192Y-98308465D01*
X155615193Y-98308464D01*
X155622572Y-98305632D01*
X155640068Y-98288136D01*
X155649040Y-98280472D01*
X155662673Y-98270567D01*
X155669066Y-98265922D01*
X155673384Y-98258443D01*
X155685335Y-98242869D01*
X156993835Y-96934369D01*
X157790053Y-96934369D01*
X157790747Y-96939676D01*
X157790747Y-96939679D01*
X157797707Y-96992900D01*
X157806964Y-97063687D01*
X157809120Y-97068587D01*
X157856038Y-97175217D01*
X157859489Y-97183061D01*
X157943408Y-97282895D01*
X157952740Y-97289107D01*
X158042824Y-97349071D01*
X158051974Y-97355162D01*
X158176459Y-97394054D01*
X158243561Y-97395284D01*
X158301493Y-97396346D01*
X158301495Y-97396346D01*
X158306855Y-97396444D01*
X158312026Y-97395034D01*
X158312028Y-97395034D01*
X158399175Y-97371275D01*
X158432682Y-97362140D01*
X158543823Y-97293899D01*
X158547415Y-97289931D01*
X158547417Y-97289929D01*
X158627748Y-97201180D01*
X158627749Y-97201179D01*
X158631343Y-97197208D01*
X158635397Y-97188842D01*
X158660994Y-97136009D01*
X158688208Y-97079839D01*
X158709846Y-96951227D01*
X158709983Y-96939989D01*
X158698278Y-96858259D01*
X158692254Y-96816190D01*
X158692253Y-96816186D01*
X158691494Y-96810887D01*
X158687323Y-96801712D01*
X158639733Y-96697044D01*
X158639732Y-96697043D01*
X158637514Y-96692164D01*
X158633451Y-96687448D01*
X158555882Y-96597425D01*
X158552382Y-96593363D01*
X158442941Y-96522428D01*
X158369656Y-96500511D01*
X158323125Y-96486595D01*
X158323122Y-96486595D01*
X158317991Y-96485060D01*
X158312636Y-96485027D01*
X158312634Y-96485027D01*
X158254143Y-96484670D01*
X158187574Y-96484263D01*
X158062176Y-96520102D01*
X157951878Y-96589695D01*
X157865545Y-96687448D01*
X157863269Y-96692295D01*
X157863268Y-96692297D01*
X157844444Y-96732391D01*
X157810118Y-96805503D01*
X157790053Y-96934369D01*
X156993835Y-96934369D01*
X157622778Y-96305426D01*
X157669398Y-96283686D01*
X157675952Y-96283400D01*
X158685303Y-96283400D01*
X158733641Y-96300993D01*
X158738476Y-96305424D01*
X158805491Y-96372440D01*
X158869927Y-96436876D01*
X158872636Y-96439731D01*
X158899878Y-96469986D01*
X158922495Y-96480056D01*
X158932849Y-96485678D01*
X158953612Y-96499161D01*
X158962077Y-96500502D01*
X158962136Y-96500511D01*
X158980962Y-96506087D01*
X158988851Y-96509600D01*
X159013602Y-96509600D01*
X159025366Y-96510526D01*
X159042000Y-96513161D01*
X159042002Y-96513161D01*
X159049806Y-96514397D01*
X159057438Y-96512352D01*
X159057439Y-96512352D01*
X159058147Y-96512162D01*
X159077610Y-96509600D01*
X160123644Y-96509600D01*
X160127581Y-96509703D01*
X160168243Y-96511834D01*
X160191354Y-96502963D01*
X160202646Y-96499618D01*
X160226869Y-96494469D01*
X160233262Y-96489824D01*
X160233264Y-96489823D01*
X160233856Y-96489393D01*
X160251106Y-96480027D01*
X160251788Y-96479765D01*
X160251789Y-96479764D01*
X160259168Y-96476932D01*
X160276664Y-96459436D01*
X160285636Y-96451772D01*
X160299269Y-96441867D01*
X160305662Y-96437222D01*
X160309980Y-96429743D01*
X160321931Y-96414169D01*
X160575778Y-96160322D01*
X160622398Y-96138582D01*
X160628952Y-96138296D01*
X160978943Y-96138296D01*
X161027281Y-96155889D01*
X161036507Y-96165108D01*
X161041772Y-96171371D01*
X161109633Y-96252102D01*
X161143619Y-96274725D01*
X161204150Y-96315017D01*
X161218199Y-96324369D01*
X161342684Y-96363261D01*
X161409786Y-96364491D01*
X161467718Y-96365553D01*
X161467720Y-96365553D01*
X161473080Y-96365651D01*
X161478251Y-96364241D01*
X161478253Y-96364241D01*
X161565400Y-96340482D01*
X161598907Y-96331347D01*
X161696007Y-96271727D01*
X161705483Y-96265909D01*
X161710048Y-96263106D01*
X161713640Y-96259138D01*
X161713642Y-96259136D01*
X161793973Y-96170387D01*
X161793974Y-96170386D01*
X161797568Y-96166415D01*
X161811074Y-96138540D01*
X161834819Y-96089529D01*
X161854433Y-96049046D01*
X161855322Y-96043762D01*
X161856951Y-96038658D01*
X161859055Y-96039329D01*
X161880188Y-96002072D01*
X161928390Y-95984110D01*
X161976861Y-96001334D01*
X161982138Y-96006134D01*
X162012827Y-96036823D01*
X162034567Y-96083443D01*
X162027724Y-96121954D01*
X162014018Y-96151148D01*
X161993953Y-96280014D01*
X161994647Y-96285321D01*
X161994647Y-96285324D01*
X161999933Y-96325741D01*
X162010864Y-96409332D01*
X162013020Y-96414232D01*
X162060627Y-96522428D01*
X162063389Y-96528706D01*
X162147308Y-96628540D01*
X162191109Y-96657696D01*
X162243090Y-96692297D01*
X162255874Y-96700807D01*
X162380359Y-96739699D01*
X162447461Y-96740929D01*
X162505393Y-96741991D01*
X162505395Y-96741991D01*
X162510755Y-96742089D01*
X162515926Y-96740679D01*
X162515928Y-96740679D01*
X162596443Y-96718728D01*
X162636582Y-96707785D01*
X162747723Y-96639544D01*
X162751315Y-96635576D01*
X162751317Y-96635574D01*
X162831648Y-96546825D01*
X162831649Y-96546824D01*
X162835243Y-96542853D01*
X162837752Y-96537674D01*
X162876448Y-96457807D01*
X162913357Y-96421978D01*
X162964662Y-96418255D01*
X162967675Y-96419392D01*
X162967685Y-96419360D01*
X163092170Y-96458252D01*
X163159272Y-96459482D01*
X163217204Y-96460544D01*
X163217206Y-96460544D01*
X163222566Y-96460642D01*
X163227737Y-96459232D01*
X163227739Y-96459232D01*
X163338003Y-96429171D01*
X163389267Y-96433431D01*
X163425798Y-96469645D01*
X163432348Y-96491972D01*
X163434988Y-96512162D01*
X163446958Y-96603693D01*
X163449114Y-96608593D01*
X163494202Y-96711064D01*
X163499483Y-96723067D01*
X163583402Y-96822901D01*
X163691968Y-96895168D01*
X163816453Y-96934060D01*
X163883555Y-96935290D01*
X163941487Y-96936352D01*
X163941489Y-96936352D01*
X163946849Y-96936450D01*
X163952020Y-96935040D01*
X163952022Y-96935040D01*
X164007587Y-96919891D01*
X166080054Y-96919891D01*
X166080748Y-96925198D01*
X166080748Y-96925201D01*
X166086354Y-96968067D01*
X166096965Y-97049209D01*
X166099121Y-97054109D01*
X166140488Y-97148123D01*
X166149490Y-97168583D01*
X166233409Y-97268417D01*
X166254151Y-97282224D01*
X166332807Y-97334581D01*
X166341975Y-97340684D01*
X166466460Y-97379576D01*
X166533562Y-97380806D01*
X166591494Y-97381868D01*
X166591496Y-97381868D01*
X166596856Y-97381966D01*
X166602027Y-97380556D01*
X166602029Y-97380556D01*
X166689308Y-97356761D01*
X166722683Y-97347662D01*
X166833824Y-97279421D01*
X166837416Y-97275453D01*
X166837418Y-97275451D01*
X166917749Y-97186702D01*
X166917750Y-97186701D01*
X166921344Y-97182730D01*
X166925397Y-97174366D01*
X166958938Y-97105136D01*
X166978209Y-97065361D01*
X166999847Y-96936749D01*
X166999916Y-96931061D01*
X166999949Y-96928421D01*
X166999949Y-96928415D01*
X166999984Y-96925511D01*
X166991056Y-96863173D01*
X166982255Y-96801712D01*
X166982254Y-96801708D01*
X166981495Y-96796409D01*
X166976842Y-96786174D01*
X166929734Y-96682566D01*
X166929733Y-96682565D01*
X166927515Y-96677686D01*
X166923452Y-96672970D01*
X166845883Y-96582947D01*
X166842383Y-96578885D01*
X166732942Y-96507950D01*
X166656293Y-96485027D01*
X166613126Y-96472117D01*
X166613123Y-96472117D01*
X166607992Y-96470582D01*
X166602637Y-96470549D01*
X166602635Y-96470549D01*
X166544144Y-96470192D01*
X166477575Y-96469785D01*
X166352177Y-96505624D01*
X166241879Y-96575217D01*
X166155546Y-96672970D01*
X166153270Y-96677817D01*
X166153269Y-96677819D01*
X166131760Y-96723632D01*
X166100119Y-96791025D01*
X166080054Y-96919891D01*
X164007587Y-96919891D01*
X164026987Y-96914602D01*
X164072676Y-96902146D01*
X164183817Y-96833905D01*
X164187409Y-96829937D01*
X164187411Y-96829935D01*
X164267742Y-96741186D01*
X164267743Y-96741185D01*
X164271337Y-96737214D01*
X164275495Y-96728633D01*
X164305096Y-96667535D01*
X164328202Y-96619845D01*
X164349840Y-96491233D01*
X164349926Y-96484191D01*
X164349942Y-96482905D01*
X164349942Y-96482899D01*
X164349977Y-96479995D01*
X164342170Y-96425484D01*
X164332248Y-96356196D01*
X164332247Y-96356192D01*
X164331488Y-96350893D01*
X164329108Y-96345657D01*
X164279727Y-96237050D01*
X164279726Y-96237049D01*
X164277508Y-96232170D01*
X164262210Y-96214415D01*
X164195876Y-96137431D01*
X164192376Y-96133369D01*
X164082935Y-96062434D01*
X164020460Y-96043750D01*
X163963119Y-96026601D01*
X163963116Y-96026601D01*
X163957985Y-96025066D01*
X163952630Y-96025033D01*
X163952628Y-96025033D01*
X163894137Y-96024676D01*
X163827568Y-96024269D01*
X163785369Y-96036329D01*
X163719279Y-96055218D01*
X163667967Y-96051585D01*
X163630996Y-96015819D01*
X163624175Y-95993581D01*
X163607205Y-95875085D01*
X163602931Y-95865683D01*
X163555444Y-95761242D01*
X163555443Y-95761241D01*
X163553225Y-95756362D01*
X163468093Y-95657561D01*
X163358652Y-95586626D01*
X163359076Y-95585972D01*
X163325755Y-95552879D01*
X163321095Y-95501651D01*
X163326124Y-95488074D01*
X163352187Y-95434281D01*
X163357166Y-95424004D01*
X163366356Y-95369380D01*
X167970043Y-95369380D01*
X167970737Y-95374687D01*
X167970737Y-95374690D01*
X167977245Y-95424456D01*
X167986954Y-95498698D01*
X167989110Y-95503598D01*
X168034958Y-95607796D01*
X168039479Y-95618072D01*
X168123398Y-95717906D01*
X168231964Y-95790173D01*
X168356449Y-95829065D01*
X168423551Y-95830295D01*
X168481483Y-95831357D01*
X168481485Y-95831357D01*
X168486845Y-95831455D01*
X168492016Y-95830045D01*
X168492018Y-95830045D01*
X168559777Y-95811572D01*
X168612672Y-95797151D01*
X168723813Y-95728910D01*
X168727405Y-95724942D01*
X168727407Y-95724940D01*
X168807738Y-95636191D01*
X168807739Y-95636190D01*
X168811333Y-95632219D01*
X168814821Y-95625021D01*
X168843047Y-95566761D01*
X168868198Y-95514850D01*
X168889836Y-95386238D01*
X168889973Y-95375000D01*
X168880237Y-95307017D01*
X168872244Y-95251201D01*
X168872243Y-95251197D01*
X168871484Y-95245898D01*
X168868803Y-95240000D01*
X168819723Y-95132055D01*
X168819722Y-95132054D01*
X168817504Y-95127175D01*
X168813441Y-95122459D01*
X168735872Y-95032436D01*
X168732372Y-95028374D01*
X168622931Y-94957439D01*
X168546603Y-94934612D01*
X168503115Y-94921606D01*
X168503112Y-94921606D01*
X168497981Y-94920071D01*
X168492626Y-94920038D01*
X168492624Y-94920038D01*
X168434133Y-94919681D01*
X168367564Y-94919274D01*
X168242166Y-94955113D01*
X168131868Y-95024706D01*
X168045535Y-95122459D01*
X168043259Y-95127306D01*
X168043258Y-95127308D01*
X168027743Y-95160355D01*
X167990108Y-95240514D01*
X167970043Y-95369380D01*
X163366356Y-95369380D01*
X163378804Y-95295392D01*
X163378941Y-95284154D01*
X163368502Y-95211262D01*
X163361212Y-95160355D01*
X163361211Y-95160351D01*
X163360452Y-95155052D01*
X163343808Y-95118444D01*
X163308691Y-95041209D01*
X163308690Y-95041208D01*
X163306472Y-95036329D01*
X163292594Y-95020222D01*
X163224840Y-94941590D01*
X163221340Y-94937528D01*
X163111899Y-94866593D01*
X163048147Y-94847527D01*
X162992083Y-94830760D01*
X162992080Y-94830760D01*
X162986949Y-94829225D01*
X162981594Y-94829192D01*
X162981592Y-94829192D01*
X162923101Y-94828835D01*
X162856532Y-94828428D01*
X162845182Y-94831672D01*
X162793871Y-94828039D01*
X162771343Y-94812541D01*
X162690233Y-94731431D01*
X162668493Y-94684811D01*
X162681807Y-94635124D01*
X162723944Y-94605619D01*
X162743301Y-94603057D01*
X177401295Y-94582313D01*
X177449657Y-94599838D01*
X177475440Y-94644350D01*
X177476601Y-94657513D01*
X177476601Y-95238008D01*
X177459008Y-95286346D01*
X177454622Y-95291136D01*
X177451561Y-95294203D01*
X177434139Y-95311655D01*
X177431332Y-95318005D01*
X177430664Y-95318980D01*
X177388838Y-95348923D01*
X177337549Y-95344976D01*
X177303653Y-95310811D01*
X177303127Y-95311173D01*
X177301131Y-95308269D01*
X177299892Y-95307020D01*
X177296377Y-95299107D01*
X177291466Y-95294205D01*
X177291465Y-95294203D01*
X177225386Y-95228240D01*
X177225385Y-95228239D01*
X177220472Y-95223335D01*
X177214122Y-95220528D01*
X177214121Y-95220527D01*
X177127555Y-95182257D01*
X177127556Y-95182257D01*
X177122380Y-95179969D01*
X177100029Y-95177363D01*
X177099935Y-95177352D01*
X177099934Y-95177352D01*
X177097773Y-95177100D01*
X176742229Y-95177100D01*
X176740022Y-95177363D01*
X176740015Y-95177363D01*
X176723853Y-95179287D01*
X176717125Y-95180087D01*
X176619108Y-95223624D01*
X176614206Y-95228535D01*
X176614204Y-95228536D01*
X176548241Y-95294615D01*
X176543336Y-95299529D01*
X176540529Y-95305879D01*
X176540528Y-95305880D01*
X176539472Y-95308269D01*
X176499970Y-95397621D01*
X176499315Y-95403239D01*
X176498358Y-95411451D01*
X176497101Y-95422228D01*
X176497101Y-95877772D01*
X176497364Y-95879979D01*
X176497364Y-95879986D01*
X176498383Y-95888549D01*
X176500088Y-95902876D01*
X176543625Y-96000893D01*
X176548536Y-96005795D01*
X176548537Y-96005797D01*
X176611235Y-96068385D01*
X176619530Y-96076665D01*
X176625880Y-96079472D01*
X176625881Y-96079473D01*
X176654310Y-96092041D01*
X176717622Y-96120031D01*
X176723240Y-96120686D01*
X176740067Y-96122648D01*
X176740068Y-96122648D01*
X176742229Y-96122900D01*
X176871401Y-96122900D01*
X176919739Y-96140493D01*
X176945459Y-96185042D01*
X176946601Y-96198100D01*
X176946601Y-96283834D01*
X176929008Y-96332172D01*
X176924622Y-96336962D01*
X176891081Y-96370562D01*
X176885745Y-96375907D01*
X176882937Y-96382258D01*
X176879016Y-96387985D01*
X176877502Y-96386948D01*
X176848090Y-96417562D01*
X176796946Y-96423069D01*
X176754227Y-96394413D01*
X176747809Y-96383318D01*
X176746770Y-96381806D01*
X176743953Y-96375464D01*
X176683401Y-96315017D01*
X176669008Y-96300649D01*
X176669007Y-96300648D01*
X176664094Y-96295744D01*
X176657744Y-96292937D01*
X176657743Y-96292936D01*
X176582458Y-96259653D01*
X176559691Y-96244049D01*
X176325202Y-96009560D01*
X176303462Y-95962940D01*
X176309597Y-95925982D01*
X176320032Y-95902379D01*
X176321082Y-95893375D01*
X176322649Y-95879934D01*
X176322649Y-95879933D01*
X176322901Y-95877772D01*
X176322901Y-95422228D01*
X176321559Y-95410945D01*
X176320581Y-95402730D01*
X176319914Y-95397124D01*
X176276377Y-95299107D01*
X176271466Y-95294205D01*
X176271465Y-95294203D01*
X176205386Y-95228240D01*
X176205385Y-95228239D01*
X176200472Y-95223335D01*
X176194122Y-95220528D01*
X176194121Y-95220527D01*
X176107555Y-95182257D01*
X176107556Y-95182257D01*
X176102380Y-95179969D01*
X176080029Y-95177363D01*
X176079935Y-95177352D01*
X176079934Y-95177352D01*
X176077773Y-95177100D01*
X175722229Y-95177100D01*
X175720022Y-95177363D01*
X175720015Y-95177363D01*
X175703853Y-95179287D01*
X175697125Y-95180087D01*
X175599108Y-95223624D01*
X175594206Y-95228535D01*
X175594204Y-95228536D01*
X175528241Y-95294615D01*
X175523336Y-95299529D01*
X175520529Y-95305879D01*
X175520528Y-95305880D01*
X175519472Y-95308269D01*
X175479970Y-95397621D01*
X175479315Y-95403239D01*
X175478358Y-95411451D01*
X175477101Y-95422228D01*
X175477101Y-95877772D01*
X175477364Y-95879979D01*
X175477364Y-95879986D01*
X175478383Y-95888549D01*
X175480088Y-95902876D01*
X175523625Y-96000893D01*
X175528538Y-96005797D01*
X175528540Y-96005800D01*
X175533461Y-96010713D01*
X175555241Y-96057314D01*
X175555247Y-96070486D01*
X175553204Y-96093836D01*
X175553204Y-96093839D01*
X175552631Y-96100391D01*
X175554334Y-96106747D01*
X175563574Y-96141235D01*
X175564993Y-96147637D01*
X175572333Y-96189261D01*
X175575623Y-96194960D01*
X175576788Y-96198160D01*
X175580836Y-96207935D01*
X175582272Y-96211015D01*
X175583974Y-96217366D01*
X175587747Y-96222754D01*
X175587748Y-96222757D01*
X175608223Y-96252000D01*
X175611746Y-96257529D01*
X175629594Y-96288441D01*
X175629596Y-96288444D01*
X175632884Y-96294138D01*
X175637920Y-96298364D01*
X175637922Y-96298366D01*
X175665265Y-96321309D01*
X175670101Y-96325741D01*
X175865075Y-96520715D01*
X175886815Y-96567335D01*
X175887101Y-96573889D01*
X175887101Y-97620004D01*
X175887364Y-97622211D01*
X175887364Y-97622218D01*
X175889576Y-97640809D01*
X175890243Y-97646412D01*
X175936049Y-97749536D01*
X175971617Y-97785042D01*
X176010684Y-97824041D01*
X176015908Y-97829256D01*
X176022258Y-97832063D01*
X176022259Y-97832064D01*
X176077370Y-97856428D01*
X176119112Y-97874882D01*
X176124730Y-97875537D01*
X176142835Y-97877648D01*
X176142836Y-97877648D01*
X176144997Y-97877900D01*
X176535005Y-97877900D01*
X176537212Y-97877637D01*
X176537219Y-97877637D01*
X176555810Y-97875425D01*
X176555812Y-97875424D01*
X176561413Y-97874758D01*
X176664537Y-97828952D01*
X176717325Y-97776072D01*
X176739352Y-97754007D01*
X176739353Y-97754006D01*
X176744257Y-97749093D01*
X176747065Y-97742742D01*
X176750986Y-97737015D01*
X176752500Y-97738052D01*
X176781912Y-97707438D01*
X176833056Y-97701931D01*
X176875775Y-97730587D01*
X176882193Y-97741682D01*
X176883232Y-97743193D01*
X176886049Y-97749536D01*
X176921617Y-97785042D01*
X176960684Y-97824041D01*
X176965908Y-97829256D01*
X176972258Y-97832063D01*
X176972259Y-97832064D01*
X177027370Y-97856428D01*
X177069112Y-97874882D01*
X177074730Y-97875537D01*
X177092835Y-97877648D01*
X177092836Y-97877648D01*
X177094997Y-97877900D01*
X177485005Y-97877900D01*
X177487212Y-97877637D01*
X177487219Y-97877637D01*
X177505810Y-97875425D01*
X177505812Y-97875424D01*
X177511413Y-97874758D01*
X177614537Y-97828952D01*
X177667325Y-97776072D01*
X177689352Y-97754007D01*
X177689353Y-97754006D01*
X177694257Y-97749093D01*
X177697065Y-97742742D01*
X177700986Y-97737015D01*
X177702500Y-97738052D01*
X177731912Y-97707438D01*
X177783056Y-97701931D01*
X177825775Y-97730587D01*
X177832193Y-97741682D01*
X177833232Y-97743193D01*
X177836049Y-97749536D01*
X177871617Y-97785042D01*
X177910684Y-97824041D01*
X177915908Y-97829256D01*
X177922258Y-97832063D01*
X177922259Y-97832064D01*
X177977370Y-97856428D01*
X178019112Y-97874882D01*
X178024730Y-97875537D01*
X178042835Y-97877648D01*
X178042836Y-97877648D01*
X178044997Y-97877900D01*
X178435005Y-97877900D01*
X178437212Y-97877637D01*
X178437219Y-97877637D01*
X178455810Y-97875425D01*
X178455812Y-97875424D01*
X178461413Y-97874758D01*
X178564537Y-97828952D01*
X178617325Y-97776072D01*
X178639354Y-97754005D01*
X178639355Y-97754004D01*
X178644257Y-97749093D01*
X178645914Y-97745344D01*
X178686502Y-97716285D01*
X178737790Y-97720230D01*
X178759900Y-97735540D01*
X178974261Y-97949901D01*
X178978694Y-97954738D01*
X178999264Y-97979252D01*
X179005863Y-97987117D01*
X179011660Y-97990464D01*
X179011751Y-97990565D01*
X179016600Y-97994634D01*
X179016026Y-97995318D01*
X179036189Y-98017732D01*
X179037681Y-98016707D01*
X179041613Y-98022428D01*
X179044432Y-98028774D01*
X179066636Y-98050939D01*
X179103718Y-98087956D01*
X179121655Y-98105862D01*
X179128005Y-98108669D01*
X179128006Y-98108670D01*
X179178999Y-98131214D01*
X179216095Y-98166850D01*
X179221605Y-98217994D01*
X179192952Y-98260714D01*
X179179122Y-98268715D01*
X179121226Y-98294432D01*
X179093515Y-98322192D01*
X179050609Y-98365173D01*
X179044138Y-98371655D01*
X179041331Y-98378005D01*
X179041330Y-98378006D01*
X179037816Y-98385954D01*
X179000018Y-98471451D01*
X178997100Y-98496479D01*
X178997100Y-98615726D01*
X178979507Y-98664064D01*
X178975074Y-98668900D01*
X178820635Y-98823339D01*
X178774015Y-98845079D01*
X178724328Y-98831765D01*
X178694823Y-98789628D01*
X178692788Y-98779048D01*
X178692701Y-98778311D01*
X178689759Y-98753588D01*
X178643953Y-98650464D01*
X178595851Y-98602446D01*
X178569008Y-98575649D01*
X178569007Y-98575648D01*
X178564094Y-98570744D01*
X178557744Y-98567937D01*
X178557743Y-98567936D01*
X178469329Y-98528849D01*
X178460890Y-98525118D01*
X178437261Y-98522363D01*
X178437167Y-98522352D01*
X178437166Y-98522352D01*
X178435005Y-98522100D01*
X178044997Y-98522100D01*
X178042790Y-98522363D01*
X178042783Y-98522363D01*
X178024192Y-98524575D01*
X178024190Y-98524576D01*
X178018589Y-98525242D01*
X177915465Y-98571048D01*
X177910563Y-98575959D01*
X177841081Y-98645562D01*
X177835745Y-98650907D01*
X177832938Y-98657257D01*
X177832937Y-98657258D01*
X177822835Y-98680108D01*
X177790119Y-98754111D01*
X177789464Y-98759729D01*
X177787874Y-98773370D01*
X177787101Y-98779996D01*
X177787101Y-99895004D01*
X177790243Y-99921412D01*
X177836049Y-100024536D01*
X177854724Y-100043178D01*
X177908763Y-100097123D01*
X177915908Y-100104256D01*
X177922258Y-100107063D01*
X177922259Y-100107064D01*
X177950624Y-100119604D01*
X178019112Y-100149882D01*
X178024730Y-100150537D01*
X178042835Y-100152648D01*
X178042836Y-100152648D01*
X178044997Y-100152900D01*
X178435005Y-100152900D01*
X178437212Y-100152637D01*
X178437219Y-100152637D01*
X178455810Y-100150425D01*
X178455812Y-100150424D01*
X178461413Y-100149758D01*
X178548174Y-100111220D01*
X178599492Y-100107676D01*
X178641081Y-100137948D01*
X178653901Y-100179945D01*
X178653901Y-100274858D01*
X178636308Y-100323196D01*
X178590466Y-100349132D01*
X178508946Y-100362043D01*
X178482751Y-100375390D01*
X178412892Y-100410985D01*
X178395230Y-100419984D01*
X178304985Y-100510229D01*
X178302297Y-100515505D01*
X178302296Y-100515506D01*
X178284054Y-100551309D01*
X178247044Y-100623945D01*
X178232101Y-100718292D01*
X178232101Y-102481708D01*
X178247044Y-102576055D01*
X178259271Y-102600051D01*
X178295467Y-102671090D01*
X178304985Y-102689771D01*
X178395230Y-102780016D01*
X178400504Y-102782703D01*
X178400507Y-102782705D01*
X178429947Y-102797705D01*
X178508946Y-102837957D01*
X178514793Y-102838883D01*
X178600375Y-102852438D01*
X178600377Y-102852438D01*
X178603293Y-102852900D01*
X179416709Y-102852900D01*
X179419625Y-102852438D01*
X179419627Y-102852438D01*
X179505209Y-102838883D01*
X179511056Y-102837957D01*
X179516489Y-102835189D01*
X179612770Y-102786132D01*
X179663827Y-102779863D01*
X179706968Y-102807880D01*
X179711949Y-102815388D01*
X179720268Y-102829722D01*
X179720277Y-102829736D01*
X179721093Y-102831142D01*
X179736931Y-102853651D01*
X179803990Y-102900380D01*
X179808622Y-102902054D01*
X179808624Y-102902055D01*
X179839663Y-102913272D01*
X179852366Y-102917863D01*
X179906394Y-102927263D01*
X179909665Y-102927256D01*
X179909670Y-102927256D01*
X181395142Y-102923871D01*
X181396897Y-102923867D01*
X181398638Y-102923699D01*
X181398647Y-102923699D01*
X181424537Y-102921207D01*
X181424544Y-102921206D01*
X181426300Y-102921037D01*
X181453810Y-102915757D01*
X181482168Y-102907501D01*
X181483808Y-102906852D01*
X181483813Y-102906850D01*
X181485441Y-102906205D01*
X181487881Y-102905239D01*
X181506139Y-102900551D01*
X181562212Y-102893467D01*
X181584967Y-102890593D01*
X181594391Y-102890000D01*
X182773834Y-102890000D01*
X182792534Y-102892362D01*
X182806836Y-102896034D01*
X182871964Y-102912756D01*
X182871978Y-102912759D01*
X182873107Y-102913049D01*
X182874277Y-102913272D01*
X182874279Y-102913272D01*
X182891568Y-102916561D01*
X182891583Y-102916563D01*
X182892764Y-102916788D01*
X182895137Y-102917085D01*
X182910460Y-102919003D01*
X182910466Y-102919004D01*
X182911636Y-102919150D01*
X182931606Y-102920372D01*
X183430701Y-102919236D01*
X183744577Y-102918521D01*
X183744585Y-102918521D01*
X183745380Y-102918519D01*
X183759121Y-102917888D01*
X183772159Y-102916719D01*
X183823068Y-102900550D01*
X183833371Y-102897278D01*
X183833373Y-102897277D01*
X183837287Y-102896034D01*
X183843618Y-102892362D01*
X183880361Y-102871048D01*
X183880363Y-102871047D01*
X183881783Y-102870223D01*
X183904296Y-102854391D01*
X183951041Y-102787342D01*
X183953359Y-102780934D01*
X183967418Y-102742061D01*
X183967419Y-102742058D01*
X183968536Y-102738969D01*
X183973697Y-102709347D01*
X183977386Y-102688178D01*
X183977386Y-102688175D01*
X183977949Y-102684945D01*
X183975001Y-101236288D01*
X183992496Y-101187916D01*
X184036992Y-101162105D01*
X184050201Y-101160936D01*
X185030004Y-101160936D01*
X185032211Y-101160673D01*
X185032218Y-101160673D01*
X185050809Y-101158461D01*
X185050811Y-101158460D01*
X185056412Y-101157794D01*
X185159536Y-101111988D01*
X185177107Y-101094386D01*
X185223708Y-101072606D01*
X185273407Y-101085876D01*
X185283496Y-101094334D01*
X185638769Y-101449608D01*
X185641882Y-101453214D01*
X185643835Y-101457210D01*
X185657745Y-101470113D01*
X185677843Y-101488756D01*
X185679878Y-101490717D01*
X185690470Y-101501310D01*
X185690477Y-101501316D01*
X185692923Y-101503762D01*
X185695772Y-101505716D01*
X185697584Y-101507222D01*
X185700662Y-101509925D01*
X185709057Y-101517712D01*
X185720280Y-101528123D01*
X185732000Y-101532798D01*
X185746668Y-101540631D01*
X185757072Y-101547768D01*
X185763826Y-101549371D01*
X185763829Y-101549372D01*
X185782421Y-101553783D01*
X185792919Y-101557102D01*
X185817128Y-101566761D01*
X185822992Y-101567336D01*
X185830729Y-101567336D01*
X185848092Y-101569368D01*
X185858526Y-101571844D01*
X185865404Y-101570908D01*
X185865405Y-101570908D01*
X185886602Y-101568023D01*
X185896743Y-101567336D01*
X187387298Y-101567336D01*
X187392060Y-101567686D01*
X187396266Y-101569130D01*
X187403201Y-101568870D01*
X187403204Y-101568870D01*
X187442638Y-101567389D01*
X187445459Y-101567336D01*
X187463894Y-101567336D01*
X187467299Y-101566702D01*
X187469617Y-101566488D01*
X187473706Y-101566223D01*
X187493524Y-101565479D01*
X187493526Y-101565478D01*
X187500464Y-101565218D01*
X187506842Y-101562478D01*
X187506846Y-101562477D01*
X187512057Y-101560238D01*
X187527969Y-101555404D01*
X187533544Y-101554366D01*
X187533551Y-101554363D01*
X187540371Y-101553093D01*
X187546279Y-101549451D01*
X187546282Y-101549450D01*
X187562554Y-101539420D01*
X187572326Y-101534343D01*
X187586803Y-101528123D01*
X187596267Y-101524057D01*
X187600820Y-101520317D01*
X187606288Y-101514849D01*
X187620000Y-101504009D01*
X187629134Y-101498379D01*
X187634961Y-101490717D01*
X187646286Y-101475823D01*
X187652971Y-101468166D01*
X187950768Y-101170370D01*
X187954380Y-101167252D01*
X187958374Y-101165300D01*
X187964345Y-101158864D01*
X187989934Y-101131278D01*
X187991892Y-101129246D01*
X188004926Y-101116212D01*
X188006886Y-101113355D01*
X188008384Y-101111552D01*
X188011089Y-101108472D01*
X188024566Y-101093945D01*
X188024568Y-101093943D01*
X188029287Y-101088855D01*
X188033962Y-101077135D01*
X188041795Y-101062467D01*
X188048932Y-101052063D01*
X188050535Y-101045309D01*
X188050536Y-101045306D01*
X188054947Y-101026714D01*
X188058266Y-101016216D01*
X188067925Y-100992007D01*
X188068500Y-100986143D01*
X188068500Y-100978406D01*
X188070532Y-100961042D01*
X188070609Y-100960719D01*
X188073008Y-100950609D01*
X188071831Y-100941956D01*
X188069187Y-100922533D01*
X188068500Y-100912392D01*
X188068500Y-96874159D01*
X188068850Y-96869401D01*
X188070293Y-96865197D01*
X188069867Y-96853833D01*
X188068553Y-96818839D01*
X188068500Y-96816018D01*
X188068500Y-96797569D01*
X188067865Y-96794162D01*
X188067652Y-96791856D01*
X188067386Y-96787758D01*
X188066879Y-96774245D01*
X188066382Y-96760999D01*
X188063456Y-96754188D01*
X188061402Y-96749406D01*
X188056568Y-96733494D01*
X188055530Y-96727919D01*
X188055527Y-96727912D01*
X188054257Y-96721092D01*
X188050615Y-96715184D01*
X188050614Y-96715181D01*
X188040584Y-96698909D01*
X188035507Y-96689137D01*
X188028561Y-96672970D01*
X188025221Y-96665196D01*
X188021481Y-96660643D01*
X188016013Y-96655175D01*
X188005171Y-96641460D01*
X188003577Y-96638874D01*
X187999543Y-96632329D01*
X187994016Y-96628126D01*
X187994015Y-96628125D01*
X187976983Y-96615174D01*
X187969327Y-96608489D01*
X187746713Y-96385875D01*
X187743590Y-96382257D01*
X187741637Y-96378262D01*
X187735674Y-96372730D01*
X187707602Y-96346690D01*
X187705570Y-96344732D01*
X187692548Y-96331710D01*
X187689692Y-96329750D01*
X187687908Y-96328268D01*
X187684828Y-96325564D01*
X187683540Y-96324369D01*
X187665192Y-96307349D01*
X187658744Y-96304777D01*
X187653598Y-96301523D01*
X187625057Y-96268488D01*
X187624027Y-96266170D01*
X187615576Y-96247143D01*
X187570901Y-96202546D01*
X187544585Y-96176276D01*
X187544584Y-96176275D01*
X187539671Y-96171371D01*
X187533321Y-96168564D01*
X187533320Y-96168563D01*
X187453712Y-96133369D01*
X187441579Y-96128005D01*
X187419228Y-96125399D01*
X187419134Y-96125388D01*
X187419133Y-96125388D01*
X187416972Y-96125136D01*
X186961428Y-96125136D01*
X186959221Y-96125399D01*
X186959214Y-96125399D01*
X186943052Y-96127323D01*
X186936324Y-96128123D01*
X186838307Y-96171660D01*
X186833405Y-96176571D01*
X186833403Y-96176572D01*
X186767440Y-96242651D01*
X186762535Y-96247565D01*
X186759728Y-96253915D01*
X186759727Y-96253916D01*
X186739067Y-96300649D01*
X186719169Y-96345657D01*
X186716300Y-96370264D01*
X186716300Y-96725808D01*
X186716563Y-96728015D01*
X186716563Y-96728022D01*
X186718237Y-96742089D01*
X186719287Y-96750912D01*
X186762824Y-96848929D01*
X186767735Y-96853831D01*
X186767736Y-96853833D01*
X186833815Y-96919796D01*
X186838729Y-96924701D01*
X186845079Y-96927508D01*
X186845080Y-96927509D01*
X186873310Y-96939989D01*
X186936821Y-96968067D01*
X186942439Y-96968722D01*
X186959266Y-96970684D01*
X186959267Y-96970684D01*
X186961428Y-96970936D01*
X187416972Y-96970936D01*
X187424619Y-96970026D01*
X187474696Y-96981788D01*
X187505497Y-97022987D01*
X187508700Y-97044700D01*
X187508700Y-97071354D01*
X187491107Y-97119692D01*
X187446558Y-97145412D01*
X187424793Y-97146048D01*
X187416972Y-97145136D01*
X186961428Y-97145136D01*
X186959221Y-97145399D01*
X186959214Y-97145399D01*
X186943052Y-97147323D01*
X186936324Y-97148123D01*
X186838307Y-97191660D01*
X186833405Y-97196571D01*
X186833403Y-97196572D01*
X186771947Y-97258136D01*
X186762535Y-97267565D01*
X186759728Y-97273915D01*
X186759727Y-97273916D01*
X186743782Y-97309984D01*
X186719169Y-97365657D01*
X186718514Y-97371275D01*
X186717212Y-97382446D01*
X186716300Y-97390264D01*
X186716300Y-97745808D01*
X186716563Y-97748015D01*
X186716563Y-97748022D01*
X186717327Y-97754438D01*
X186719287Y-97770912D01*
X186762824Y-97868929D01*
X186767739Y-97873835D01*
X186767993Y-97874205D01*
X186780871Y-97924007D01*
X186759191Y-97969971D01*
X186585339Y-98143823D01*
X186581721Y-98146946D01*
X186577726Y-98148899D01*
X186573005Y-98153988D01*
X186573004Y-98153989D01*
X186546154Y-98182934D01*
X186544196Y-98184966D01*
X186531174Y-98197988D01*
X186529214Y-98200844D01*
X186527732Y-98202628D01*
X186525034Y-98205701D01*
X186506813Y-98225344D01*
X186504242Y-98231789D01*
X186504241Y-98231790D01*
X186502138Y-98237062D01*
X186494305Y-98251732D01*
X186487168Y-98262136D01*
X186485564Y-98268894D01*
X186485564Y-98268895D01*
X186481153Y-98287485D01*
X186477830Y-98297992D01*
X186473915Y-98307804D01*
X186439661Y-98346180D01*
X186404070Y-98355136D01*
X186189996Y-98355136D01*
X186187789Y-98355399D01*
X186187782Y-98355399D01*
X186169191Y-98357611D01*
X186169189Y-98357612D01*
X186163588Y-98358278D01*
X186103815Y-98384828D01*
X186052498Y-98388372D01*
X186020115Y-98369277D01*
X185911126Y-98260288D01*
X185889386Y-98213668D01*
X185889100Y-98207114D01*
X185889100Y-97998637D01*
X185906693Y-97950299D01*
X185933773Y-97929912D01*
X185941632Y-97926421D01*
X185947974Y-97923604D01*
X185999022Y-97872467D01*
X186020157Y-97851295D01*
X186020158Y-97851294D01*
X186025062Y-97846381D01*
X186032768Y-97828952D01*
X186046435Y-97798036D01*
X186069182Y-97746585D01*
X186072100Y-97721557D01*
X186072099Y-97354516D01*
X186069062Y-97328981D01*
X186024768Y-97229262D01*
X185982596Y-97187164D01*
X185952459Y-97157079D01*
X185952458Y-97157078D01*
X185947545Y-97152174D01*
X185940267Y-97148956D01*
X185910981Y-97136009D01*
X185847749Y-97108054D01*
X185824977Y-97105399D01*
X185824883Y-97105388D01*
X185824882Y-97105388D01*
X185822721Y-97105136D01*
X185611193Y-97105136D01*
X185395680Y-97105137D01*
X185370145Y-97108174D01*
X185270426Y-97152468D01*
X185237981Y-97184970D01*
X185198660Y-97224360D01*
X185193338Y-97229691D01*
X185192712Y-97229066D01*
X185155973Y-97255367D01*
X185135753Y-97258136D01*
X184477663Y-97258136D01*
X184429325Y-97240543D01*
X184424535Y-97236157D01*
X184423982Y-97235604D01*
X184401963Y-97213624D01*
X184384585Y-97196276D01*
X184384584Y-97196275D01*
X184379671Y-97191371D01*
X184373321Y-97188564D01*
X184373320Y-97188563D01*
X184308379Y-97159853D01*
X184281579Y-97148005D01*
X184264794Y-97146048D01*
X184259134Y-97145388D01*
X184259133Y-97145388D01*
X184256972Y-97145136D01*
X184041726Y-97145136D01*
X183993388Y-97127543D01*
X183967668Y-97082994D01*
X183966526Y-97070091D01*
X183966502Y-97058377D01*
X183966477Y-97046290D01*
X183983971Y-96997917D01*
X184028466Y-96972105D01*
X184041677Y-96970936D01*
X184256972Y-96970936D01*
X184259179Y-96970673D01*
X184259186Y-96970673D01*
X184276470Y-96968616D01*
X184282076Y-96967949D01*
X184380093Y-96924412D01*
X184384995Y-96919501D01*
X184384997Y-96919500D01*
X184450960Y-96853421D01*
X184450961Y-96853420D01*
X184455865Y-96848507D01*
X184461082Y-96836708D01*
X184491484Y-96767938D01*
X184499231Y-96750415D01*
X184501229Y-96733278D01*
X184501848Y-96727970D01*
X184501848Y-96727969D01*
X184502100Y-96725808D01*
X184502100Y-96370264D01*
X184501727Y-96367124D01*
X184499780Y-96350766D01*
X184499113Y-96345160D01*
X184455576Y-96247143D01*
X184450665Y-96242241D01*
X184450664Y-96242239D01*
X184384585Y-96176276D01*
X184384584Y-96176275D01*
X184379671Y-96171371D01*
X184373321Y-96168564D01*
X184373320Y-96168563D01*
X184293712Y-96133369D01*
X184281579Y-96128005D01*
X184259228Y-96125399D01*
X184259134Y-96125388D01*
X184259133Y-96125388D01*
X184256972Y-96125136D01*
X184039650Y-96125136D01*
X183991312Y-96107543D01*
X183965592Y-96062994D01*
X183964450Y-96050089D01*
X183964420Y-96034953D01*
X183958135Y-92945652D01*
X183975630Y-92897280D01*
X184020126Y-92871469D01*
X184033335Y-92870300D01*
X188095479Y-92870300D01*
X188108530Y-92871441D01*
G37*
%TD.AperFunction*%
%TA.AperFunction,Conductor*%
G36*
X142990035Y-96194468D02*
G01*
X142990455Y-96193453D01*
X142997295Y-96196286D01*
X143003455Y-96200402D01*
X143066285Y-96212900D01*
X143307970Y-96212900D01*
X143319619Y-96214296D01*
X143319692Y-96214325D01*
X143323389Y-96214687D01*
X143323730Y-96214721D01*
X143323731Y-96214721D01*
X143325556Y-96214900D01*
X143707914Y-96214900D01*
X143756252Y-96232493D01*
X143761088Y-96236926D01*
X143995074Y-96470912D01*
X144016814Y-96517532D01*
X144017100Y-96524086D01*
X144017100Y-96615914D01*
X143999507Y-96664252D01*
X143995074Y-96669088D01*
X143689088Y-96975074D01*
X143642468Y-96996814D01*
X143635914Y-96997100D01*
X143342228Y-96997100D01*
X143340021Y-96997363D01*
X143340014Y-96997363D01*
X143323852Y-96999287D01*
X143317124Y-97000087D01*
X143219107Y-97043624D01*
X143214205Y-97048535D01*
X143214203Y-97048536D01*
X143148240Y-97114615D01*
X143143335Y-97119529D01*
X143140528Y-97125879D01*
X143140527Y-97125880D01*
X143127041Y-97156386D01*
X143099969Y-97217621D01*
X143097100Y-97242228D01*
X143097100Y-97697772D01*
X143097363Y-97699979D01*
X143097363Y-97699986D01*
X143099180Y-97715253D01*
X143100087Y-97722876D01*
X143143624Y-97820893D01*
X143148535Y-97825795D01*
X143148536Y-97825797D01*
X143214615Y-97891760D01*
X143219529Y-97896665D01*
X143225879Y-97899472D01*
X143225880Y-97899473D01*
X143239968Y-97905701D01*
X143317621Y-97940031D01*
X143323239Y-97940686D01*
X143340066Y-97942648D01*
X143340067Y-97942648D01*
X143342228Y-97942900D01*
X143697772Y-97942900D01*
X143699979Y-97942637D01*
X143699986Y-97942637D01*
X143717270Y-97940580D01*
X143722876Y-97939913D01*
X143820893Y-97896376D01*
X143825795Y-97891465D01*
X143825797Y-97891464D01*
X143891760Y-97825385D01*
X143891761Y-97825384D01*
X143896665Y-97820471D01*
X143906584Y-97798036D01*
X143928025Y-97749536D01*
X143940031Y-97722379D01*
X143942900Y-97697772D01*
X143942900Y-97544086D01*
X143960493Y-97495748D01*
X143964926Y-97490912D01*
X143988726Y-97467112D01*
X144035346Y-97445372D01*
X144085033Y-97458686D01*
X144114538Y-97500823D01*
X144117100Y-97520286D01*
X144117100Y-97697772D01*
X144117363Y-97699979D01*
X144117363Y-97699986D01*
X144119180Y-97715253D01*
X144120087Y-97722876D01*
X144163624Y-97820893D01*
X144168535Y-97825795D01*
X144168536Y-97825797D01*
X144238028Y-97895167D01*
X144259808Y-97941768D01*
X144260100Y-97948388D01*
X144260100Y-98033328D01*
X144259750Y-98038090D01*
X144258306Y-98042296D01*
X144258566Y-98049231D01*
X144258566Y-98049234D01*
X144260047Y-98088668D01*
X144260100Y-98091489D01*
X144260100Y-98109924D01*
X144260734Y-98113329D01*
X144260948Y-98115647D01*
X144261213Y-98119736D01*
X144261863Y-98137032D01*
X144262218Y-98146494D01*
X144264958Y-98152872D01*
X144264959Y-98152876D01*
X144267198Y-98158087D01*
X144272032Y-98173999D01*
X144273070Y-98179574D01*
X144273073Y-98179581D01*
X144274343Y-98186401D01*
X144277985Y-98192309D01*
X144277986Y-98192312D01*
X144288016Y-98208584D01*
X144293093Y-98218356D01*
X144303379Y-98242297D01*
X144307119Y-98246850D01*
X144312587Y-98252318D01*
X144323427Y-98266030D01*
X144329057Y-98275164D01*
X144334584Y-98279367D01*
X144334585Y-98279368D01*
X144351617Y-98292319D01*
X144359273Y-98299004D01*
X144773328Y-98713059D01*
X144776451Y-98716677D01*
X144778404Y-98720672D01*
X144783493Y-98725393D01*
X144783494Y-98725394D01*
X144812439Y-98752244D01*
X144814471Y-98754202D01*
X144827493Y-98767224D01*
X144830349Y-98769184D01*
X144832133Y-98770666D01*
X144835206Y-98773364D01*
X144854849Y-98791585D01*
X144861294Y-98794156D01*
X144861295Y-98794157D01*
X144866567Y-98796260D01*
X144881237Y-98804093D01*
X144891641Y-98811230D01*
X144898399Y-98812834D01*
X144898400Y-98812834D01*
X144916990Y-98817245D01*
X144927488Y-98820564D01*
X144951697Y-98830223D01*
X144957561Y-98830798D01*
X144965298Y-98830798D01*
X144982661Y-98832830D01*
X144993095Y-98835306D01*
X144999973Y-98834370D01*
X144999974Y-98834370D01*
X145021174Y-98831485D01*
X145031314Y-98830798D01*
X147788537Y-98830798D01*
X147793299Y-98831148D01*
X147797505Y-98832592D01*
X147804440Y-98832332D01*
X147804443Y-98832332D01*
X147843877Y-98830851D01*
X147846698Y-98830798D01*
X147865133Y-98830798D01*
X147868538Y-98830164D01*
X147870856Y-98829950D01*
X147874945Y-98829685D01*
X147894763Y-98828941D01*
X147894765Y-98828940D01*
X147901703Y-98828680D01*
X147908081Y-98825940D01*
X147908085Y-98825939D01*
X147913296Y-98823700D01*
X147929208Y-98818866D01*
X147934783Y-98817828D01*
X147934790Y-98817825D01*
X147941610Y-98816555D01*
X147947518Y-98812913D01*
X147947521Y-98812912D01*
X147963793Y-98802882D01*
X147973565Y-98797805D01*
X147978373Y-98795739D01*
X147997506Y-98787519D01*
X148002059Y-98783779D01*
X148007527Y-98778311D01*
X148021239Y-98767471D01*
X148030373Y-98761841D01*
X148047528Y-98739281D01*
X148054213Y-98731625D01*
X148422203Y-98363635D01*
X148429553Y-98358111D01*
X148429292Y-98357793D01*
X148434660Y-98353384D01*
X148440738Y-98350035D01*
X148464675Y-98321559D01*
X148469065Y-98316773D01*
X148476326Y-98309512D01*
X148481015Y-98302676D01*
X148485459Y-98296833D01*
X148503365Y-98275532D01*
X148507833Y-98270217D01*
X148510087Y-98263651D01*
X148513508Y-98257605D01*
X148513581Y-98257646D01*
X148513668Y-98257473D01*
X148513591Y-98257439D01*
X148516405Y-98251088D01*
X148520332Y-98245364D01*
X148528359Y-98211539D01*
X148530402Y-98204484D01*
X148531190Y-98202190D01*
X148541694Y-98171597D01*
X148541433Y-98164659D01*
X148542448Y-98157789D01*
X148542531Y-98157801D01*
X148542551Y-98157606D01*
X148542466Y-98157602D01*
X148542805Y-98150663D01*
X148544408Y-98143910D01*
X148542179Y-98127528D01*
X148540470Y-98114978D01*
X148539720Y-98109463D01*
X148539086Y-98102143D01*
X148539042Y-98100957D01*
X148537782Y-98067399D01*
X148537876Y-98067395D01*
X148537400Y-98063119D01*
X148537400Y-97798100D01*
X148554993Y-97749762D01*
X148599542Y-97724042D01*
X148612600Y-97722900D01*
X148890004Y-97722900D01*
X148892211Y-97722637D01*
X148892218Y-97722637D01*
X148910809Y-97720425D01*
X148910811Y-97720424D01*
X148916412Y-97719758D01*
X148944173Y-97707427D01*
X148995491Y-97703883D01*
X149037080Y-97734155D01*
X149049900Y-97776152D01*
X149049900Y-98006340D01*
X149049797Y-98010276D01*
X149047666Y-98050939D01*
X149056537Y-98074050D01*
X149059882Y-98085342D01*
X149065031Y-98109565D01*
X149069676Y-98115958D01*
X149069677Y-98115960D01*
X149070107Y-98116552D01*
X149079473Y-98133802D01*
X149082568Y-98141864D01*
X149100064Y-98159360D01*
X149107728Y-98168332D01*
X149114872Y-98178164D01*
X149122278Y-98188358D01*
X149129123Y-98192310D01*
X149129757Y-98192676D01*
X149145331Y-98204627D01*
X149224440Y-98283736D01*
X149246180Y-98330356D01*
X149232866Y-98380043D01*
X149190729Y-98409548D01*
X149149720Y-98408957D01*
X149137060Y-98405171D01*
X149131705Y-98405138D01*
X149131703Y-98405138D01*
X149073212Y-98404781D01*
X149006643Y-98404374D01*
X148881245Y-98440213D01*
X148770947Y-98509806D01*
X148684614Y-98607559D01*
X148682338Y-98612406D01*
X148682337Y-98612408D01*
X148665611Y-98648034D01*
X148629187Y-98725614D01*
X148609122Y-98854480D01*
X148609816Y-98859787D01*
X148609816Y-98859790D01*
X148613827Y-98890458D01*
X148626033Y-98983798D01*
X148628189Y-98988698D01*
X148674465Y-99093869D01*
X148678558Y-99103172D01*
X148762477Y-99203006D01*
X148809610Y-99234380D01*
X148861271Y-99268768D01*
X148871043Y-99275273D01*
X148963204Y-99304066D01*
X148965870Y-99304899D01*
X149006762Y-99336106D01*
X149018027Y-99386297D01*
X149011516Y-99408636D01*
X148980117Y-99475514D01*
X148960052Y-99604380D01*
X148960746Y-99609687D01*
X148960746Y-99609690D01*
X148962413Y-99622434D01*
X148976963Y-99733698D01*
X148979119Y-99738598D01*
X149000457Y-99787092D01*
X149029488Y-99853072D01*
X149113407Y-99952906D01*
X149129938Y-99963910D01*
X149216113Y-100021272D01*
X149221973Y-100025173D01*
X149346458Y-100064065D01*
X149413560Y-100065295D01*
X149471492Y-100066357D01*
X149471494Y-100066357D01*
X149476854Y-100066455D01*
X149482025Y-100065045D01*
X149482027Y-100065045D01*
X149562234Y-100043178D01*
X149602681Y-100032151D01*
X149713822Y-99963910D01*
X149717414Y-99959942D01*
X149717416Y-99959940D01*
X149797747Y-99871191D01*
X149797748Y-99871190D01*
X149801342Y-99867219D01*
X149806209Y-99857175D01*
X149842224Y-99782838D01*
X149858207Y-99749850D01*
X149860925Y-99733698D01*
X149869467Y-99682923D01*
X149894837Y-99638175D01*
X149943625Y-99620200D01*
X150272940Y-99620200D01*
X150276877Y-99620303D01*
X150317539Y-99622434D01*
X150340650Y-99613563D01*
X150351942Y-99610218D01*
X150376165Y-99605069D01*
X150382558Y-99600424D01*
X150382560Y-99600423D01*
X150383152Y-99599993D01*
X150400402Y-99590627D01*
X150401084Y-99590365D01*
X150401085Y-99590364D01*
X150408464Y-99587532D01*
X150425960Y-99570036D01*
X150434932Y-99562372D01*
X150448565Y-99552467D01*
X150454958Y-99547822D01*
X150459276Y-99540343D01*
X150471227Y-99524769D01*
X151349599Y-98646397D01*
X151396219Y-98624657D01*
X151445906Y-98637971D01*
X151475411Y-98680108D01*
X151477338Y-98689820D01*
X151486961Y-98763404D01*
X151489117Y-98768304D01*
X151524708Y-98849191D01*
X151539486Y-98882778D01*
X151623405Y-98982612D01*
X151663603Y-99009370D01*
X151715631Y-99044002D01*
X151731971Y-99054879D01*
X151856456Y-99093771D01*
X151960350Y-99095675D01*
X152012144Y-99117687D01*
X153311772Y-100417295D01*
X153406638Y-100512160D01*
X153409754Y-100515770D01*
X153411706Y-100519764D01*
X153430865Y-100537537D01*
X153445711Y-100551309D01*
X153447740Y-100553264D01*
X153458342Y-100563865D01*
X153458347Y-100563869D01*
X153460796Y-100566318D01*
X153463646Y-100568273D01*
X153465456Y-100569777D01*
X153468534Y-100572481D01*
X153483057Y-100585953D01*
X153483062Y-100585956D01*
X153488151Y-100590677D01*
X153494599Y-100593249D01*
X153494600Y-100593250D01*
X153499867Y-100595351D01*
X153514541Y-100603186D01*
X153524945Y-100610323D01*
X153550302Y-100616341D01*
X153560795Y-100619659D01*
X153584999Y-100629315D01*
X153590863Y-100629890D01*
X153598598Y-100629890D01*
X153615961Y-100631922D01*
X153626399Y-100634399D01*
X153633276Y-100633463D01*
X153633277Y-100633463D01*
X153654480Y-100630577D01*
X153664622Y-100629890D01*
X158122905Y-100629890D01*
X158171243Y-100647483D01*
X158176079Y-100651916D01*
X158305889Y-100781726D01*
X158327629Y-100828346D01*
X158314315Y-100878033D01*
X158272178Y-100907538D01*
X158252715Y-100910100D01*
X150260565Y-100910100D01*
X150255803Y-100909750D01*
X150251597Y-100908306D01*
X150244662Y-100908566D01*
X150244659Y-100908566D01*
X150205225Y-100910047D01*
X150202404Y-100910100D01*
X150183969Y-100910100D01*
X150180564Y-100910734D01*
X150178246Y-100910948D01*
X150174157Y-100911213D01*
X150154339Y-100911957D01*
X150154337Y-100911958D01*
X150147399Y-100912218D01*
X150141021Y-100914958D01*
X150141017Y-100914959D01*
X150135806Y-100917198D01*
X150119894Y-100922032D01*
X150114319Y-100923070D01*
X150114312Y-100923073D01*
X150107492Y-100924343D01*
X150101584Y-100927985D01*
X150101581Y-100927986D01*
X150085309Y-100938016D01*
X150075537Y-100943093D01*
X150072659Y-100944330D01*
X150051596Y-100953379D01*
X150047043Y-100957118D01*
X150041573Y-100962588D01*
X150027859Y-100973429D01*
X150018729Y-100979057D01*
X150005135Y-100996934D01*
X150001577Y-101001613D01*
X149994892Y-101009269D01*
X148912971Y-102091191D01*
X147841296Y-103162866D01*
X147794676Y-103184606D01*
X147788122Y-103184892D01*
X140904323Y-103184892D01*
X140855985Y-103167299D01*
X140847354Y-103158779D01*
X140785881Y-103087436D01*
X140782381Y-103083374D01*
X140672940Y-103012439D01*
X140610465Y-102993755D01*
X140553124Y-102976606D01*
X140553121Y-102976606D01*
X140547990Y-102975071D01*
X140542635Y-102975038D01*
X140542633Y-102975038D01*
X140504248Y-102974804D01*
X140451006Y-102974479D01*
X140402778Y-102956590D01*
X140398292Y-102952454D01*
X140283677Y-102837839D01*
X140280554Y-102834221D01*
X140278601Y-102830226D01*
X140263779Y-102816476D01*
X140244566Y-102798654D01*
X140242534Y-102796696D01*
X140229512Y-102783674D01*
X140226657Y-102781715D01*
X140225717Y-102780934D01*
X140199787Y-102736508D01*
X140208480Y-102685808D01*
X140247729Y-102652557D01*
X140273782Y-102647900D01*
X142484000Y-102647900D01*
X142485998Y-102647685D01*
X142486002Y-102647685D01*
X142515557Y-102644508D01*
X142515564Y-102644507D01*
X142517563Y-102644292D01*
X142519520Y-102643866D01*
X142519528Y-102643865D01*
X142565313Y-102633905D01*
X142565314Y-102633905D01*
X142569905Y-102632906D01*
X142639744Y-102597947D01*
X142693400Y-102551454D01*
X142741502Y-102476606D01*
X142761504Y-102408485D01*
X142761886Y-102405831D01*
X142767518Y-102366660D01*
X142767518Y-102366654D01*
X142767900Y-102364000D01*
X142767900Y-100489886D01*
X143133126Y-100489886D01*
X143172842Y-100655314D01*
X143250872Y-100806493D01*
X143299692Y-100862457D01*
X143356857Y-100927986D01*
X143362710Y-100934696D01*
X143414516Y-100971106D01*
X143498191Y-101029914D01*
X143498194Y-101029915D01*
X143501901Y-101032521D01*
X143506124Y-101034168D01*
X143506125Y-101034168D01*
X143545306Y-101049444D01*
X143660409Y-101094321D01*
X143790161Y-101111403D01*
X143879161Y-101111403D01*
X143967914Y-101100663D01*
X144000892Y-101096672D01*
X144000894Y-101096672D01*
X144005394Y-101096127D01*
X144009635Y-101094525D01*
X144009637Y-101094524D01*
X144160296Y-101037595D01*
X144160298Y-101037594D01*
X144164540Y-101035991D01*
X144208663Y-101005666D01*
X144301011Y-100942197D01*
X144301013Y-100942196D01*
X144304747Y-100939629D01*
X144312188Y-100931278D01*
X144366683Y-100870113D01*
X144417922Y-100812604D01*
X144423291Y-100802465D01*
X144495409Y-100666258D01*
X144495409Y-100666257D01*
X144497531Y-100662250D01*
X144518254Y-100579748D01*
X144537872Y-100501648D01*
X144537872Y-100501644D01*
X144538977Y-100497247D01*
X144539040Y-100485348D01*
X144539697Y-100359700D01*
X144539868Y-100327120D01*
X144500152Y-100161692D01*
X144422122Y-100010513D01*
X144352487Y-99930688D01*
X144313266Y-99885728D01*
X144313265Y-99885727D01*
X144310284Y-99882310D01*
X144199125Y-99804186D01*
X144174803Y-99787092D01*
X144174800Y-99787091D01*
X144171093Y-99784485D01*
X144144260Y-99774023D01*
X144122482Y-99765532D01*
X144012585Y-99722685D01*
X143882833Y-99705603D01*
X143793833Y-99705603D01*
X143712008Y-99715505D01*
X143672102Y-99720334D01*
X143672100Y-99720334D01*
X143667600Y-99720879D01*
X143663359Y-99722481D01*
X143663357Y-99722482D01*
X143512698Y-99779411D01*
X143512696Y-99779412D01*
X143508454Y-99781015D01*
X143504716Y-99783584D01*
X143377248Y-99871191D01*
X143368247Y-99877377D01*
X143365231Y-99880762D01*
X143365230Y-99880763D01*
X143345532Y-99902872D01*
X143255072Y-100004402D01*
X143252952Y-100008407D01*
X143252950Y-100008409D01*
X143178109Y-100149758D01*
X143175463Y-100154756D01*
X143158749Y-100221297D01*
X143136721Y-100308995D01*
X143134017Y-100319759D01*
X143133993Y-100324293D01*
X143133993Y-100324295D01*
X143133781Y-100364730D01*
X143133126Y-100489886D01*
X142767900Y-100489886D01*
X142767900Y-96422401D01*
X142785493Y-96374063D01*
X142789926Y-96369227D01*
X142791124Y-96368029D01*
X142795031Y-96365031D01*
X142801810Y-96356196D01*
X142883061Y-96250308D01*
X142883063Y-96250304D01*
X142886059Y-96246400D01*
X142891364Y-96233593D01*
X142926115Y-96195667D01*
X142977115Y-96188952D01*
X142990035Y-96194468D01*
G37*
%TD.AperFunction*%
%TA.AperFunction,Conductor*%
G36*
X185400700Y-98548084D02*
G01*
X185408617Y-98553349D01*
X185420816Y-98562625D01*
X185428473Y-98569311D01*
X185829361Y-98970200D01*
X185832483Y-98973816D01*
X185834435Y-98977810D01*
X185839523Y-98982530D01*
X185839524Y-98982531D01*
X185868457Y-99009370D01*
X185870489Y-99011328D01*
X185883523Y-99024362D01*
X185886380Y-99026322D01*
X185888183Y-99027820D01*
X185891257Y-99030519D01*
X185895593Y-99034542D01*
X185905790Y-99044002D01*
X185905792Y-99044004D01*
X185910880Y-99048723D01*
X185917328Y-99051295D01*
X185917329Y-99051296D01*
X185922460Y-99053343D01*
X185960838Y-99087595D01*
X185963321Y-99092662D01*
X185981048Y-99132572D01*
X186021179Y-99172634D01*
X186055683Y-99207077D01*
X186060907Y-99212292D01*
X186067257Y-99215099D01*
X186067258Y-99215100D01*
X186102927Y-99230869D01*
X186164111Y-99257918D01*
X186169729Y-99258573D01*
X186187834Y-99260684D01*
X186187835Y-99260684D01*
X186189996Y-99260936D01*
X187305004Y-99260936D01*
X187307211Y-99260673D01*
X187307218Y-99260673D01*
X187325809Y-99258461D01*
X187325811Y-99258460D01*
X187331412Y-99257794D01*
X187336568Y-99255504D01*
X187336571Y-99255503D01*
X187402974Y-99226008D01*
X187454291Y-99222464D01*
X187495880Y-99252736D01*
X187508700Y-99294733D01*
X187508700Y-100221297D01*
X187491107Y-100269635D01*
X187446558Y-100295355D01*
X187403093Y-100290075D01*
X187372258Y-100276443D01*
X187330889Y-100258154D01*
X187307260Y-100255399D01*
X187307166Y-100255388D01*
X187307165Y-100255388D01*
X187305004Y-100255136D01*
X186189996Y-100255136D01*
X186187789Y-100255399D01*
X186187782Y-100255399D01*
X186169191Y-100257611D01*
X186169189Y-100257612D01*
X186163588Y-100258278D01*
X186060464Y-100304084D01*
X186040389Y-100324194D01*
X185986084Y-100378594D01*
X185980744Y-100383943D01*
X185977937Y-100390293D01*
X185977936Y-100390294D01*
X185956683Y-100438367D01*
X185935118Y-100487147D01*
X185932100Y-100513032D01*
X185932100Y-100769714D01*
X185914507Y-100818052D01*
X185869958Y-100843772D01*
X185819300Y-100834839D01*
X185803726Y-100822888D01*
X185526713Y-100545875D01*
X185523590Y-100542257D01*
X185521637Y-100538262D01*
X185487601Y-100506689D01*
X185485570Y-100504732D01*
X185472548Y-100491710D01*
X185469692Y-100489750D01*
X185467908Y-100488268D01*
X185464828Y-100485564D01*
X185445192Y-100467349D01*
X185438747Y-100464778D01*
X185438746Y-100464777D01*
X185433474Y-100462674D01*
X185418804Y-100454841D01*
X185414126Y-100451632D01*
X185408400Y-100447704D01*
X185401642Y-100446100D01*
X185401641Y-100446100D01*
X185383051Y-100441689D01*
X185372553Y-100438370D01*
X185348344Y-100428711D01*
X185342480Y-100428136D01*
X185334743Y-100428136D01*
X185317379Y-100426104D01*
X185306946Y-100423628D01*
X185301116Y-100424421D01*
X185254218Y-100404708D01*
X185243336Y-100392124D01*
X185241771Y-100389847D01*
X185238952Y-100383500D01*
X185234039Y-100378596D01*
X185234038Y-100378594D01*
X185164007Y-100308685D01*
X185164006Y-100308684D01*
X185159093Y-100303780D01*
X185152742Y-100300972D01*
X185147015Y-100297051D01*
X185148052Y-100295537D01*
X185117438Y-100266125D01*
X185111931Y-100214981D01*
X185140587Y-100172262D01*
X185151682Y-100165844D01*
X185153193Y-100164805D01*
X185159536Y-100161988D01*
X185210216Y-100111220D01*
X185234351Y-100087043D01*
X185234352Y-100087042D01*
X185239256Y-100082129D01*
X185243529Y-100072465D01*
X185275116Y-100001015D01*
X185284882Y-99978925D01*
X185287096Y-99959940D01*
X185287648Y-99955202D01*
X185287648Y-99955201D01*
X185287900Y-99953040D01*
X185287900Y-99563032D01*
X185287147Y-99556696D01*
X185285425Y-99542227D01*
X185285424Y-99542225D01*
X185284758Y-99536624D01*
X185238952Y-99433500D01*
X185173937Y-99368598D01*
X185164007Y-99358685D01*
X185164006Y-99358684D01*
X185159093Y-99353780D01*
X185152742Y-99350972D01*
X185147015Y-99347051D01*
X185148052Y-99345537D01*
X185117438Y-99316125D01*
X185111931Y-99264981D01*
X185140587Y-99222262D01*
X185151682Y-99215844D01*
X185153193Y-99214805D01*
X185159536Y-99211988D01*
X185233700Y-99137695D01*
X185234351Y-99137043D01*
X185234352Y-99137042D01*
X185239256Y-99132129D01*
X185246477Y-99115797D01*
X185276129Y-99048723D01*
X185284882Y-99028925D01*
X185287900Y-99003040D01*
X185287900Y-98613209D01*
X185305493Y-98564871D01*
X185350042Y-98539151D01*
X185400700Y-98548084D01*
G37*
%TD.AperFunction*%
%TA.AperFunction,Conductor*%
G36*
X156811191Y-94629045D02*
G01*
X156836974Y-94673557D01*
X156828113Y-94724228D01*
X156816109Y-94739894D01*
X154917129Y-96638874D01*
X154870509Y-96660614D01*
X154863955Y-96660900D01*
X152409928Y-96660900D01*
X152361590Y-96643307D01*
X152335870Y-96598758D01*
X152342253Y-96552911D01*
X152347181Y-96542741D01*
X152368205Y-96499347D01*
X152389843Y-96370735D01*
X152389980Y-96359497D01*
X152381336Y-96299139D01*
X152372251Y-96235698D01*
X152372250Y-96235694D01*
X152371491Y-96230395D01*
X152368019Y-96222757D01*
X152319730Y-96116552D01*
X152319729Y-96116551D01*
X152317511Y-96111672D01*
X152313448Y-96106956D01*
X152235879Y-96016933D01*
X152232379Y-96012871D01*
X152122938Y-95941936D01*
X152051040Y-95920434D01*
X152003122Y-95906103D01*
X152003119Y-95906103D01*
X151997988Y-95904568D01*
X151992633Y-95904535D01*
X151992631Y-95904535D01*
X151934140Y-95904178D01*
X151867571Y-95903771D01*
X151742173Y-95939610D01*
X151631875Y-96009203D01*
X151594445Y-96051585D01*
X151593172Y-96053026D01*
X151547987Y-96077610D01*
X151497571Y-96067399D01*
X151483679Y-96056467D01*
X151445385Y-96018240D01*
X151445384Y-96018239D01*
X151440471Y-96013335D01*
X151434121Y-96010528D01*
X151434120Y-96010527D01*
X151369579Y-95981994D01*
X151342379Y-95969969D01*
X151320028Y-95967363D01*
X151319934Y-95967352D01*
X151319933Y-95967352D01*
X151317772Y-95967100D01*
X150862228Y-95967100D01*
X150860021Y-95967363D01*
X150860014Y-95967363D01*
X150843852Y-95969287D01*
X150837124Y-95970087D01*
X150739107Y-96013624D01*
X150734205Y-96018535D01*
X150734203Y-96018536D01*
X150678677Y-96074160D01*
X150663335Y-96089529D01*
X150660528Y-96095879D01*
X150660527Y-96095880D01*
X150643265Y-96134926D01*
X150619969Y-96187621D01*
X150619289Y-96193453D01*
X150617601Y-96207935D01*
X150617100Y-96212228D01*
X150617100Y-96567772D01*
X150617363Y-96569979D01*
X150617363Y-96569986D01*
X150618176Y-96576815D01*
X150606417Y-96626893D01*
X150565220Y-96657696D01*
X150543503Y-96660900D01*
X149671319Y-96660900D01*
X149667384Y-96660797D01*
X149634604Y-96659079D01*
X149634602Y-96659079D01*
X149626713Y-96658666D01*
X149603602Y-96667537D01*
X149592310Y-96670882D01*
X149568087Y-96676031D01*
X149561694Y-96680676D01*
X149561692Y-96680677D01*
X149561100Y-96681107D01*
X149543850Y-96690473D01*
X149543168Y-96690735D01*
X149543167Y-96690736D01*
X149535788Y-96693568D01*
X149518292Y-96711064D01*
X149509320Y-96718728D01*
X149489294Y-96733278D01*
X149485344Y-96740120D01*
X149485343Y-96740121D01*
X149484977Y-96740756D01*
X149473026Y-96756330D01*
X149233274Y-96996081D01*
X149186654Y-97017820D01*
X149136967Y-97004506D01*
X149111376Y-96973434D01*
X149098952Y-96945464D01*
X149056970Y-96903555D01*
X149024007Y-96870649D01*
X149024006Y-96870648D01*
X149019093Y-96865744D01*
X149012743Y-96862937D01*
X149012742Y-96862936D01*
X148953415Y-96836708D01*
X148915889Y-96820118D01*
X148892260Y-96817363D01*
X148892166Y-96817352D01*
X148892165Y-96817352D01*
X148890004Y-96817100D01*
X147624996Y-96817100D01*
X147622789Y-96817363D01*
X147622782Y-96817363D01*
X147604191Y-96819575D01*
X147604189Y-96819576D01*
X147598588Y-96820242D01*
X147495464Y-96866048D01*
X147462228Y-96899342D01*
X147421080Y-96940562D01*
X147415744Y-96945907D01*
X147412937Y-96952257D01*
X147412936Y-96952258D01*
X147392751Y-96997917D01*
X147370118Y-97049111D01*
X147367100Y-97074996D01*
X147367100Y-97465004D01*
X147367363Y-97467211D01*
X147367363Y-97467218D01*
X147367950Y-97472151D01*
X147370242Y-97491412D01*
X147416048Y-97594536D01*
X147443778Y-97622218D01*
X147483126Y-97661497D01*
X147495907Y-97674256D01*
X147502257Y-97677063D01*
X147502258Y-97677064D01*
X147554107Y-97699986D01*
X147599111Y-97719882D01*
X147604729Y-97720537D01*
X147622834Y-97722648D01*
X147622835Y-97722648D01*
X147624996Y-97722900D01*
X147902400Y-97722900D01*
X147950738Y-97740493D01*
X147976458Y-97785042D01*
X147977600Y-97798100D01*
X147977600Y-97985412D01*
X147960007Y-98033750D01*
X147955575Y-98038586D01*
X147745190Y-98248972D01*
X147698569Y-98270712D01*
X147692015Y-98270998D01*
X147143100Y-98270998D01*
X147094762Y-98253405D01*
X147069042Y-98208856D01*
X147077975Y-98158198D01*
X147086949Y-98145777D01*
X147104928Y-98125598D01*
X147110297Y-98115459D01*
X147182415Y-97979252D01*
X147182415Y-97979251D01*
X147184537Y-97975244D01*
X147208988Y-97877900D01*
X147224878Y-97814642D01*
X147224878Y-97814638D01*
X147225983Y-97810241D01*
X147226046Y-97798342D01*
X147226629Y-97686926D01*
X147226874Y-97640114D01*
X147187158Y-97474686D01*
X147109128Y-97323507D01*
X147040168Y-97244456D01*
X147000272Y-97198722D01*
X147000271Y-97198721D01*
X146997290Y-97195304D01*
X146921598Y-97142107D01*
X146861809Y-97100086D01*
X146861806Y-97100085D01*
X146858099Y-97097479D01*
X146699591Y-97035679D01*
X146569839Y-97018597D01*
X146480839Y-97018597D01*
X146392086Y-97029337D01*
X146359108Y-97033328D01*
X146359106Y-97033328D01*
X146354606Y-97033873D01*
X146350365Y-97035475D01*
X146350363Y-97035476D01*
X146199704Y-97092405D01*
X146199702Y-97092406D01*
X146195460Y-97094009D01*
X146191722Y-97096578D01*
X146066371Y-97182730D01*
X146055253Y-97190371D01*
X146052237Y-97193756D01*
X146052236Y-97193757D01*
X146024518Y-97224867D01*
X145942078Y-97317396D01*
X145939958Y-97321401D01*
X145939956Y-97321403D01*
X145864591Y-97463742D01*
X145862469Y-97467750D01*
X145844905Y-97537674D01*
X145831474Y-97591147D01*
X145821023Y-97632753D01*
X145820999Y-97637287D01*
X145820999Y-97637289D01*
X145820872Y-97661497D01*
X145820132Y-97802880D01*
X145859848Y-97968308D01*
X145937878Y-98119487D01*
X145943209Y-98125598D01*
X145961324Y-98146364D01*
X145979842Y-98194355D01*
X145963180Y-98243021D01*
X145919133Y-98269591D01*
X145904656Y-98270998D01*
X145154093Y-98270998D01*
X145105755Y-98253405D01*
X145100919Y-98248973D01*
X144974851Y-98122905D01*
X144847776Y-97995831D01*
X144826036Y-97949210D01*
X144839350Y-97899523D01*
X144847729Y-97889528D01*
X144911760Y-97825385D01*
X144911761Y-97825384D01*
X144916665Y-97820471D01*
X144926584Y-97798036D01*
X144948025Y-97749536D01*
X144960031Y-97722379D01*
X144962900Y-97697772D01*
X144962900Y-97242228D01*
X144959913Y-97217124D01*
X144916376Y-97119107D01*
X144911465Y-97114205D01*
X144911464Y-97114203D01*
X144845424Y-97048279D01*
X144823644Y-97001678D01*
X144836914Y-96951979D01*
X144845331Y-96941930D01*
X144846267Y-96940993D01*
X144916665Y-96870471D01*
X144919892Y-96863173D01*
X144951110Y-96792557D01*
X144960031Y-96772379D01*
X144961932Y-96756072D01*
X144962648Y-96749934D01*
X144962648Y-96749933D01*
X144962900Y-96747772D01*
X144962900Y-96392228D01*
X144962396Y-96387985D01*
X144960580Y-96372730D01*
X144959913Y-96367124D01*
X144952509Y-96350455D01*
X144948966Y-96299139D01*
X144979239Y-96257550D01*
X144998654Y-96248202D01*
X145006720Y-96245663D01*
X145010272Y-96243615D01*
X145010275Y-96243614D01*
X145049865Y-96220791D01*
X145049872Y-96220787D01*
X145051285Y-96219972D01*
X145073841Y-96204200D01*
X145120766Y-96137277D01*
X145124387Y-96127350D01*
X145137264Y-96092041D01*
X145138391Y-96088951D01*
X145145270Y-96050089D01*
X145147376Y-96038191D01*
X145147376Y-96038189D01*
X145147949Y-96034953D01*
X145148257Y-95565004D01*
X147367100Y-95565004D01*
X147370242Y-95591412D01*
X147416048Y-95694536D01*
X147435351Y-95713805D01*
X147490683Y-95769041D01*
X147495907Y-95774256D01*
X147502257Y-95777063D01*
X147502258Y-95777064D01*
X147558828Y-95802073D01*
X147599111Y-95819882D01*
X147604729Y-95820537D01*
X147622834Y-95822648D01*
X147622835Y-95822648D01*
X147624996Y-95822900D01*
X148890004Y-95822900D01*
X148892211Y-95822637D01*
X148892218Y-95822637D01*
X148910809Y-95820425D01*
X148910811Y-95820424D01*
X148916412Y-95819758D01*
X149019536Y-95773952D01*
X149059463Y-95733955D01*
X149094353Y-95699005D01*
X149094354Y-95699004D01*
X149099256Y-95694093D01*
X149102063Y-95687744D01*
X149105574Y-95682616D01*
X149147399Y-95652671D01*
X149167623Y-95649900D01*
X149531484Y-95649900D01*
X149579822Y-95667493D01*
X149584609Y-95671876D01*
X149611648Y-95698868D01*
X149654319Y-95741464D01*
X149659529Y-95746665D01*
X149665879Y-95749472D01*
X149665880Y-95749473D01*
X149710844Y-95769351D01*
X149757621Y-95790031D01*
X149763239Y-95790686D01*
X149780066Y-95792648D01*
X149780067Y-95792648D01*
X149782228Y-95792900D01*
X150237772Y-95792900D01*
X150239979Y-95792637D01*
X150239986Y-95792637D01*
X150257270Y-95790580D01*
X150262876Y-95789913D01*
X150360893Y-95746376D01*
X150365795Y-95741465D01*
X150365797Y-95741464D01*
X150435167Y-95671972D01*
X150481768Y-95650192D01*
X150488388Y-95649900D01*
X150611484Y-95649900D01*
X150659822Y-95667493D01*
X150664609Y-95671876D01*
X150691648Y-95698868D01*
X150734319Y-95741464D01*
X150739529Y-95746665D01*
X150745879Y-95749472D01*
X150745880Y-95749473D01*
X150790844Y-95769351D01*
X150837621Y-95790031D01*
X150843239Y-95790686D01*
X150860066Y-95792648D01*
X150860067Y-95792648D01*
X150862228Y-95792900D01*
X151317772Y-95792900D01*
X151319979Y-95792637D01*
X151319986Y-95792637D01*
X151337270Y-95790580D01*
X151342876Y-95789913D01*
X151440893Y-95746376D01*
X151445795Y-95741465D01*
X151445797Y-95741464D01*
X151511760Y-95675385D01*
X151511761Y-95675384D01*
X151516665Y-95670471D01*
X151522373Y-95657561D01*
X151553732Y-95586626D01*
X151560031Y-95572379D01*
X151562900Y-95547772D01*
X151562900Y-95192228D01*
X151562126Y-95185718D01*
X151560580Y-95172730D01*
X151559913Y-95167124D01*
X151516376Y-95069107D01*
X151511465Y-95064205D01*
X151511464Y-95064203D01*
X151445385Y-94998240D01*
X151445384Y-94998239D01*
X151440471Y-94993335D01*
X151434121Y-94990528D01*
X151434120Y-94990527D01*
X151359271Y-94957437D01*
X151342379Y-94949969D01*
X151333375Y-94948919D01*
X151319934Y-94947352D01*
X151319933Y-94947352D01*
X151317772Y-94947100D01*
X150862228Y-94947100D01*
X150860021Y-94947363D01*
X150860014Y-94947363D01*
X150843852Y-94949287D01*
X150837124Y-94950087D01*
X150739107Y-94993624D01*
X150734205Y-94998535D01*
X150734203Y-94998536D01*
X150664833Y-95068028D01*
X150618232Y-95089808D01*
X150611612Y-95090100D01*
X150488516Y-95090100D01*
X150440178Y-95072507D01*
X150435388Y-95068121D01*
X150424743Y-95057494D01*
X150395572Y-95028374D01*
X150365385Y-94998240D01*
X150365384Y-94998239D01*
X150360471Y-94993335D01*
X150354121Y-94990528D01*
X150354120Y-94990527D01*
X150279271Y-94957437D01*
X150262379Y-94949969D01*
X150253375Y-94948919D01*
X150239934Y-94947352D01*
X150239933Y-94947352D01*
X150237772Y-94947100D01*
X149782228Y-94947100D01*
X149780021Y-94947363D01*
X149780014Y-94947363D01*
X149763852Y-94949287D01*
X149757124Y-94950087D01*
X149659107Y-94993624D01*
X149654205Y-94998535D01*
X149654203Y-94998536D01*
X149584833Y-95068028D01*
X149538232Y-95089808D01*
X149531612Y-95090100D01*
X149167652Y-95090100D01*
X149119314Y-95072507D01*
X149105678Y-95057494D01*
X149101770Y-95051808D01*
X149098952Y-95045464D01*
X149043919Y-94990527D01*
X149024007Y-94970649D01*
X149024006Y-94970648D01*
X149019093Y-94965744D01*
X149012743Y-94962937D01*
X149012742Y-94962936D01*
X148948674Y-94934612D01*
X148915889Y-94920118D01*
X148892260Y-94917363D01*
X148892166Y-94917352D01*
X148892165Y-94917352D01*
X148890004Y-94917100D01*
X147624996Y-94917100D01*
X147622789Y-94917363D01*
X147622782Y-94917363D01*
X147604191Y-94919575D01*
X147604189Y-94919576D01*
X147598588Y-94920242D01*
X147495464Y-94966048D01*
X147467936Y-94993624D01*
X147421082Y-95040560D01*
X147415744Y-95045907D01*
X147412937Y-95052257D01*
X147412936Y-95052258D01*
X147396206Y-95090100D01*
X147370118Y-95149111D01*
X147367100Y-95174996D01*
X147367100Y-95565004D01*
X145148257Y-95565004D01*
X145148308Y-95488074D01*
X145148824Y-94703002D01*
X145166449Y-94654676D01*
X145211014Y-94628985D01*
X145223918Y-94627851D01*
X156762829Y-94611520D01*
X156811191Y-94629045D01*
G37*
%TD.AperFunction*%
%TA.AperFunction,Conductor*%
G36*
X142595238Y-92887893D02*
G01*
X142620958Y-92932442D01*
X142622100Y-92945500D01*
X142622100Y-93425739D01*
X142604507Y-93474077D01*
X142559958Y-93499797D01*
X142530953Y-93499221D01*
X142528485Y-93498496D01*
X142512064Y-93496135D01*
X142486660Y-93492482D01*
X142486654Y-93492482D01*
X142484000Y-93492100D01*
X139676000Y-93492100D01*
X139674002Y-93492315D01*
X139673998Y-93492315D01*
X139644443Y-93495492D01*
X139644436Y-93495493D01*
X139642437Y-93495708D01*
X139640480Y-93496134D01*
X139640472Y-93496135D01*
X139594687Y-93506095D01*
X139590095Y-93507094D01*
X139520256Y-93542053D01*
X139466600Y-93588546D01*
X139418498Y-93663394D01*
X139398496Y-93731515D01*
X139392100Y-93776000D01*
X139392100Y-95456900D01*
X139374507Y-95505238D01*
X139329958Y-95530958D01*
X139316900Y-95532100D01*
X133226000Y-95532100D01*
X133224002Y-95532315D01*
X133223998Y-95532315D01*
X133194443Y-95535492D01*
X133194436Y-95535493D01*
X133192437Y-95535708D01*
X133190480Y-95536134D01*
X133190472Y-95536135D01*
X133146981Y-95545596D01*
X133140095Y-95547094D01*
X133070256Y-95582053D01*
X133016600Y-95628546D01*
X132968498Y-95703394D01*
X132948496Y-95771515D01*
X132948115Y-95774163D01*
X132948114Y-95774169D01*
X132944608Y-95798560D01*
X132942100Y-95816000D01*
X132942100Y-97433700D01*
X132942315Y-97435698D01*
X132942315Y-97435702D01*
X132945226Y-97462776D01*
X132945708Y-97467263D01*
X132946135Y-97469226D01*
X132946459Y-97471226D01*
X132945599Y-97471365D01*
X132939053Y-97519506D01*
X132900981Y-97554097D01*
X132872498Y-97559700D01*
X131937608Y-97559700D01*
X131889270Y-97542107D01*
X131884433Y-97537674D01*
X131761216Y-97414456D01*
X131635075Y-97288315D01*
X131631438Y-97284101D01*
X131629345Y-97279820D01*
X131592158Y-97245324D01*
X131590127Y-97243367D01*
X131575803Y-97229043D01*
X131572945Y-97227082D01*
X131570279Y-97224867D01*
X131570399Y-97224722D01*
X131567162Y-97222137D01*
X131551052Y-97207193D01*
X131545963Y-97202472D01*
X131536564Y-97198722D01*
X131532479Y-97197092D01*
X131517806Y-97189258D01*
X131514754Y-97187164D01*
X131505832Y-97181044D01*
X131499081Y-97179442D01*
X131499079Y-97179441D01*
X131477693Y-97174366D01*
X131467194Y-97171046D01*
X131440327Y-97160327D01*
X131433932Y-97159700D01*
X131424692Y-97159700D01*
X131407330Y-97157668D01*
X131395172Y-97154783D01*
X131388294Y-97155719D01*
X131388293Y-97155719D01*
X131364091Y-97159013D01*
X131353950Y-97159700D01*
X119937607Y-97159700D01*
X119889269Y-97142107D01*
X119884433Y-97137674D01*
X119666651Y-96919891D01*
X119435079Y-96688319D01*
X119431438Y-96684101D01*
X119429345Y-96679820D01*
X119392158Y-96645324D01*
X119390127Y-96643367D01*
X119375803Y-96629043D01*
X119372945Y-96627082D01*
X119370279Y-96624867D01*
X119370399Y-96624722D01*
X119367162Y-96622137D01*
X119361318Y-96616716D01*
X119345963Y-96602472D01*
X119336654Y-96598758D01*
X119332479Y-96597092D01*
X119317806Y-96589258D01*
X119311555Y-96584970D01*
X119311556Y-96584970D01*
X119305832Y-96581044D01*
X119299081Y-96579442D01*
X119299079Y-96579441D01*
X119277693Y-96574366D01*
X119267194Y-96571046D01*
X119240327Y-96560327D01*
X119233932Y-96559700D01*
X119224692Y-96559700D01*
X119207330Y-96557668D01*
X119195172Y-96554783D01*
X119188294Y-96555719D01*
X119188293Y-96555719D01*
X119164091Y-96559013D01*
X119153950Y-96559700D01*
X100537607Y-96559700D01*
X100489269Y-96542107D01*
X100484445Y-96537686D01*
X100107324Y-96160564D01*
X100085586Y-96113946D01*
X100085300Y-96107392D01*
X100085300Y-93098293D01*
X100086442Y-93085235D01*
X100088868Y-93071477D01*
X100090010Y-93065000D01*
X100088868Y-93058523D01*
X100088868Y-93054470D01*
X100090313Y-93039799D01*
X100097203Y-93005162D01*
X100108431Y-92978056D01*
X100134015Y-92939765D01*
X100154765Y-92919015D01*
X100193056Y-92893431D01*
X100220162Y-92882203D01*
X100254799Y-92875313D01*
X100269470Y-92873868D01*
X100273523Y-92873868D01*
X100280000Y-92875010D01*
X100286483Y-92873867D01*
X100300235Y-92871442D01*
X100313293Y-92870300D01*
X142546900Y-92870300D01*
X142595238Y-92887893D01*
G37*
%TD.AperFunction*%
%TA.AperFunction,Conductor*%
G36*
X179636599Y-94596742D02*
G01*
X179662382Y-94641254D01*
X179663543Y-94654330D01*
X179663600Y-94703856D01*
X179663600Y-94703859D01*
X179663611Y-94713672D01*
X179663611Y-94713758D01*
X179665237Y-96130453D01*
X179665338Y-96218877D01*
X179665363Y-96240706D01*
X179666476Y-97210527D01*
X179666477Y-97211814D01*
X179648939Y-97260172D01*
X179604420Y-97285943D01*
X179591277Y-97287100D01*
X179395068Y-97287101D01*
X179313891Y-97287101D01*
X179265554Y-97269508D01*
X179260717Y-97265075D01*
X178828241Y-96832599D01*
X178823808Y-96827762D01*
X178805556Y-96806010D01*
X178796639Y-96795383D01*
X178790945Y-96792095D01*
X178790942Y-96792093D01*
X178760030Y-96774245D01*
X178754500Y-96770722D01*
X178724969Y-96750045D01*
X178695464Y-96707909D01*
X178692901Y-96688444D01*
X178692901Y-96504996D01*
X178692408Y-96500846D01*
X178690426Y-96484191D01*
X178690425Y-96484189D01*
X178689759Y-96478588D01*
X178643953Y-96375464D01*
X178583401Y-96315017D01*
X178569008Y-96300649D01*
X178569007Y-96300648D01*
X178564094Y-96295744D01*
X178557744Y-96292937D01*
X178557743Y-96292936D01*
X178497199Y-96266170D01*
X178460890Y-96250118D01*
X178442733Y-96248001D01*
X178437167Y-96247352D01*
X178437166Y-96247352D01*
X178435005Y-96247100D01*
X178074637Y-96247100D01*
X178031879Y-96231538D01*
X178003771Y-96256824D01*
X177915465Y-96296048D01*
X177879865Y-96331710D01*
X177841081Y-96370562D01*
X177835745Y-96375907D01*
X177832937Y-96382258D01*
X177829016Y-96387985D01*
X177827502Y-96386948D01*
X177798090Y-96417562D01*
X177746946Y-96423069D01*
X177704227Y-96394413D01*
X177697809Y-96383318D01*
X177696770Y-96381806D01*
X177693953Y-96375464D01*
X177655473Y-96337050D01*
X177633693Y-96290449D01*
X177633401Y-96283830D01*
X177633401Y-96193389D01*
X177650994Y-96145051D01*
X177655427Y-96140215D01*
X177660716Y-96134926D01*
X177707336Y-96113186D01*
X177713890Y-96112900D01*
X177845406Y-96112899D01*
X177973244Y-96112899D01*
X178016002Y-96128461D01*
X178044110Y-96103175D01*
X178060534Y-96095880D01*
X178128775Y-96065568D01*
X178180917Y-96013335D01*
X178200958Y-95993259D01*
X178200959Y-95993258D01*
X178205863Y-95988345D01*
X178215256Y-95967100D01*
X178226146Y-95942467D01*
X178249983Y-95888549D01*
X178250987Y-95879934D01*
X178252649Y-95865683D01*
X178252649Y-95865682D01*
X178252901Y-95863521D01*
X178252900Y-95436480D01*
X178249863Y-95410945D01*
X178205569Y-95311226D01*
X178185473Y-95291165D01*
X178163693Y-95244563D01*
X178163401Y-95237944D01*
X178163401Y-94656328D01*
X178180994Y-94607990D01*
X178225543Y-94582270D01*
X178238495Y-94581128D01*
X178749957Y-94580404D01*
X179588238Y-94579217D01*
X179636599Y-94596742D01*
G37*
%TD.AperFunction*%
%TA.AperFunction,Conductor*%
G36*
X182792531Y-94252361D02*
G01*
X182895273Y-94278741D01*
X182912792Y-94285678D01*
X183005740Y-94336777D01*
X183020990Y-94347857D01*
X183098313Y-94420468D01*
X183110326Y-94434989D01*
X183167162Y-94524547D01*
X183175183Y-94541592D01*
X183207565Y-94641254D01*
X183207961Y-94642473D01*
X183211493Y-94660988D01*
X183218153Y-94766849D01*
X183216969Y-94785658D01*
X183208665Y-94829192D01*
X183197095Y-94889846D01*
X183191270Y-94907774D01*
X183146107Y-95003750D01*
X183136008Y-95019663D01*
X183068397Y-95101390D01*
X183054667Y-95114284D01*
X182968844Y-95176639D01*
X182952331Y-95185716D01*
X182853709Y-95224763D01*
X182835459Y-95229449D01*
X182757667Y-95239277D01*
X182756634Y-95239407D01*
X182747209Y-95240000D01*
X181567765Y-95240000D01*
X181549069Y-95237639D01*
X181446327Y-95211259D01*
X181428808Y-95204322D01*
X181406810Y-95192228D01*
X181335859Y-95153222D01*
X181320610Y-95142143D01*
X181243287Y-95069532D01*
X181231272Y-95055009D01*
X181174438Y-94965453D01*
X181166417Y-94948408D01*
X181133639Y-94847525D01*
X181130107Y-94829012D01*
X181126196Y-94766849D01*
X181123447Y-94723149D01*
X181124631Y-94704338D01*
X181124723Y-94703859D01*
X181139201Y-94627957D01*
X181144505Y-94600154D01*
X181150330Y-94582226D01*
X181195493Y-94486250D01*
X181205593Y-94470335D01*
X181273203Y-94388610D01*
X181286933Y-94375716D01*
X181372756Y-94313361D01*
X181389269Y-94304284D01*
X181487891Y-94265237D01*
X181506141Y-94260551D01*
X181584966Y-94250593D01*
X181594391Y-94250000D01*
X182773835Y-94250000D01*
X182792531Y-94252361D01*
G37*
%TD.AperFunction*%
%TD*%
%TA.AperFunction,NonConductor*%
G36*
X162326194Y-95015789D02*
G01*
X162331031Y-95020222D01*
X162449564Y-95138756D01*
X162471303Y-95185376D01*
X162470694Y-95203500D01*
X162464892Y-95240760D01*
X162440070Y-95285816D01*
X162392095Y-95304375D01*
X162343414Y-95287754D01*
X162337413Y-95282364D01*
X162181619Y-95126570D01*
X162159879Y-95079950D01*
X162173193Y-95030263D01*
X162215330Y-95000758D01*
X162234793Y-94998196D01*
X162277856Y-94998196D01*
X162326194Y-95015789D01*
G37*
%TD.AperFunction*%
%TA.AperFunction,NonConductor*%
G36*
X150041613Y-97921346D02*
G01*
X150078145Y-97957560D01*
X150084695Y-97979887D01*
X150094054Y-98051456D01*
X150082877Y-98101667D01*
X150042040Y-98132946D01*
X149997943Y-98133254D01*
X149940116Y-98115960D01*
X149893124Y-98101906D01*
X149893121Y-98101906D01*
X149887990Y-98100371D01*
X149882635Y-98100338D01*
X149882633Y-98100338D01*
X149871984Y-98100273D01*
X149823755Y-98082384D01*
X149798308Y-98037679D01*
X149807550Y-97987076D01*
X149847157Y-97954253D01*
X149862226Y-97950670D01*
X149866854Y-97950755D01*
X149990351Y-97917086D01*
X150041613Y-97921346D01*
G37*
%TD.AperFunction*%
%TA.AperFunction,NonConductor*%
G36*
X187474292Y-98131461D02*
G01*
X187505356Y-98172461D01*
X187508700Y-98194636D01*
X187508700Y-98321297D01*
X187491107Y-98369635D01*
X187446558Y-98395355D01*
X187403093Y-98390075D01*
X187380401Y-98380043D01*
X187330889Y-98358154D01*
X187325271Y-98357499D01*
X187323063Y-98356897D01*
X187281054Y-98327209D01*
X187267957Y-98277465D01*
X187289668Y-98231171D01*
X187351364Y-98169475D01*
X187354980Y-98166353D01*
X187358974Y-98164401D01*
X187365097Y-98157801D01*
X187378368Y-98143494D01*
X187424140Y-98120021D01*
X187474292Y-98131461D01*
G37*
%TD.AperFunction*%
%TA.AperFunction,NonConductor*%
G36*
X185184103Y-97835529D02*
G01*
X185192946Y-97845265D01*
X185193632Y-97846810D01*
X185198542Y-97851711D01*
X185198543Y-97851713D01*
X185265941Y-97918993D01*
X185270855Y-97923898D01*
X185284510Y-97929935D01*
X185321604Y-97965572D01*
X185329300Y-97998712D01*
X185329300Y-98303635D01*
X185328950Y-98308397D01*
X185327506Y-98312603D01*
X185327766Y-98319538D01*
X185327766Y-98319541D01*
X185329247Y-98358975D01*
X185329300Y-98361796D01*
X185329300Y-98380231D01*
X185329934Y-98383636D01*
X185330148Y-98385954D01*
X185330413Y-98390033D01*
X185330439Y-98390723D01*
X185314678Y-98439689D01*
X185271130Y-98467068D01*
X185220171Y-98460050D01*
X185202164Y-98446776D01*
X185164007Y-98408685D01*
X185164006Y-98408684D01*
X185159093Y-98403780D01*
X185152743Y-98400973D01*
X185152742Y-98400972D01*
X185086428Y-98371655D01*
X185055889Y-98358154D01*
X185032260Y-98355399D01*
X185032166Y-98355388D01*
X185032165Y-98355388D01*
X185030004Y-98355136D01*
X184044188Y-98355136D01*
X183995850Y-98337543D01*
X183970130Y-98292994D01*
X183968988Y-98280089D01*
X183968965Y-98268717D01*
X183968553Y-98066289D01*
X183986048Y-98017916D01*
X184030544Y-97992105D01*
X184043753Y-97990936D01*
X184256972Y-97990936D01*
X184259179Y-97990673D01*
X184259186Y-97990673D01*
X184276470Y-97988616D01*
X184282076Y-97987949D01*
X184380093Y-97944412D01*
X184384995Y-97939501D01*
X184384997Y-97939500D01*
X184450960Y-97873421D01*
X184450961Y-97873420D01*
X184455865Y-97868507D01*
X184458672Y-97862157D01*
X184462595Y-97856428D01*
X184463728Y-97857204D01*
X184494056Y-97825633D01*
X184527198Y-97817936D01*
X185135765Y-97817936D01*
X185184103Y-97835529D01*
G37*
%TD.AperFunction*%
%TA.AperFunction,NonConductor*%
G36*
X179641881Y-99130492D02*
G01*
X179667601Y-99175041D01*
X179668743Y-99188013D01*
X179668975Y-99389994D01*
X179670029Y-100308685D01*
X179670042Y-100320249D01*
X179652504Y-100368607D01*
X179607985Y-100394378D01*
X179560702Y-100387339D01*
X179554037Y-100383943D01*
X179511056Y-100362043D01*
X179429536Y-100349132D01*
X179384547Y-100324194D01*
X179366101Y-100274858D01*
X179366101Y-99601406D01*
X179367786Y-99585578D01*
X179369317Y-99578467D01*
X179370625Y-99572392D01*
X179366622Y-99538572D01*
X179366101Y-99529734D01*
X179366101Y-99525802D01*
X179362964Y-99506957D01*
X179362464Y-99503448D01*
X179359158Y-99475514D01*
X179356690Y-99454663D01*
X179354000Y-99449061D01*
X179353664Y-99447904D01*
X179353478Y-99447088D01*
X179353291Y-99446494D01*
X179352973Y-99445719D01*
X179352582Y-99444577D01*
X179351561Y-99438444D01*
X179328244Y-99395231D01*
X179326637Y-99392076D01*
X179316144Y-99370226D01*
X179311078Y-99319036D01*
X179330758Y-99284498D01*
X179480331Y-99134925D01*
X179526951Y-99113185D01*
X179533505Y-99112899D01*
X179593543Y-99112899D01*
X179641881Y-99130492D01*
G37*
%TD.AperFunction*%
%TA.AperFunction,NonConductor*%
G36*
X138050700Y-104940162D02*
G01*
X138066274Y-104952113D01*
X138176325Y-105062164D01*
X138179447Y-105065780D01*
X138181399Y-105069774D01*
X138186487Y-105074494D01*
X138186488Y-105074495D01*
X138215420Y-105101333D01*
X138217452Y-105103291D01*
X138230487Y-105116326D01*
X138233344Y-105118286D01*
X138235147Y-105119784D01*
X138238206Y-105122469D01*
X138245645Y-105129370D01*
X138269115Y-105175142D01*
X138257672Y-105225293D01*
X138216670Y-105256356D01*
X138194499Y-105259699D01*
X137988981Y-105259699D01*
X137940643Y-105242106D01*
X137914923Y-105197557D01*
X137920203Y-105154092D01*
X137926129Y-105140687D01*
X137934882Y-105120889D01*
X137937900Y-105095004D01*
X137937900Y-105005287D01*
X137955493Y-104956949D01*
X138000042Y-104931229D01*
X138050700Y-104940162D01*
G37*
%TD.AperFunction*%
%TA.AperFunction,Conductor*%
%TO.N,VCC*%
G36*
X183773372Y-92887893D02*
G01*
X183799092Y-92932442D01*
X183800234Y-92945345D01*
X183803251Y-94428295D01*
X183808655Y-97084727D01*
X183791160Y-97133100D01*
X183763982Y-97153605D01*
X183678307Y-97191660D01*
X183673405Y-97196571D01*
X183673403Y-97196572D01*
X183611947Y-97258136D01*
X183602535Y-97267565D01*
X183599728Y-97273915D01*
X183599727Y-97273916D01*
X183583782Y-97309984D01*
X183559169Y-97365657D01*
X183556300Y-97390264D01*
X183556300Y-97745808D01*
X183556563Y-97748015D01*
X183556563Y-97748022D01*
X183558487Y-97764184D01*
X183559287Y-97770912D01*
X183602824Y-97868929D01*
X183607735Y-97873831D01*
X183607736Y-97873833D01*
X183673815Y-97939796D01*
X183678729Y-97944701D01*
X183685079Y-97947508D01*
X183685080Y-97947509D01*
X183765830Y-97983208D01*
X183802926Y-98018844D01*
X183810623Y-98051831D01*
X183810742Y-98110085D01*
X183811226Y-98348203D01*
X183793731Y-98396576D01*
X183785501Y-98404068D01*
X183785464Y-98404084D01*
X183708480Y-98481203D01*
X183661880Y-98502982D01*
X183612181Y-98489712D01*
X183602086Y-98481248D01*
X183229662Y-98108824D01*
X183207922Y-98062204D01*
X183208678Y-98043173D01*
X183209363Y-98039104D01*
X183209363Y-98039102D01*
X183209845Y-98036238D01*
X183209936Y-98028774D01*
X183209947Y-98027910D01*
X183209947Y-98027904D01*
X183209982Y-98025000D01*
X183201586Y-97966376D01*
X183192253Y-97901201D01*
X183192252Y-97901197D01*
X183191493Y-97895898D01*
X183189218Y-97890893D01*
X183139732Y-97782055D01*
X183139731Y-97782054D01*
X183137513Y-97777175D01*
X183133450Y-97772459D01*
X183055881Y-97682436D01*
X183052381Y-97678374D01*
X182942940Y-97607439D01*
X182880465Y-97588755D01*
X182823124Y-97571606D01*
X182823121Y-97571606D01*
X182817990Y-97570071D01*
X182812635Y-97570038D01*
X182812633Y-97570038D01*
X182754142Y-97569681D01*
X182687573Y-97569274D01*
X182562175Y-97605113D01*
X182451877Y-97674706D01*
X182365544Y-97772459D01*
X182363268Y-97777306D01*
X182363267Y-97777308D01*
X182347805Y-97810241D01*
X182310117Y-97890514D01*
X182290052Y-98019380D01*
X182290746Y-98024687D01*
X182290746Y-98024690D01*
X182294955Y-98056871D01*
X182306963Y-98148698D01*
X182309119Y-98153598D01*
X182350261Y-98247101D01*
X182359488Y-98268072D01*
X182443407Y-98367906D01*
X182447866Y-98370874D01*
X182547067Y-98436907D01*
X182551973Y-98440173D01*
X182676458Y-98479065D01*
X182780348Y-98480969D01*
X182832144Y-98502982D01*
X183273571Y-98944409D01*
X183287958Y-98964560D01*
X183294435Y-98977810D01*
X183299525Y-98982532D01*
X183303665Y-98988106D01*
X183303598Y-98988156D01*
X183303723Y-98988308D01*
X183303785Y-98988252D01*
X183308449Y-98993396D01*
X183312093Y-98999307D01*
X183325958Y-99009850D01*
X183339764Y-99020348D01*
X183345390Y-99025077D01*
X183370880Y-99048723D01*
X183377329Y-99051296D01*
X183383199Y-99055007D01*
X183383154Y-99055077D01*
X183383327Y-99055175D01*
X183383365Y-99055100D01*
X183389565Y-99058218D01*
X183395093Y-99062422D01*
X183405957Y-99065568D01*
X183428488Y-99072093D01*
X183435433Y-99074478D01*
X183462798Y-99085395D01*
X183462803Y-99085396D01*
X183467728Y-99087361D01*
X183473592Y-99087936D01*
X183475424Y-99087936D01*
X183475995Y-99087964D01*
X183481662Y-99088910D01*
X183481671Y-99088817D01*
X183488582Y-99089495D01*
X183495249Y-99091425D01*
X183532301Y-99088216D01*
X183538790Y-99087936D01*
X183637348Y-99087936D01*
X183685686Y-99105529D01*
X183699322Y-99120542D01*
X183703230Y-99126228D01*
X183706048Y-99132572D01*
X183710961Y-99137476D01*
X183785907Y-99212292D01*
X183784910Y-99213290D01*
X183810330Y-99248799D01*
X183813099Y-99268866D01*
X183813156Y-99296877D01*
X183795661Y-99345250D01*
X183786422Y-99353658D01*
X183785464Y-99354084D01*
X183780592Y-99358965D01*
X183780586Y-99358970D01*
X183710647Y-99429031D01*
X183705744Y-99433943D01*
X183702937Y-99440292D01*
X183699426Y-99445420D01*
X183657601Y-99475365D01*
X183637377Y-99478136D01*
X183085637Y-99478136D01*
X183080879Y-99477786D01*
X183076675Y-99476343D01*
X183069739Y-99476603D01*
X183069737Y-99476603D01*
X183030317Y-99478083D01*
X183027496Y-99478136D01*
X183009047Y-99478136D01*
X183005640Y-99478771D01*
X183003334Y-99478984D01*
X182999236Y-99479250D01*
X182996691Y-99479346D01*
X182972477Y-99480254D01*
X182966097Y-99482995D01*
X182960884Y-99485234D01*
X182944972Y-99490068D01*
X182939397Y-99491106D01*
X182939390Y-99491109D01*
X182932570Y-99492379D01*
X182926662Y-99496021D01*
X182926659Y-99496022D01*
X182910387Y-99506052D01*
X182900615Y-99511129D01*
X182876674Y-99521415D01*
X182872121Y-99525155D01*
X182866653Y-99530623D01*
X182852936Y-99541466D01*
X182850942Y-99542695D01*
X182811026Y-99553877D01*
X182797220Y-99553793D01*
X182721630Y-99553331D01*
X182596232Y-99589170D01*
X182485934Y-99658763D01*
X182399601Y-99756516D01*
X182397325Y-99761363D01*
X182397324Y-99761365D01*
X182374727Y-99809496D01*
X182344174Y-99874571D01*
X182324109Y-100003437D01*
X182324803Y-100008744D01*
X182324803Y-100008747D01*
X182327864Y-100032151D01*
X182341020Y-100132755D01*
X182343176Y-100137655D01*
X182389170Y-100242185D01*
X182393545Y-100252129D01*
X182477464Y-100351963D01*
X182586030Y-100424230D01*
X182710515Y-100463122D01*
X182777617Y-100464352D01*
X182835549Y-100465414D01*
X182835551Y-100465414D01*
X182840911Y-100465512D01*
X182846082Y-100464102D01*
X182846084Y-100464102D01*
X182935567Y-100439706D01*
X182966738Y-100431208D01*
X183077879Y-100362967D01*
X183081471Y-100358999D01*
X183081473Y-100358997D01*
X183161804Y-100270248D01*
X183161805Y-100270247D01*
X183165399Y-100266276D01*
X183170266Y-100256232D01*
X183207095Y-100180216D01*
X183222264Y-100148907D01*
X183230381Y-100100660D01*
X183255750Y-100055911D01*
X183304539Y-100037936D01*
X183637348Y-100037936D01*
X183685686Y-100055529D01*
X183699322Y-100070542D01*
X183703230Y-100076228D01*
X183706048Y-100082572D01*
X183727770Y-100104256D01*
X183779366Y-100155762D01*
X183785907Y-100162292D01*
X183785485Y-100162715D01*
X183812264Y-100200124D01*
X183815034Y-100220190D01*
X183815086Y-100245549D01*
X183797592Y-100293922D01*
X183787346Y-100303248D01*
X183785464Y-100304084D01*
X183762468Y-100327120D01*
X183730647Y-100358997D01*
X183705744Y-100383943D01*
X183660118Y-100487147D01*
X183657100Y-100513032D01*
X183657100Y-100903040D01*
X183657363Y-100905247D01*
X183657363Y-100905254D01*
X183659575Y-100923845D01*
X183660242Y-100929448D01*
X183706048Y-101032572D01*
X183720721Y-101047219D01*
X183767905Y-101094321D01*
X183785907Y-101112292D01*
X183786287Y-101112460D01*
X183814199Y-101151445D01*
X183816969Y-101171512D01*
X183818153Y-101753325D01*
X183820049Y-102685266D01*
X183802554Y-102733639D01*
X183758058Y-102759450D01*
X183745020Y-102760619D01*
X182931246Y-102762472D01*
X182912374Y-102760110D01*
X182807858Y-102733275D01*
X182807855Y-102733275D01*
X182803280Y-102732100D01*
X181579725Y-102732100D01*
X181577374Y-102732397D01*
X181461832Y-102746993D01*
X181461830Y-102746994D01*
X181457140Y-102747586D01*
X181452746Y-102749326D01*
X181452741Y-102749327D01*
X181424047Y-102760687D01*
X181396537Y-102765967D01*
X180407570Y-102768220D01*
X179906034Y-102769363D01*
X179857658Y-102751880D01*
X179831836Y-102707390D01*
X179830664Y-102694249D01*
X179829891Y-102020525D01*
X182222453Y-102020525D01*
X182260071Y-102152148D01*
X182333119Y-102267921D01*
X182435724Y-102358539D01*
X182440571Y-102360815D01*
X182440573Y-102360816D01*
X182447285Y-102363967D01*
X182559639Y-102416717D01*
X182605690Y-102423887D01*
X182660706Y-102432454D01*
X182660711Y-102432454D01*
X182663573Y-102432900D01*
X182735112Y-102432900D01*
X182773781Y-102427362D01*
X182831007Y-102419167D01*
X182831011Y-102419166D01*
X182836310Y-102418407D01*
X182841184Y-102416191D01*
X182841187Y-102416190D01*
X182914452Y-102382878D01*
X182960926Y-102361748D01*
X183007459Y-102321653D01*
X183060577Y-102275884D01*
X183060580Y-102275881D01*
X183064631Y-102272390D01*
X183109296Y-102203481D01*
X183136176Y-102162010D01*
X183136177Y-102162009D01*
X183139088Y-102157517D01*
X183178311Y-102026364D01*
X183178380Y-102015171D01*
X183179114Y-101894829D01*
X183179147Y-101889475D01*
X183141529Y-101757852D01*
X183068481Y-101642079D01*
X182965876Y-101551461D01*
X182961029Y-101549185D01*
X182961027Y-101549184D01*
X182907983Y-101524280D01*
X182841961Y-101493283D01*
X182795910Y-101486113D01*
X182740894Y-101477546D01*
X182740889Y-101477546D01*
X182738027Y-101477100D01*
X182666488Y-101477100D01*
X182627819Y-101482638D01*
X182570593Y-101490833D01*
X182570589Y-101490834D01*
X182565290Y-101491593D01*
X182560416Y-101493809D01*
X182560413Y-101493810D01*
X182487148Y-101527122D01*
X182440674Y-101548252D01*
X182394141Y-101588347D01*
X182341023Y-101634116D01*
X182341020Y-101634119D01*
X182336969Y-101637610D01*
X182334058Y-101642101D01*
X182324336Y-101657101D01*
X182262512Y-101752483D01*
X182259367Y-101763000D01*
X182226638Y-101872439D01*
X182223289Y-101883636D01*
X182223256Y-101888991D01*
X182223256Y-101888993D01*
X182223149Y-101906479D01*
X182222453Y-102020525D01*
X179829891Y-102020525D01*
X179826507Y-99068983D01*
X179844045Y-99020625D01*
X179848486Y-99015769D01*
X179870957Y-98993259D01*
X179870958Y-98993258D01*
X179875862Y-98988345D01*
X179919982Y-98888549D01*
X179922900Y-98863521D01*
X179922899Y-98496480D01*
X179919862Y-98470945D01*
X179875568Y-98371226D01*
X179847685Y-98343392D01*
X179825905Y-98296791D01*
X179825613Y-98290257D01*
X179825407Y-98110085D01*
X179842945Y-98061727D01*
X179847386Y-98056871D01*
X179870957Y-98033259D01*
X179870958Y-98033258D01*
X179875862Y-98028345D01*
X179879826Y-98019380D01*
X179902404Y-97968308D01*
X179919982Y-97928549D01*
X179921048Y-97919403D01*
X179922648Y-97905683D01*
X179922648Y-97905682D01*
X179922900Y-97903521D01*
X179922899Y-97536480D01*
X179919862Y-97510945D01*
X179875568Y-97411226D01*
X179846583Y-97382291D01*
X179824803Y-97335691D01*
X179824511Y-97329157D01*
X179824231Y-97084727D01*
X179823263Y-96240525D01*
X182222453Y-96240525D01*
X182260071Y-96372148D01*
X182333119Y-96487921D01*
X182435724Y-96578539D01*
X182440571Y-96580815D01*
X182440573Y-96580816D01*
X182467298Y-96593363D01*
X182559639Y-96636717D01*
X182602406Y-96643376D01*
X182660706Y-96652454D01*
X182660711Y-96652454D01*
X182663573Y-96652900D01*
X182735112Y-96652900D01*
X182775876Y-96647062D01*
X182831007Y-96639167D01*
X182831011Y-96639166D01*
X182836310Y-96638407D01*
X182841184Y-96636191D01*
X182841187Y-96636190D01*
X182943447Y-96589695D01*
X182960926Y-96581748D01*
X183016020Y-96534276D01*
X183060577Y-96495884D01*
X183060580Y-96495881D01*
X183064631Y-96492390D01*
X183139088Y-96377517D01*
X183155268Y-96323416D01*
X183176776Y-96251498D01*
X183176776Y-96251495D01*
X183178311Y-96246364D01*
X183178380Y-96235171D01*
X183179114Y-96114829D01*
X183179147Y-96109475D01*
X183141529Y-95977852D01*
X183068481Y-95862079D01*
X182965876Y-95771461D01*
X182961029Y-95769185D01*
X182961027Y-95769184D01*
X182907983Y-95744280D01*
X182841961Y-95713283D01*
X182795910Y-95706113D01*
X182740894Y-95697546D01*
X182740889Y-95697546D01*
X182738027Y-95697100D01*
X182666488Y-95697100D01*
X182627819Y-95702638D01*
X182570593Y-95710833D01*
X182570589Y-95710834D01*
X182565290Y-95711593D01*
X182560416Y-95713809D01*
X182560413Y-95713810D01*
X182521075Y-95731696D01*
X182440674Y-95768252D01*
X182412069Y-95792900D01*
X182341023Y-95854116D01*
X182341020Y-95854119D01*
X182336969Y-95857610D01*
X182334058Y-95862101D01*
X182282312Y-95941936D01*
X182262512Y-95972483D01*
X182259367Y-95983000D01*
X182227973Y-96087975D01*
X182223289Y-96103636D01*
X182223256Y-96108991D01*
X182223256Y-96108993D01*
X182223006Y-96149969D01*
X182222453Y-96240525D01*
X179823263Y-96240525D01*
X179821500Y-94703678D01*
X180964010Y-94703678D01*
X180964307Y-94708399D01*
X180964307Y-94708400D01*
X180973369Y-94852429D01*
X180974368Y-94868314D01*
X180975829Y-94872810D01*
X181023882Y-95020706D01*
X181023884Y-95020709D01*
X181025343Y-95025201D01*
X181113734Y-95164482D01*
X181117184Y-95167722D01*
X181117185Y-95167723D01*
X181159244Y-95207219D01*
X181233985Y-95277405D01*
X181238134Y-95279686D01*
X181374393Y-95354596D01*
X181374396Y-95354597D01*
X181378541Y-95356876D01*
X181383126Y-95358053D01*
X181383128Y-95358054D01*
X181449130Y-95375000D01*
X181538320Y-95397900D01*
X182761875Y-95397900D01*
X182795217Y-95393688D01*
X182879768Y-95383007D01*
X182879770Y-95383006D01*
X182884460Y-95382414D01*
X182888856Y-95380674D01*
X182888858Y-95380673D01*
X182948962Y-95356876D01*
X183037837Y-95321688D01*
X183095648Y-95279686D01*
X183167464Y-95227508D01*
X183171293Y-95224726D01*
X183276443Y-95097622D01*
X183346680Y-94948361D01*
X183348747Y-94937528D01*
X183376703Y-94790972D01*
X183377590Y-94786322D01*
X183372688Y-94708400D01*
X183367529Y-94626404D01*
X183367529Y-94626403D01*
X183367232Y-94621686D01*
X183349508Y-94567137D01*
X183317718Y-94469294D01*
X183317716Y-94469291D01*
X183316257Y-94464799D01*
X183227866Y-94325518D01*
X183107615Y-94212595D01*
X183032124Y-94171093D01*
X182967207Y-94135404D01*
X182967204Y-94135403D01*
X182963059Y-94133124D01*
X182958474Y-94131947D01*
X182958472Y-94131946D01*
X182863594Y-94107586D01*
X182803280Y-94092100D01*
X181579725Y-94092100D01*
X181577374Y-94092397D01*
X181461832Y-94106993D01*
X181461830Y-94106994D01*
X181457140Y-94107586D01*
X181452744Y-94109326D01*
X181452742Y-94109327D01*
X181398404Y-94130841D01*
X181303763Y-94168312D01*
X181299936Y-94171092D01*
X181299935Y-94171093D01*
X181242813Y-94212595D01*
X181170307Y-94265274D01*
X181167290Y-94268921D01*
X181076329Y-94378874D01*
X181065157Y-94392378D01*
X180994920Y-94541639D01*
X180994033Y-94546287D01*
X180994033Y-94546288D01*
X180977678Y-94632025D01*
X180964010Y-94703678D01*
X179821500Y-94703678D01*
X179821176Y-94420987D01*
X159927970Y-94449141D01*
X159879609Y-94431616D01*
X159873473Y-94425699D01*
X159872906Y-94425287D01*
X159867618Y-94419414D01*
X159845001Y-94409344D01*
X159834645Y-94403721D01*
X159813884Y-94390239D01*
X159805360Y-94388889D01*
X159786535Y-94383313D01*
X159785868Y-94383016D01*
X159778645Y-94379800D01*
X159753894Y-94379800D01*
X159742130Y-94378874D01*
X159725496Y-94376239D01*
X159725494Y-94376239D01*
X159717690Y-94375003D01*
X159710058Y-94377048D01*
X159710057Y-94377048D01*
X159709349Y-94377238D01*
X159689886Y-94379800D01*
X159298012Y-94379800D01*
X159294077Y-94379697D01*
X159288436Y-94379401D01*
X159253412Y-94377566D01*
X159238441Y-94383313D01*
X159230313Y-94386433D01*
X159218999Y-94389785D01*
X159194787Y-94394931D01*
X159188394Y-94399576D01*
X159188392Y-94399577D01*
X159187800Y-94400007D01*
X159170550Y-94409373D01*
X159169868Y-94409635D01*
X159169867Y-94409636D01*
X159162488Y-94412468D01*
X159146661Y-94428295D01*
X159100041Y-94450035D01*
X159093593Y-94450321D01*
X145004335Y-94470261D01*
X145004334Y-94470261D01*
X144991076Y-94470280D01*
X144991070Y-94479382D01*
X144990049Y-96034849D01*
X144972424Y-96083175D01*
X144927859Y-96108866D01*
X144914849Y-96110000D01*
X144456988Y-96110000D01*
X144408650Y-96092407D01*
X144403814Y-96087975D01*
X144088674Y-95772836D01*
X144085554Y-95769222D01*
X144083601Y-95765226D01*
X144049565Y-95733653D01*
X144047534Y-95731696D01*
X144034512Y-95718674D01*
X144031656Y-95716714D01*
X144029872Y-95715232D01*
X144026792Y-95712528D01*
X144024965Y-95710833D01*
X144007156Y-95694313D01*
X144000711Y-95691742D01*
X144000710Y-95691741D01*
X143995438Y-95689638D01*
X143980768Y-95681805D01*
X143976090Y-95678596D01*
X143970364Y-95674668D01*
X143963606Y-95673064D01*
X143963605Y-95673064D01*
X143945015Y-95668653D01*
X143934517Y-95665334D01*
X143910308Y-95655675D01*
X143904444Y-95655100D01*
X143896707Y-95655100D01*
X143879343Y-95653068D01*
X143878884Y-95652959D01*
X143868910Y-95650592D01*
X143862032Y-95651528D01*
X143862031Y-95651528D01*
X143840834Y-95654413D01*
X143830693Y-95655100D01*
X143348969Y-95655100D01*
X143345046Y-95655831D01*
X143331284Y-95657101D01*
X143066286Y-95657101D01*
X143047770Y-95660784D01*
X142996929Y-95652959D01*
X142963013Y-95614284D01*
X142957900Y-95587029D01*
X142957899Y-94375240D01*
X142957899Y-94372782D01*
X142943282Y-94261748D01*
X142886059Y-94123600D01*
X142883063Y-94119696D01*
X142883061Y-94119692D01*
X142795540Y-94005632D01*
X142780000Y-93959853D01*
X142780000Y-92945500D01*
X142797593Y-92897162D01*
X142842142Y-92871442D01*
X142855200Y-92870300D01*
X183725034Y-92870300D01*
X183773372Y-92887893D01*
G37*
%TD.AperFunction*%
%TD*%
%TA.AperFunction,Conductor*%
%TO.N,/CART*%
G36*
X142552121Y-93670002D02*
G01*
X142598614Y-93723658D01*
X142610000Y-93776000D01*
X142610000Y-102364000D01*
X142589998Y-102432121D01*
X142536342Y-102478614D01*
X142484000Y-102490000D01*
X133226000Y-102490000D01*
X133157879Y-102469998D01*
X133111386Y-102416342D01*
X133100000Y-102364000D01*
X133100000Y-100696300D01*
X133120002Y-100628179D01*
X133173658Y-100581686D01*
X133226000Y-100570300D01*
X140726537Y-100570300D01*
X140738582Y-100570889D01*
X140749692Y-100574106D01*
X140788208Y-100570770D01*
X140799081Y-100570300D01*
X140808393Y-100570300D01*
X140815162Y-100569040D01*
X140827355Y-100567380D01*
X140841915Y-100566119D01*
X140851413Y-100565296D01*
X140851414Y-100565296D01*
X140863001Y-100564292D01*
X140873452Y-100559183D01*
X140876969Y-100558208D01*
X140880373Y-100556894D01*
X140891811Y-100554764D01*
X140901714Y-100548660D01*
X140901716Y-100548659D01*
X140922265Y-100535992D01*
X140933042Y-100530055D01*
X140965180Y-100514345D01*
X140973096Y-100505811D01*
X140976034Y-100503629D01*
X140978725Y-100501189D01*
X140988628Y-100495085D01*
X140995669Y-100485826D01*
X140995671Y-100485824D01*
X141010281Y-100466611D01*
X141018201Y-100457188D01*
X141034617Y-100439491D01*
X141042528Y-100430963D01*
X141046840Y-100420155D01*
X141048790Y-100417070D01*
X141050428Y-100413814D01*
X141057470Y-100404553D01*
X141067420Y-100370195D01*
X141071417Y-100358554D01*
X141081377Y-100333588D01*
X141084673Y-100325327D01*
X141085300Y-100318932D01*
X141085300Y-100315848D01*
X141085450Y-100312780D01*
X141085578Y-100312786D01*
X141085889Y-100306417D01*
X141089106Y-100295308D01*
X141085770Y-100256791D01*
X141085300Y-100245919D01*
X141085300Y-97918463D01*
X141085889Y-97906418D01*
X141089106Y-97895308D01*
X141085770Y-97856791D01*
X141085300Y-97845919D01*
X141085300Y-97836607D01*
X141084040Y-97829838D01*
X141082379Y-97817639D01*
X141080296Y-97793587D01*
X141080296Y-97793586D01*
X141079292Y-97781999D01*
X141074183Y-97771548D01*
X141073208Y-97768031D01*
X141071894Y-97764627D01*
X141069764Y-97753189D01*
X141050992Y-97722734D01*
X141045051Y-97711951D01*
X141029345Y-97679820D01*
X141020811Y-97671904D01*
X141018629Y-97668966D01*
X141016189Y-97666275D01*
X141010085Y-97656372D01*
X141000826Y-97649331D01*
X141000824Y-97649329D01*
X140981611Y-97634719D01*
X140972188Y-97626799D01*
X140954491Y-97610383D01*
X140954492Y-97610383D01*
X140945963Y-97602472D01*
X140935155Y-97598160D01*
X140932070Y-97596210D01*
X140928814Y-97594572D01*
X140919553Y-97587530D01*
X140908382Y-97584295D01*
X140908380Y-97584294D01*
X140885195Y-97577580D01*
X140873554Y-97573583D01*
X140862620Y-97569221D01*
X140840327Y-97560327D01*
X140833932Y-97559700D01*
X140830848Y-97559700D01*
X140827780Y-97559550D01*
X140827786Y-97559422D01*
X140821417Y-97559111D01*
X140810308Y-97555894D01*
X140777285Y-97558754D01*
X140771791Y-97559230D01*
X140760919Y-97559700D01*
X133226000Y-97559700D01*
X133157879Y-97539698D01*
X133111386Y-97486042D01*
X133100000Y-97433700D01*
X133100000Y-95816000D01*
X133120002Y-95747879D01*
X133173658Y-95701386D01*
X133226000Y-95690000D01*
X139550000Y-95690000D01*
X139550000Y-93776000D01*
X139570002Y-93707879D01*
X139623658Y-93661386D01*
X139676000Y-93650000D01*
X142484000Y-93650000D01*
X142552121Y-93670002D01*
G37*
%TD.AperFunction*%
%TD*%
%TA.AperFunction,Conductor*%
%TO.N,+3V3*%
G36*
X175281603Y-99461824D02*
G01*
X175302921Y-99478947D01*
X175389804Y-99565830D01*
X175397231Y-99573934D01*
X175422977Y-99604617D01*
X175457660Y-99624642D01*
X175466921Y-99630542D01*
X175490719Y-99647205D01*
X175490722Y-99647206D01*
X175499749Y-99653527D01*
X175510390Y-99656378D01*
X175514271Y-99658188D01*
X175518311Y-99659658D01*
X175527854Y-99665168D01*
X175538707Y-99667082D01*
X175538708Y-99667082D01*
X175554202Y-99669814D01*
X175567302Y-99672124D01*
X175578033Y-99674503D01*
X175606078Y-99682018D01*
X175606083Y-99682018D01*
X175616725Y-99684870D01*
X175627700Y-99683910D01*
X175627701Y-99683910D01*
X175656630Y-99681379D01*
X175667611Y-99680900D01*
X175761101Y-99680900D01*
X175829222Y-99700902D01*
X175875715Y-99754558D01*
X175887101Y-99806900D01*
X175887101Y-99895004D01*
X175890243Y-99921412D01*
X175936049Y-100024536D01*
X176015908Y-100104256D01*
X176119112Y-100149882D01*
X176135821Y-100151830D01*
X176141358Y-100152476D01*
X176141363Y-100152476D01*
X176144997Y-100152900D01*
X176535005Y-100152900D01*
X176538692Y-100152461D01*
X176538697Y-100152461D01*
X176552027Y-100150875D01*
X176552029Y-100150875D01*
X176561413Y-100149758D01*
X176664537Y-100103952D01*
X176725790Y-100042592D01*
X176788072Y-100008513D01*
X176858892Y-100013516D01*
X176903982Y-100042437D01*
X176965908Y-100104256D01*
X177069112Y-100149882D01*
X177085821Y-100151830D01*
X177091358Y-100152476D01*
X177091363Y-100152476D01*
X177094997Y-100152900D01*
X177363314Y-100152900D01*
X177431435Y-100172902D01*
X177477928Y-100226558D01*
X177489314Y-100278694D01*
X177490321Y-100893521D01*
X177470430Y-100961674D01*
X177416851Y-101008255D01*
X177364319Y-101019727D01*
X176897092Y-101019720D01*
X175721581Y-101019702D01*
X175653462Y-100999699D01*
X175606970Y-100946043D01*
X175600840Y-100929161D01*
X175599863Y-100920945D01*
X175555569Y-100821226D01*
X175478346Y-100744138D01*
X175378550Y-100700018D01*
X175353522Y-100697100D01*
X175141822Y-100697100D01*
X174926481Y-100697101D01*
X174922784Y-100697541D01*
X174922779Y-100697541D01*
X174916307Y-100698311D01*
X174900946Y-100700138D01*
X174801227Y-100744432D01*
X174724139Y-100821655D01*
X174680019Y-100921451D01*
X174679245Y-100928089D01*
X174642806Y-100987287D01*
X174578811Y-101018030D01*
X174558457Y-101019684D01*
X173708264Y-101019671D01*
X173640144Y-100999668D01*
X173593652Y-100946012D01*
X173582266Y-100893675D01*
X173582264Y-100813419D01*
X173582235Y-100013516D01*
X173582219Y-99572919D01*
X173602219Y-99504798D01*
X173655873Y-99458303D01*
X173707811Y-99446916D01*
X175213418Y-99442043D01*
X175281603Y-99461824D01*
G37*
%TD.AperFunction*%
%TD*%
M02*
