%TF.GenerationSoftware,KiCad,Pcbnew,(6.0.7-1)-1*%
%TF.CreationDate,2022-09-06T17:11:03+08:00*%
%TF.ProjectId,ESP_PD210,4553505f-5044-4323-9130-2e6b69636164,rev?*%
%TF.SameCoordinates,Original*%
%TF.FileFunction,Legend,Bot*%
%TF.FilePolarity,Positive*%
%FSLAX46Y46*%
G04 Gerber Fmt 4.6, Leading zero omitted, Abs format (unit mm)*
G04 Created by KiCad (PCBNEW (6.0.7-1)-1) date 2022-09-06 17:11:03*
%MOMM*%
%LPD*%
G01*
G04 APERTURE LIST*
%ADD10C,0.120000*%
%ADD11C,0.150000*%
G04 APERTURE END LIST*
D10*
%TO.C,C19*%
X185249200Y-97165872D02*
X185249200Y-96950200D01*
X185969200Y-97165872D02*
X185969200Y-96950200D01*
%TO.C,R15*%
X184409200Y-97211677D02*
X184409200Y-96904395D01*
X183649200Y-97211677D02*
X183649200Y-96904395D01*
%TO.C,L3*%
X177673749Y-102710000D02*
X178196253Y-102710000D01*
X177673749Y-100490000D02*
X178196253Y-100490000D01*
%TO.C,U5*%
X185610000Y-101318036D02*
X186410000Y-101318036D01*
X185610000Y-98198036D02*
X187410000Y-98198036D01*
X185610000Y-101318036D02*
X184810000Y-101318036D01*
X185610000Y-98198036D02*
X184810000Y-98198036D01*
%TO.C,R7*%
X150390000Y-96033641D02*
X150390000Y-95726359D01*
X149630000Y-96033641D02*
X149630000Y-95726359D01*
%TO.C,U3*%
X138260000Y-102390000D02*
X137460000Y-102390000D01*
X138260000Y-102390000D02*
X140060000Y-102390000D01*
X138260000Y-105510000D02*
X137460000Y-105510000D01*
X138260000Y-105510000D02*
X139060000Y-105510000D01*
D11*
%TO.C,Q2*%
X141975000Y-93560000D02*
X140475000Y-93560000D01*
X143475000Y-96810000D02*
X140475000Y-96810000D01*
D10*
%TO.C,R4*%
X144183641Y-97850000D02*
X143876359Y-97850000D01*
X144183641Y-97090000D02*
X143876359Y-97090000D01*
%TO.C,C21*%
X179820000Y-98092164D02*
X179820000Y-98307836D01*
X179100000Y-98092164D02*
X179100000Y-98307836D01*
%TO.C,R11*%
X174739615Y-97233641D02*
X174739615Y-96926359D01*
X175499615Y-97233641D02*
X175499615Y-96926359D01*
%TO.C,R6*%
X151470000Y-96033641D02*
X151470000Y-95726359D01*
X150710000Y-96033641D02*
X150710000Y-95726359D01*
%TO.C,U4*%
X175730001Y-98200000D02*
X175730001Y-99000000D01*
X178850001Y-98200000D02*
X178850001Y-97400000D01*
X175730001Y-98200000D02*
X175730001Y-97400000D01*
X178850001Y-98200000D02*
X178850001Y-100000000D01*
%TO.C,Q1*%
X147320000Y-94760000D02*
X146670000Y-94760000D01*
X147320000Y-97880000D02*
X147970000Y-97880000D01*
X147320000Y-97880000D02*
X146670000Y-97880000D01*
X147320000Y-94760000D02*
X148995000Y-94760000D01*
%TO.C,C20*%
X175500001Y-101717836D02*
X175500001Y-101502164D01*
X174780001Y-101717836D02*
X174780001Y-101502164D01*
%TO.C,C24*%
X135400000Y-103372161D02*
X135400000Y-103587833D01*
X134680000Y-103372161D02*
X134680000Y-103587833D01*
%TO.C,C25*%
X161257840Y-103709997D02*
X161042168Y-103709997D01*
X161257840Y-102989997D02*
X161042168Y-102989997D01*
%TO.C,SW2*%
X170515000Y-98465000D02*
X170515000Y-99665000D01*
X173065000Y-98465000D02*
X173065000Y-99665000D01*
%TO.C,R3*%
X144870000Y-95906359D02*
X144870000Y-96213641D01*
X144110000Y-95906359D02*
X144110000Y-96213641D01*
%TO.C,R16*%
X176563642Y-96030000D02*
X176256360Y-96030000D01*
X176563642Y-95270000D02*
X176256360Y-95270000D01*
%TO.C,C18*%
X178192165Y-96010000D02*
X178407837Y-96010000D01*
X178192165Y-95290000D02*
X178407837Y-95290000D01*
%TO.C,R17*%
X186809200Y-97211677D02*
X186809200Y-96904395D01*
X187569200Y-97211677D02*
X187569200Y-96904395D01*
%TO.C,R12*%
X175499615Y-99473641D02*
X175499615Y-99166359D01*
X174739615Y-99473641D02*
X174739615Y-99166359D01*
%TD*%
M02*
