%TF.GenerationSoftware,KiCad,Pcbnew,(6.99.0-4266-g9b4505c6d2)*%
%TF.CreationDate,2022-11-13T11:25:58+08:00*%
%TF.ProjectId,ESP_PD210,4553505f-5044-4323-9130-2e6b69636164,Bata1*%
%TF.SameCoordinates,Original*%
%TF.FileFunction,Legend,Top*%
%TF.FilePolarity,Positive*%
%FSLAX46Y46*%
G04 Gerber Fmt 4.6, Leading zero omitted, Abs format (unit mm)*
G04 Created by KiCad (PCBNEW (6.99.0-4266-g9b4505c6d2)) date 2022-11-13 11:25:58*
%MOMM*%
%LPD*%
G01*
G04 APERTURE LIST*
%ADD10C,0.120000*%
%ADD11C,0.050000*%
%ADD12C,0.250000*%
G04 APERTURE END LIST*
D10*
%TO.C,AE1*%
X161553025Y-110901606D02*
X160153025Y-110901606D01*
X161553025Y-109101606D02*
X160153025Y-109101606D01*
%TO.C,C14*%
X141313025Y-109388770D02*
X141313025Y-109604442D01*
X140593025Y-109388770D02*
X140593025Y-109604442D01*
%TO.C,R8*%
X173596658Y-105811608D02*
X173289376Y-105811608D01*
X173596658Y-105051608D02*
X173289376Y-105051608D01*
%TO.C,C23*%
X165133025Y-107238770D02*
X165133025Y-107454442D01*
X164413025Y-107238770D02*
X164413025Y-107454442D01*
%TO.C,R23*%
X175783025Y-101705247D02*
X175783025Y-101397965D01*
X176543025Y-101705247D02*
X176543025Y-101397965D01*
%TO.C,C16*%
X173335181Y-106086606D02*
X173550853Y-106086606D01*
X173335181Y-106806606D02*
X173550853Y-106806606D01*
%TO.C,C11*%
X169083025Y-109609439D02*
X169083025Y-109393767D01*
X169803025Y-109609439D02*
X169803025Y-109393767D01*
%TO.C,C8*%
X182970861Y-102341606D02*
X182755189Y-102341606D01*
X182970861Y-101621606D02*
X182755189Y-101621606D01*
%TO.C,TH1*%
X173810283Y-110204106D02*
X173335767Y-110204106D01*
X173810283Y-109159106D02*
X173335767Y-109159106D01*
%TO.C,R5*%
X142543025Y-109342965D02*
X142543025Y-109650247D01*
X141783025Y-109342965D02*
X141783025Y-109650247D01*
%TO.C,R2*%
X164936666Y-102006606D02*
X164629384Y-102006606D01*
X164936666Y-101246606D02*
X164629384Y-101246606D01*
%TO.C,C5*%
X164640861Y-103756606D02*
X164425189Y-103756606D01*
X164640861Y-103036606D02*
X164425189Y-103036606D01*
%TO.C,R1*%
X183016666Y-104636606D02*
X182709384Y-104636606D01*
X183016666Y-103876606D02*
X182709384Y-103876606D01*
%TO.C,C15*%
X171055201Y-101166612D02*
X171270873Y-101166612D01*
X171055201Y-101886612D02*
X171270873Y-101886612D01*
%TO.C,R18*%
X171613025Y-109547965D02*
X171613025Y-109855247D01*
X170853025Y-109547965D02*
X170853025Y-109855247D01*
%TO.C,X1*%
X161823025Y-101396606D02*
X159223025Y-101396606D01*
X159223025Y-101396606D02*
X159223025Y-104596606D01*
%TO.C,R10*%
X147563026Y-109650247D02*
X147563026Y-109342965D01*
X148323026Y-109650247D02*
X148323026Y-109342965D01*
%TO.C,R22*%
X176543025Y-103467965D02*
X176543025Y-103775247D01*
X175783025Y-103467965D02*
X175783025Y-103775247D01*
%TO.C,C13*%
X182970861Y-101341606D02*
X182755189Y-101341606D01*
X182970861Y-100621606D02*
X182755189Y-100621606D01*
%TO.C,C10*%
X173405189Y-107601606D02*
X173620861Y-107601606D01*
X173405189Y-108321606D02*
X173620861Y-108321606D01*
%TO.C,SW1*%
X150902365Y-100842519D02*
X153165107Y-100842519D01*
X153165107Y-100842519D02*
X155852112Y-103529524D01*
X148081009Y-105926616D02*
X148081009Y-103663875D01*
X150768015Y-108613622D02*
X148081009Y-105926616D01*
X150768015Y-108613622D02*
X153030756Y-108613622D01*
X155852112Y-105792266D02*
X155852112Y-103529524D01*
X152963025Y-104731606D02*
G75*
G03*
X152963025Y-104731606I-1000000J0D01*
G01*
%TO.C,R19*%
X185219384Y-109981606D02*
X185526666Y-109981606D01*
X185219384Y-110741606D02*
X185526666Y-110741606D01*
%TO.C,C2*%
X182970861Y-108736606D02*
X182755189Y-108736606D01*
X182970861Y-108016606D02*
X182755189Y-108016606D01*
%TO.C,C7*%
X182755189Y-105121606D02*
X182970861Y-105121606D01*
X182755189Y-105841606D02*
X182970861Y-105841606D01*
%TO.C,C3*%
X182970861Y-107341606D02*
X182755189Y-107341606D01*
X182970861Y-106621606D02*
X182755189Y-106621606D01*
%TO.C,U1*%
X176993025Y-100301606D02*
X176993025Y-109161606D01*
X177193025Y-109361606D02*
X179043025Y-109361606D01*
X179043025Y-100101606D02*
X177193025Y-100101606D01*
D11*
X186883025Y-100381606D02*
X186883025Y-109081606D01*
D10*
X177193025Y-100101606D02*
G75*
G03*
X176993025Y-100301606I0J-200000D01*
G01*
X176993025Y-109161606D02*
G75*
G03*
X177193025Y-109361606I200000J0D01*
G01*
D12*
X185008025Y-101631606D02*
G75*
G03*
X185008025Y-101631606I-125000J0D01*
G01*
X185008025Y-107831606D02*
G75*
G03*
X185008025Y-107831606I-125000J0D01*
G01*
D10*
%TO.C,D1*%
X143333025Y-108786606D02*
X143333025Y-110486606D01*
X143333025Y-108786606D02*
X145883025Y-108786606D01*
X143333025Y-110486606D02*
X145883025Y-110486606D01*
%TO.C,C1*%
X182755189Y-108986606D02*
X182970861Y-108986606D01*
X182755189Y-109706606D02*
X182970861Y-109706606D01*
%TO.C,U2*%
X170483025Y-106841606D02*
X170008025Y-106841606D01*
X166263025Y-106366606D02*
X166263025Y-106841606D01*
X170483025Y-106366606D02*
X170483025Y-106841606D01*
X166263025Y-103096606D02*
X166263025Y-102621606D01*
X170483025Y-103096606D02*
X170483025Y-102621606D01*
X166263025Y-102621606D02*
X166738025Y-102621606D01*
X170483025Y-102621606D02*
X170008025Y-102621606D01*
%TO.C,C12*%
X167753025Y-109383759D02*
X167753025Y-109599431D01*
X167033025Y-109383759D02*
X167033025Y-109599431D01*
%TO.C,J3*%
X190183825Y-109431606D02*
X192183825Y-109431606D01*
X194083825Y-109431606D02*
X195983825Y-109431606D01*
X195983825Y-109431606D02*
X195983825Y-100031606D01*
X190183825Y-100031606D02*
X192183825Y-100031606D01*
X194083825Y-100031606D02*
X195983825Y-100031606D01*
%TO.C,R9*%
X149643025Y-109342965D02*
X149643025Y-109650247D01*
X148883025Y-109342965D02*
X148883025Y-109650247D01*
%TO.C,R20*%
X185953025Y-102145247D02*
X185953025Y-101837965D01*
X186713025Y-102145247D02*
X186713025Y-101837965D01*
%TO.C,C17*%
X173325199Y-102881595D02*
X173540871Y-102881595D01*
X173325199Y-103601595D02*
X173540871Y-103601595D01*
%TO.C,C22*%
X161534812Y-106494442D02*
X161534812Y-106278770D01*
X162254812Y-106494442D02*
X162254812Y-106278770D01*
%TO.C,R21*%
X186713025Y-107317965D02*
X186713025Y-107625247D01*
X185953025Y-107317965D02*
X185953025Y-107625247D01*
%TO.C,R14*%
X173586676Y-104776606D02*
X173279394Y-104776606D01*
X173586676Y-104016606D02*
X173279394Y-104016606D01*
%TO.C,C6*%
X162083025Y-102074442D02*
X162083025Y-101858770D01*
X162803025Y-102074442D02*
X162803025Y-101858770D01*
%TO.C,C9*%
X182970861Y-103436606D02*
X182755189Y-103436606D01*
X182970861Y-102716606D02*
X182755189Y-102716606D01*
%TO.C,R13*%
X185526666Y-109751606D02*
X185219384Y-109751606D01*
X185526666Y-108991606D02*
X185219384Y-108991606D01*
%TO.C,C4*%
X164050861Y-105666606D02*
X163835189Y-105666606D01*
X164050861Y-104946606D02*
X163835189Y-104946606D01*
%TD*%
M02*
