M48
; DRILL file {KiCad (6.0.7-1)-1} date 
; FORMAT={-:-/ absolute / metric / decimal}
; #@! TF.CreationDate,2022-09-06T17:11:29+08:00
; #@! TF.GenerationSoftware,Kicad,Pcbnew,(6.0.7-1)-1
; #@! TF.FileFunction,Plated,1,4,PTH
FMAT,2
METRIC
; #@! TA.AperFunction,Plated,PTH,ViaDrill
T1C0.300
; #@! TA.AperFunction,Plated,PTH,ComponentDrill
T2C0.300
; #@! TA.AperFunction,Plated,PTH,ComponentDrill
T3C0.600
%
G90
G05
T1
X133.88Y-96.43
X133.88Y-97.22
X133.88Y-100.88
X133.88Y-101.69
X135.11Y-96.43
X135.11Y-97.22
X135.11Y-100.88
X135.11Y-101.69
X136.0Y-104.9
X136.18Y-104.16
X136.23Y-103.0
X137.45Y-96.38
X137.45Y-97.22
X137.45Y-100.88
X137.45Y-101.69
X138.27Y-103.38
X138.68Y-100.88
X138.68Y-101.69
X138.68Y-96.38
X138.68Y-97.22
X139.91Y-96.86
X139.92Y-101.88
X140.03Y-94.435
X140.03Y-95.935
X140.04Y-101.07
X140.48Y-103.43
X140.89Y-96.71
X141.01Y-101.92
X141.05Y-101.03
X141.4Y-99.0
X141.44Y-100.12
X141.68Y-94.423
X141.68Y-95.185
X141.68Y-95.947
X141.77Y-101.61
X142.1Y-100.78
X142.13Y-99.45
X143.556Y-93.27
X143.556Y-94.032
X144.318Y-93.27
X144.318Y-94.032
X144.61Y-94.75
X145.08Y-93.27
X145.08Y-94.032
X145.842Y-93.27
X145.842Y-94.032
X146.604Y-93.27
X146.604Y-94.032
X147.366Y-93.27
X147.366Y-94.032
X148.128Y-93.27
X148.128Y-94.032
X148.89Y-94.032
X148.89Y-93.27
X149.069Y-98.86
X149.42Y-99.61
X149.652Y-93.27
X149.652Y-94.032
X149.81Y-97.494
X149.82Y-98.555
X150.414Y-93.27
X150.414Y-94.032
X150.54Y-97.95
X151.176Y-93.27
X151.176Y-94.032
X151.93Y-96.359
X151.93Y-98.64
X151.938Y-93.27
X151.938Y-94.032
X152.49Y-100.42
X152.7Y-93.27
X152.7Y-94.032
X153.462Y-93.27
X153.462Y-94.032
X154.224Y-93.27
X154.224Y-94.032
X154.93Y-95.04
X154.986Y-93.27
X154.986Y-94.032
X155.748Y-93.27
X155.748Y-94.032
X156.51Y-93.27
X156.51Y-94.032
X156.51Y-97.97
X157.272Y-93.27
X157.272Y-94.032
X158.034Y-93.27
X158.034Y-94.032
X158.25Y-96.94
X158.344Y-99.686
X158.796Y-93.27
X158.796Y-94.032
X159.51Y-95.14
X159.558Y-94.032
X159.558Y-93.27
X160.32Y-94.032
X160.32Y-93.27
X160.828Y-98.303
X160.828Y-99.065
X160.828Y-99.827
X161.082Y-93.27
X161.082Y-94.032
X161.416Y-95.909
X161.59Y-98.303
X161.59Y-99.065
X161.59Y-99.827
X161.63Y-102.451
X161.844Y-93.27
X161.844Y-94.032
X162.352Y-99.065
X162.352Y-98.303
X162.352Y-99.827
X162.454Y-96.286
X162.606Y-93.27
X162.606Y-94.032
X162.919Y-95.284
X163.166Y-96.004
X163.368Y-93.27
X163.368Y-94.032
X163.46Y-102.97
X163.52Y-103.96
X163.89Y-96.48
X164.13Y-93.27
X164.13Y-94.032
X164.452Y-100.032
X164.892Y-93.27
X164.892Y-94.032
X165.28Y-99.85
X165.4Y-102.29
X165.654Y-93.27
X165.654Y-94.032
X166.416Y-93.27
X166.416Y-94.032
X166.54Y-96.926
X167.04Y-95.27
X167.178Y-93.27
X167.178Y-94.032
X167.92Y-99.24
X167.94Y-93.27
X167.94Y-94.032
X168.0Y-96.99
X168.37Y-102.64
X168.43Y-95.375
X168.702Y-93.27
X168.702Y-94.032
X168.86Y-100.79
X169.464Y-93.27
X169.464Y-94.032
X170.226Y-93.27
X170.226Y-94.032
X170.988Y-93.27
X170.988Y-94.032
X171.75Y-93.27
X171.75Y-94.032
X172.512Y-93.27
X172.512Y-94.032
X173.274Y-93.27
X173.274Y-94.032
X173.34Y-104.01
X173.87Y-98.87
X173.95Y-100.02
X173.95Y-100.693
X174.036Y-93.27
X174.036Y-94.032
X174.798Y-93.27
X174.798Y-94.032
X175.56Y-93.27
X175.56Y-94.032
X176.322Y-93.27
X176.322Y-94.032
X177.084Y-93.27
X177.084Y-94.032
X177.846Y-93.27
X177.846Y-94.032
X178.608Y-93.27
X178.608Y-94.032
X179.25Y-94.95
X179.37Y-93.27
X179.37Y-94.032
X180.132Y-93.27
X180.132Y-94.032
X180.67Y-104.63
X180.894Y-93.27
X180.894Y-94.032
X181.21Y-96.62
X181.225Y-101.515
X181.656Y-93.27
X182.418Y-93.27
X182.64Y-99.0
X182.75Y-98.025
X182.784Y-100.009
X183.18Y-93.27
X183.22Y-101.05
X184.59Y-95.29
X185.61Y-99.758
T2
X109.78Y-95.865
X109.78Y-102.265
X125.78Y-96.465
X125.78Y-101.665
X136.28Y-96.865
X136.28Y-101.265
T3
G00X181.621Y-94.745
M15
G01X182.721Y-94.745
M16
G05
G00X181.621Y-103.385
M15
G01X182.721Y-103.385
M16
G05
G00X186.051Y-94.745
M15
G01X186.651Y-94.745
M16
G05
G00X186.051Y-103.385
M15
G01X186.651Y-103.385
M16
G05
T0
M30
