M48
; DRILL file {KiCad (6.99.0-4266-g9b4505c6d2)} date 
; FORMAT={-:-/ absolute / metric / decimal}
; #@! TF.CreationDate,2022-11-13T11:25:53+08:00
; #@! TF.GenerationSoftware,Kicad,Pcbnew,(6.99.0-4266-g9b4505c6d2)
; #@! TF.FileFunction,Plated,1,4,PTH
FMAT,2
METRIC
; #@! TA.AperFunction,Plated,PTH,ViaDrill
T1C0.300
; #@! TA.AperFunction,Plated,PTH,ComponentDrill
T2C0.300
; #@! TA.AperFunction,Plated,PTH,ComponentDrill
T3C0.600
%
G90
G05
T1
X140.663Y-102.097
X140.663Y-102.887
X140.663Y-106.547
X140.663Y-107.357
X141.893Y-102.097
X141.893Y-102.887
X141.893Y-106.547
X141.893Y-107.357
X142.783Y-110.567
X142.963Y-109.827
X143.013Y-108.667
X144.233Y-102.047
X144.233Y-102.887
X144.233Y-106.547
X144.233Y-107.357
X145.053Y-109.047
X145.463Y-106.547
X145.463Y-107.357
X145.463Y-102.047
X145.463Y-102.887
X146.693Y-102.527
X146.703Y-107.547
X146.813Y-100.102
X146.813Y-101.602
X146.823Y-106.737
X147.263Y-109.097
X147.673Y-102.377
X147.793Y-107.587
X147.833Y-106.697
X148.183Y-104.667
X148.223Y-105.787
X148.463Y-100.09
X148.463Y-100.852
X148.463Y-101.614
X148.553Y-107.277
X148.883Y-106.447
X148.913Y-105.117
X150.339Y-98.937
X150.339Y-99.699
X151.101Y-98.937
X151.101Y-99.699
X151.393Y-100.417
X151.863Y-98.937
X151.863Y-99.699
X152.625Y-98.937
X152.625Y-99.699
X153.387Y-98.937
X153.387Y-99.699
X154.149Y-98.937
X154.149Y-99.699
X154.911Y-98.937
X154.911Y-99.699
X155.673Y-99.699
X155.673Y-98.937
X155.852Y-104.527
X156.203Y-105.277
X156.435Y-98.937
X156.435Y-99.699
X156.593Y-103.161
X156.603Y-104.222
X157.197Y-98.937
X157.197Y-99.699
X157.323Y-103.617
X157.959Y-98.937
X157.959Y-99.699
X158.713Y-102.026
X158.713Y-104.306
X158.721Y-98.937
X158.721Y-99.699
X159.483Y-98.937
X159.483Y-99.699
X160.245Y-98.937
X160.245Y-99.699
X161.007Y-98.937
X161.007Y-99.699
X161.713Y-100.707
X161.769Y-98.937
X161.769Y-99.699
X162.531Y-98.937
X162.531Y-99.699
X163.293Y-98.937
X163.293Y-99.699
X163.293Y-103.637
X164.055Y-98.937
X164.055Y-99.699
X164.817Y-98.937
X164.817Y-99.699
X165.033Y-102.607
X165.127Y-105.352
X165.579Y-98.937
X165.579Y-99.699
X166.293Y-100.806
X166.341Y-99.699
X166.341Y-98.937
X167.103Y-99.699
X167.103Y-98.937
X167.611Y-103.97
X167.611Y-104.732
X167.611Y-105.494
X167.865Y-98.937
X167.865Y-99.699
X168.199Y-101.576
X168.373Y-103.97
X168.373Y-104.732
X168.373Y-105.494
X168.413Y-108.118
X168.627Y-98.937
X168.627Y-99.699
X169.135Y-104.732
X169.135Y-103.97
X169.135Y-105.494
X169.237Y-101.952
X169.389Y-98.937
X169.389Y-99.699
X169.702Y-100.951
X169.949Y-101.671
X170.151Y-98.937
X170.151Y-99.699
X170.243Y-108.637
X170.303Y-109.627
X170.673Y-102.147
X170.913Y-98.937
X170.913Y-99.699
X171.235Y-105.699
X171.675Y-98.937
X171.675Y-99.699
X172.063Y-105.517
X172.183Y-107.957
X172.437Y-98.937
X172.437Y-99.699
X173.199Y-98.937
X173.199Y-99.699
X173.323Y-102.592
X173.823Y-100.937
X173.961Y-98.937
X173.961Y-99.699
X174.703Y-104.907
X174.723Y-98.937
X174.723Y-99.699
X174.783Y-102.657
X175.153Y-108.307
X175.213Y-101.042
X175.485Y-98.937
X175.485Y-99.699
X175.643Y-106.457
X176.247Y-98.937
X176.247Y-99.699
X177.009Y-98.937
X177.009Y-99.699
X177.771Y-98.937
X177.771Y-99.699
X178.533Y-98.937
X178.533Y-99.699
X179.295Y-98.937
X179.295Y-99.699
X180.057Y-98.937
X180.057Y-99.699
X180.123Y-109.677
X180.653Y-104.537
X180.733Y-105.687
X180.733Y-106.36
X180.819Y-98.937
X180.819Y-99.699
X181.581Y-98.937
X181.581Y-99.699
X182.343Y-98.937
X182.343Y-99.699
X183.105Y-98.937
X183.105Y-99.699
X183.867Y-98.937
X183.867Y-99.699
X184.629Y-98.937
X184.629Y-99.699
X185.391Y-98.937
X185.391Y-99.699
X186.033Y-100.617
X186.153Y-98.937
X186.153Y-99.699
X186.915Y-98.937
X186.915Y-99.699
X187.453Y-110.297
X187.677Y-98.937
X187.677Y-99.699
X187.993Y-102.287
X188.008Y-107.182
X188.439Y-98.937
X189.201Y-98.937
X189.423Y-104.667
X189.533Y-103.692
X189.567Y-105.676
X189.963Y-98.937
X190.003Y-106.717
X191.373Y-100.957
X192.393Y-105.425
T2
X116.563Y-101.532
X116.563Y-107.932
X132.563Y-102.132
X132.563Y-107.332
X143.063Y-102.532
X143.063Y-106.932
T3
G00X188.404Y-100.412
M15
G01X189.504Y-100.412
M16
G05
G00X188.404Y-109.052
M15
G01X189.504Y-109.052
M16
G05
G00X192.834Y-100.412
M15
G01X193.434Y-100.412
M16
G05
G00X192.834Y-109.052
M15
G01X193.434Y-109.052
M16
G05
T0
M30
