%TF.GenerationSoftware,KiCad,Pcbnew,(6.99.0-4266-g9b4505c6d2)*%
%TF.CreationDate,2022-11-13T11:25:58+08:00*%
%TF.ProjectId,ESP_PD210,4553505f-5044-4323-9130-2e6b69636164,Bata1*%
%TF.SameCoordinates,Original*%
%TF.FileFunction,Copper,L4,Bot*%
%TF.FilePolarity,Positive*%
%FSLAX46Y46*%
G04 Gerber Fmt 4.6, Leading zero omitted, Abs format (unit mm)*
G04 Created by KiCad (PCBNEW (6.99.0-4266-g9b4505c6d2)) date 2022-11-13 11:25:58*
%MOMM*%
%LPD*%
G01*
G04 APERTURE LIST*
G04 Aperture macros list*
%AMRoundRect*
0 Rectangle with rounded corners*
0 $1 Rounding radius*
0 $2 $3 $4 $5 $6 $7 $8 $9 X,Y pos of 4 corners*
0 Add a 4 corners polygon primitive as box body*
4,1,4,$2,$3,$4,$5,$6,$7,$8,$9,$2,$3,0*
0 Add four circle primitives for the rounded corners*
1,1,$1+$1,$2,$3*
1,1,$1+$1,$4,$5*
1,1,$1+$1,$6,$7*
1,1,$1+$1,$8,$9*
0 Add four rect primitives between the rounded corners*
20,1,$1+$1,$2,$3,$4,$5,0*
20,1,$1+$1,$4,$5,$6,$7,0*
20,1,$1+$1,$6,$7,$8,$9,0*
20,1,$1+$1,$8,$9,$2,$3,0*%
%AMFreePoly0*
4,1,17,-3.000000,0.500000,-2.988573,0.606283,-2.938839,0.739624,-2.853553,0.853553,-2.739624,0.938839,-2.606283,0.988573,-2.500000,1.000000,2.500000,1.000000,2.606283,0.988573,2.739624,0.938839,2.853553,0.853553,2.938839,0.739624,2.988573,0.606283,3.000000,0.500000,3.000000,-1.000000,-3.000000,-1.000000,-3.000000,0.500000,-3.000000,0.500000,$1*%
G04 Aperture macros list end*
%TA.AperFunction,ComponentPad*%
%ADD10FreePoly0,0.000000*%
%TD*%
%TA.AperFunction,ComponentPad*%
%ADD11FreePoly0,180.000000*%
%TD*%
%TA.AperFunction,ComponentPad*%
%ADD12O,2.100000X1.000000*%
%TD*%
%TA.AperFunction,ComponentPad*%
%ADD13O,1.600000X1.000000*%
%TD*%
%TA.AperFunction,SMDPad,CuDef*%
%ADD14RoundRect,0.140000X0.170000X-0.140000X0.170000X0.140000X-0.170000X0.140000X-0.170000X-0.140000X0*%
%TD*%
%TA.AperFunction,SMDPad,CuDef*%
%ADD15RoundRect,0.135000X0.185000X-0.135000X0.185000X0.135000X-0.185000X0.135000X-0.185000X-0.135000X0*%
%TD*%
%TA.AperFunction,SMDPad,CuDef*%
%ADD16RoundRect,0.250000X-0.375000X-0.850000X0.375000X-0.850000X0.375000X0.850000X-0.375000X0.850000X0*%
%TD*%
%TA.AperFunction,SMDPad,CuDef*%
%ADD17RoundRect,0.150000X0.512500X0.150000X-0.512500X0.150000X-0.512500X-0.150000X0.512500X-0.150000X0*%
%TD*%
%TA.AperFunction,SMDPad,CuDef*%
%ADD18RoundRect,0.062500X0.287500X0.062500X-0.287500X0.062500X-0.287500X-0.062500X0.287500X-0.062500X0*%
%TD*%
%TA.AperFunction,SMDPad,CuDef*%
%ADD19RoundRect,0.415000X0.415000X0.775000X-0.415000X0.775000X-0.415000X-0.775000X0.415000X-0.775000X0*%
%TD*%
%TA.AperFunction,SMDPad,CuDef*%
%ADD20RoundRect,0.135000X0.135000X0.185000X-0.135000X0.185000X-0.135000X-0.185000X0.135000X-0.185000X0*%
%TD*%
%TA.AperFunction,SMDPad,CuDef*%
%ADD21RoundRect,0.140000X-0.170000X0.140000X-0.170000X-0.140000X0.170000X-0.140000X0.170000X0.140000X0*%
%TD*%
%TA.AperFunction,SMDPad,CuDef*%
%ADD22RoundRect,0.150000X0.150000X-0.512500X0.150000X0.512500X-0.150000X0.512500X-0.150000X-0.512500X0*%
%TD*%
%TA.AperFunction,SMDPad,CuDef*%
%ADD23RoundRect,0.150000X0.587500X0.150000X-0.587500X0.150000X-0.587500X-0.150000X0.587500X-0.150000X0*%
%TD*%
%TA.AperFunction,SMDPad,CuDef*%
%ADD24RoundRect,0.140000X0.140000X0.170000X-0.140000X0.170000X-0.140000X-0.170000X0.140000X-0.170000X0*%
%TD*%
%TA.AperFunction,SMDPad,CuDef*%
%ADD25RoundRect,0.250000X-1.000000X0.250000X-1.000000X-0.250000X1.000000X-0.250000X1.000000X0.250000X0*%
%TD*%
%TA.AperFunction,SMDPad,CuDef*%
%ADD26RoundRect,0.135000X-0.185000X0.135000X-0.185000X-0.135000X0.185000X-0.135000X0.185000X0.135000X0*%
%TD*%
%TA.AperFunction,SMDPad,CuDef*%
%ADD27RoundRect,0.140000X-0.140000X-0.170000X0.140000X-0.170000X0.140000X0.170000X-0.140000X0.170000X0*%
%TD*%
%TA.AperFunction,ViaPad*%
%ADD28C,0.604800*%
%TD*%
%TA.AperFunction,Conductor*%
%ADD29C,0.254000*%
%TD*%
%TA.AperFunction,Conductor*%
%ADD30C,0.381000*%
%TD*%
%TA.AperFunction,Conductor*%
%ADD31C,0.152400*%
%TD*%
%TA.AperFunction,Conductor*%
%ADD32C,0.406400*%
%TD*%
G04 APERTURE END LIST*
D10*
%TO.P,J2,1,Pin_1*%
%TO.N,GND*%
X116563024Y-101531605D03*
D11*
X116563024Y-107931605D03*
D10*
%TO.P,J2,2,Pin_2*%
X132563024Y-102131605D03*
D11*
X132563024Y-107331605D03*
D10*
%TO.P,J2,3,Pin_3*%
%TO.N,/CART*%
X143063024Y-102531605D03*
D11*
X143063024Y-106931605D03*
%TD*%
D12*
%TO.P,J3,S1,SHIELD*%
%TO.N,GND*%
X188953824Y-109051605D03*
D13*
X193133824Y-109051605D03*
D12*
X188953824Y-100411605D03*
D13*
X193133824Y-100411605D03*
%TD*%
D14*
%TO.P,C19,1*%
%TO.N,Net-(C19-Pad1)*%
X192392225Y-103204642D03*
%TO.P,C19,2*%
%TO.N,GND*%
X192392225Y-102244642D03*
%TD*%
D15*
%TO.P,R15,1*%
%TO.N,Net-(C19-Pad1)*%
X190812225Y-103234642D03*
%TO.P,R15,2*%
%TO.N,VCC*%
X190812225Y-102214642D03*
%TD*%
D16*
%TO.P,L3,1,1*%
%TO.N,+3V3*%
X183643026Y-107266606D03*
%TO.P,L3,2,2*%
%TO.N,Net-(C21-Pad2)*%
X185793026Y-107266606D03*
%TD*%
D17*
%TO.P,U5,1,VDD*%
%TO.N,Net-(C19-Pad1)*%
X193530525Y-104474642D03*
%TO.P,U5,2,GND*%
%TO.N,GND*%
X193530525Y-105424642D03*
%TO.P,U5,3,PG*%
%TO.N,unconnected-(U5-Pad3)*%
X193530525Y-106374642D03*
%TO.P,U5,4,CFG*%
%TO.N,Net-(R17-Pad2)*%
X191255525Y-106374642D03*
%TO.P,U5,5,CC1*%
%TO.N,Net-(J3-PadA5)*%
X191255525Y-105424642D03*
%TO.P,U5,6,CC2*%
%TO.N,Net-(J3-PadB5)*%
X191255525Y-104474642D03*
%TD*%
D15*
%TO.P,R7,1*%
%TO.N,GND*%
X156793025Y-102056606D03*
%TO.P,R7,2*%
%TO.N,Net-(Q1-Pad1)*%
X156793025Y-101036606D03*
%TD*%
D17*
%TO.P,U3,1*%
%TO.N,/TEMP*%
X146180525Y-108666606D03*
%TO.P,U3,2,GND*%
%TO.N,GND*%
X146180525Y-109616606D03*
%TO.P,U3,3,+*%
%TO.N,Net-(D1-Pad2)*%
X146180525Y-110566606D03*
%TO.P,U3,4,-*%
%TO.N,Net-(R10-Pad1)*%
X143905525Y-110566606D03*
%TO.P,U3,5,V+*%
%TO.N,+3V3*%
X143905525Y-108666606D03*
%TD*%
D18*
%TO.P,Q2,1,S*%
%TO.N,VCC*%
X150158025Y-100101606D03*
%TO.P,Q2,2,S*%
X150158025Y-100601606D03*
%TO.P,Q2,3,S*%
X150158025Y-101101606D03*
%TO.P,Q2,4,G*%
%TO.N,Net-(Q2-Pad4)*%
X150158025Y-101601606D03*
%TO.P,Q2,5,D*%
%TO.N,/CART*%
X147358025Y-101601606D03*
%TO.P,Q2,6,D*%
X147358025Y-101101606D03*
%TO.P,Q2,7,D*%
X147358025Y-100601606D03*
%TO.P,Q2,8,D*%
X147358025Y-100101606D03*
D19*
%TO.P,Q2,9,D*%
X148758025Y-100851606D03*
%TD*%
D20*
%TO.P,R4,1*%
%TO.N,Net-(Q1-Pad2)*%
X151323025Y-103136606D03*
%TO.P,R4,2*%
%TO.N,Net-(Q2-Pad4)*%
X150303025Y-103136606D03*
%TD*%
D21*
%TO.P,C21,1*%
%TO.N,Net-(C21-Pad1)*%
X186243025Y-103386606D03*
%TO.P,C21,2*%
%TO.N,Net-(C21-Pad2)*%
X186243025Y-104346606D03*
%TD*%
D15*
%TO.P,R11,1*%
%TO.N,Net-(R11-Pad1)*%
X181902640Y-103256606D03*
%TO.P,R11,2*%
%TO.N,GND*%
X181902640Y-102236606D03*
%TD*%
%TO.P,R6,1*%
%TO.N,/DRIVE*%
X157873025Y-102056606D03*
%TO.P,R6,2*%
%TO.N,Net-(Q1-Pad1)*%
X157873025Y-101036606D03*
%TD*%
D22*
%TO.P,U4,1,BST*%
%TO.N,Net-(C21-Pad2)*%
X185023026Y-105004106D03*
%TO.P,U4,2,GND*%
%TO.N,GND*%
X184073026Y-105004106D03*
%TO.P,U4,3,FB*%
%TO.N,Net-(R11-Pad1)*%
X183123026Y-105004106D03*
%TO.P,U4,4,EN*%
%TO.N,Net-(R16-Pad2)*%
X183123026Y-102729106D03*
%TO.P,U4,5,VIN*%
%TO.N,VCC*%
X184073026Y-102729106D03*
%TO.P,U4,6,SW*%
%TO.N,Net-(C21-Pad1)*%
X185023026Y-102729106D03*
%TD*%
D23*
%TO.P,Q1,1,B*%
%TO.N,Net-(Q1-Pad1)*%
X155040525Y-101036606D03*
%TO.P,Q1,2,C*%
%TO.N,Net-(Q1-Pad2)*%
X155040525Y-102936606D03*
%TO.P,Q1,3,E*%
%TO.N,GND*%
X153165525Y-101986606D03*
%TD*%
D14*
%TO.P,C20,1*%
%TO.N,+3V3*%
X181923026Y-107756606D03*
%TO.P,C20,2*%
%TO.N,GND*%
X181923026Y-106796606D03*
%TD*%
D21*
%TO.P,C24,1*%
%TO.N,+3V3*%
X141823025Y-108666603D03*
%TO.P,C24,2*%
%TO.N,GND*%
X141823025Y-109626603D03*
%TD*%
D24*
%TO.P,C25,1*%
%TO.N,/TEMP*%
X168413029Y-109016603D03*
%TO.P,C25,2*%
%TO.N,GND*%
X167453029Y-109016603D03*
%TD*%
D25*
%TO.P,SW2,1,1*%
%TO.N,/MOVE*%
X178573025Y-103556606D03*
%TO.P,SW2,2,2*%
%TO.N,GND*%
X178573025Y-105906606D03*
%TD*%
D26*
%TO.P,R3,1*%
%TO.N,VCC*%
X151273025Y-101216606D03*
%TO.P,R3,2*%
%TO.N,Net-(Q2-Pad4)*%
X151273025Y-102236606D03*
%TD*%
D20*
%TO.P,R16,1*%
%TO.N,VCC*%
X183703026Y-101316606D03*
%TO.P,R16,2*%
%TO.N,Net-(R16-Pad2)*%
X182683026Y-101316606D03*
%TD*%
D27*
%TO.P,C18,1*%
%TO.N,VCC*%
X184603026Y-101316606D03*
%TO.P,C18,2*%
%TO.N,GND*%
X185563026Y-101316606D03*
%TD*%
D15*
%TO.P,R17,1*%
%TO.N,Net-(C19-Pad1)*%
X193972225Y-103234642D03*
%TO.P,R17,2*%
%TO.N,Net-(R17-Pad2)*%
X193972225Y-102214642D03*
%TD*%
%TO.P,R12,1*%
%TO.N,+3V3*%
X181902640Y-105496606D03*
%TO.P,R12,2*%
%TO.N,Net-(R11-Pad1)*%
X181902640Y-104476606D03*
%TD*%
D28*
%TO.N,GND*%
X167611027Y-103969618D03*
X186033025Y-100616606D03*
X180123025Y-109676606D03*
X167611027Y-104731618D03*
X168373027Y-104731618D03*
X161713017Y-100706599D03*
X170243025Y-108636606D03*
X191373025Y-100956606D03*
X175643025Y-106456606D03*
X192393025Y-105424642D03*
X173823026Y-100936596D03*
X180653025Y-104536606D03*
X174783019Y-102656608D03*
X168373027Y-103969618D03*
X169135027Y-103969618D03*
X187453025Y-110296606D03*
X167611027Y-105493618D03*
X175153025Y-108306606D03*
X169135024Y-104731610D03*
X145053025Y-109046606D03*
X168373027Y-105493618D03*
X169135027Y-105493618D03*
X163293025Y-103636606D03*
%TO.N,+3V3*%
X170673020Y-102146601D03*
X170303025Y-109626606D03*
X165126757Y-105352404D03*
X165033026Y-102606595D03*
X180733020Y-105686599D03*
X172183025Y-107956606D03*
X143013029Y-108666603D03*
X174703025Y-104906606D03*
X180733020Y-106359826D03*
X173323027Y-102592117D03*
X175213016Y-101041606D03*
%TO.N,/CART*%
X145463037Y-102886605D03*
X141893016Y-102886605D03*
X144233017Y-102886605D03*
X140663025Y-107356606D03*
X148223025Y-105786606D03*
X140663021Y-102096614D03*
X144233025Y-107356606D03*
X148183025Y-104666606D03*
X146813022Y-101601619D03*
X145463037Y-102046601D03*
X141893025Y-106546606D03*
X148883025Y-106446606D03*
X140663025Y-106546606D03*
X145463025Y-106546606D03*
X148463031Y-101613606D03*
X147793025Y-107586606D03*
X148463031Y-100089606D03*
X144233025Y-106546606D03*
X144233017Y-102046601D03*
X146813022Y-100101596D03*
X147833025Y-106696606D03*
X146693032Y-102526610D03*
X147673015Y-102376598D03*
X148463031Y-100851606D03*
X140663021Y-102886605D03*
X148553025Y-107276606D03*
X141893016Y-102096614D03*
X145463025Y-107356607D03*
X141893025Y-107356606D03*
X146823025Y-106736606D03*
X146703025Y-107546606D03*
X148913025Y-105116606D03*
%TO.N,VCC*%
X150339024Y-99698600D03*
X154911024Y-99698600D03*
X162531025Y-99698606D03*
X180057025Y-98936606D03*
X177009025Y-98936606D03*
X165579025Y-99698606D03*
X187677025Y-99698606D03*
X182343025Y-98936606D03*
X168627025Y-99698606D03*
X174723025Y-99698606D03*
X151101024Y-98936600D03*
X177009025Y-99698606D03*
X177771025Y-98936606D03*
X164817025Y-98936606D03*
X173961025Y-99698606D03*
X155673025Y-98936606D03*
X161769025Y-99698606D03*
X157197025Y-99698606D03*
X172437025Y-99698606D03*
X173961025Y-98936606D03*
X189423025Y-104666606D03*
X167865025Y-99698606D03*
X175485025Y-98936606D03*
X181581025Y-98936606D03*
X150339024Y-98936600D03*
X175485025Y-99698606D03*
X176247025Y-98936606D03*
X176247025Y-99698606D03*
X151863024Y-98936600D03*
X189201025Y-98936606D03*
X159483025Y-99698606D03*
X184629025Y-98936606D03*
X159483025Y-98936606D03*
X161007025Y-98936606D03*
X156435025Y-98936606D03*
X160245025Y-99698606D03*
X173199025Y-98936606D03*
X165579025Y-98936606D03*
X181581025Y-99698606D03*
X167865025Y-98936606D03*
X167103024Y-99698600D03*
X172437025Y-98936606D03*
X183105025Y-98936606D03*
X182343025Y-99698606D03*
X166341024Y-99698600D03*
X160245025Y-98936606D03*
X183105025Y-99698606D03*
X178533025Y-99698606D03*
X189963025Y-98936606D03*
X170913025Y-98936606D03*
X186153025Y-99698606D03*
X158721025Y-98936606D03*
X163293025Y-99698606D03*
X166341025Y-98936606D03*
X183867025Y-98936606D03*
X186915025Y-98936606D03*
X177771025Y-99698606D03*
X185391025Y-99698606D03*
X151863024Y-99698600D03*
X151393025Y-100416606D03*
X174723025Y-98936606D03*
X180057025Y-99698606D03*
X186153025Y-98936606D03*
X161007025Y-99698606D03*
X168627025Y-98936606D03*
X156435025Y-99698606D03*
X154911024Y-98936600D03*
X153387024Y-98936600D03*
X155673024Y-99698600D03*
X187677025Y-98936606D03*
X170913025Y-99698606D03*
X167103025Y-98936606D03*
X161769025Y-98936606D03*
X158721025Y-99698606D03*
X188008025Y-107181606D03*
X178533025Y-98936606D03*
X169389025Y-99698606D03*
X179295025Y-98936606D03*
X173199025Y-99698606D03*
X183867025Y-99698606D03*
X164817025Y-99698606D03*
X170151025Y-99698606D03*
X151101024Y-99698600D03*
X180819025Y-98936606D03*
X184629025Y-99698606D03*
X169389025Y-98936606D03*
X157959025Y-99698606D03*
X187993025Y-102286606D03*
X186915025Y-99698606D03*
X190003025Y-106716606D03*
X153387024Y-99698600D03*
X185391025Y-98936606D03*
X164055025Y-99698606D03*
X171675025Y-99698606D03*
X188439025Y-98936606D03*
X180819025Y-99698606D03*
X154149024Y-98936600D03*
X164055025Y-98936606D03*
X157959025Y-98936606D03*
X170151025Y-98936606D03*
X152625024Y-99698600D03*
X157197025Y-98936606D03*
X179295025Y-99698606D03*
X171675025Y-98936606D03*
X154149024Y-99698600D03*
X162531025Y-98936606D03*
X152625024Y-98936600D03*
X163293025Y-98936606D03*
%TO.N,Net-(J3-PadA5)*%
X189567082Y-105675663D03*
%TO.N,Net-(J3-PadB5)*%
X189533025Y-103691606D03*
%TO.N,/DRIVE*%
X158713023Y-104306312D03*
X158713023Y-102026103D03*
X171235330Y-105698670D03*
%TO.N,/TEMP*%
X168413029Y-108117912D03*
X147263025Y-109096606D03*
%TO.N,/MOVE*%
X172063035Y-105516597D03*
%TO.N,Net-(D1-Pad2)*%
X142963025Y-109826606D03*
%TO.N,/SW_A*%
X166293018Y-100806497D03*
X156593025Y-103160906D03*
%TO.N,/SW_P*%
X169948737Y-101670793D03*
X157323025Y-103616606D03*
%TO.N,/SW_C*%
X169701984Y-100950760D03*
X156603025Y-104221906D03*
%TO.N,/SW_B*%
X168199251Y-101575802D03*
X156203025Y-105276606D03*
%TO.N,/SW_D*%
X169236926Y-101952240D03*
X155852095Y-104526706D03*
%TO.N,Net-(R10-Pad1)*%
X142783032Y-110566599D03*
%TD*%
D29*
%TO.N,+3V3*%
X143013032Y-108666606D02*
X143013029Y-108666603D01*
X143905525Y-108666606D02*
X143013032Y-108666606D01*
D30*
X183153026Y-107756606D02*
X183643026Y-107266606D01*
X181923026Y-107756606D02*
X183153026Y-107756606D01*
D29*
X143013029Y-108666603D02*
X141823025Y-108666603D01*
D30*
%TO.N,VCC*%
X184603026Y-101316606D02*
X184443026Y-101316606D01*
X184073026Y-101686606D02*
X183703026Y-101316606D01*
X184603026Y-101316606D02*
X184603026Y-99724605D01*
X184073026Y-102729106D02*
X184073026Y-101686606D01*
X184443026Y-101316606D02*
X184073026Y-101686606D01*
X184603026Y-99724605D02*
X184629025Y-99698606D01*
D29*
%TO.N,Net-(J3-PadA5)*%
X189567082Y-105675663D02*
X189818103Y-105424642D01*
X189818103Y-105424642D02*
X191255525Y-105424642D01*
%TO.N,Net-(J3-PadB5)*%
X189533025Y-103691606D02*
X190306061Y-104464642D01*
X190306061Y-104464642D02*
X190306061Y-104474642D01*
X190306061Y-104474642D02*
X191255525Y-104474642D01*
%TO.N,Net-(Q1-Pad1)*%
X156793025Y-101036606D02*
X157873025Y-101036606D01*
X155040525Y-101036606D02*
X156793025Y-101036606D01*
%TO.N,Net-(Q1-Pad2)*%
X151790030Y-104217504D02*
X154622127Y-104217504D01*
X154622127Y-104217504D02*
X155043025Y-103796606D01*
X151323025Y-103136606D02*
X151323025Y-103750499D01*
X155040525Y-103794106D02*
X155040525Y-102936606D01*
X155043025Y-103796606D02*
X155040525Y-103794106D01*
X151323025Y-103750499D02*
X151790030Y-104217504D01*
%TO.N,/DRIVE*%
X157873020Y-102056609D02*
X158682518Y-102056609D01*
X165053016Y-106016596D02*
X166573028Y-107536608D01*
X170823023Y-107536608D02*
X171235325Y-107124306D01*
X166573028Y-107536608D02*
X170823023Y-107536608D01*
X160423332Y-106016596D02*
X165053016Y-106016596D01*
X158713023Y-104306312D02*
X160423332Y-106016596D01*
X171235325Y-107124306D02*
X171235325Y-105698664D01*
D31*
X158682525Y-102056606D02*
X158713025Y-102026106D01*
D30*
%TO.N,Net-(C21-Pad1)*%
X186013026Y-103386606D02*
X185355526Y-102729106D01*
X185355526Y-102729106D02*
X185023026Y-102729106D01*
X186243025Y-103386606D02*
X186013026Y-103386606D01*
D29*
%TO.N,/TEMP*%
X156993025Y-106856606D02*
X165303025Y-106856606D01*
X154718233Y-109131398D02*
X156993025Y-106856606D01*
X147297817Y-109131398D02*
X154718233Y-109131398D01*
X168413029Y-108117912D02*
X168413029Y-109016603D01*
X147263025Y-109096606D02*
X147297817Y-109131398D01*
X146833025Y-108666606D02*
X146180525Y-108666606D01*
X147263025Y-109096606D02*
X146833025Y-108666606D01*
X166564331Y-108117912D02*
X168413029Y-108117912D01*
X165303025Y-106856606D02*
X166564331Y-108117912D01*
D30*
%TO.N,Net-(C21-Pad2)*%
X186232640Y-104346606D02*
X186243025Y-104346606D01*
X185575140Y-105004106D02*
X186232640Y-104346606D01*
D32*
X185793026Y-107266606D02*
X185793026Y-105221992D01*
D30*
X185023026Y-105004106D02*
X185575140Y-105004106D01*
D32*
X185793026Y-105221992D02*
X185575140Y-105004106D01*
D31*
%TO.N,/MOVE*%
X174843973Y-105516606D02*
X176803973Y-103556606D01*
X172063025Y-105516606D02*
X174843973Y-105516606D01*
X176803973Y-103556606D02*
X178573025Y-103556606D01*
D29*
%TO.N,Net-(Q2-Pad4)*%
X150638025Y-101601606D02*
X151273025Y-102236606D01*
X150373025Y-103136606D02*
X151273025Y-102236606D01*
X150158025Y-101601606D02*
X150638025Y-101601606D01*
X150303025Y-103136606D02*
X150373025Y-103136606D01*
%TO.N,Net-(D1-Pad2)*%
X144453025Y-109826606D02*
X145193025Y-110566606D01*
X142963025Y-109826606D02*
X144453025Y-109826606D01*
X145193025Y-110566606D02*
X146180525Y-110566606D01*
D31*
%TO.N,/SW_A*%
X156593025Y-103160906D02*
X156892525Y-102861406D01*
X156892525Y-102861406D02*
X161899277Y-102861406D01*
X163954177Y-100806506D02*
X166293025Y-100806506D01*
X161899277Y-102861406D02*
X163954177Y-100806506D01*
%TO.N,/SW_P*%
X169642986Y-101607352D02*
X169885296Y-101607352D01*
X169268711Y-101421240D02*
X169456874Y-101421240D01*
X169456874Y-101421240D02*
X169642986Y-101607352D01*
X169885296Y-101607352D02*
X169948737Y-101670793D01*
X157773425Y-103166206D02*
X162025529Y-103166206D01*
X157323025Y-103616606D02*
X157773425Y-103166206D01*
X168587973Y-100740502D02*
X169268711Y-101421240D01*
X166073077Y-101337506D02*
X166662125Y-101337506D01*
X166662125Y-101337506D02*
X167259129Y-100740502D01*
X165846877Y-101111306D02*
X166073077Y-101337506D01*
X167259129Y-100740502D02*
X168587973Y-100740502D01*
X162025529Y-103166206D02*
X164080429Y-101111306D01*
X164080429Y-101111306D02*
X165846877Y-101111306D01*
%TO.N,/SW_C*%
X169701984Y-100950760D02*
X169186926Y-100435702D01*
X156446377Y-102556606D02*
X156062025Y-102940958D01*
X161773025Y-102556606D02*
X156446377Y-102556606D01*
X169186926Y-100435702D02*
X166673169Y-100435702D01*
X156062025Y-102940958D02*
X156062025Y-103680906D01*
X156062025Y-103680906D02*
X156603025Y-104221906D01*
X166073077Y-100275506D02*
X165846877Y-100501706D01*
X165846877Y-100501706D02*
X163827925Y-100501706D01*
X163827925Y-100501706D02*
X161773025Y-102556606D01*
X166512973Y-100275506D02*
X166073077Y-100275506D01*
X166673169Y-100435702D02*
X166512973Y-100275506D01*
%TO.N,/SW_B*%
X166914629Y-101947106D02*
X165820573Y-101947106D01*
X168199251Y-101575802D02*
X167285933Y-101575802D01*
X167285933Y-101575802D02*
X166914629Y-101947106D01*
X156421925Y-105057706D02*
X156203025Y-105276606D01*
X158345825Y-103775806D02*
X157063925Y-105057706D01*
X162278033Y-103775806D02*
X158345825Y-103775806D01*
X165594373Y-101720906D02*
X164332933Y-101720906D01*
X164332933Y-101720906D02*
X162278033Y-103775806D01*
X157063925Y-105057706D02*
X156421925Y-105057706D01*
X165820573Y-101947106D02*
X165594373Y-101720906D01*
%TO.N,/SW_D*%
X167385381Y-101045302D02*
X166788377Y-101642306D01*
X169236926Y-101952240D02*
X169236926Y-101820507D01*
X165946825Y-101642306D02*
X165720625Y-101416106D01*
X158219573Y-103471006D02*
X156937673Y-104752906D01*
X156937673Y-104752906D02*
X156383077Y-104752906D01*
X168461721Y-101045302D02*
X167385381Y-101045302D01*
X165720625Y-101416106D02*
X164206681Y-101416106D01*
X156156877Y-104526706D02*
X155852095Y-104526706D01*
X162151781Y-103471006D02*
X158219573Y-103471006D01*
X166788377Y-101642306D02*
X165946825Y-101642306D01*
X164206681Y-101416106D02*
X162151781Y-103471006D01*
X169236926Y-101820507D02*
X168461721Y-101045302D01*
X156383077Y-104752906D02*
X156156877Y-104526706D01*
D30*
%TO.N,Net-(R16-Pad2)*%
X182683026Y-101736606D02*
X182683026Y-101316606D01*
X183123026Y-102729106D02*
X183123026Y-102176606D01*
X183123026Y-102176606D02*
X182683026Y-101736606D01*
D29*
%TO.N,Net-(R10-Pad1)*%
X142783025Y-110566606D02*
X143905525Y-110566606D01*
%TO.N,Net-(R17-Pad2)*%
X194220888Y-106954042D02*
X192655461Y-106954042D01*
X192076061Y-106374642D02*
X191255525Y-106374642D01*
X194571625Y-102490206D02*
X194571625Y-106603305D01*
X194571625Y-106603305D02*
X194220888Y-106954042D01*
X193972225Y-102214642D02*
X194296061Y-102214642D01*
X194296061Y-102214642D02*
X194571625Y-102490206D01*
X192655461Y-106954042D02*
X192076061Y-106374642D01*
D30*
%TO.N,Net-(R11-Pad1)*%
X181902640Y-104476606D02*
X181902640Y-103256606D01*
X182430140Y-105004106D02*
X181902640Y-104476606D01*
X183123026Y-105004106D02*
X182430140Y-105004106D01*
D29*
%TO.N,Net-(C19-Pad1)*%
X193530525Y-104474642D02*
X192846061Y-104474642D01*
X192392225Y-104020806D02*
X192392225Y-103204642D01*
X192392225Y-103204642D02*
X190842225Y-103204642D01*
X190842225Y-103204642D02*
X190812225Y-103234642D01*
X193972225Y-103234642D02*
X193972225Y-103602406D01*
X193530525Y-104044106D02*
X193530525Y-104474642D01*
X193972225Y-103602406D02*
X193530525Y-104044106D01*
X192846061Y-104474642D02*
X192392225Y-104020806D01*
%TD*%
%TA.AperFunction,Conductor*%
%TO.N,VCC*%
G36*
X190556397Y-98554499D02*
G01*
X190582117Y-98599048D01*
X190583259Y-98611951D01*
X190586172Y-100043844D01*
X190591680Y-102751467D01*
X190574185Y-102799840D01*
X190546855Y-102820412D01*
X190468082Y-102855194D01*
X190468079Y-102855196D01*
X190461704Y-102858011D01*
X190385594Y-102934121D01*
X190342118Y-103032585D01*
X190339325Y-103056658D01*
X190339325Y-103412626D01*
X190342118Y-103436699D01*
X190385594Y-103535163D01*
X190461704Y-103611273D01*
X190468079Y-103614088D01*
X190468082Y-103614090D01*
X190548823Y-103649741D01*
X190585936Y-103685360D01*
X190593647Y-103718378D01*
X190594133Y-103956933D01*
X190594251Y-104014804D01*
X190576756Y-104063177D01*
X190568834Y-104070375D01*
X190568881Y-104070422D01*
X190568880Y-104070422D01*
X190491451Y-104147851D01*
X190444835Y-104169589D01*
X190395147Y-104156276D01*
X190385106Y-104147849D01*
X190011562Y-103774305D01*
X189989822Y-103727685D01*
X189990301Y-103710430D01*
X189992242Y-103696928D01*
X189992242Y-103696927D01*
X189993007Y-103691606D01*
X189974374Y-103562014D01*
X189919986Y-103442921D01*
X189852112Y-103364590D01*
X189837774Y-103348043D01*
X189834249Y-103343975D01*
X189724108Y-103273192D01*
X189718951Y-103271678D01*
X189718947Y-103271676D01*
X189603650Y-103237822D01*
X189598487Y-103236306D01*
X189467563Y-103236306D01*
X189462400Y-103237822D01*
X189347103Y-103271676D01*
X189347099Y-103271678D01*
X189341942Y-103273192D01*
X189231801Y-103343975D01*
X189228276Y-103348043D01*
X189213938Y-103364590D01*
X189146064Y-103442921D01*
X189091676Y-103562014D01*
X189073043Y-103691606D01*
X189091676Y-103821198D01*
X189146064Y-103940291D01*
X189231801Y-104039237D01*
X189341942Y-104110020D01*
X189347099Y-104111534D01*
X189347103Y-104111536D01*
X189432539Y-104136622D01*
X189467563Y-104146906D01*
X189561339Y-104146906D01*
X189609677Y-104164499D01*
X189614513Y-104168932D01*
X190057265Y-104611684D01*
X190071406Y-104631337D01*
X190078827Y-104646241D01*
X190083977Y-104650936D01*
X190087740Y-104655919D01*
X190091960Y-104660548D01*
X190095630Y-104666475D01*
X190124289Y-104688118D01*
X190129614Y-104692541D01*
X190151008Y-104712044D01*
X190151010Y-104712045D01*
X190156160Y-104716740D01*
X190162660Y-104719258D01*
X190167976Y-104722549D01*
X190173577Y-104725338D01*
X190179138Y-104729538D01*
X190185840Y-104731445D01*
X190213668Y-104739363D01*
X190220248Y-104741568D01*
X190253739Y-104754542D01*
X190260711Y-104754542D01*
X190266852Y-104755690D01*
X190273084Y-104756268D01*
X190279788Y-104758175D01*
X190286727Y-104757532D01*
X190315532Y-104754863D01*
X190322470Y-104754542D01*
X190420409Y-104754542D01*
X190468747Y-104772135D01*
X190482447Y-104787241D01*
X190485991Y-104792414D01*
X190488805Y-104798787D01*
X190568880Y-104878862D01*
X190567905Y-104879837D01*
X190593357Y-104915398D01*
X190596124Y-104935457D01*
X190596181Y-104963482D01*
X190578686Y-105011855D01*
X190569617Y-105020097D01*
X190568880Y-105020422D01*
X190488805Y-105100497D01*
X190485991Y-105106870D01*
X190482447Y-105112043D01*
X190440613Y-105141977D01*
X190420409Y-105144742D01*
X189868570Y-105144742D01*
X189862501Y-105144320D01*
X189857443Y-105142625D01*
X189813376Y-105144662D01*
X189809904Y-105144742D01*
X189792168Y-105144742D01*
X189788755Y-105145380D01*
X189785289Y-105145701D01*
X189785282Y-105145631D01*
X189780556Y-105146179D01*
X189759868Y-105147135D01*
X189759866Y-105147135D01*
X189752910Y-105147457D01*
X189746538Y-105150271D01*
X189746537Y-105150271D01*
X189742732Y-105151951D01*
X189726176Y-105157077D01*
X189722094Y-105157840D01*
X189722089Y-105157842D01*
X189715240Y-105159122D01*
X189691700Y-105173697D01*
X189682498Y-105178547D01*
X189663559Y-105186909D01*
X189663556Y-105186911D01*
X189657181Y-105189726D01*
X189649314Y-105197593D01*
X189635718Y-105208361D01*
X189634516Y-105209105D01*
X189594938Y-105220363D01*
X189501620Y-105220363D01*
X189496457Y-105221879D01*
X189381160Y-105255733D01*
X189381156Y-105255735D01*
X189375999Y-105257249D01*
X189265858Y-105328032D01*
X189180121Y-105426978D01*
X189125733Y-105546071D01*
X189107100Y-105675663D01*
X189125733Y-105805255D01*
X189180121Y-105924348D01*
X189265858Y-106023294D01*
X189375999Y-106094077D01*
X189381156Y-106095591D01*
X189381160Y-106095593D01*
X189494795Y-106128959D01*
X189501620Y-106130963D01*
X189632544Y-106130963D01*
X189639369Y-106128959D01*
X189753004Y-106095593D01*
X189753008Y-106095591D01*
X189758165Y-106094077D01*
X189868306Y-106023294D01*
X189954043Y-105924348D01*
X190008431Y-105805255D01*
X190013638Y-105769040D01*
X190037932Y-105723698D01*
X190088073Y-105704542D01*
X190420409Y-105704542D01*
X190468747Y-105722135D01*
X190482447Y-105737241D01*
X190485991Y-105742414D01*
X190488805Y-105748787D01*
X190568880Y-105828862D01*
X190568481Y-105829261D01*
X190595293Y-105866729D01*
X190598059Y-105886782D01*
X190598111Y-105912159D01*
X190580616Y-105960532D01*
X190570540Y-105969689D01*
X190568880Y-105970422D01*
X190488805Y-106050497D01*
X190485990Y-106056871D01*
X190485990Y-106056872D01*
X190453276Y-106130963D01*
X190443063Y-106154092D01*
X190440125Y-106179416D01*
X190440125Y-106569868D01*
X190443063Y-106595192D01*
X190445348Y-106600368D01*
X190445349Y-106600370D01*
X190465574Y-106646175D01*
X190488805Y-106698787D01*
X190568880Y-106778862D01*
X190569322Y-106779057D01*
X190597229Y-106818054D01*
X190599994Y-106838105D01*
X190602239Y-107941302D01*
X190603074Y-108351872D01*
X190585579Y-108400245D01*
X190541083Y-108426056D01*
X190528045Y-108427225D01*
X189714271Y-108429078D01*
X189695399Y-108426716D01*
X189590883Y-108399881D01*
X189590880Y-108399881D01*
X189586305Y-108398706D01*
X188362750Y-108398706D01*
X188360399Y-108399003D01*
X188244857Y-108413599D01*
X188244855Y-108413600D01*
X188240165Y-108414192D01*
X188235771Y-108415932D01*
X188235766Y-108415933D01*
X188207072Y-108427293D01*
X188179562Y-108432573D01*
X187190595Y-108434826D01*
X186689059Y-108435969D01*
X186640683Y-108418486D01*
X186614861Y-108373996D01*
X186613689Y-108360855D01*
X186612920Y-107690318D01*
X189005925Y-107690318D01*
X189007440Y-107695476D01*
X189007440Y-107695479D01*
X189033671Y-107784811D01*
X189044642Y-107822174D01*
X189118939Y-107937782D01*
X189222796Y-108027775D01*
X189347801Y-108084863D01*
X189379700Y-108089449D01*
X189446987Y-108099124D01*
X189446993Y-108099124D01*
X189449647Y-108099506D01*
X189518003Y-108099506D01*
X189520657Y-108099124D01*
X189520663Y-108099124D01*
X189587950Y-108089449D01*
X189619849Y-108084863D01*
X189744854Y-108027775D01*
X189848711Y-107937782D01*
X189923008Y-107822174D01*
X189933979Y-107784811D01*
X189960210Y-107695479D01*
X189960210Y-107695476D01*
X189961725Y-107690318D01*
X189961725Y-107552894D01*
X189923008Y-107421038D01*
X189862282Y-107326547D01*
X189851618Y-107309953D01*
X189851617Y-107309952D01*
X189848711Y-107305430D01*
X189840736Y-107298519D01*
X189791316Y-107255697D01*
X189744854Y-107215437D01*
X189619849Y-107158349D01*
X189587950Y-107153763D01*
X189520663Y-107144088D01*
X189520657Y-107144088D01*
X189518003Y-107143706D01*
X189449647Y-107143706D01*
X189446993Y-107144088D01*
X189446987Y-107144088D01*
X189379700Y-107153763D01*
X189347801Y-107158349D01*
X189222796Y-107215437D01*
X189176334Y-107255697D01*
X189126915Y-107298519D01*
X189118939Y-107305430D01*
X189116033Y-107309952D01*
X189116032Y-107309953D01*
X189105368Y-107326547D01*
X189044642Y-107421038D01*
X189005925Y-107552894D01*
X189005925Y-107690318D01*
X186612920Y-107690318D01*
X186610889Y-105919451D01*
X186609531Y-104735557D01*
X186627069Y-104687200D01*
X186631557Y-104682298D01*
X186658853Y-104655002D01*
X186703084Y-104554827D01*
X186705925Y-104530340D01*
X186705925Y-104162872D01*
X186703084Y-104138385D01*
X186658853Y-104038210D01*
X186630664Y-104010021D01*
X186608924Y-103963401D01*
X186608638Y-103956933D01*
X186608614Y-103935394D01*
X186608432Y-103776657D01*
X186625970Y-103728299D01*
X186630458Y-103723397D01*
X186658853Y-103695002D01*
X186703084Y-103594827D01*
X186705925Y-103570340D01*
X186705925Y-103202872D01*
X186703084Y-103178385D01*
X186658853Y-103078210D01*
X186629562Y-103048919D01*
X186607822Y-103002299D01*
X186607536Y-102995831D01*
X186607256Y-102751467D01*
X186606291Y-101910318D01*
X189005925Y-101910318D01*
X189007440Y-101915476D01*
X189007440Y-101915479D01*
X189030560Y-101994216D01*
X189044642Y-102042174D01*
X189047550Y-102046699D01*
X189105466Y-102136817D01*
X189118939Y-102157782D01*
X189222796Y-102247775D01*
X189347801Y-102304863D01*
X189376415Y-102308977D01*
X189446987Y-102319124D01*
X189446993Y-102319124D01*
X189449647Y-102319506D01*
X189518003Y-102319506D01*
X189520657Y-102319124D01*
X189520663Y-102319124D01*
X189591235Y-102308977D01*
X189619849Y-102304863D01*
X189744854Y-102247775D01*
X189848711Y-102157782D01*
X189862185Y-102136817D01*
X189920100Y-102046699D01*
X189923008Y-102042174D01*
X189937090Y-101994216D01*
X189960210Y-101915479D01*
X189960210Y-101915476D01*
X189961725Y-101910318D01*
X189961725Y-101772894D01*
X189959994Y-101766997D01*
X189924523Y-101646197D01*
X189924523Y-101646196D01*
X189923008Y-101641038D01*
X189874334Y-101565300D01*
X189851618Y-101529953D01*
X189851617Y-101529952D01*
X189848711Y-101525430D01*
X189744854Y-101435437D01*
X189619849Y-101378349D01*
X189587950Y-101373763D01*
X189520663Y-101364088D01*
X189520657Y-101364088D01*
X189518003Y-101363706D01*
X189449647Y-101363706D01*
X189446993Y-101364088D01*
X189446987Y-101364088D01*
X189379700Y-101373763D01*
X189347801Y-101378349D01*
X189222796Y-101435437D01*
X189118939Y-101525430D01*
X189116033Y-101529952D01*
X189116032Y-101529953D01*
X189093316Y-101565300D01*
X189044642Y-101641038D01*
X189043127Y-101646196D01*
X189043127Y-101646197D01*
X189007657Y-101766997D01*
X189005925Y-101772894D01*
X189005925Y-101910318D01*
X186606291Y-101910318D01*
X186604525Y-100370284D01*
X187747035Y-100370284D01*
X187747332Y-100375005D01*
X187747332Y-100375006D01*
X187755851Y-100510405D01*
X187757393Y-100534920D01*
X187758854Y-100539416D01*
X187806907Y-100687312D01*
X187806909Y-100687315D01*
X187808368Y-100691807D01*
X187896759Y-100831088D01*
X187900209Y-100834328D01*
X187900210Y-100834329D01*
X187951677Y-100882660D01*
X188017010Y-100944011D01*
X188021159Y-100946292D01*
X188157418Y-101021202D01*
X188157421Y-101021203D01*
X188161566Y-101023482D01*
X188166151Y-101024659D01*
X188166153Y-101024660D01*
X188232155Y-101041606D01*
X188321345Y-101064506D01*
X189544900Y-101064506D01*
X189554225Y-101063328D01*
X189662793Y-101049613D01*
X189662795Y-101049612D01*
X189667485Y-101049020D01*
X189671881Y-101047280D01*
X189671883Y-101047279D01*
X189731987Y-101023482D01*
X189820862Y-100988294D01*
X189834742Y-100978210D01*
X189950489Y-100894114D01*
X189954318Y-100891332D01*
X190016592Y-100816056D01*
X190056456Y-100767869D01*
X190056456Y-100767868D01*
X190059468Y-100764228D01*
X190129705Y-100614967D01*
X190144975Y-100534920D01*
X190159728Y-100457578D01*
X190160615Y-100452928D01*
X190155713Y-100375006D01*
X190150554Y-100293010D01*
X190150554Y-100293009D01*
X190150257Y-100288292D01*
X190132533Y-100233743D01*
X190100743Y-100135900D01*
X190100741Y-100135897D01*
X190099282Y-100131405D01*
X190010891Y-99992124D01*
X189890640Y-99879201D01*
X189815149Y-99837699D01*
X189750232Y-99802010D01*
X189750229Y-99802009D01*
X189746084Y-99799730D01*
X189741499Y-99798553D01*
X189741497Y-99798552D01*
X189646619Y-99774192D01*
X189586305Y-99758706D01*
X188362750Y-99758706D01*
X188360399Y-99759003D01*
X188244857Y-99773599D01*
X188244855Y-99773600D01*
X188240165Y-99774192D01*
X188235769Y-99775932D01*
X188235767Y-99775933D01*
X188181429Y-99797447D01*
X188086788Y-99834918D01*
X188082961Y-99837698D01*
X188082960Y-99837699D01*
X188025838Y-99879201D01*
X187953332Y-99931880D01*
X187950315Y-99935527D01*
X187859354Y-100045480D01*
X187848182Y-100058984D01*
X187777945Y-100208245D01*
X187777058Y-100212893D01*
X187777058Y-100212894D01*
X187760703Y-100298631D01*
X187747035Y-100370284D01*
X186604525Y-100370284D01*
X186604201Y-100087593D01*
X166710995Y-100115747D01*
X166662634Y-100098222D01*
X166656498Y-100092305D01*
X166655931Y-100091893D01*
X166650643Y-100086020D01*
X166628026Y-100075950D01*
X166617670Y-100070327D01*
X166596909Y-100056845D01*
X166588385Y-100055495D01*
X166569560Y-100049919D01*
X166568893Y-100049622D01*
X166561670Y-100046406D01*
X166536919Y-100046406D01*
X166525155Y-100045480D01*
X166508521Y-100042845D01*
X166508519Y-100042845D01*
X166500715Y-100041609D01*
X166493083Y-100043654D01*
X166493082Y-100043654D01*
X166492374Y-100043844D01*
X166472911Y-100046406D01*
X166081037Y-100046406D01*
X166077102Y-100046303D01*
X166071461Y-100046007D01*
X166036437Y-100044172D01*
X166021466Y-100049919D01*
X166013338Y-100053039D01*
X166002024Y-100056391D01*
X165977812Y-100061537D01*
X165971419Y-100066182D01*
X165971417Y-100066183D01*
X165970825Y-100066613D01*
X165953575Y-100075979D01*
X165952893Y-100076241D01*
X165952892Y-100076242D01*
X165945513Y-100079074D01*
X165929686Y-100094901D01*
X165883066Y-100116641D01*
X165876618Y-100116927D01*
X151787360Y-100136867D01*
X151787359Y-100136867D01*
X151774101Y-100136886D01*
X151774095Y-100145988D01*
X151773074Y-101701455D01*
X151755449Y-101749781D01*
X151710884Y-101775472D01*
X151697874Y-101776606D01*
X151240013Y-101776606D01*
X151191675Y-101759013D01*
X151186839Y-101754581D01*
X150871633Y-101439376D01*
X150867638Y-101434785D01*
X150865259Y-101430007D01*
X150832646Y-101400276D01*
X150830135Y-101397878D01*
X150817605Y-101385348D01*
X150814734Y-101383381D01*
X150812062Y-101381162D01*
X150812108Y-101381107D01*
X150808387Y-101378159D01*
X150793075Y-101364201D01*
X150793072Y-101364199D01*
X150787926Y-101359508D01*
X150781432Y-101356992D01*
X150781430Y-101356991D01*
X150777549Y-101355487D01*
X150762220Y-101347407D01*
X150758792Y-101345059D01*
X150758790Y-101345058D01*
X150753041Y-101341120D01*
X150746260Y-101339525D01*
X150746255Y-101339523D01*
X150726098Y-101334782D01*
X150716152Y-101331702D01*
X150696849Y-101324225D01*
X150696850Y-101324225D01*
X150690347Y-101321706D01*
X150679222Y-101321706D01*
X150662005Y-101319708D01*
X150657963Y-101318757D01*
X150657956Y-101318757D01*
X150651176Y-101317162D01*
X150623769Y-101320985D01*
X150613380Y-101321706D01*
X150132090Y-101321706D01*
X150128675Y-101322345D01*
X150128670Y-101322345D01*
X150128238Y-101322426D01*
X150114418Y-101323707D01*
X149849311Y-101323707D01*
X149830795Y-101327390D01*
X149779954Y-101319565D01*
X149746038Y-101280890D01*
X149740925Y-101253635D01*
X149740924Y-100041846D01*
X149740924Y-100039388D01*
X149726307Y-99928354D01*
X149669084Y-99790206D01*
X149666088Y-99786302D01*
X149666086Y-99786298D01*
X149578565Y-99672238D01*
X149563025Y-99626459D01*
X149563025Y-98612106D01*
X149580618Y-98563768D01*
X149625167Y-98538048D01*
X149638225Y-98536906D01*
X190508059Y-98536906D01*
X190556397Y-98554499D01*
G37*
%TD.AperFunction*%
%TD*%
%TA.AperFunction,Conductor*%
%TO.N,/CART*%
G36*
X149335146Y-99336608D02*
G01*
X149381639Y-99390264D01*
X149393025Y-99442606D01*
X149393025Y-108030606D01*
X149373023Y-108098727D01*
X149319367Y-108145220D01*
X149267025Y-108156606D01*
X140009025Y-108156606D01*
X139940904Y-108136604D01*
X139894411Y-108082948D01*
X139883025Y-108030606D01*
X139883025Y-106362906D01*
X139903027Y-106294785D01*
X139956683Y-106248292D01*
X140009025Y-106236906D01*
X147509027Y-106236906D01*
X147520655Y-106237444D01*
X147523139Y-106237674D01*
X147534368Y-106240869D01*
X147545991Y-106239792D01*
X147571343Y-106237443D01*
X147582968Y-106236906D01*
X147591314Y-106236906D01*
X147599523Y-106235371D01*
X147611045Y-106233764D01*
X147636397Y-106231415D01*
X147648021Y-106230338D01*
X147658470Y-106225135D01*
X147660877Y-106224450D01*
X147661152Y-106224385D01*
X147661413Y-106224270D01*
X147663746Y-106223366D01*
X147675222Y-106221221D01*
X147706788Y-106201676D01*
X147716951Y-106196015D01*
X147750196Y-106179461D01*
X147758061Y-106170833D01*
X147760065Y-106169320D01*
X147760294Y-106169163D01*
X147760495Y-106168962D01*
X147762341Y-106167279D01*
X147772267Y-106161133D01*
X147794648Y-106131495D01*
X147802069Y-106122559D01*
X147827092Y-106095110D01*
X147831310Y-106084224D01*
X147832625Y-106082099D01*
X147832784Y-106081866D01*
X147832898Y-106081609D01*
X147834015Y-106079366D01*
X147841052Y-106070047D01*
X147851212Y-106034339D01*
X147854911Y-106023303D01*
X147864107Y-105999566D01*
X147864108Y-105999562D01*
X147868325Y-105988676D01*
X147868325Y-105976999D01*
X147868786Y-105974533D01*
X147868850Y-105974262D01*
X147868863Y-105973976D01*
X147869093Y-105971492D01*
X147872288Y-105960263D01*
X147868862Y-105923288D01*
X147868325Y-105911663D01*
X147868325Y-103585604D01*
X147868863Y-103573976D01*
X147869093Y-103571492D01*
X147872288Y-103560263D01*
X147868862Y-103523288D01*
X147868325Y-103511663D01*
X147868325Y-103503317D01*
X147866790Y-103495108D01*
X147865183Y-103483586D01*
X147862834Y-103458234D01*
X147861757Y-103446610D01*
X147856554Y-103436161D01*
X147855869Y-103433754D01*
X147855804Y-103433479D01*
X147855689Y-103433218D01*
X147854785Y-103430885D01*
X147852640Y-103419409D01*
X147833095Y-103387843D01*
X147827431Y-103377675D01*
X147816084Y-103354886D01*
X147810880Y-103344435D01*
X147802252Y-103336570D01*
X147800739Y-103334566D01*
X147800582Y-103334337D01*
X147800381Y-103334136D01*
X147798698Y-103332290D01*
X147792552Y-103322364D01*
X147762914Y-103299983D01*
X147753978Y-103292562D01*
X147726529Y-103267539D01*
X147715643Y-103263321D01*
X147713518Y-103262006D01*
X147713285Y-103261847D01*
X147713028Y-103261733D01*
X147710785Y-103260616D01*
X147701466Y-103253579D01*
X147690235Y-103250383D01*
X147690234Y-103250383D01*
X147665758Y-103243419D01*
X147654722Y-103239720D01*
X147630985Y-103230524D01*
X147630981Y-103230523D01*
X147620095Y-103226306D01*
X147608418Y-103226306D01*
X147605952Y-103225845D01*
X147605681Y-103225781D01*
X147605395Y-103225768D01*
X147602911Y-103225538D01*
X147591682Y-103222343D01*
X147580059Y-103223420D01*
X147554707Y-103225769D01*
X147543082Y-103226306D01*
X140009025Y-103226306D01*
X139940904Y-103206304D01*
X139894411Y-103152648D01*
X139883025Y-103100306D01*
X139883025Y-101482606D01*
X139903027Y-101414485D01*
X139956683Y-101367992D01*
X140009025Y-101356606D01*
X146333025Y-101356606D01*
X146333025Y-99442606D01*
X146353027Y-99374485D01*
X146406683Y-99327992D01*
X146459025Y-99316606D01*
X149267025Y-99316606D01*
X149335146Y-99336608D01*
G37*
%TD.AperFunction*%
%TD*%
%TA.AperFunction,Conductor*%
%TO.N,GND*%
G36*
X194863467Y-98536908D02*
G01*
X194863498Y-98536918D01*
X194863594Y-98536918D01*
X194904444Y-98536908D01*
X194919119Y-98538350D01*
X194971669Y-98548793D01*
X194998786Y-98560021D01*
X195037056Y-98585588D01*
X195057810Y-98606342D01*
X195083377Y-98644609D01*
X195094605Y-98671722D01*
X195105035Y-98724198D01*
X195106477Y-98738872D01*
X195106468Y-98779896D01*
X195106477Y-98779924D01*
X195106479Y-98779949D01*
X195106479Y-110724219D01*
X195105034Y-110738891D01*
X195096287Y-110782864D01*
X195094582Y-110791434D01*
X195083352Y-110818543D01*
X195057768Y-110856830D01*
X195037022Y-110877575D01*
X195016418Y-110891342D01*
X194998737Y-110903156D01*
X194971628Y-110914384D01*
X194918948Y-110924861D01*
X194904282Y-110926305D01*
X194863535Y-110926303D01*
X194863439Y-110926303D01*
X194863434Y-110926305D01*
X164708833Y-110926305D01*
X164660495Y-110908712D01*
X164634775Y-110864163D01*
X164633633Y-110851121D01*
X164633627Y-110818552D01*
X164633378Y-109626606D01*
X169843043Y-109626606D01*
X169861676Y-109756198D01*
X169916064Y-109875291D01*
X170001801Y-109974237D01*
X170111942Y-110045020D01*
X170117099Y-110046534D01*
X170117103Y-110046536D01*
X170232400Y-110080390D01*
X170237563Y-110081906D01*
X170368487Y-110081906D01*
X170373650Y-110080390D01*
X170488947Y-110046536D01*
X170488951Y-110046534D01*
X170494108Y-110045020D01*
X170604249Y-109974237D01*
X170689986Y-109875291D01*
X170744374Y-109756198D01*
X170763007Y-109626606D01*
X170744374Y-109497014D01*
X170689986Y-109377921D01*
X170604249Y-109278975D01*
X170494108Y-109208192D01*
X170488951Y-109206678D01*
X170488947Y-109206676D01*
X170373650Y-109172822D01*
X170368487Y-109171306D01*
X170237563Y-109171306D01*
X170232400Y-109172822D01*
X170117103Y-109206676D01*
X170117099Y-109206678D01*
X170111942Y-109208192D01*
X170001801Y-109278975D01*
X169916064Y-109377921D01*
X169861676Y-109497014D01*
X169843043Y-109626606D01*
X164633378Y-109626606D01*
X164633237Y-108949269D01*
X164633028Y-107944865D01*
X164633028Y-107944864D01*
X164633025Y-107931606D01*
X157033025Y-107931606D01*
X157033147Y-108517349D01*
X157033632Y-110851089D01*
X157016049Y-110899431D01*
X156971506Y-110925160D01*
X156958432Y-110926305D01*
X147046955Y-110926305D01*
X146998617Y-110908712D01*
X146972897Y-110864163D01*
X146978162Y-110820731D01*
X146982684Y-110810491D01*
X146992987Y-110787156D01*
X146995925Y-110761832D01*
X146995925Y-110371380D01*
X146992987Y-110346056D01*
X146982724Y-110322811D01*
X146950060Y-110248836D01*
X146950060Y-110248835D01*
X146947245Y-110242461D01*
X146867170Y-110162386D01*
X146772562Y-110120612D01*
X146768753Y-110118930D01*
X146768751Y-110118929D01*
X146763575Y-110116644D01*
X146738251Y-110113706D01*
X145622799Y-110113706D01*
X145597475Y-110116644D01*
X145592299Y-110118929D01*
X145592297Y-110118930D01*
X145588488Y-110120612D01*
X145493880Y-110162386D01*
X145413805Y-110242461D01*
X145410991Y-110248834D01*
X145407447Y-110254007D01*
X145365613Y-110283941D01*
X145345409Y-110286706D01*
X145340111Y-110286706D01*
X145291773Y-110269113D01*
X145286937Y-110264680D01*
X144686636Y-109664379D01*
X144682638Y-109659785D01*
X144680259Y-109655007D01*
X144647646Y-109625276D01*
X144645135Y-109622878D01*
X144632605Y-109610348D01*
X144629734Y-109608381D01*
X144627062Y-109606162D01*
X144627108Y-109606107D01*
X144623387Y-109603159D01*
X144608075Y-109589201D01*
X144608072Y-109589199D01*
X144602926Y-109584508D01*
X144596432Y-109581992D01*
X144596430Y-109581991D01*
X144592549Y-109580487D01*
X144577220Y-109572407D01*
X144573792Y-109570059D01*
X144573790Y-109570058D01*
X144568041Y-109566120D01*
X144561260Y-109564525D01*
X144561255Y-109564523D01*
X144541098Y-109559782D01*
X144531152Y-109556702D01*
X144511849Y-109549225D01*
X144511850Y-109549225D01*
X144505347Y-109546706D01*
X144494222Y-109546706D01*
X144477005Y-109544708D01*
X144472963Y-109543757D01*
X144472956Y-109543757D01*
X144466176Y-109542162D01*
X144438769Y-109545985D01*
X144428380Y-109546706D01*
X143357280Y-109546706D01*
X143308942Y-109529113D01*
X143300448Y-109520751D01*
X143267774Y-109483043D01*
X143264249Y-109478975D01*
X143154108Y-109408192D01*
X143148951Y-109406678D01*
X143148947Y-109406676D01*
X143033650Y-109372822D01*
X143028487Y-109371306D01*
X142897563Y-109371306D01*
X142892400Y-109372822D01*
X142777103Y-109406676D01*
X142777099Y-109406678D01*
X142771942Y-109408192D01*
X142661801Y-109478975D01*
X142576064Y-109577921D01*
X142521676Y-109697014D01*
X142503043Y-109826606D01*
X142521676Y-109956198D01*
X142529914Y-109974237D01*
X142573828Y-110070396D01*
X142573830Y-110070399D01*
X142573860Y-110070465D01*
X142576064Y-110075291D01*
X142575054Y-110075752D01*
X142585180Y-110120612D01*
X142561604Y-110166331D01*
X142551244Y-110174344D01*
X142481808Y-110218968D01*
X142396071Y-110317914D01*
X142341683Y-110437007D01*
X142323050Y-110566599D01*
X142341683Y-110696191D01*
X142393882Y-110810491D01*
X142396071Y-110815284D01*
X142395068Y-110815742D01*
X142405207Y-110860621D01*
X142381639Y-110906344D01*
X142330612Y-110926305D01*
X107111373Y-110926305D01*
X107111365Y-110926302D01*
X107111215Y-110926302D01*
X107070414Y-110926305D01*
X107055752Y-110924862D01*
X107003166Y-110914404D01*
X106976059Y-110903176D01*
X106937765Y-110877590D01*
X106917017Y-110856844D01*
X106891429Y-110818552D01*
X106880199Y-110791443D01*
X106880198Y-110791434D01*
X106869770Y-110739016D01*
X106868325Y-110724345D01*
X106868325Y-107689213D01*
X106885918Y-107640875D01*
X106890351Y-107636039D01*
X107267458Y-107258932D01*
X107314078Y-107237192D01*
X107320632Y-107236906D01*
X125907601Y-107236906D01*
X125914691Y-107237398D01*
X125920115Y-107239216D01*
X125968344Y-107236986D01*
X125971817Y-107236906D01*
X125991314Y-107236906D01*
X125994734Y-107236267D01*
X125998193Y-107235946D01*
X125998196Y-107235976D01*
X126003506Y-107235360D01*
X126008390Y-107235134D01*
X126027172Y-107234266D01*
X126027173Y-107234266D01*
X126034134Y-107233944D01*
X126040508Y-107231130D01*
X126040511Y-107231129D01*
X126045962Y-107228722D01*
X126062511Y-107223597D01*
X126075222Y-107221221D01*
X126101295Y-107205077D01*
X126110501Y-107200225D01*
X126119752Y-107196140D01*
X126138550Y-107187840D01*
X126147688Y-107178702D01*
X126161274Y-107167940D01*
X126166342Y-107164802D01*
X126166343Y-107164801D01*
X126172267Y-107161133D01*
X126190746Y-107136663D01*
X126197583Y-107128807D01*
X126667458Y-106658932D01*
X126714078Y-106637192D01*
X126720632Y-106636906D01*
X138107601Y-106636906D01*
X138114691Y-106637398D01*
X138120115Y-106639216D01*
X138168344Y-106636986D01*
X138171817Y-106636906D01*
X138191314Y-106636906D01*
X138194734Y-106636267D01*
X138198193Y-106635946D01*
X138198196Y-106635976D01*
X138203506Y-106635360D01*
X138208390Y-106635134D01*
X138227172Y-106634266D01*
X138227173Y-106634266D01*
X138234134Y-106633944D01*
X138240508Y-106631130D01*
X138240511Y-106631129D01*
X138245962Y-106628722D01*
X138262511Y-106623597D01*
X138275222Y-106621221D01*
X138301295Y-106605077D01*
X138310501Y-106600225D01*
X138322891Y-106594754D01*
X138338550Y-106587840D01*
X138347688Y-106578702D01*
X138361274Y-106567940D01*
X138366342Y-106564802D01*
X138366343Y-106564801D01*
X138372267Y-106561133D01*
X138390742Y-106536668D01*
X138397579Y-106528811D01*
X138667460Y-106258931D01*
X138714080Y-106237192D01*
X138720634Y-106236906D01*
X139656455Y-106236906D01*
X139704793Y-106254499D01*
X139730513Y-106299048D01*
X139730890Y-106322808D01*
X139729825Y-106330220D01*
X139725125Y-106362906D01*
X139725125Y-108030606D01*
X139728733Y-108064169D01*
X139729159Y-108066126D01*
X139729160Y-108066134D01*
X139736591Y-108100292D01*
X139740119Y-108116511D01*
X139775078Y-108186350D01*
X139821571Y-108240006D01*
X139896419Y-108288108D01*
X139964540Y-108308110D01*
X139967188Y-108308491D01*
X139967194Y-108308492D01*
X140006365Y-108314124D01*
X140006371Y-108314124D01*
X140009025Y-108314506D01*
X141311084Y-108314506D01*
X141359422Y-108332099D01*
X141385142Y-108376648D01*
X141379877Y-108420080D01*
X141365249Y-108453209D01*
X141365247Y-108453215D01*
X141362966Y-108458382D01*
X141360125Y-108482869D01*
X141360125Y-108850337D01*
X141362966Y-108874824D01*
X141407197Y-108974999D01*
X141484629Y-109052431D01*
X141584804Y-109096662D01*
X141609291Y-109099503D01*
X142036759Y-109099503D01*
X142061246Y-109096662D01*
X142161421Y-109052431D01*
X142238853Y-108974999D01*
X142239455Y-108975601D01*
X142276251Y-108949269D01*
X142296459Y-108946503D01*
X142618774Y-108946503D01*
X142667112Y-108964096D01*
X142675606Y-108972458D01*
X142711805Y-109014234D01*
X142821946Y-109085017D01*
X142827103Y-109086531D01*
X142827107Y-109086533D01*
X142929398Y-109116568D01*
X142947567Y-109121903D01*
X143078491Y-109121903D01*
X143104446Y-109114282D01*
X143204112Y-109085017D01*
X143204802Y-109087368D01*
X143246770Y-109084019D01*
X143257126Y-109087713D01*
X143322475Y-109116568D01*
X143347799Y-109119506D01*
X144463251Y-109119506D01*
X144488575Y-109116568D01*
X144493751Y-109114283D01*
X144493753Y-109114282D01*
X144585795Y-109073641D01*
X144585796Y-109073641D01*
X144592170Y-109070826D01*
X144672245Y-108990751D01*
X144675060Y-108984376D01*
X144715701Y-108892334D01*
X144715702Y-108892332D01*
X144717987Y-108887156D01*
X144720925Y-108861832D01*
X144720925Y-108471380D01*
X144717987Y-108446056D01*
X144706517Y-108420079D01*
X144703087Y-108368755D01*
X144733451Y-108327233D01*
X144775310Y-108314506D01*
X145310740Y-108314506D01*
X145359078Y-108332099D01*
X145384798Y-108376648D01*
X145379533Y-108420078D01*
X145368063Y-108446056D01*
X145365125Y-108471380D01*
X145365125Y-108861832D01*
X145368063Y-108887156D01*
X145370348Y-108892332D01*
X145370349Y-108892334D01*
X145410990Y-108984376D01*
X145413805Y-108990751D01*
X145493880Y-109070826D01*
X145500254Y-109073641D01*
X145500255Y-109073641D01*
X145592297Y-109114282D01*
X145592299Y-109114283D01*
X145597475Y-109116568D01*
X145622799Y-109119506D01*
X146738251Y-109119506D01*
X146738251Y-109119899D01*
X146786074Y-109134231D01*
X146814328Y-109177217D01*
X146815585Y-109183835D01*
X146821676Y-109226198D01*
X146876064Y-109345291D01*
X146961801Y-109444237D01*
X147071942Y-109515020D01*
X147077099Y-109516534D01*
X147077103Y-109516536D01*
X147188432Y-109549225D01*
X147197563Y-109551906D01*
X147328487Y-109551906D01*
X147337618Y-109549225D01*
X147448947Y-109516536D01*
X147448951Y-109516534D01*
X147454108Y-109515020D01*
X147517347Y-109474379D01*
X147559726Y-109447144D01*
X147559727Y-109447143D01*
X147564249Y-109444237D01*
X147570304Y-109437250D01*
X147615255Y-109412242D01*
X147627134Y-109411298D01*
X154667759Y-109411298D01*
X154673831Y-109411719D01*
X154678893Y-109413416D01*
X154722972Y-109411378D01*
X154726446Y-109411298D01*
X154744168Y-109411298D01*
X154747584Y-109410659D01*
X154751050Y-109410338D01*
X154751057Y-109410409D01*
X154755780Y-109409861D01*
X154776467Y-109408905D01*
X154776469Y-109408905D01*
X154783426Y-109408583D01*
X154789797Y-109405770D01*
X154789800Y-109405769D01*
X154793604Y-109404089D01*
X154810160Y-109398963D01*
X154814242Y-109398200D01*
X154814247Y-109398198D01*
X154821096Y-109396918D01*
X154844636Y-109382343D01*
X154853838Y-109377493D01*
X154872777Y-109369131D01*
X154872780Y-109369129D01*
X154879155Y-109366314D01*
X154887022Y-109358447D01*
X154900606Y-109347687D01*
X154910066Y-109341829D01*
X154926744Y-109319744D01*
X154933581Y-109311888D01*
X157086937Y-107158532D01*
X157133557Y-107136792D01*
X157140111Y-107136506D01*
X165155939Y-107136506D01*
X165204277Y-107154099D01*
X165209113Y-107158532D01*
X166330720Y-108280139D01*
X166334718Y-108284733D01*
X166337097Y-108289511D01*
X166342248Y-108294206D01*
X166342248Y-108294207D01*
X166369709Y-108319241D01*
X166372221Y-108321640D01*
X166384751Y-108334170D01*
X166387622Y-108336137D01*
X166390294Y-108338356D01*
X166390248Y-108338411D01*
X166393969Y-108341359D01*
X166409281Y-108355317D01*
X166409284Y-108355319D01*
X166414430Y-108360010D01*
X166420924Y-108362526D01*
X166420926Y-108362527D01*
X166424807Y-108364031D01*
X166440136Y-108372111D01*
X166443564Y-108374459D01*
X166443566Y-108374460D01*
X166449315Y-108378398D01*
X166456096Y-108379993D01*
X166456101Y-108379995D01*
X166476258Y-108384736D01*
X166486204Y-108387816D01*
X166502383Y-108394083D01*
X166512009Y-108397812D01*
X166523134Y-108397812D01*
X166540351Y-108399810D01*
X166544393Y-108400761D01*
X166544400Y-108400761D01*
X166551180Y-108402356D01*
X166578587Y-108398533D01*
X166588976Y-108397812D01*
X168018774Y-108397812D01*
X168067112Y-108415405D01*
X168075606Y-108423767D01*
X168111805Y-108465543D01*
X168110566Y-108466616D01*
X168132184Y-108505462D01*
X168133129Y-108517349D01*
X168133129Y-108543169D01*
X168115536Y-108591507D01*
X168105965Y-108600187D01*
X168104633Y-108600775D01*
X168027201Y-108678207D01*
X167982970Y-108778382D01*
X167980129Y-108802869D01*
X167980129Y-109230337D01*
X167982970Y-109254824D01*
X168027201Y-109354999D01*
X168104633Y-109432431D01*
X168204808Y-109476662D01*
X168229295Y-109479503D01*
X168596763Y-109479503D01*
X168621250Y-109476662D01*
X168721425Y-109432431D01*
X168798857Y-109354999D01*
X168843088Y-109254824D01*
X168845929Y-109230337D01*
X168845929Y-108802869D01*
X168843088Y-108778382D01*
X168798857Y-108678207D01*
X168721425Y-108600775D01*
X168722027Y-108600173D01*
X168695695Y-108563377D01*
X168692929Y-108543169D01*
X168692929Y-108517349D01*
X168710522Y-108469011D01*
X168713391Y-108466097D01*
X168714253Y-108465543D01*
X168716576Y-108462862D01*
X168716581Y-108462857D01*
X168783239Y-108385929D01*
X168799990Y-108366597D01*
X168854378Y-108247504D01*
X168873011Y-108117912D01*
X168854378Y-107988320D01*
X168839895Y-107956606D01*
X171723043Y-107956606D01*
X171741676Y-108086198D01*
X171796064Y-108205291D01*
X171844745Y-108261472D01*
X171865305Y-108285199D01*
X171881801Y-108304237D01*
X171991942Y-108375020D01*
X171997099Y-108376534D01*
X171997103Y-108376536D01*
X172106532Y-108408667D01*
X172117563Y-108411906D01*
X172248487Y-108411906D01*
X172259518Y-108408667D01*
X172368947Y-108376536D01*
X172368951Y-108376534D01*
X172374108Y-108375020D01*
X172484249Y-108304237D01*
X172500746Y-108285199D01*
X172521305Y-108261472D01*
X172569986Y-108205291D01*
X172624374Y-108086198D01*
X172643007Y-107956606D01*
X172624374Y-107827014D01*
X172569986Y-107707921D01*
X172484249Y-107608975D01*
X172374108Y-107538192D01*
X172368951Y-107536678D01*
X172368947Y-107536676D01*
X172253650Y-107502822D01*
X172248487Y-107501306D01*
X172117563Y-107501306D01*
X172112400Y-107502822D01*
X171997103Y-107536676D01*
X171997099Y-107536678D01*
X171991942Y-107538192D01*
X171881801Y-107608975D01*
X171796064Y-107707921D01*
X171741676Y-107827014D01*
X171723043Y-107956606D01*
X168839895Y-107956606D01*
X168824523Y-107922947D01*
X168820446Y-107871669D01*
X168850284Y-107829768D01*
X168892927Y-107816508D01*
X170772549Y-107816508D01*
X170778621Y-107816929D01*
X170783683Y-107818626D01*
X170827762Y-107816588D01*
X170831236Y-107816508D01*
X170848958Y-107816508D01*
X170852374Y-107815869D01*
X170855840Y-107815548D01*
X170855847Y-107815619D01*
X170860570Y-107815071D01*
X170881257Y-107814115D01*
X170881259Y-107814115D01*
X170888216Y-107813793D01*
X170894587Y-107810980D01*
X170894590Y-107810979D01*
X170898394Y-107809299D01*
X170914950Y-107804173D01*
X170919032Y-107803410D01*
X170919037Y-107803408D01*
X170925886Y-107802128D01*
X170949426Y-107787553D01*
X170958628Y-107782703D01*
X170977567Y-107774341D01*
X170977570Y-107774339D01*
X170983945Y-107771524D01*
X170991812Y-107763657D01*
X171005396Y-107752897D01*
X171014856Y-107747039D01*
X171031534Y-107724954D01*
X171038371Y-107717098D01*
X171397552Y-107357917D01*
X171402146Y-107353919D01*
X171406924Y-107351540D01*
X171415999Y-107341586D01*
X171436654Y-107318928D01*
X171439053Y-107316416D01*
X171451583Y-107303886D01*
X171453550Y-107301015D01*
X171455769Y-107298343D01*
X171455824Y-107298389D01*
X171458772Y-107294668D01*
X171472730Y-107279356D01*
X171472732Y-107279353D01*
X171477423Y-107274207D01*
X171479940Y-107267711D01*
X171481444Y-107263830D01*
X171489524Y-107248501D01*
X171491872Y-107245073D01*
X171491873Y-107245071D01*
X171495811Y-107239322D01*
X171497406Y-107232541D01*
X171497408Y-107232536D01*
X171502149Y-107212379D01*
X171505229Y-107202433D01*
X171512706Y-107183130D01*
X171515225Y-107176628D01*
X171515225Y-107165503D01*
X171517223Y-107148286D01*
X171518174Y-107144244D01*
X171518174Y-107144237D01*
X171519769Y-107137457D01*
X171515946Y-107110050D01*
X171515225Y-107099661D01*
X171515225Y-106098112D01*
X171532818Y-106049774D01*
X171535688Y-106046857D01*
X171536554Y-106046301D01*
X171622291Y-105947355D01*
X171637703Y-105913608D01*
X171647649Y-105891829D01*
X171683733Y-105855169D01*
X171734940Y-105850279D01*
X171761727Y-105864359D01*
X171761811Y-105864228D01*
X171871952Y-105935011D01*
X171877109Y-105936525D01*
X171877113Y-105936527D01*
X171964313Y-105962131D01*
X171997573Y-105971897D01*
X172128497Y-105971897D01*
X172161757Y-105962131D01*
X172248957Y-105936527D01*
X172248961Y-105936525D01*
X172254118Y-105935011D01*
X172364259Y-105864228D01*
X172444470Y-105771660D01*
X172489419Y-105746651D01*
X172501301Y-105745706D01*
X174836013Y-105745706D01*
X174839950Y-105745809D01*
X174880612Y-105747940D01*
X174903723Y-105739069D01*
X174915015Y-105735724D01*
X174939238Y-105730575D01*
X174945631Y-105725930D01*
X174945633Y-105725929D01*
X174946225Y-105725499D01*
X174963475Y-105716133D01*
X174964157Y-105715871D01*
X174964158Y-105715870D01*
X174971537Y-105713038D01*
X174989033Y-105695542D01*
X174998005Y-105687878D01*
X175011638Y-105677973D01*
X175018031Y-105673328D01*
X175022349Y-105665849D01*
X175034300Y-105650275D01*
X175442354Y-105242221D01*
X180207344Y-105242221D01*
X180207362Y-105733197D01*
X180207391Y-106560287D01*
X180211000Y-106593847D01*
X180222386Y-106646184D01*
X180257343Y-106716019D01*
X180303835Y-106769675D01*
X180378681Y-106817777D01*
X180446801Y-106837780D01*
X180465776Y-106840509D01*
X180488627Y-106843795D01*
X180488634Y-106843795D01*
X180491287Y-106844177D01*
X181148968Y-106844187D01*
X181340710Y-106844190D01*
X181341496Y-106844190D01*
X181347914Y-106843929D01*
X181353550Y-106843700D01*
X181353560Y-106843699D01*
X181354332Y-106843668D01*
X181355107Y-106843605D01*
X181355120Y-106843604D01*
X181371303Y-106842284D01*
X181374749Y-106842003D01*
X181390204Y-106837811D01*
X181427028Y-106827823D01*
X181427030Y-106827822D01*
X181430360Y-106826919D01*
X181494340Y-106796144D01*
X181560405Y-106736551D01*
X181571409Y-106718654D01*
X181594590Y-106680951D01*
X181594591Y-106680949D01*
X181596738Y-106677457D01*
X181600708Y-106665993D01*
X181605882Y-106654353D01*
X181607151Y-106652047D01*
X181607413Y-106652163D01*
X181608962Y-106648656D01*
X181615457Y-106633944D01*
X181634045Y-106591847D01*
X181649663Y-106569049D01*
X181665469Y-106553243D01*
X181688267Y-106537625D01*
X181710037Y-106528013D01*
X181740410Y-106521606D01*
X182105642Y-106521606D01*
X182136015Y-106528013D01*
X182157785Y-106537625D01*
X182180583Y-106553243D01*
X182196391Y-106569051D01*
X182212006Y-106591844D01*
X182230257Y-106633179D01*
X182234660Y-106646311D01*
X182235504Y-106649895D01*
X182236241Y-106651933D01*
X182236242Y-106651936D01*
X182239929Y-106662129D01*
X182241456Y-106666352D01*
X182270609Y-106716050D01*
X182291493Y-106740152D01*
X182313553Y-106765611D01*
X182317101Y-106769706D01*
X182391946Y-106817808D01*
X182460065Y-106837811D01*
X182462724Y-106838193D01*
X182462727Y-106838194D01*
X182482308Y-106841009D01*
X182504552Y-106844208D01*
X182638828Y-106844210D01*
X182789927Y-106844212D01*
X182838264Y-106861806D01*
X182863984Y-106906355D01*
X182865126Y-106919412D01*
X182865126Y-107338006D01*
X182847533Y-107386344D01*
X182802984Y-107412064D01*
X182789926Y-107413206D01*
X182334998Y-107413206D01*
X182286660Y-107395613D01*
X182281824Y-107391180D01*
X182261422Y-107370778D01*
X182161247Y-107326547D01*
X182136760Y-107323706D01*
X181709292Y-107323706D01*
X181684805Y-107326547D01*
X181584630Y-107370778D01*
X181507198Y-107448210D01*
X181462967Y-107548385D01*
X181460126Y-107572872D01*
X181460126Y-107940340D01*
X181462967Y-107964827D01*
X181507198Y-108065002D01*
X181584630Y-108142434D01*
X181684805Y-108186665D01*
X181709292Y-108189506D01*
X182136760Y-108189506D01*
X182161247Y-108186665D01*
X182261422Y-108142434D01*
X182281824Y-108122032D01*
X182328444Y-108100292D01*
X182334998Y-108100006D01*
X182793248Y-108100006D01*
X182841586Y-108117599D01*
X182867522Y-108163442D01*
X182880069Y-108242661D01*
X182892296Y-108266657D01*
X182928569Y-108337847D01*
X182938010Y-108356377D01*
X183028255Y-108446622D01*
X183033529Y-108449309D01*
X183033532Y-108449311D01*
X183072196Y-108469011D01*
X183141971Y-108504563D01*
X183147818Y-108505489D01*
X183233400Y-108519044D01*
X183233402Y-108519044D01*
X183236318Y-108519506D01*
X184049734Y-108519506D01*
X184052650Y-108519044D01*
X184052652Y-108519044D01*
X184138234Y-108505489D01*
X184144081Y-108504563D01*
X184213856Y-108469011D01*
X184252520Y-108449311D01*
X184252523Y-108449309D01*
X184257797Y-108446622D01*
X184348042Y-108356377D01*
X184357484Y-108337847D01*
X184393756Y-108266657D01*
X184405983Y-108242661D01*
X184414902Y-108186350D01*
X184420464Y-108151232D01*
X184420464Y-108151230D01*
X184420926Y-108148314D01*
X184420926Y-106628806D01*
X184423674Y-106609580D01*
X184423603Y-106609565D01*
X184423819Y-106608562D01*
X184423937Y-106607740D01*
X184424168Y-106606950D01*
X184424168Y-106606948D01*
X184424922Y-106604366D01*
X184431246Y-106559868D01*
X184431236Y-106553243D01*
X184430542Y-106130027D01*
X184430239Y-105945041D01*
X184426603Y-105911610D01*
X184421110Y-105886458D01*
X184416219Y-105864060D01*
X184416218Y-105864057D01*
X184415217Y-105859474D01*
X184413116Y-105855281D01*
X184413115Y-105855278D01*
X184382391Y-105793962D01*
X184382389Y-105793959D01*
X184380286Y-105789762D01*
X184333793Y-105736106D01*
X184258945Y-105688004D01*
X184190824Y-105668002D01*
X184188176Y-105667621D01*
X184188170Y-105667620D01*
X184148999Y-105661988D01*
X184148993Y-105661988D01*
X184146339Y-105661606D01*
X183908304Y-105661606D01*
X183877929Y-105655199D01*
X183866993Y-105650370D01*
X183852517Y-105643979D01*
X183829719Y-105628360D01*
X183798773Y-105597414D01*
X183797205Y-105596150D01*
X183774059Y-105577497D01*
X183774054Y-105577493D01*
X183772490Y-105576233D01*
X183753744Y-105564185D01*
X183731381Y-105549813D01*
X183731380Y-105549813D01*
X183727427Y-105547272D01*
X183653323Y-105522607D01*
X183648626Y-105522271D01*
X183645760Y-105522066D01*
X183644289Y-105521408D01*
X183644016Y-105521354D01*
X183644028Y-105521292D01*
X183598801Y-105501068D01*
X183576325Y-105454798D01*
X183575926Y-105447058D01*
X183575926Y-104446380D01*
X183572988Y-104421056D01*
X183564767Y-104402436D01*
X183530061Y-104323836D01*
X183530061Y-104323835D01*
X183527246Y-104317461D01*
X183447171Y-104237386D01*
X183428897Y-104229317D01*
X183348754Y-104193930D01*
X183348752Y-104193929D01*
X183343576Y-104191644D01*
X183318252Y-104188706D01*
X182927800Y-104188706D01*
X182902476Y-104191644D01*
X182897300Y-104193929D01*
X182897298Y-104193930D01*
X182817155Y-104229317D01*
X182798881Y-104237386D01*
X182718806Y-104317461D01*
X182715991Y-104323835D01*
X182715991Y-104323836D01*
X182681286Y-104402436D01*
X182673064Y-104421056D01*
X182670126Y-104446380D01*
X182670126Y-104576903D01*
X182652533Y-104625241D01*
X182607984Y-104650961D01*
X182557326Y-104642028D01*
X182541752Y-104630077D01*
X182397566Y-104485891D01*
X182375826Y-104439271D01*
X182375540Y-104432717D01*
X182375540Y-104298622D01*
X182372747Y-104274549D01*
X182329271Y-104176085D01*
X182268066Y-104114880D01*
X182246326Y-104068260D01*
X182246040Y-104061706D01*
X182246040Y-103671506D01*
X182263633Y-103623168D01*
X182268066Y-103618332D01*
X182329271Y-103557127D01*
X182372747Y-103458663D01*
X182375540Y-103434590D01*
X182375540Y-103078622D01*
X182372747Y-103054549D01*
X182329271Y-102956085D01*
X182253161Y-102879975D01*
X182154697Y-102836499D01*
X182130624Y-102833706D01*
X181674656Y-102833706D01*
X181650583Y-102836499D01*
X181552119Y-102879975D01*
X181476009Y-102956085D01*
X181432533Y-103054549D01*
X181429740Y-103078622D01*
X181429740Y-103434590D01*
X181432533Y-103458663D01*
X181476009Y-103557127D01*
X181537214Y-103618332D01*
X181558954Y-103664952D01*
X181559240Y-103671506D01*
X181559240Y-104061706D01*
X181541647Y-104110044D01*
X181537214Y-104114880D01*
X181476009Y-104176085D01*
X181432533Y-104274549D01*
X181429740Y-104298622D01*
X181429740Y-104654590D01*
X181432533Y-104678663D01*
X181476009Y-104777127D01*
X181522960Y-104824078D01*
X181544700Y-104870698D01*
X181531386Y-104920385D01*
X181489249Y-104949890D01*
X181470029Y-104952452D01*
X181328035Y-104952912D01*
X180490325Y-104955623D01*
X180457021Y-104959285D01*
X180455059Y-104959715D01*
X180455054Y-104959716D01*
X180409661Y-104969668D01*
X180409659Y-104969669D01*
X180405083Y-104970672D01*
X180400898Y-104972771D01*
X180400896Y-104972772D01*
X180339679Y-105003479D01*
X180339677Y-105003480D01*
X180335491Y-105005580D01*
X180281837Y-105052075D01*
X180278930Y-105056599D01*
X180278929Y-105056600D01*
X180238845Y-105118978D01*
X180233739Y-105126923D01*
X180213739Y-105195044D01*
X180207344Y-105239531D01*
X180207344Y-105242221D01*
X175442354Y-105242221D01*
X176876843Y-103807732D01*
X176923463Y-103785992D01*
X176930017Y-103785706D01*
X177097566Y-103785706D01*
X177145904Y-103803299D01*
X177171840Y-103849142D01*
X177185068Y-103932661D01*
X177208618Y-103978880D01*
X177238848Y-104038210D01*
X177243009Y-104046377D01*
X177333254Y-104136622D01*
X177338530Y-104139310D01*
X177338531Y-104139311D01*
X177384773Y-104162872D01*
X177446970Y-104194563D01*
X177477985Y-104199475D01*
X177538399Y-104209044D01*
X177538401Y-104209044D01*
X177541317Y-104209506D01*
X179604733Y-104209506D01*
X179607649Y-104209044D01*
X179607651Y-104209044D01*
X179668065Y-104199475D01*
X179699080Y-104194563D01*
X179761277Y-104162872D01*
X179807519Y-104139311D01*
X179807520Y-104139310D01*
X179812796Y-104136622D01*
X179903041Y-104046377D01*
X179907203Y-104038210D01*
X179937432Y-103978880D01*
X179960982Y-103932661D01*
X179970229Y-103874275D01*
X179975463Y-103841232D01*
X179975463Y-103841230D01*
X179975925Y-103838314D01*
X179975925Y-103274898D01*
X179960982Y-103180551D01*
X179915102Y-103090506D01*
X179905730Y-103072112D01*
X179905729Y-103072111D01*
X179903041Y-103066835D01*
X179812796Y-102976590D01*
X179785063Y-102962459D01*
X179749688Y-102944435D01*
X179699080Y-102918649D01*
X179668065Y-102913737D01*
X179607651Y-102904168D01*
X179607649Y-102904168D01*
X179604733Y-102903706D01*
X177541317Y-102903706D01*
X177538401Y-102904168D01*
X177538399Y-102904168D01*
X177477985Y-102913737D01*
X177446970Y-102918649D01*
X177396362Y-102944435D01*
X177360988Y-102962459D01*
X177333254Y-102976590D01*
X177243009Y-103066835D01*
X177240321Y-103072111D01*
X177240320Y-103072112D01*
X177230948Y-103090506D01*
X177185068Y-103180551D01*
X177184142Y-103186398D01*
X177171840Y-103264070D01*
X177146902Y-103309060D01*
X177097566Y-103327506D01*
X176811953Y-103327506D01*
X176808018Y-103327403D01*
X176775225Y-103325684D01*
X176775222Y-103325684D01*
X176767334Y-103325271D01*
X176759957Y-103328103D01*
X176759955Y-103328103D01*
X176744230Y-103334139D01*
X176732918Y-103337491D01*
X176708708Y-103342637D01*
X176702311Y-103347285D01*
X176701721Y-103347713D01*
X176684471Y-103357079D01*
X176683789Y-103357341D01*
X176683788Y-103357342D01*
X176676409Y-103360174D01*
X176658913Y-103377670D01*
X176649941Y-103385334D01*
X176642779Y-103390538D01*
X176629915Y-103399884D01*
X176625963Y-103406729D01*
X176625597Y-103407363D01*
X176613646Y-103422937D01*
X175257074Y-104779508D01*
X175210454Y-104801248D01*
X175160767Y-104787934D01*
X175135496Y-104757573D01*
X175104440Y-104689571D01*
X175089986Y-104657921D01*
X175004249Y-104558975D01*
X174894108Y-104488192D01*
X174888951Y-104486678D01*
X174888947Y-104486676D01*
X174773650Y-104452822D01*
X174768487Y-104451306D01*
X174637563Y-104451306D01*
X174632400Y-104452822D01*
X174517103Y-104486676D01*
X174517099Y-104486678D01*
X174511942Y-104488192D01*
X174401801Y-104558975D01*
X174316064Y-104657921D01*
X174261676Y-104777014D01*
X174243043Y-104906606D01*
X174261676Y-105036198D01*
X174316064Y-105155291D01*
X174322797Y-105163061D01*
X174341156Y-105211111D01*
X174324332Y-105259722D01*
X174280198Y-105286147D01*
X174265965Y-105287506D01*
X172501316Y-105287506D01*
X172452978Y-105269913D01*
X172444484Y-105261551D01*
X172440743Y-105257233D01*
X172364259Y-105168966D01*
X172254118Y-105098183D01*
X172248961Y-105096669D01*
X172248957Y-105096667D01*
X172133660Y-105062813D01*
X172128497Y-105061297D01*
X171997573Y-105061297D01*
X171992410Y-105062813D01*
X171877113Y-105096667D01*
X171877109Y-105096669D01*
X171871952Y-105098183D01*
X171761811Y-105168966D01*
X171676074Y-105267912D01*
X171673839Y-105272806D01*
X171650716Y-105323438D01*
X171614632Y-105360098D01*
X171563425Y-105364988D01*
X171536638Y-105350908D01*
X171536554Y-105351039D01*
X171535054Y-105350075D01*
X171426413Y-105280256D01*
X171421256Y-105278742D01*
X171421252Y-105278740D01*
X171305955Y-105244886D01*
X171300792Y-105243370D01*
X171169868Y-105243370D01*
X171164705Y-105244886D01*
X171049408Y-105278740D01*
X171049404Y-105278742D01*
X171044247Y-105280256D01*
X170934106Y-105351039D01*
X170848369Y-105449985D01*
X170793981Y-105569078D01*
X170786678Y-105619868D01*
X170776497Y-105690682D01*
X170775348Y-105698670D01*
X170793981Y-105828262D01*
X170848369Y-105947355D01*
X170919347Y-106029268D01*
X170934106Y-106046301D01*
X170932867Y-106047375D01*
X170954480Y-106086220D01*
X170955425Y-106098103D01*
X170955425Y-106977220D01*
X170937832Y-107025558D01*
X170933399Y-107030394D01*
X170729111Y-107234682D01*
X170682491Y-107256422D01*
X170675937Y-107256708D01*
X166720115Y-107256708D01*
X166671777Y-107239115D01*
X166666941Y-107234682D01*
X165990536Y-106558277D01*
X165313960Y-105881702D01*
X165292220Y-105835082D01*
X165305534Y-105785395D01*
X165326473Y-105765270D01*
X165427981Y-105700035D01*
X165431756Y-105695679D01*
X165465031Y-105657277D01*
X165513718Y-105601089D01*
X165568106Y-105481996D01*
X165586739Y-105352404D01*
X165568106Y-105222812D01*
X165513718Y-105103719D01*
X165427981Y-105004773D01*
X165317840Y-104933990D01*
X165312683Y-104932476D01*
X165312679Y-104932474D01*
X165197382Y-104898620D01*
X165192219Y-104897104D01*
X165061295Y-104897104D01*
X165056132Y-104898620D01*
X164940835Y-104932474D01*
X164940831Y-104932476D01*
X164935674Y-104933990D01*
X164825533Y-105004773D01*
X164739796Y-105103719D01*
X164685408Y-105222812D01*
X164666775Y-105352404D01*
X164685408Y-105481996D01*
X164739796Y-105601089D01*
X164749469Y-105612252D01*
X164767827Y-105660303D01*
X164751002Y-105708913D01*
X164706868Y-105735337D01*
X164692636Y-105736696D01*
X160570418Y-105736696D01*
X160522080Y-105719103D01*
X160517244Y-105714671D01*
X159755014Y-104952452D01*
X159191560Y-104389006D01*
X159169820Y-104342387D01*
X159170300Y-104325128D01*
X159172240Y-104311638D01*
X159172240Y-104311632D01*
X159173005Y-104306312D01*
X159172213Y-104300800D01*
X159163095Y-104237386D01*
X159154372Y-104176720D01*
X159124516Y-104111344D01*
X159120439Y-104060067D01*
X159150277Y-104018166D01*
X159192920Y-104004906D01*
X162270073Y-104004906D01*
X162274010Y-104005009D01*
X162314672Y-104007140D01*
X162337783Y-103998269D01*
X162349075Y-103994924D01*
X162373298Y-103989775D01*
X162379691Y-103985130D01*
X162379693Y-103985129D01*
X162380285Y-103984699D01*
X162397535Y-103975333D01*
X162398217Y-103975071D01*
X162398218Y-103975070D01*
X162405597Y-103972238D01*
X162423093Y-103954742D01*
X162432065Y-103947078D01*
X162445698Y-103937173D01*
X162452091Y-103932528D01*
X162456409Y-103925049D01*
X162468360Y-103909475D01*
X163771240Y-102606595D01*
X164573044Y-102606595D01*
X164591677Y-102736187D01*
X164646065Y-102855280D01*
X164731802Y-102954226D01*
X164841943Y-103025009D01*
X164847100Y-103026523D01*
X164847104Y-103026525D01*
X164957146Y-103058836D01*
X164967564Y-103061895D01*
X165098488Y-103061895D01*
X165108906Y-103058836D01*
X165218948Y-103026525D01*
X165218952Y-103026523D01*
X165224109Y-103025009D01*
X165334250Y-102954226D01*
X165419987Y-102855280D01*
X165474375Y-102736187D01*
X165493008Y-102606595D01*
X165474375Y-102477003D01*
X165419987Y-102357910D01*
X165347962Y-102274788D01*
X165337775Y-102263032D01*
X165334250Y-102258964D01*
X165224109Y-102188181D01*
X165218952Y-102186667D01*
X165218948Y-102186665D01*
X165103651Y-102152811D01*
X165098488Y-102151295D01*
X164967564Y-102151295D01*
X164962401Y-102152811D01*
X164847104Y-102186665D01*
X164847100Y-102186667D01*
X164841943Y-102188181D01*
X164731802Y-102258964D01*
X164728277Y-102263032D01*
X164718090Y-102274788D01*
X164646065Y-102357910D01*
X164591677Y-102477003D01*
X164573044Y-102606595D01*
X163771240Y-102606595D01*
X164405803Y-101972032D01*
X164452423Y-101950292D01*
X164458977Y-101950006D01*
X165468328Y-101950006D01*
X165516666Y-101967599D01*
X165521501Y-101972030D01*
X165587817Y-102038347D01*
X165652952Y-102103482D01*
X165655661Y-102106337D01*
X165682903Y-102136592D01*
X165705520Y-102146662D01*
X165715874Y-102152284D01*
X165736637Y-102165767D01*
X165745102Y-102167108D01*
X165745161Y-102167117D01*
X165763987Y-102172693D01*
X165771876Y-102176206D01*
X165796627Y-102176206D01*
X165808391Y-102177132D01*
X165825025Y-102179767D01*
X165825027Y-102179767D01*
X165832831Y-102181003D01*
X165840463Y-102178958D01*
X165840464Y-102178958D01*
X165841172Y-102178768D01*
X165860635Y-102176206D01*
X166906669Y-102176206D01*
X166910606Y-102176309D01*
X166951268Y-102178440D01*
X166974379Y-102169569D01*
X166985671Y-102166224D01*
X167009894Y-102161075D01*
X167016287Y-102156430D01*
X167016289Y-102156429D01*
X167016881Y-102155999D01*
X167034131Y-102146633D01*
X167034813Y-102146371D01*
X167034814Y-102146370D01*
X167042193Y-102143538D01*
X167059689Y-102126042D01*
X167068661Y-102118378D01*
X167082294Y-102108473D01*
X167088687Y-102103828D01*
X167093005Y-102096349D01*
X167104956Y-102080775D01*
X167358803Y-101826928D01*
X167405423Y-101805188D01*
X167411977Y-101804902D01*
X167760978Y-101804902D01*
X167809316Y-101822495D01*
X167817802Y-101830848D01*
X167898027Y-101923433D01*
X168008168Y-101994216D01*
X168013325Y-101995730D01*
X168013329Y-101995732D01*
X168103918Y-102022331D01*
X168133789Y-102031102D01*
X168264713Y-102031102D01*
X168294584Y-102022331D01*
X168385173Y-101995732D01*
X168385177Y-101995730D01*
X168390334Y-101994216D01*
X168500475Y-101923433D01*
X168508904Y-101913706D01*
X168582686Y-101828556D01*
X168586212Y-101824487D01*
X168640600Y-101705394D01*
X168640852Y-101703641D01*
X168670464Y-101663429D01*
X168720454Y-101651304D01*
X168765289Y-101672866D01*
X168796120Y-101703697D01*
X168817860Y-101750317D01*
X168811350Y-101788110D01*
X168795577Y-101822648D01*
X168794812Y-101827966D01*
X168794812Y-101827967D01*
X168779495Y-101934498D01*
X168776944Y-101952240D01*
X168795577Y-102081832D01*
X168849965Y-102200925D01*
X168935702Y-102299871D01*
X169045843Y-102370654D01*
X169051000Y-102372168D01*
X169051004Y-102372170D01*
X169166301Y-102406024D01*
X169171464Y-102407540D01*
X169302388Y-102407540D01*
X169307551Y-102406024D01*
X169422848Y-102372170D01*
X169422852Y-102372168D01*
X169428009Y-102370654D01*
X169538150Y-102299871D01*
X169623887Y-102200925D01*
X169628379Y-102191090D01*
X169638206Y-102169571D01*
X169658266Y-102125646D01*
X169694348Y-102088986D01*
X169745555Y-102084096D01*
X169754820Y-102087385D01*
X169757654Y-102089207D01*
X169762809Y-102090721D01*
X169762812Y-102090722D01*
X169878112Y-102124577D01*
X169883275Y-102126093D01*
X170014199Y-102126093D01*
X170118885Y-102095354D01*
X170170220Y-102098616D01*
X170207449Y-102134114D01*
X170214505Y-102156805D01*
X170216832Y-102172990D01*
X170231671Y-102276193D01*
X170286059Y-102395286D01*
X170371796Y-102494232D01*
X170481937Y-102565015D01*
X170487094Y-102566529D01*
X170487098Y-102566531D01*
X170602395Y-102600385D01*
X170607558Y-102601901D01*
X170738482Y-102601901D01*
X170743645Y-102600385D01*
X170771803Y-102592117D01*
X172863045Y-102592117D01*
X172881678Y-102721709D01*
X172936066Y-102840802D01*
X172989715Y-102902716D01*
X173006404Y-102921976D01*
X173021803Y-102939748D01*
X173131944Y-103010531D01*
X173137101Y-103012045D01*
X173137105Y-103012047D01*
X173207052Y-103032585D01*
X173257565Y-103047417D01*
X173388489Y-103047417D01*
X173439002Y-103032585D01*
X173508949Y-103012047D01*
X173508953Y-103012045D01*
X173514110Y-103010531D01*
X173624251Y-102939748D01*
X173639651Y-102921976D01*
X173656339Y-102902716D01*
X173709988Y-102840802D01*
X173764376Y-102721709D01*
X173783009Y-102592117D01*
X173764376Y-102462525D01*
X173709988Y-102343432D01*
X173647114Y-102270871D01*
X173627776Y-102248554D01*
X173624251Y-102244486D01*
X173514110Y-102173703D01*
X173508953Y-102172189D01*
X173508949Y-102172187D01*
X173393652Y-102138333D01*
X173388489Y-102136817D01*
X173257565Y-102136817D01*
X173252402Y-102138333D01*
X173137105Y-102172187D01*
X173137101Y-102172189D01*
X173131944Y-102173703D01*
X173021803Y-102244486D01*
X173018278Y-102248554D01*
X172998940Y-102270871D01*
X172936066Y-102343432D01*
X172881678Y-102462525D01*
X172863045Y-102592117D01*
X170771803Y-102592117D01*
X170858942Y-102566531D01*
X170858946Y-102566529D01*
X170864103Y-102565015D01*
X170974244Y-102494232D01*
X171059981Y-102395286D01*
X171114369Y-102276193D01*
X171131651Y-102155999D01*
X171132237Y-102151922D01*
X171133002Y-102146601D01*
X171114369Y-102017009D01*
X171059981Y-101897916D01*
X170974244Y-101798970D01*
X170864103Y-101728187D01*
X170858946Y-101726673D01*
X170858942Y-101726671D01*
X170743645Y-101692817D01*
X170738482Y-101691301D01*
X170607558Y-101691301D01*
X170502872Y-101722040D01*
X170451537Y-101718778D01*
X170414308Y-101683280D01*
X170407252Y-101660589D01*
X170393226Y-101563042D01*
X170390086Y-101541201D01*
X170335698Y-101422108D01*
X170249961Y-101323162D01*
X170139820Y-101252379D01*
X170140732Y-101250960D01*
X170109147Y-101219871D01*
X170104257Y-101168664D01*
X170108643Y-101156312D01*
X170123625Y-101123506D01*
X170143333Y-101080352D01*
X170148904Y-101041606D01*
X174753034Y-101041606D01*
X174771667Y-101171198D01*
X174826055Y-101290291D01*
X174911792Y-101389237D01*
X175021933Y-101460020D01*
X175027090Y-101461534D01*
X175027094Y-101461536D01*
X175121497Y-101489255D01*
X175147554Y-101496906D01*
X175278478Y-101496906D01*
X175304535Y-101489255D01*
X175398938Y-101461536D01*
X175398942Y-101461534D01*
X175404099Y-101460020D01*
X175514240Y-101389237D01*
X175599977Y-101290291D01*
X175654365Y-101171198D01*
X175672998Y-101041606D01*
X175654365Y-100912014D01*
X175599977Y-100792921D01*
X175514240Y-100693975D01*
X175404099Y-100623192D01*
X175398942Y-100621678D01*
X175398938Y-100621676D01*
X175283641Y-100587822D01*
X175278478Y-100586306D01*
X175147554Y-100586306D01*
X175142391Y-100587822D01*
X175027094Y-100621676D01*
X175027090Y-100621678D01*
X175021933Y-100623192D01*
X174911792Y-100693975D01*
X174826055Y-100792921D01*
X174771667Y-100912014D01*
X174753034Y-101041606D01*
X170148904Y-101041606D01*
X170161966Y-100950760D01*
X170143333Y-100821168D01*
X170088945Y-100702075D01*
X170013500Y-100615007D01*
X170006733Y-100607197D01*
X170003208Y-100603129D01*
X169893067Y-100532346D01*
X169887910Y-100530832D01*
X169887906Y-100530830D01*
X169772609Y-100496976D01*
X169767446Y-100495460D01*
X169636522Y-100495460D01*
X169629645Y-100497479D01*
X169628433Y-100497835D01*
X169626318Y-100497700D01*
X169626036Y-100497741D01*
X169626028Y-100497682D01*
X169577097Y-100494570D01*
X169554075Y-100478854D01*
X169473258Y-100398037D01*
X169451518Y-100351417D01*
X169464832Y-100301730D01*
X169506969Y-100272225D01*
X169526326Y-100269663D01*
X184184320Y-100248919D01*
X184232682Y-100266444D01*
X184258465Y-100310956D01*
X184259626Y-100324119D01*
X184259626Y-100904634D01*
X184242033Y-100952972D01*
X184237600Y-100957808D01*
X184217198Y-100978210D01*
X184214385Y-100984581D01*
X184213726Y-100985543D01*
X184171893Y-101015478D01*
X184120606Y-101011519D01*
X184087143Y-100977710D01*
X184086412Y-100978211D01*
X184083653Y-100974184D01*
X184082896Y-100973419D01*
X184082473Y-100972462D01*
X184082471Y-100972459D01*
X184079657Y-100966085D01*
X184003547Y-100889975D01*
X183905083Y-100846499D01*
X183881010Y-100843706D01*
X183525042Y-100843706D01*
X183500969Y-100846499D01*
X183402505Y-100889975D01*
X183326395Y-100966085D01*
X183282919Y-101064549D01*
X183280126Y-101088622D01*
X183280126Y-101544590D01*
X183282919Y-101568663D01*
X183326395Y-101667127D01*
X183402505Y-101743237D01*
X183500969Y-101786713D01*
X183525042Y-101789506D01*
X183654426Y-101789506D01*
X183702764Y-101807099D01*
X183728484Y-101851648D01*
X183729626Y-101864706D01*
X183729626Y-101950493D01*
X183712033Y-101998831D01*
X183707600Y-102003667D01*
X183668806Y-102042461D01*
X183665991Y-102048836D01*
X183662053Y-102054585D01*
X183660515Y-102053532D01*
X183631197Y-102084077D01*
X183580056Y-102089609D01*
X183537323Y-102060975D01*
X183531674Y-102051191D01*
X183530061Y-102048836D01*
X183527246Y-102042461D01*
X183447171Y-101962386D01*
X183435080Y-101957047D01*
X183393426Y-101938655D01*
X183365618Y-101926377D01*
X183342820Y-101910759D01*
X183108190Y-101676129D01*
X183086450Y-101629509D01*
X183092571Y-101592582D01*
X183103133Y-101568663D01*
X183105926Y-101544590D01*
X183105926Y-101088622D01*
X183103133Y-101064549D01*
X183059657Y-100966085D01*
X182983547Y-100889975D01*
X182885083Y-100846499D01*
X182861010Y-100843706D01*
X182505042Y-100843706D01*
X182480969Y-100846499D01*
X182382505Y-100889975D01*
X182306395Y-100966085D01*
X182262919Y-101064549D01*
X182260126Y-101088622D01*
X182260126Y-101544590D01*
X182262919Y-101568663D01*
X182306395Y-101667127D01*
X182316540Y-101677272D01*
X182338280Y-101723892D01*
X182338280Y-101736999D01*
X182336229Y-101760442D01*
X182336229Y-101760445D01*
X182335656Y-101766997D01*
X182337359Y-101773353D01*
X182346599Y-101807841D01*
X182348018Y-101814243D01*
X182355358Y-101855867D01*
X182358648Y-101861566D01*
X182359813Y-101864766D01*
X182363861Y-101874541D01*
X182365297Y-101877621D01*
X182366999Y-101883972D01*
X182370772Y-101889360D01*
X182370773Y-101889363D01*
X182391248Y-101918606D01*
X182394771Y-101924135D01*
X182412619Y-101955047D01*
X182412621Y-101955050D01*
X182415909Y-101960744D01*
X182420945Y-101964970D01*
X182420947Y-101964972D01*
X182448290Y-101987915D01*
X182453126Y-101992347D01*
X182648100Y-102187321D01*
X182669840Y-102233941D01*
X182670126Y-102240495D01*
X182670126Y-103286832D01*
X182673064Y-103312156D01*
X182675349Y-103317332D01*
X182675350Y-103317334D01*
X182715102Y-103407363D01*
X182718806Y-103415751D01*
X182798881Y-103495826D01*
X182805255Y-103498641D01*
X182805256Y-103498641D01*
X182897298Y-103539282D01*
X182897300Y-103539283D01*
X182902476Y-103541568D01*
X182927800Y-103544506D01*
X183318252Y-103544506D01*
X183343576Y-103541568D01*
X183348752Y-103539283D01*
X183348754Y-103539282D01*
X183440796Y-103498641D01*
X183440797Y-103498641D01*
X183447171Y-103495826D01*
X183527246Y-103415751D01*
X183530061Y-103409376D01*
X183533999Y-103403627D01*
X183535537Y-103404680D01*
X183564855Y-103374135D01*
X183615996Y-103368603D01*
X183658729Y-103397237D01*
X183664378Y-103407021D01*
X183665991Y-103409376D01*
X183668806Y-103415751D01*
X183748881Y-103495826D01*
X183755255Y-103498641D01*
X183755256Y-103498641D01*
X183847298Y-103539282D01*
X183847300Y-103539283D01*
X183852476Y-103541568D01*
X183877800Y-103544506D01*
X184268252Y-103544506D01*
X184293576Y-103541568D01*
X184298752Y-103539283D01*
X184298754Y-103539282D01*
X184390796Y-103498641D01*
X184390797Y-103498641D01*
X184397171Y-103495826D01*
X184477246Y-103415751D01*
X184480061Y-103409376D01*
X184483999Y-103403627D01*
X184485537Y-103404680D01*
X184514855Y-103374135D01*
X184565996Y-103368603D01*
X184608729Y-103397237D01*
X184614378Y-103407021D01*
X184615991Y-103409376D01*
X184618806Y-103415751D01*
X184698881Y-103495826D01*
X184705255Y-103498641D01*
X184705256Y-103498641D01*
X184797298Y-103539282D01*
X184797300Y-103539283D01*
X184802476Y-103541568D01*
X184827800Y-103544506D01*
X185218252Y-103544506D01*
X185243576Y-103541568D01*
X185248752Y-103539283D01*
X185248754Y-103539282D01*
X185340796Y-103498641D01*
X185340797Y-103498641D01*
X185347171Y-103495826D01*
X185427246Y-103415751D01*
X185428930Y-103411938D01*
X185469535Y-103382879D01*
X185520822Y-103386835D01*
X185542918Y-103402139D01*
X185757286Y-103616507D01*
X185761719Y-103621344D01*
X185788888Y-103653723D01*
X185794586Y-103657013D01*
X185799626Y-103661242D01*
X185799022Y-103661962D01*
X185818804Y-103684000D01*
X185820443Y-103682877D01*
X185824383Y-103688628D01*
X185827197Y-103695002D01*
X185904629Y-103772434D01*
X185911003Y-103775248D01*
X185911004Y-103775249D01*
X185962107Y-103797813D01*
X185999220Y-103833432D01*
X186004755Y-103884573D01*
X185976122Y-103927307D01*
X185962107Y-103935399D01*
X185911004Y-103957963D01*
X185904629Y-103960778D01*
X185827197Y-104038210D01*
X185782966Y-104138385D01*
X185780125Y-104162872D01*
X185780125Y-104282332D01*
X185762532Y-104330670D01*
X185758099Y-104335506D01*
X185603687Y-104489918D01*
X185557067Y-104511658D01*
X185507380Y-104498344D01*
X185477875Y-104456207D01*
X185475814Y-104445412D01*
X185473640Y-104426676D01*
X185472988Y-104421056D01*
X185464767Y-104402436D01*
X185430061Y-104323836D01*
X185430061Y-104323835D01*
X185427246Y-104317461D01*
X185347171Y-104237386D01*
X185328897Y-104229317D01*
X185248754Y-104193930D01*
X185248752Y-104193929D01*
X185243576Y-104191644D01*
X185218252Y-104188706D01*
X184827800Y-104188706D01*
X184802476Y-104191644D01*
X184797300Y-104193929D01*
X184797298Y-104193930D01*
X184717155Y-104229317D01*
X184698881Y-104237386D01*
X184618806Y-104317461D01*
X184615991Y-104323835D01*
X184615991Y-104323836D01*
X184581286Y-104402436D01*
X184573064Y-104421056D01*
X184570126Y-104446380D01*
X184570126Y-105561832D01*
X184573064Y-105587156D01*
X184575349Y-105592332D01*
X184575350Y-105592334D01*
X184613164Y-105677973D01*
X184618806Y-105690751D01*
X184698881Y-105770826D01*
X184705255Y-105773641D01*
X184705256Y-105773641D01*
X184797298Y-105814282D01*
X184797300Y-105814283D01*
X184802476Y-105816568D01*
X184827800Y-105819506D01*
X185218252Y-105819506D01*
X185243576Y-105816568D01*
X185331352Y-105777811D01*
X185382676Y-105774380D01*
X185424199Y-105804744D01*
X185436926Y-105846603D01*
X185436926Y-105941464D01*
X185419333Y-105989802D01*
X185373491Y-106015738D01*
X185291971Y-106028649D01*
X185258764Y-106045569D01*
X185200272Y-106075372D01*
X185178255Y-106086590D01*
X185088010Y-106176835D01*
X185085322Y-106182111D01*
X185085321Y-106182112D01*
X185082992Y-106186683D01*
X185030069Y-106290551D01*
X185015126Y-106384898D01*
X185015126Y-108148314D01*
X185015588Y-108151230D01*
X185015588Y-108151232D01*
X185021150Y-108186350D01*
X185030069Y-108242661D01*
X185042296Y-108266657D01*
X185078569Y-108337847D01*
X185088010Y-108356377D01*
X185178255Y-108446622D01*
X185183529Y-108449309D01*
X185183532Y-108449311D01*
X185222196Y-108469011D01*
X185291971Y-108504563D01*
X185297818Y-108505489D01*
X185383400Y-108519044D01*
X185383402Y-108519044D01*
X185386318Y-108519506D01*
X186199734Y-108519506D01*
X186202650Y-108519044D01*
X186202652Y-108519044D01*
X186288234Y-108505489D01*
X186294081Y-108504563D01*
X186301129Y-108500972D01*
X186395795Y-108452738D01*
X186446852Y-108446469D01*
X186489993Y-108474486D01*
X186494974Y-108481994D01*
X186503293Y-108496328D01*
X186503302Y-108496342D01*
X186504118Y-108497748D01*
X186519956Y-108520257D01*
X186587015Y-108566986D01*
X186591647Y-108568660D01*
X186591649Y-108568661D01*
X186622688Y-108579878D01*
X186635391Y-108584469D01*
X186689419Y-108593869D01*
X186692690Y-108593862D01*
X186692695Y-108593862D01*
X188178167Y-108590477D01*
X188179922Y-108590473D01*
X188181663Y-108590305D01*
X188181672Y-108590305D01*
X188207562Y-108587813D01*
X188207569Y-108587812D01*
X188209325Y-108587643D01*
X188236835Y-108582363D01*
X188265193Y-108574107D01*
X188266833Y-108573458D01*
X188266838Y-108573456D01*
X188268466Y-108572811D01*
X188270906Y-108571845D01*
X188289164Y-108567157D01*
X188345237Y-108560073D01*
X188367992Y-108557199D01*
X188377416Y-108556606D01*
X189556859Y-108556606D01*
X189575559Y-108558968D01*
X189589861Y-108562640D01*
X189654989Y-108579362D01*
X189655003Y-108579365D01*
X189656132Y-108579655D01*
X189657302Y-108579878D01*
X189657304Y-108579878D01*
X189674593Y-108583167D01*
X189674608Y-108583169D01*
X189675789Y-108583394D01*
X189678162Y-108583691D01*
X189693485Y-108585609D01*
X189693491Y-108585610D01*
X189694661Y-108585756D01*
X189714631Y-108586978D01*
X190213726Y-108585842D01*
X190527602Y-108585127D01*
X190527610Y-108585127D01*
X190528405Y-108585125D01*
X190542146Y-108584494D01*
X190555184Y-108583325D01*
X190606093Y-108567156D01*
X190616396Y-108563884D01*
X190616398Y-108563883D01*
X190620312Y-108562640D01*
X190626643Y-108558968D01*
X190663386Y-108537654D01*
X190663388Y-108537653D01*
X190664808Y-108536829D01*
X190687321Y-108520997D01*
X190734066Y-108453948D01*
X190736771Y-108446469D01*
X190750443Y-108408667D01*
X190750444Y-108408664D01*
X190751561Y-108405575D01*
X190757392Y-108372111D01*
X190760411Y-108354784D01*
X190760411Y-108354781D01*
X190760974Y-108351551D01*
X190758026Y-106902894D01*
X190775521Y-106854522D01*
X190820017Y-106828711D01*
X190833226Y-106827542D01*
X191813251Y-106827542D01*
X191838575Y-106824604D01*
X191843751Y-106822319D01*
X191843753Y-106822318D01*
X191935795Y-106781677D01*
X191935796Y-106781677D01*
X191942170Y-106778862D01*
X191960132Y-106760900D01*
X192006752Y-106739160D01*
X192056439Y-106752474D01*
X192066480Y-106760900D01*
X192421851Y-107116271D01*
X192425847Y-107120862D01*
X192428227Y-107125641D01*
X192453067Y-107148286D01*
X192460828Y-107155361D01*
X192463340Y-107157760D01*
X192475880Y-107170300D01*
X192478744Y-107172262D01*
X192481427Y-107174490D01*
X192481382Y-107174544D01*
X192485112Y-107177499D01*
X192497682Y-107188958D01*
X192505560Y-107196140D01*
X192512055Y-107198656D01*
X192512058Y-107198658D01*
X192515937Y-107200161D01*
X192531266Y-107208241D01*
X192534073Y-107210163D01*
X192540445Y-107214528D01*
X192547231Y-107216124D01*
X192567382Y-107220863D01*
X192577325Y-107223941D01*
X192603139Y-107233942D01*
X192614268Y-107233942D01*
X192631483Y-107235939D01*
X192635526Y-107236890D01*
X192635528Y-107236890D01*
X192642310Y-107238485D01*
X192669712Y-107234663D01*
X192680100Y-107233942D01*
X194170414Y-107233942D01*
X194176486Y-107234363D01*
X194181548Y-107236060D01*
X194225627Y-107234022D01*
X194229101Y-107233942D01*
X194246823Y-107233942D01*
X194250239Y-107233303D01*
X194253705Y-107232982D01*
X194253712Y-107233053D01*
X194258435Y-107232505D01*
X194279122Y-107231549D01*
X194279124Y-107231549D01*
X194286081Y-107231227D01*
X194292452Y-107228414D01*
X194292455Y-107228413D01*
X194296259Y-107226733D01*
X194312815Y-107221607D01*
X194316897Y-107220844D01*
X194316902Y-107220842D01*
X194323751Y-107219562D01*
X194347291Y-107204987D01*
X194356493Y-107200137D01*
X194375432Y-107191775D01*
X194375435Y-107191773D01*
X194381810Y-107188958D01*
X194389677Y-107181091D01*
X194403261Y-107170331D01*
X194412721Y-107164473D01*
X194429399Y-107142388D01*
X194436236Y-107134532D01*
X194733852Y-106836916D01*
X194738446Y-106832918D01*
X194743224Y-106830539D01*
X194750719Y-106822318D01*
X194772954Y-106797927D01*
X194775353Y-106795415D01*
X194787883Y-106782885D01*
X194789850Y-106780014D01*
X194792069Y-106777342D01*
X194792124Y-106777388D01*
X194795072Y-106773667D01*
X194809030Y-106758355D01*
X194809032Y-106758352D01*
X194813723Y-106753206D01*
X194816240Y-106746710D01*
X194817744Y-106742829D01*
X194825824Y-106727500D01*
X194828172Y-106724072D01*
X194828173Y-106724070D01*
X194832111Y-106718321D01*
X194833706Y-106711540D01*
X194833708Y-106711535D01*
X194838449Y-106691378D01*
X194841529Y-106681432D01*
X194849006Y-106662129D01*
X194851525Y-106655627D01*
X194851525Y-106644502D01*
X194853523Y-106627285D01*
X194854474Y-106623243D01*
X194854474Y-106623236D01*
X194856069Y-106616456D01*
X194852246Y-106589049D01*
X194851525Y-106578660D01*
X194851525Y-102540673D01*
X194851947Y-102534604D01*
X194853642Y-102529546D01*
X194851605Y-102485478D01*
X194851525Y-102482007D01*
X194851525Y-102464271D01*
X194850887Y-102460858D01*
X194850566Y-102457392D01*
X194850636Y-102457385D01*
X194850088Y-102452659D01*
X194849132Y-102431971D01*
X194849132Y-102431969D01*
X194848810Y-102425013D01*
X194845118Y-102416651D01*
X194844316Y-102414835D01*
X194839190Y-102398279D01*
X194838427Y-102394197D01*
X194838425Y-102394192D01*
X194837145Y-102387343D01*
X194822570Y-102363803D01*
X194817720Y-102354601D01*
X194809358Y-102335662D01*
X194809356Y-102335659D01*
X194806541Y-102329284D01*
X194798674Y-102321417D01*
X194787914Y-102307833D01*
X194782056Y-102298373D01*
X194759971Y-102281695D01*
X194752115Y-102274858D01*
X194529672Y-102052415D01*
X194525674Y-102047821D01*
X194523295Y-102043043D01*
X194513920Y-102034496D01*
X194490683Y-102013313D01*
X194488171Y-102010914D01*
X194475641Y-101998384D01*
X194472770Y-101996417D01*
X194470098Y-101994198D01*
X194470144Y-101994143D01*
X194466423Y-101991195D01*
X194451113Y-101977239D01*
X194451111Y-101977238D01*
X194445962Y-101972544D01*
X194439467Y-101970028D01*
X194437347Y-101968715D01*
X194408143Y-101935154D01*
X194401671Y-101920496D01*
X194401671Y-101920495D01*
X194398856Y-101914121D01*
X194322746Y-101838011D01*
X194224282Y-101794535D01*
X194200209Y-101791742D01*
X193744241Y-101791742D01*
X193720168Y-101794535D01*
X193621704Y-101838011D01*
X193545594Y-101914121D01*
X193502118Y-102012585D01*
X193499325Y-102036658D01*
X193499325Y-102392626D01*
X193502118Y-102416699D01*
X193545594Y-102515163D01*
X193621704Y-102591273D01*
X193720168Y-102634749D01*
X193744241Y-102637542D01*
X194200209Y-102637542D01*
X194202379Y-102637290D01*
X194202383Y-102637290D01*
X194207863Y-102636655D01*
X194257905Y-102648563D01*
X194288585Y-102689852D01*
X194291725Y-102711354D01*
X194291725Y-102737930D01*
X194274132Y-102786268D01*
X194229583Y-102811988D01*
X194207863Y-102812629D01*
X194202383Y-102811994D01*
X194202379Y-102811994D01*
X194200209Y-102811742D01*
X193744241Y-102811742D01*
X193720168Y-102814535D01*
X193621704Y-102858011D01*
X193545594Y-102934121D01*
X193502118Y-103032585D01*
X193499325Y-103056658D01*
X193499325Y-103412626D01*
X193502118Y-103436699D01*
X193545594Y-103535163D01*
X193550522Y-103540091D01*
X193551078Y-103540902D01*
X193563884Y-103590723D01*
X193542215Y-103636578D01*
X193368298Y-103810495D01*
X193363704Y-103814493D01*
X193358926Y-103816872D01*
X193354231Y-103822023D01*
X193354230Y-103822023D01*
X193329196Y-103849484D01*
X193326797Y-103851996D01*
X193314267Y-103864526D01*
X193312300Y-103867397D01*
X193310081Y-103870069D01*
X193310026Y-103870023D01*
X193307078Y-103873744D01*
X193293120Y-103889056D01*
X193293118Y-103889059D01*
X193288427Y-103894205D01*
X193285911Y-103900699D01*
X193285910Y-103900701D01*
X193284406Y-103904582D01*
X193276326Y-103919911D01*
X193274138Y-103923106D01*
X193270039Y-103929090D01*
X193268444Y-103935871D01*
X193268442Y-103935876D01*
X193263701Y-103956033D01*
X193260622Y-103965977D01*
X193257629Y-103973704D01*
X193223764Y-104012424D01*
X193187506Y-104021742D01*
X192972799Y-104021742D01*
X192947475Y-104024680D01*
X192942299Y-104026965D01*
X192942297Y-104026966D01*
X192886702Y-104051514D01*
X192835377Y-104054945D01*
X192803153Y-104035896D01*
X192694151Y-103926894D01*
X192672411Y-103880274D01*
X192672125Y-103873720D01*
X192672125Y-103665299D01*
X192689718Y-103616961D01*
X192716950Y-103596507D01*
X192724244Y-103593286D01*
X192724245Y-103593285D01*
X192730621Y-103590470D01*
X192808053Y-103513038D01*
X192852284Y-103412863D01*
X192855125Y-103388376D01*
X192855125Y-103020908D01*
X192852284Y-102996421D01*
X192808053Y-102896246D01*
X192730621Y-102818814D01*
X192630446Y-102774583D01*
X192605959Y-102771742D01*
X192178491Y-102771742D01*
X192154004Y-102774583D01*
X192053829Y-102818814D01*
X191976397Y-102896246D01*
X191975795Y-102895644D01*
X191938999Y-102921976D01*
X191918791Y-102924742D01*
X191260625Y-102924742D01*
X191212287Y-102907149D01*
X191207451Y-102902716D01*
X191162746Y-102858011D01*
X191064282Y-102814535D01*
X191040209Y-102811742D01*
X190824751Y-102811742D01*
X190776413Y-102794149D01*
X190750693Y-102749600D01*
X190749551Y-102736697D01*
X190749502Y-102712897D01*
X190766996Y-102664523D01*
X190811491Y-102638711D01*
X190824702Y-102637542D01*
X191040209Y-102637542D01*
X191064282Y-102634749D01*
X191162746Y-102591273D01*
X191238856Y-102515163D01*
X191282332Y-102416699D01*
X191285125Y-102392626D01*
X191285125Y-102036658D01*
X191282332Y-102012585D01*
X191238856Y-101914121D01*
X191162746Y-101838011D01*
X191064282Y-101794535D01*
X191040209Y-101791742D01*
X190822675Y-101791742D01*
X190774337Y-101774149D01*
X190748617Y-101729600D01*
X190747475Y-101716695D01*
X190747445Y-101701559D01*
X190741160Y-98612258D01*
X190758655Y-98563886D01*
X190803151Y-98538075D01*
X190816360Y-98536906D01*
X194863441Y-98536906D01*
X194863467Y-98536908D01*
G37*
%TD.AperFunction*%
%TA.AperFunction,Conductor*%
G36*
X192183725Y-104214812D02*
G01*
X192191442Y-104219926D01*
X192203878Y-104229317D01*
X192211735Y-104236154D01*
X192612450Y-104636869D01*
X192616448Y-104641463D01*
X192618827Y-104646241D01*
X192623978Y-104650936D01*
X192623978Y-104650937D01*
X192651439Y-104675971D01*
X192653951Y-104678370D01*
X192666481Y-104690900D01*
X192669352Y-104692867D01*
X192672024Y-104695086D01*
X192671978Y-104695141D01*
X192675699Y-104698089D01*
X192691011Y-104712047D01*
X192691014Y-104712049D01*
X192696160Y-104716740D01*
X192702652Y-104719255D01*
X192702655Y-104719257D01*
X192705017Y-104720172D01*
X192707158Y-104722045D01*
X192708581Y-104722926D01*
X192708435Y-104723162D01*
X192743734Y-104754039D01*
X192746643Y-104759919D01*
X192757116Y-104783637D01*
X192763805Y-104798787D01*
X192843880Y-104878862D01*
X192850254Y-104881677D01*
X192850255Y-104881677D01*
X192942297Y-104922318D01*
X192942299Y-104922319D01*
X192947475Y-104924604D01*
X192972799Y-104927542D01*
X194088251Y-104927542D01*
X194113575Y-104924604D01*
X194118751Y-104922319D01*
X194118753Y-104922318D01*
X194186150Y-104892559D01*
X194237475Y-104889128D01*
X194278998Y-104919492D01*
X194291725Y-104961351D01*
X194291725Y-105887933D01*
X194274132Y-105936271D01*
X194229583Y-105961991D01*
X194186150Y-105956725D01*
X194118753Y-105926966D01*
X194118751Y-105926965D01*
X194113575Y-105924680D01*
X194088251Y-105921742D01*
X192972799Y-105921742D01*
X192947475Y-105924680D01*
X192942299Y-105926965D01*
X192942297Y-105926966D01*
X192862974Y-105961991D01*
X192843880Y-105970422D01*
X192763805Y-106050497D01*
X192760990Y-106056871D01*
X192760990Y-106056872D01*
X192730744Y-106125373D01*
X192718063Y-106154092D01*
X192715125Y-106179416D01*
X192715125Y-106436320D01*
X192697532Y-106484658D01*
X192652983Y-106510378D01*
X192602325Y-106501445D01*
X192586751Y-106489494D01*
X192309672Y-106212415D01*
X192305674Y-106207821D01*
X192303295Y-106203043D01*
X192270682Y-106173312D01*
X192268171Y-106170914D01*
X192255641Y-106158384D01*
X192252770Y-106156417D01*
X192250098Y-106154198D01*
X192250144Y-106154143D01*
X192246423Y-106151195D01*
X192231111Y-106137237D01*
X192231108Y-106137235D01*
X192225962Y-106132544D01*
X192219468Y-106130028D01*
X192219466Y-106130027D01*
X192215585Y-106128523D01*
X192200256Y-106120443D01*
X192196828Y-106118095D01*
X192196826Y-106118094D01*
X192191077Y-106114156D01*
X192184296Y-106112561D01*
X192184291Y-106112559D01*
X192164134Y-106107818D01*
X192154188Y-106104738D01*
X192134885Y-106097261D01*
X192134886Y-106097261D01*
X192128383Y-106094742D01*
X192117258Y-106094742D01*
X192100041Y-106092744D01*
X192095999Y-106091793D01*
X192095992Y-106091793D01*
X192089212Y-106090198D01*
X192084003Y-106090925D01*
X192037376Y-106071471D01*
X192026283Y-106058658D01*
X192025060Y-106056873D01*
X192022245Y-106050497D01*
X191942170Y-105970422D01*
X191935795Y-105967607D01*
X191930046Y-105963669D01*
X191931099Y-105962131D01*
X191900554Y-105932813D01*
X191895022Y-105881672D01*
X191923656Y-105838939D01*
X191933440Y-105833290D01*
X191935795Y-105831677D01*
X191942170Y-105828862D01*
X192022245Y-105748787D01*
X192029699Y-105731906D01*
X192065701Y-105650370D01*
X192065702Y-105650368D01*
X192067987Y-105645192D01*
X192070925Y-105619868D01*
X192070925Y-105229416D01*
X192067987Y-105204092D01*
X192064737Y-105196730D01*
X192025060Y-105106872D01*
X192025060Y-105106871D01*
X192022245Y-105100497D01*
X191942170Y-105020422D01*
X191935795Y-105017607D01*
X191930046Y-105013669D01*
X191931099Y-105012131D01*
X191900554Y-104982813D01*
X191895022Y-104931672D01*
X191923656Y-104888939D01*
X191933440Y-104883290D01*
X191935795Y-104881677D01*
X191942170Y-104878862D01*
X192022245Y-104798787D01*
X192027037Y-104787934D01*
X192065701Y-104700370D01*
X192065702Y-104700368D01*
X192067987Y-104695192D01*
X192070925Y-104669868D01*
X192070925Y-104279937D01*
X192088518Y-104231599D01*
X192133067Y-104205879D01*
X192183725Y-104214812D01*
G37*
%TD.AperFunction*%
%TA.AperFunction,Conductor*%
G36*
X163594216Y-100295651D02*
G01*
X163619999Y-100340163D01*
X163611138Y-100390834D01*
X163599134Y-100406500D01*
X161700154Y-102305480D01*
X161653534Y-102327220D01*
X161646980Y-102327506D01*
X159192922Y-102327506D01*
X159144584Y-102309913D01*
X159118864Y-102265364D01*
X159124518Y-102221067D01*
X159140228Y-102186665D01*
X159154372Y-102155695D01*
X159173005Y-102026103D01*
X159171698Y-102017009D01*
X159163844Y-101962386D01*
X159154372Y-101896511D01*
X159099984Y-101777418D01*
X159014247Y-101678472D01*
X158904106Y-101607689D01*
X158898949Y-101606175D01*
X158898945Y-101606173D01*
X158783648Y-101572319D01*
X158778485Y-101570803D01*
X158647561Y-101570803D01*
X158642398Y-101572319D01*
X158527101Y-101606173D01*
X158527097Y-101606175D01*
X158521940Y-101607689D01*
X158460669Y-101647065D01*
X158416326Y-101675563D01*
X158411799Y-101678472D01*
X158408280Y-101682533D01*
X158408279Y-101682534D01*
X158376599Y-101719094D01*
X158331648Y-101744104D01*
X158281138Y-101734368D01*
X158266593Y-101723022D01*
X158223546Y-101679975D01*
X158125082Y-101636499D01*
X158101009Y-101633706D01*
X157645041Y-101633706D01*
X157620968Y-101636499D01*
X157522504Y-101679975D01*
X157446394Y-101756085D01*
X157402918Y-101854549D01*
X157400125Y-101878622D01*
X157400125Y-102234590D01*
X157400810Y-102240495D01*
X157401175Y-102243638D01*
X157389270Y-102293682D01*
X157347983Y-102324365D01*
X157326476Y-102327506D01*
X156454344Y-102327506D01*
X156450409Y-102327403D01*
X156417629Y-102325685D01*
X156417627Y-102325685D01*
X156409738Y-102325272D01*
X156386627Y-102334143D01*
X156375335Y-102337488D01*
X156351112Y-102342637D01*
X156344719Y-102347282D01*
X156344717Y-102347283D01*
X156344125Y-102347713D01*
X156326875Y-102357079D01*
X156326193Y-102357341D01*
X156326192Y-102357342D01*
X156318813Y-102360174D01*
X156301317Y-102377670D01*
X156292345Y-102385334D01*
X156282309Y-102392626D01*
X156272319Y-102399884D01*
X156268369Y-102406726D01*
X156268368Y-102406727D01*
X156268002Y-102407362D01*
X156256051Y-102422936D01*
X156016314Y-102662672D01*
X155969694Y-102684411D01*
X155920007Y-102671097D01*
X155894350Y-102639875D01*
X155882245Y-102612461D01*
X155802170Y-102532386D01*
X155763164Y-102515163D01*
X155703753Y-102488930D01*
X155703751Y-102488929D01*
X155698575Y-102486644D01*
X155673251Y-102483706D01*
X154407799Y-102483706D01*
X154382475Y-102486644D01*
X154377299Y-102488929D01*
X154377297Y-102488930D01*
X154317886Y-102515163D01*
X154278880Y-102532386D01*
X154198805Y-102612461D01*
X154195990Y-102618835D01*
X154195990Y-102618836D01*
X154156991Y-102707161D01*
X154153063Y-102716056D01*
X154150125Y-102741380D01*
X154150125Y-103131832D01*
X154153063Y-103157156D01*
X154155348Y-103162332D01*
X154155349Y-103162334D01*
X154181122Y-103220703D01*
X154198805Y-103260751D01*
X154278880Y-103340826D01*
X154285254Y-103343641D01*
X154285255Y-103343641D01*
X154377297Y-103384282D01*
X154377299Y-103384283D01*
X154382475Y-103386568D01*
X154407799Y-103389506D01*
X154685425Y-103389506D01*
X154733763Y-103407099D01*
X154759483Y-103451648D01*
X154760625Y-103464706D01*
X154760625Y-103652018D01*
X154743032Y-103700356D01*
X154738600Y-103705192D01*
X154528215Y-103915578D01*
X154481594Y-103937318D01*
X154475040Y-103937604D01*
X153925866Y-103937604D01*
X153877528Y-103920011D01*
X153851808Y-103875462D01*
X153860741Y-103824804D01*
X153869577Y-103812538D01*
X153880776Y-103799896D01*
X153889252Y-103790329D01*
X153891529Y-103785992D01*
X153966464Y-103643214D01*
X153968578Y-103639186D01*
X154009428Y-103473451D01*
X154009428Y-103302755D01*
X153968578Y-103137020D01*
X153944166Y-103090506D01*
X153891366Y-102989904D01*
X153891364Y-102989901D01*
X153889252Y-102985877D01*
X153776061Y-102858110D01*
X153671714Y-102786085D01*
X153639329Y-102763731D01*
X153635581Y-102761144D01*
X153631328Y-102759531D01*
X153631324Y-102759529D01*
X153480230Y-102702227D01*
X153480229Y-102702227D01*
X153475979Y-102700615D01*
X153471470Y-102700068D01*
X153471468Y-102700067D01*
X153425771Y-102694519D01*
X153349049Y-102685203D01*
X153264007Y-102685203D01*
X153187285Y-102694519D01*
X153141588Y-102700067D01*
X153141586Y-102700068D01*
X153137077Y-102700615D01*
X153132827Y-102702227D01*
X153132826Y-102702227D01*
X152981732Y-102759529D01*
X152981728Y-102759531D01*
X152977475Y-102761144D01*
X152973727Y-102763731D01*
X152941342Y-102786085D01*
X152836995Y-102858110D01*
X152723804Y-102985877D01*
X152721692Y-102989901D01*
X152721690Y-102989904D01*
X152668890Y-103090506D01*
X152644478Y-103137020D01*
X152603628Y-103302755D01*
X152603628Y-103473451D01*
X152644478Y-103639186D01*
X152646592Y-103643214D01*
X152721528Y-103785992D01*
X152723804Y-103790329D01*
X152732280Y-103799896D01*
X152743479Y-103812538D01*
X152762363Y-103860386D01*
X152746073Y-103909178D01*
X152702231Y-103936084D01*
X152687190Y-103937604D01*
X151937118Y-103937604D01*
X151888780Y-103920011D01*
X151883944Y-103915579D01*
X151758694Y-103790329D01*
X151630748Y-103662384D01*
X151609008Y-103615763D01*
X151622322Y-103566076D01*
X151630748Y-103556035D01*
X151699656Y-103487127D01*
X151743132Y-103388663D01*
X151745925Y-103364590D01*
X151745925Y-102908622D01*
X151743132Y-102884549D01*
X151699656Y-102786085D01*
X151628351Y-102714780D01*
X151606611Y-102668160D01*
X151619925Y-102618473D01*
X151628351Y-102608432D01*
X151699656Y-102537127D01*
X151743132Y-102438663D01*
X151745925Y-102414590D01*
X151745925Y-102058622D01*
X151743132Y-102034549D01*
X151735360Y-102016947D01*
X151731929Y-101965622D01*
X151762291Y-101924099D01*
X151781571Y-101914842D01*
X151789745Y-101912269D01*
X151793297Y-101910221D01*
X151793300Y-101910220D01*
X151832890Y-101887397D01*
X151832897Y-101887393D01*
X151834310Y-101886578D01*
X151856866Y-101870806D01*
X151903791Y-101803883D01*
X151909035Y-101789506D01*
X151920289Y-101758647D01*
X151921416Y-101755557D01*
X151930295Y-101705394D01*
X151930401Y-101704797D01*
X151930401Y-101704795D01*
X151930974Y-101701559D01*
X151931282Y-101231832D01*
X154150125Y-101231832D01*
X154153063Y-101257156D01*
X154155348Y-101262332D01*
X154155349Y-101262334D01*
X154180923Y-101320253D01*
X154198805Y-101360751D01*
X154278880Y-101440826D01*
X154285254Y-101443641D01*
X154285255Y-101443641D01*
X154377297Y-101484282D01*
X154377299Y-101484283D01*
X154382475Y-101486568D01*
X154407799Y-101489506D01*
X155673251Y-101489506D01*
X155698575Y-101486568D01*
X155703751Y-101484283D01*
X155703753Y-101484282D01*
X155795795Y-101443641D01*
X155795796Y-101443641D01*
X155802170Y-101440826D01*
X155882245Y-101360751D01*
X155885060Y-101354376D01*
X155888603Y-101349205D01*
X155930437Y-101319271D01*
X155950641Y-101316506D01*
X156314625Y-101316506D01*
X156362963Y-101334099D01*
X156367799Y-101338532D01*
X156442504Y-101413237D01*
X156540968Y-101456713D01*
X156565041Y-101459506D01*
X157021009Y-101459506D01*
X157045082Y-101456713D01*
X157143546Y-101413237D01*
X157218251Y-101338532D01*
X157264871Y-101316792D01*
X157271425Y-101316506D01*
X157394625Y-101316506D01*
X157442963Y-101334099D01*
X157447799Y-101338532D01*
X157522504Y-101413237D01*
X157620968Y-101456713D01*
X157645041Y-101459506D01*
X158101009Y-101459506D01*
X158125082Y-101456713D01*
X158223546Y-101413237D01*
X158299656Y-101337127D01*
X158343132Y-101238663D01*
X158345925Y-101214590D01*
X158345925Y-100858622D01*
X158343132Y-100834549D01*
X158299656Y-100736085D01*
X158223546Y-100659975D01*
X158125082Y-100616499D01*
X158101009Y-100613706D01*
X157645041Y-100613706D01*
X157620968Y-100616499D01*
X157522504Y-100659975D01*
X157447799Y-100734680D01*
X157401179Y-100756420D01*
X157394625Y-100756706D01*
X157271425Y-100756706D01*
X157223087Y-100739113D01*
X157218251Y-100734680D01*
X157143546Y-100659975D01*
X157045082Y-100616499D01*
X157021009Y-100613706D01*
X156565041Y-100613706D01*
X156540968Y-100616499D01*
X156442504Y-100659975D01*
X156367799Y-100734680D01*
X156321179Y-100756420D01*
X156314625Y-100756706D01*
X155950641Y-100756706D01*
X155902303Y-100739113D01*
X155888603Y-100724007D01*
X155885059Y-100718834D01*
X155882245Y-100712461D01*
X155802170Y-100632386D01*
X155781348Y-100623192D01*
X155703753Y-100588930D01*
X155703751Y-100588929D01*
X155698575Y-100586644D01*
X155673251Y-100583706D01*
X154407799Y-100583706D01*
X154382475Y-100586644D01*
X154377299Y-100588929D01*
X154377297Y-100588930D01*
X154299702Y-100623192D01*
X154278880Y-100632386D01*
X154198805Y-100712461D01*
X154195990Y-100718835D01*
X154195990Y-100718836D01*
X154157284Y-100806497D01*
X154153063Y-100816056D01*
X154150125Y-100841380D01*
X154150125Y-101231832D01*
X151931282Y-101231832D01*
X151931332Y-101156312D01*
X151931849Y-100369608D01*
X151949474Y-100321282D01*
X151994039Y-100295591D01*
X152006943Y-100294457D01*
X163545854Y-100278126D01*
X163594216Y-100295651D01*
G37*
%TD.AperFunction*%
%TA.AperFunction,Conductor*%
G36*
X149378263Y-98554499D02*
G01*
X149403983Y-98599048D01*
X149405125Y-98612106D01*
X149405125Y-99092345D01*
X149387532Y-99140683D01*
X149342983Y-99166403D01*
X149313978Y-99165827D01*
X149311510Y-99165102D01*
X149295089Y-99162741D01*
X149269685Y-99159088D01*
X149269679Y-99159088D01*
X149267025Y-99158706D01*
X146459025Y-99158706D01*
X146457027Y-99158921D01*
X146457023Y-99158921D01*
X146427468Y-99162098D01*
X146427461Y-99162099D01*
X146425462Y-99162314D01*
X146423505Y-99162740D01*
X146423497Y-99162741D01*
X146377712Y-99172701D01*
X146373120Y-99173700D01*
X146303281Y-99208659D01*
X146249625Y-99255152D01*
X146201523Y-99330000D01*
X146181521Y-99398121D01*
X146175125Y-99442606D01*
X146175125Y-101123506D01*
X146157532Y-101171844D01*
X146112983Y-101197564D01*
X146099925Y-101198706D01*
X140009025Y-101198706D01*
X140007027Y-101198921D01*
X140007023Y-101198921D01*
X139977468Y-101202098D01*
X139977461Y-101202099D01*
X139975462Y-101202314D01*
X139973505Y-101202740D01*
X139973497Y-101202741D01*
X139929041Y-101212412D01*
X139923120Y-101213700D01*
X139853281Y-101248659D01*
X139799625Y-101295152D01*
X139751523Y-101370000D01*
X139731521Y-101438121D01*
X139731140Y-101440769D01*
X139731139Y-101440775D01*
X139728791Y-101457111D01*
X139725125Y-101482606D01*
X139725125Y-103100306D01*
X139725340Y-103102304D01*
X139725340Y-103102308D01*
X139726380Y-103111978D01*
X139728733Y-103133869D01*
X139729160Y-103135832D01*
X139729484Y-103137832D01*
X139728624Y-103137971D01*
X139722078Y-103186112D01*
X139684006Y-103220703D01*
X139655523Y-103226306D01*
X138720632Y-103226306D01*
X138672294Y-103208713D01*
X138667458Y-103204280D01*
X138418099Y-102954921D01*
X138413430Y-102949556D01*
X138410880Y-102944435D01*
X138405729Y-102939739D01*
X138375182Y-102911891D01*
X138372670Y-102909492D01*
X138358901Y-102895723D01*
X138356032Y-102893758D01*
X138353354Y-102891534D01*
X138353373Y-102891511D01*
X138349185Y-102888193D01*
X138331679Y-102872234D01*
X138326529Y-102867539D01*
X138319782Y-102864925D01*
X138314473Y-102862868D01*
X138299143Y-102854788D01*
X138294227Y-102851420D01*
X138294226Y-102851420D01*
X138288478Y-102847482D01*
X138281696Y-102845887D01*
X138281694Y-102845886D01*
X138258633Y-102840462D01*
X138248688Y-102837382D01*
X138226597Y-102828825D01*
X138226598Y-102828825D01*
X138220095Y-102826306D01*
X138207171Y-102826306D01*
X138189954Y-102824308D01*
X138184156Y-102822944D01*
X138184149Y-102822944D01*
X138177369Y-102821349D01*
X138156158Y-102824308D01*
X138147003Y-102825585D01*
X138136613Y-102826306D01*
X126720632Y-102826306D01*
X126672294Y-102808713D01*
X126667458Y-102804280D01*
X126218099Y-102354921D01*
X126213430Y-102349556D01*
X126210880Y-102344435D01*
X126205729Y-102339739D01*
X126175182Y-102311891D01*
X126172670Y-102309492D01*
X126158901Y-102295723D01*
X126156032Y-102293758D01*
X126153354Y-102291534D01*
X126153373Y-102291511D01*
X126149185Y-102288193D01*
X126131679Y-102272234D01*
X126126529Y-102267539D01*
X126119782Y-102264925D01*
X126114473Y-102262868D01*
X126099143Y-102254788D01*
X126094227Y-102251420D01*
X126094226Y-102251420D01*
X126088478Y-102247482D01*
X126081696Y-102245887D01*
X126081694Y-102245886D01*
X126058633Y-102240462D01*
X126048688Y-102237382D01*
X126026597Y-102228825D01*
X126026598Y-102228825D01*
X126020095Y-102226306D01*
X126007171Y-102226306D01*
X125989954Y-102224308D01*
X125984156Y-102222944D01*
X125984149Y-102222944D01*
X125977369Y-102221349D01*
X125956158Y-102224308D01*
X125947003Y-102225585D01*
X125936613Y-102226306D01*
X107320632Y-102226306D01*
X107272294Y-102208713D01*
X107267458Y-102204280D01*
X106890351Y-101827173D01*
X106868611Y-101780553D01*
X106868325Y-101773999D01*
X106868325Y-98779960D01*
X106868326Y-98779957D01*
X106868325Y-98739007D01*
X106869770Y-98724337D01*
X106880225Y-98671773D01*
X106891454Y-98644663D01*
X106917038Y-98606376D01*
X106937783Y-98585632D01*
X106976070Y-98560050D01*
X107003176Y-98548824D01*
X107055848Y-98538349D01*
X107070510Y-98536906D01*
X107111217Y-98536909D01*
X107111365Y-98536909D01*
X107111373Y-98536906D01*
X149329925Y-98536906D01*
X149378263Y-98554499D01*
G37*
%TD.AperFunction*%
%TA.AperFunction,Conductor*%
G36*
X186419624Y-100263348D02*
G01*
X186445407Y-100307860D01*
X186446568Y-100320936D01*
X186446625Y-100370462D01*
X186446625Y-100370465D01*
X186446636Y-100380278D01*
X186446636Y-100380364D01*
X186447905Y-101486568D01*
X186448365Y-101887614D01*
X186448391Y-101910499D01*
X186449500Y-102877161D01*
X186449501Y-102878420D01*
X186431963Y-102926778D01*
X186387444Y-102952549D01*
X186374301Y-102953706D01*
X186096915Y-102953706D01*
X186048577Y-102936113D01*
X186043741Y-102931680D01*
X185611266Y-102499205D01*
X185606833Y-102494368D01*
X185583892Y-102467028D01*
X185579664Y-102461989D01*
X185573970Y-102458701D01*
X185573967Y-102458699D01*
X185543055Y-102440851D01*
X185537525Y-102437328D01*
X185507994Y-102416651D01*
X185478489Y-102374515D01*
X185475926Y-102355050D01*
X185475926Y-102171380D01*
X185472988Y-102146056D01*
X185470689Y-102140848D01*
X185430061Y-102048836D01*
X185430061Y-102048835D01*
X185427246Y-102042461D01*
X185347171Y-101962386D01*
X185340667Y-101959514D01*
X185248754Y-101918930D01*
X185248752Y-101918929D01*
X185243576Y-101916644D01*
X185218252Y-101913706D01*
X184857367Y-101913706D01*
X184815029Y-101898297D01*
X184786953Y-101923498D01*
X184709809Y-101957561D01*
X184698881Y-101962386D01*
X184618806Y-102042461D01*
X184615991Y-102048836D01*
X184612053Y-102054585D01*
X184610515Y-102053532D01*
X184581197Y-102084077D01*
X184530056Y-102089609D01*
X184487323Y-102060975D01*
X184481674Y-102051191D01*
X184480061Y-102048836D01*
X184477246Y-102042461D01*
X184438452Y-102003667D01*
X184416712Y-101957047D01*
X184416426Y-101950493D01*
X184416426Y-101859995D01*
X184434019Y-101811657D01*
X184438452Y-101806821D01*
X184443741Y-101801532D01*
X184490361Y-101779792D01*
X184496915Y-101779506D01*
X184756578Y-101779506D01*
X184798916Y-101794915D01*
X184826992Y-101769713D01*
X184857857Y-101756085D01*
X184911422Y-101732434D01*
X184988854Y-101655002D01*
X185033085Y-101554827D01*
X185035926Y-101530340D01*
X185035926Y-101102872D01*
X185033085Y-101078385D01*
X184988854Y-100978210D01*
X184968452Y-100957808D01*
X184946712Y-100911188D01*
X184946426Y-100904634D01*
X184946426Y-100322934D01*
X184964019Y-100274596D01*
X185008568Y-100248876D01*
X185021520Y-100247734D01*
X185532981Y-100247010D01*
X186371263Y-100245823D01*
X186419624Y-100263348D01*
G37*
%TD.AperFunction*%
%TA.AperFunction,Conductor*%
G36*
X189575556Y-99918967D02*
G01*
X189678298Y-99945347D01*
X189695817Y-99952284D01*
X189788765Y-100003383D01*
X189804015Y-100014463D01*
X189881338Y-100087074D01*
X189893351Y-100101595D01*
X189950187Y-100191153D01*
X189958208Y-100208198D01*
X189990590Y-100307860D01*
X189990986Y-100309079D01*
X189994518Y-100327594D01*
X190001178Y-100433455D01*
X189999994Y-100452264D01*
X189991302Y-100497835D01*
X189980120Y-100556452D01*
X189974295Y-100574380D01*
X189929132Y-100670356D01*
X189919033Y-100686269D01*
X189851422Y-100767996D01*
X189837692Y-100780890D01*
X189751869Y-100843245D01*
X189735356Y-100852322D01*
X189636734Y-100891369D01*
X189618484Y-100896055D01*
X189550575Y-100904634D01*
X189539659Y-100906013D01*
X189530234Y-100906606D01*
X188350790Y-100906606D01*
X188332094Y-100904245D01*
X188229352Y-100877865D01*
X188211833Y-100870928D01*
X188193411Y-100860800D01*
X188118884Y-100819828D01*
X188103635Y-100808749D01*
X188026312Y-100736138D01*
X188014297Y-100721615D01*
X187957463Y-100632059D01*
X187949442Y-100615014D01*
X187916664Y-100514131D01*
X187913132Y-100495618D01*
X187909221Y-100433455D01*
X187906472Y-100389755D01*
X187907656Y-100370944D01*
X187907748Y-100370465D01*
X187922226Y-100294563D01*
X187927530Y-100266760D01*
X187933355Y-100248832D01*
X187978518Y-100152856D01*
X187988618Y-100136941D01*
X188056228Y-100055216D01*
X188069958Y-100042322D01*
X188155781Y-99979967D01*
X188172294Y-99970890D01*
X188270916Y-99931843D01*
X188289166Y-99927157D01*
X188367991Y-99917199D01*
X188377416Y-99916606D01*
X189556860Y-99916606D01*
X189575556Y-99918967D01*
G37*
%TD.AperFunction*%
%TD*%
%TA.AperFunction,NonConductor*%
G36*
X169109219Y-100682395D02*
G01*
X169114056Y-100686828D01*
X169232479Y-100805252D01*
X169254218Y-100851872D01*
X169253739Y-100869128D01*
X169248351Y-100906606D01*
X169248326Y-100906777D01*
X169224032Y-100952119D01*
X169176277Y-100971237D01*
X169127406Y-100955186D01*
X169120717Y-100949249D01*
X168964644Y-100793176D01*
X168942904Y-100746556D01*
X168956218Y-100696869D01*
X168998355Y-100667364D01*
X169017818Y-100664802D01*
X169060881Y-100664802D01*
X169109219Y-100682395D01*
G37*
%TD.AperFunction*%
%TA.AperFunction,NonConductor*%
G36*
X156822768Y-103586305D02*
G01*
X156859997Y-103621802D01*
X156867052Y-103644491D01*
X156877484Y-103717041D01*
X156866949Y-103767389D01*
X156826514Y-103799187D01*
X156781863Y-103799896D01*
X156673650Y-103768122D01*
X156668487Y-103766606D01*
X156658487Y-103766606D01*
X156610149Y-103749013D01*
X156584429Y-103704464D01*
X156593362Y-103653806D01*
X156632767Y-103620741D01*
X156647785Y-103616971D01*
X156653106Y-103616206D01*
X156658487Y-103616206D01*
X156771432Y-103583042D01*
X156822768Y-103586305D01*
G37*
%TD.AperFunction*%
%TA.AperFunction,NonConductor*%
G36*
X194256768Y-103797988D02*
G01*
X194288187Y-103838718D01*
X194291725Y-103861514D01*
X194291725Y-103987933D01*
X194274132Y-104036271D01*
X194229583Y-104061991D01*
X194186150Y-104056725D01*
X194144217Y-104038210D01*
X194113575Y-104024680D01*
X194107954Y-104024028D01*
X194106110Y-104023526D01*
X194064087Y-103993859D01*
X194050965Y-103944121D01*
X194072679Y-103897790D01*
X194134452Y-103836017D01*
X194139046Y-103832019D01*
X194143824Y-103829640D01*
X194160953Y-103810850D01*
X194206519Y-103786983D01*
X194256768Y-103797988D01*
G37*
%TD.AperFunction*%
%TA.AperFunction,NonConductor*%
G36*
X191967129Y-103502135D02*
G01*
X191975809Y-103511706D01*
X191976397Y-103513038D01*
X192053829Y-103590470D01*
X192060205Y-103593285D01*
X192060206Y-103593286D01*
X192067500Y-103596507D01*
X192104613Y-103632126D01*
X192112325Y-103665299D01*
X192112325Y-103970332D01*
X192111904Y-103976404D01*
X192110207Y-103981466D01*
X192111904Y-104018166D01*
X192112245Y-104025546D01*
X192112325Y-104029019D01*
X192112325Y-104046741D01*
X192112963Y-104050155D01*
X192113259Y-104053345D01*
X192100201Y-104103100D01*
X192058216Y-104132821D01*
X192006950Y-104128601D01*
X191985206Y-104113458D01*
X191942170Y-104070422D01*
X191923076Y-104061991D01*
X191843753Y-104026966D01*
X191843751Y-104026965D01*
X191838575Y-104024680D01*
X191813251Y-104021742D01*
X190827213Y-104021742D01*
X190778875Y-104004149D01*
X190753155Y-103959600D01*
X190752013Y-103946695D01*
X190751767Y-103825870D01*
X190751577Y-103732894D01*
X190769072Y-103684522D01*
X190813568Y-103658711D01*
X190826777Y-103657542D01*
X191040209Y-103657542D01*
X191064282Y-103654749D01*
X191162746Y-103611273D01*
X191238856Y-103535163D01*
X191241670Y-103528789D01*
X191245610Y-103523038D01*
X191246744Y-103523815D01*
X191277037Y-103492253D01*
X191310208Y-103484542D01*
X191918791Y-103484542D01*
X191967129Y-103502135D01*
G37*
%TD.AperFunction*%
%TA.AperFunction,NonConductor*%
G36*
X186424905Y-104797099D02*
G01*
X186450625Y-104841648D01*
X186451767Y-104854620D01*
X186453066Y-105986855D01*
X186435528Y-106035213D01*
X186391009Y-106060984D01*
X186343725Y-106053944D01*
X186327285Y-106045567D01*
X186294081Y-106028649D01*
X186212561Y-106015738D01*
X186167572Y-105990800D01*
X186149126Y-105941464D01*
X186149126Y-105266722D01*
X186150726Y-105251291D01*
X186152069Y-105244886D01*
X186153741Y-105236911D01*
X186149703Y-105204515D01*
X186149220Y-105196730D01*
X186149126Y-105195597D01*
X186149126Y-105192484D01*
X186147864Y-105184920D01*
X186145738Y-105172179D01*
X186145289Y-105169104D01*
X186139812Y-105125162D01*
X186139812Y-105125161D01*
X186139041Y-105118978D01*
X186136491Y-105113762D01*
X186136440Y-105113613D01*
X186135490Y-105110647D01*
X186135445Y-105110495D01*
X186134489Y-105104768D01*
X186110445Y-105060337D01*
X186109025Y-105057578D01*
X186099208Y-105037498D01*
X186093783Y-104986345D01*
X186113592Y-104951295D01*
X186263355Y-104801532D01*
X186309975Y-104779792D01*
X186316529Y-104779506D01*
X186376567Y-104779506D01*
X186424905Y-104797099D01*
G37*
%TD.AperFunction*%
%TA.AperFunction,NonConductor*%
G36*
X149773060Y-101861074D02*
G01*
X149773480Y-101860059D01*
X149780320Y-101862892D01*
X149786480Y-101867008D01*
X149849310Y-101879506D01*
X150095002Y-101879506D01*
X150102280Y-101880180D01*
X150105703Y-101881506D01*
X150490939Y-101881506D01*
X150539277Y-101899099D01*
X150544113Y-101903532D01*
X150778099Y-102137518D01*
X150799839Y-102184138D01*
X150800125Y-102190692D01*
X150800125Y-102282520D01*
X150782532Y-102330858D01*
X150778099Y-102335694D01*
X150472113Y-102641680D01*
X150425493Y-102663420D01*
X150418939Y-102663706D01*
X150125041Y-102663706D01*
X150100968Y-102666499D01*
X150002504Y-102709975D01*
X149926394Y-102786085D01*
X149882918Y-102884549D01*
X149880125Y-102908622D01*
X149880125Y-103364590D01*
X149882918Y-103388663D01*
X149926394Y-103487127D01*
X150002504Y-103563237D01*
X150100968Y-103606713D01*
X150125041Y-103609506D01*
X150481009Y-103609506D01*
X150505082Y-103606713D01*
X150603546Y-103563237D01*
X150679656Y-103487127D01*
X150723132Y-103388663D01*
X150725925Y-103364590D01*
X150725925Y-103210692D01*
X150743518Y-103162354D01*
X150747951Y-103157518D01*
X150771751Y-103133718D01*
X150818371Y-103111978D01*
X150868058Y-103125292D01*
X150897563Y-103167429D01*
X150900125Y-103186892D01*
X150900125Y-103364590D01*
X150902918Y-103388663D01*
X150946394Y-103487127D01*
X151021099Y-103561832D01*
X151042839Y-103608452D01*
X151043125Y-103615006D01*
X151043125Y-103700025D01*
X151042704Y-103706097D01*
X151041007Y-103711159D01*
X151041329Y-103718122D01*
X151043045Y-103755239D01*
X151043125Y-103758712D01*
X151043125Y-103776434D01*
X151043764Y-103779850D01*
X151044085Y-103783316D01*
X151044014Y-103783323D01*
X151044562Y-103788046D01*
X151045247Y-103802854D01*
X151045840Y-103815692D01*
X151048653Y-103822063D01*
X151048654Y-103822066D01*
X151050334Y-103825870D01*
X151055460Y-103842426D01*
X151056223Y-103846508D01*
X151056225Y-103846513D01*
X151057505Y-103853362D01*
X151072080Y-103876902D01*
X151076930Y-103886104D01*
X151085292Y-103905043D01*
X151085294Y-103905046D01*
X151088109Y-103911421D01*
X151095976Y-103919288D01*
X151106736Y-103932872D01*
X151112594Y-103942332D01*
X151118879Y-103947078D01*
X151134679Y-103959010D01*
X151142535Y-103965847D01*
X151556419Y-104379731D01*
X151560417Y-104384325D01*
X151562796Y-104389103D01*
X151567947Y-104393798D01*
X151567947Y-104393799D01*
X151595408Y-104418833D01*
X151597920Y-104421232D01*
X151610450Y-104433762D01*
X151613321Y-104435729D01*
X151615993Y-104437948D01*
X151615947Y-104438003D01*
X151619668Y-104440951D01*
X151634980Y-104454909D01*
X151634983Y-104454911D01*
X151640129Y-104459602D01*
X151646623Y-104462118D01*
X151646625Y-104462119D01*
X151650506Y-104463623D01*
X151665835Y-104471703D01*
X151669263Y-104474051D01*
X151669265Y-104474052D01*
X151675014Y-104477990D01*
X151681795Y-104479585D01*
X151681800Y-104479587D01*
X151701957Y-104484328D01*
X151711903Y-104487408D01*
X151728082Y-104493675D01*
X151737708Y-104497404D01*
X151748833Y-104497404D01*
X151766050Y-104499402D01*
X151770092Y-104500353D01*
X151770099Y-104500353D01*
X151776879Y-104501948D01*
X151804286Y-104498125D01*
X151814675Y-104497404D01*
X154571653Y-104497404D01*
X154577725Y-104497825D01*
X154582787Y-104499522D01*
X154626866Y-104497484D01*
X154630340Y-104497404D01*
X154648062Y-104497404D01*
X154651478Y-104496765D01*
X154654944Y-104496444D01*
X154654951Y-104496515D01*
X154659674Y-104495967D01*
X154680361Y-104495011D01*
X154680363Y-104495011D01*
X154687320Y-104494689D01*
X154693691Y-104491876D01*
X154693694Y-104491875D01*
X154697498Y-104490195D01*
X154714054Y-104485069D01*
X154718136Y-104484306D01*
X154718141Y-104484304D01*
X154724990Y-104483024D01*
X154748530Y-104468449D01*
X154757732Y-104463599D01*
X154776671Y-104455237D01*
X154776674Y-104455235D01*
X154783049Y-104452420D01*
X154790916Y-104444553D01*
X154804500Y-104433793D01*
X154813960Y-104427935D01*
X154830638Y-104405850D01*
X154837475Y-104397994D01*
X155205916Y-104029553D01*
X155213651Y-104023711D01*
X155213488Y-104023514D01*
X155218849Y-104019062D01*
X155224936Y-104015672D01*
X155247884Y-103988037D01*
X155252564Y-103982905D01*
X155259283Y-103976186D01*
X155264664Y-103968331D01*
X155268849Y-103962790D01*
X155287338Y-103940525D01*
X155287338Y-103940524D01*
X155291788Y-103935166D01*
X155294001Y-103928564D01*
X155297041Y-103923106D01*
X155299574Y-103917370D01*
X155303511Y-103911622D01*
X155311731Y-103876674D01*
X155313631Y-103869994D01*
X155315208Y-103865291D01*
X155325043Y-103835946D01*
X155324721Y-103828984D01*
X155325584Y-103822799D01*
X155325873Y-103816543D01*
X155327469Y-103809757D01*
X155324759Y-103790329D01*
X155322510Y-103774203D01*
X155321869Y-103767289D01*
X155320505Y-103737794D01*
X155320425Y-103734320D01*
X155320425Y-103464706D01*
X155338018Y-103416368D01*
X155382567Y-103390648D01*
X155395625Y-103389506D01*
X155673251Y-103389506D01*
X155698575Y-103386568D01*
X155727351Y-103373862D01*
X155778676Y-103370433D01*
X155820198Y-103400797D01*
X155832925Y-103442655D01*
X155832925Y-103672946D01*
X155832822Y-103676882D01*
X155830691Y-103717545D01*
X155839562Y-103740656D01*
X155842907Y-103751948D01*
X155848056Y-103776171D01*
X155852701Y-103782564D01*
X155852702Y-103782566D01*
X155853132Y-103783158D01*
X155862498Y-103800408D01*
X155865593Y-103808470D01*
X155883089Y-103825966D01*
X155890753Y-103834938D01*
X155896194Y-103842426D01*
X155905303Y-103854964D01*
X155912148Y-103858916D01*
X155912782Y-103859282D01*
X155928356Y-103871233D01*
X156007892Y-103950769D01*
X156029632Y-103997389D01*
X156016318Y-104047076D01*
X155974181Y-104076581D01*
X155933530Y-104076096D01*
X155922722Y-104072922D01*
X155922718Y-104072921D01*
X155917557Y-104071406D01*
X155786633Y-104071406D01*
X155781470Y-104072922D01*
X155666173Y-104106776D01*
X155666169Y-104106778D01*
X155661012Y-104108292D01*
X155550871Y-104179075D01*
X155465134Y-104278021D01*
X155410746Y-104397114D01*
X155392113Y-104526706D01*
X155410746Y-104656298D01*
X155465134Y-104775391D01*
X155550871Y-104874337D01*
X155661012Y-104945120D01*
X155708504Y-104959065D01*
X155747805Y-104970605D01*
X155789228Y-105001105D01*
X155801355Y-105051094D01*
X155795024Y-105073993D01*
X155761676Y-105147014D01*
X155743043Y-105276606D01*
X155761676Y-105406198D01*
X155816064Y-105525291D01*
X155901801Y-105624237D01*
X156011942Y-105695020D01*
X156017099Y-105696534D01*
X156017103Y-105696536D01*
X156093960Y-105719103D01*
X156137563Y-105731906D01*
X156268487Y-105731906D01*
X156312090Y-105719103D01*
X156388947Y-105696536D01*
X156388951Y-105696534D01*
X156394108Y-105695020D01*
X156504249Y-105624237D01*
X156589986Y-105525291D01*
X156644374Y-105406198D01*
X156645139Y-105400876D01*
X156645141Y-105400870D01*
X156652268Y-105351303D01*
X156676561Y-105305962D01*
X156726702Y-105286806D01*
X157055965Y-105286806D01*
X157059902Y-105286909D01*
X157100564Y-105289040D01*
X157123675Y-105280169D01*
X157134967Y-105276824D01*
X157159190Y-105271675D01*
X157165583Y-105267030D01*
X157165585Y-105267029D01*
X157166177Y-105266599D01*
X157183427Y-105257233D01*
X157184109Y-105256971D01*
X157184110Y-105256970D01*
X157191489Y-105254138D01*
X157208985Y-105236642D01*
X157217957Y-105228978D01*
X157231590Y-105219073D01*
X157237983Y-105214428D01*
X157242301Y-105206949D01*
X157254252Y-105191375D01*
X158132516Y-104313111D01*
X158179136Y-104291371D01*
X158228823Y-104304685D01*
X158258328Y-104346822D01*
X158260124Y-104355582D01*
X158270907Y-104430576D01*
X158270909Y-104430582D01*
X158271674Y-104435904D01*
X158326062Y-104554997D01*
X158329588Y-104559066D01*
X158399957Y-104640276D01*
X158411799Y-104653943D01*
X158521940Y-104724726D01*
X158527097Y-104726240D01*
X158527101Y-104726242D01*
X158641795Y-104759919D01*
X158647561Y-104761612D01*
X158741339Y-104761612D01*
X158789677Y-104779205D01*
X158794513Y-104783637D01*
X160189725Y-106178828D01*
X160193719Y-106183417D01*
X160196098Y-106188195D01*
X160201248Y-106192890D01*
X160201249Y-106192891D01*
X160228708Y-106217923D01*
X160231220Y-106220322D01*
X160243754Y-106232856D01*
X160246618Y-106234818D01*
X160249301Y-106237046D01*
X160249256Y-106237100D01*
X160252983Y-106240053D01*
X160273431Y-106258694D01*
X160279931Y-106261212D01*
X160283809Y-106262715D01*
X160299138Y-106270795D01*
X160302058Y-106272795D01*
X160308318Y-106277083D01*
X160335254Y-106283418D01*
X160345203Y-106286498D01*
X160364512Y-106293979D01*
X160364514Y-106293979D01*
X160371010Y-106296496D01*
X160382138Y-106296496D01*
X160399354Y-106298493D01*
X160403401Y-106299445D01*
X160403402Y-106299445D01*
X160410184Y-106301040D01*
X160437588Y-106297217D01*
X160447979Y-106296496D01*
X164905930Y-106296496D01*
X164954268Y-106314089D01*
X164959104Y-106318522D01*
X165088914Y-106448332D01*
X165110654Y-106494952D01*
X165097340Y-106544639D01*
X165055203Y-106574144D01*
X165035740Y-106576706D01*
X157043499Y-106576706D01*
X157037427Y-106576285D01*
X157032365Y-106574588D01*
X156994655Y-106576332D01*
X156988285Y-106576626D01*
X156984812Y-106576706D01*
X156967090Y-106576706D01*
X156963674Y-106577345D01*
X156960208Y-106577666D01*
X156960201Y-106577595D01*
X156955478Y-106578143D01*
X156934791Y-106579099D01*
X156934789Y-106579099D01*
X156927832Y-106579421D01*
X156917650Y-106583917D01*
X156901097Y-106589042D01*
X156897014Y-106589805D01*
X156897013Y-106589805D01*
X156890162Y-106591086D01*
X156866630Y-106605657D01*
X156857425Y-106610508D01*
X156832103Y-106621689D01*
X156824236Y-106629556D01*
X156810651Y-106640318D01*
X156801192Y-106646175D01*
X156796994Y-106651734D01*
X156784517Y-106668256D01*
X156777680Y-106676112D01*
X155696306Y-107757487D01*
X154624321Y-108829472D01*
X154577701Y-108851212D01*
X154571147Y-108851498D01*
X147687427Y-108851498D01*
X147639089Y-108833905D01*
X147630604Y-108825552D01*
X147564249Y-108748975D01*
X147454108Y-108678192D01*
X147448951Y-108676678D01*
X147448947Y-108676676D01*
X147333650Y-108642822D01*
X147328487Y-108641306D01*
X147234711Y-108641306D01*
X147186373Y-108623713D01*
X147181537Y-108619280D01*
X147066636Y-108504379D01*
X147062638Y-108499785D01*
X147060259Y-108495007D01*
X147049334Y-108485047D01*
X147027647Y-108465277D01*
X147025135Y-108462878D01*
X147012605Y-108450348D01*
X147009736Y-108448383D01*
X147008741Y-108447556D01*
X146982796Y-108403139D01*
X146991473Y-108352436D01*
X147030710Y-108319172D01*
X147056787Y-108314506D01*
X149267025Y-108314506D01*
X149269023Y-108314291D01*
X149269027Y-108314291D01*
X149298582Y-108311114D01*
X149298589Y-108311113D01*
X149300588Y-108310898D01*
X149302545Y-108310472D01*
X149302553Y-108310471D01*
X149348338Y-108300511D01*
X149348339Y-108300511D01*
X149352930Y-108299512D01*
X149422769Y-108264553D01*
X149476425Y-108218060D01*
X149524527Y-108143212D01*
X149544529Y-108075091D01*
X149545980Y-108065002D01*
X149550543Y-108033266D01*
X149550543Y-108033260D01*
X149550925Y-108030606D01*
X149550925Y-106160457D01*
X149916622Y-106160457D01*
X149942603Y-106265865D01*
X149955582Y-106318522D01*
X149957472Y-106326192D01*
X149959586Y-106330220D01*
X150015272Y-106436320D01*
X150036798Y-106477335D01*
X150149989Y-106605102D01*
X150290469Y-106702068D01*
X150294722Y-106703681D01*
X150294726Y-106703683D01*
X150445820Y-106760985D01*
X150445821Y-106760985D01*
X150450071Y-106762597D01*
X150454580Y-106763144D01*
X150454582Y-106763145D01*
X150500279Y-106768693D01*
X150577001Y-106778009D01*
X150662043Y-106778009D01*
X150738765Y-106768693D01*
X150784462Y-106763145D01*
X150784464Y-106763144D01*
X150788973Y-106762597D01*
X150793223Y-106760985D01*
X150793224Y-106760985D01*
X150944318Y-106703683D01*
X150944322Y-106703681D01*
X150948575Y-106702068D01*
X151089055Y-106605102D01*
X151202246Y-106477335D01*
X151223773Y-106436320D01*
X151279458Y-106330220D01*
X151281572Y-106326192D01*
X151283463Y-106318522D01*
X151296441Y-106265865D01*
X151322422Y-106160457D01*
X151322422Y-105989761D01*
X151281572Y-105824026D01*
X151261297Y-105785395D01*
X151204360Y-105676910D01*
X151204358Y-105676907D01*
X151202246Y-105672883D01*
X151089055Y-105545116D01*
X150948575Y-105448150D01*
X150944322Y-105446537D01*
X150944318Y-105446535D01*
X150793224Y-105389233D01*
X150793223Y-105389233D01*
X150788973Y-105387621D01*
X150784464Y-105387074D01*
X150784462Y-105387073D01*
X150738765Y-105381525D01*
X150662043Y-105372209D01*
X150577001Y-105372209D01*
X150500279Y-105381525D01*
X150454582Y-105387073D01*
X150454580Y-105387074D01*
X150450071Y-105387621D01*
X150445821Y-105389233D01*
X150445820Y-105389233D01*
X150294726Y-105446535D01*
X150294722Y-105446537D01*
X150290469Y-105448150D01*
X150149989Y-105545116D01*
X150036798Y-105672883D01*
X150034686Y-105676907D01*
X150034684Y-105676910D01*
X149977747Y-105785395D01*
X149957472Y-105824026D01*
X149916622Y-105989761D01*
X149916622Y-106160457D01*
X149550925Y-106160457D01*
X149550925Y-102089007D01*
X149568518Y-102040669D01*
X149572951Y-102035833D01*
X149574149Y-102034635D01*
X149578056Y-102031637D01*
X149582302Y-102026103D01*
X149666086Y-101916914D01*
X149666088Y-101916910D01*
X149669084Y-101913006D01*
X149674389Y-101900199D01*
X149709140Y-101862273D01*
X149760140Y-101855558D01*
X149773060Y-101861074D01*
G37*
%TD.AperFunction*%
%TA.AperFunction,NonConductor*%
G36*
X144833725Y-110606767D02*
G01*
X144849299Y-110618718D01*
X144959414Y-110728833D01*
X144963412Y-110733427D01*
X144965791Y-110738205D01*
X144970942Y-110742900D01*
X144970942Y-110742901D01*
X144998403Y-110767935D01*
X145000915Y-110770334D01*
X145013445Y-110782864D01*
X145016316Y-110784831D01*
X145018988Y-110787050D01*
X145018943Y-110787105D01*
X145022660Y-110790050D01*
X145028670Y-110795528D01*
X145052542Y-110841092D01*
X145041542Y-110891342D01*
X145000815Y-110922765D01*
X144978012Y-110926305D01*
X144771955Y-110926305D01*
X144723617Y-110908712D01*
X144697897Y-110864163D01*
X144703162Y-110820731D01*
X144707684Y-110810491D01*
X144717987Y-110787156D01*
X144720925Y-110761832D01*
X144720925Y-110671892D01*
X144738518Y-110623554D01*
X144783067Y-110597834D01*
X144833725Y-110606767D01*
G37*
%TD.AperFunction*%
%TA.AperFunction,Conductor*%
%TO.N,+3V3*%
G36*
X182064628Y-105128430D02*
G01*
X182085946Y-105145553D01*
X182172829Y-105232436D01*
X182180256Y-105240540D01*
X182206002Y-105271223D01*
X182240685Y-105291248D01*
X182249946Y-105297148D01*
X182273744Y-105313811D01*
X182273747Y-105313812D01*
X182282774Y-105320133D01*
X182293415Y-105322984D01*
X182297296Y-105324794D01*
X182301336Y-105326264D01*
X182310879Y-105331774D01*
X182321732Y-105333688D01*
X182321733Y-105333688D01*
X182337227Y-105336420D01*
X182350327Y-105338730D01*
X182361058Y-105341109D01*
X182389103Y-105348624D01*
X182389108Y-105348624D01*
X182399750Y-105351476D01*
X182410725Y-105350516D01*
X182410726Y-105350516D01*
X182439655Y-105347985D01*
X182450636Y-105347506D01*
X182544126Y-105347506D01*
X182612247Y-105367508D01*
X182658740Y-105421164D01*
X182670126Y-105473506D01*
X182670126Y-105561832D01*
X182673064Y-105587156D01*
X182676892Y-105595826D01*
X182676893Y-105595829D01*
X182705607Y-105660858D01*
X182718806Y-105690751D01*
X182798881Y-105770826D01*
X182809563Y-105775542D01*
X182809562Y-105775542D01*
X182893803Y-105812739D01*
X182893806Y-105812740D01*
X182902476Y-105816568D01*
X182911893Y-105817661D01*
X182911895Y-105817661D01*
X182918483Y-105818425D01*
X182927800Y-105819506D01*
X183318252Y-105819506D01*
X183327569Y-105818425D01*
X183334157Y-105817661D01*
X183334159Y-105817661D01*
X183343576Y-105816568D01*
X183352246Y-105812740D01*
X183352249Y-105812739D01*
X183436490Y-105775542D01*
X183436489Y-105775542D01*
X183447171Y-105770826D01*
X183508931Y-105709066D01*
X183571243Y-105675040D01*
X183642058Y-105680105D01*
X183687121Y-105709066D01*
X183748881Y-105770826D01*
X183759563Y-105775542D01*
X183759562Y-105775542D01*
X183843803Y-105812739D01*
X183843806Y-105812740D01*
X183852476Y-105816568D01*
X183861893Y-105817661D01*
X183861895Y-105817661D01*
X183868483Y-105818425D01*
X183877800Y-105819506D01*
X184146339Y-105819506D01*
X184214460Y-105839508D01*
X184260953Y-105893164D01*
X184272339Y-105945300D01*
X184273346Y-106560127D01*
X184253455Y-106628280D01*
X184199876Y-106674861D01*
X184147344Y-106686333D01*
X183681795Y-106686326D01*
X182504554Y-106686308D01*
X182436435Y-106666305D01*
X182389943Y-106612649D01*
X182383991Y-106596192D01*
X182383085Y-106588385D01*
X182379257Y-106579715D01*
X182379256Y-106579712D01*
X182343572Y-106498894D01*
X182343570Y-106498891D01*
X182338854Y-106488210D01*
X182261422Y-106410778D01*
X182250741Y-106406062D01*
X182250738Y-106406060D01*
X182169917Y-106370375D01*
X182169916Y-106370375D01*
X182161247Y-106366547D01*
X182136760Y-106363706D01*
X181709292Y-106363706D01*
X181684805Y-106366547D01*
X181676136Y-106370375D01*
X181676135Y-106370375D01*
X181595314Y-106406060D01*
X181595311Y-106406062D01*
X181584630Y-106410778D01*
X181507198Y-106488210D01*
X181502482Y-106498891D01*
X181502480Y-106498894D01*
X181481474Y-106546471D01*
X181462967Y-106588385D01*
X181462228Y-106594756D01*
X181425895Y-106653850D01*
X181361915Y-106684625D01*
X181341498Y-106686290D01*
X180491289Y-106686277D01*
X180423169Y-106666274D01*
X180376677Y-106612618D01*
X180365291Y-106560281D01*
X180365289Y-106479951D01*
X180365259Y-105675040D01*
X180365244Y-105239525D01*
X180385244Y-105171404D01*
X180438898Y-105124909D01*
X180490836Y-105113522D01*
X181996443Y-105108649D01*
X182064628Y-105128430D01*
G37*
%TD.AperFunction*%
%TD*%
M02*
