%TF.GenerationSoftware,KiCad,Pcbnew,(6.99.0-4266-g9b4505c6d2)*%
%TF.CreationDate,2022-11-13T11:25:58+08:00*%
%TF.ProjectId,ESP_PD210,4553505f-5044-4323-9130-2e6b69636164,Bata1*%
%TF.SameCoordinates,Original*%
%TF.FileFunction,Copper,L2,Inr*%
%TF.FilePolarity,Positive*%
%FSLAX46Y46*%
G04 Gerber Fmt 4.6, Leading zero omitted, Abs format (unit mm)*
G04 Created by KiCad (PCBNEW (6.99.0-4266-g9b4505c6d2)) date 2022-11-13 11:25:58*
%MOMM*%
%LPD*%
G01*
G04 APERTURE LIST*
G04 Aperture macros list*
%AMFreePoly0*
4,1,17,-3.000000,0.500000,-2.988573,0.606283,-2.938839,0.739624,-2.853553,0.853553,-2.739624,0.938839,-2.606283,0.988573,-2.500000,1.000000,2.500000,1.000000,2.606283,0.988573,2.739624,0.938839,2.853553,0.853553,2.938839,0.739624,2.988573,0.606283,3.000000,0.500000,3.000000,-1.000000,-3.000000,-1.000000,-3.000000,0.500000,-3.000000,0.500000,$1*%
G04 Aperture macros list end*
%TA.AperFunction,ComponentPad*%
%ADD10FreePoly0,0.000000*%
%TD*%
%TA.AperFunction,ComponentPad*%
%ADD11FreePoly0,180.000000*%
%TD*%
%TA.AperFunction,ComponentPad*%
%ADD12O,2.100000X1.000000*%
%TD*%
%TA.AperFunction,ComponentPad*%
%ADD13O,1.600000X1.000000*%
%TD*%
%TA.AperFunction,ViaPad*%
%ADD14C,0.604800*%
%TD*%
G04 APERTURE END LIST*
D10*
%TO.N,GND*%
%TO.C,J2*%
X116563024Y-101531605D03*
D11*
X116563024Y-107931605D03*
D10*
X132563024Y-102131605D03*
D11*
X132563024Y-107331605D03*
D10*
%TO.N,/CART*%
X143063024Y-102531605D03*
D11*
X143063024Y-106931605D03*
%TD*%
D12*
%TO.N,GND*%
%TO.C,J3*%
X188953824Y-109051605D03*
D13*
X193133824Y-109051605D03*
D12*
X188953824Y-100411605D03*
D13*
X193133824Y-100411605D03*
%TD*%
D14*
%TO.N,GND*%
X167611027Y-103969618D03*
X186033025Y-100616606D03*
X180123025Y-109676606D03*
X167611027Y-104731618D03*
X168373027Y-104731618D03*
X161713017Y-100706599D03*
X170243025Y-108636606D03*
X191373025Y-100956606D03*
X175643025Y-106456606D03*
X192393025Y-105424642D03*
X173823026Y-100936596D03*
X180653025Y-104536606D03*
X174783019Y-102656608D03*
X168373027Y-103969618D03*
X169135027Y-103969618D03*
X187453025Y-110296606D03*
X167611027Y-105493618D03*
X175153025Y-108306606D03*
X169135024Y-104731610D03*
X145053025Y-109046606D03*
X168373027Y-105493618D03*
X169135027Y-105493618D03*
X163293025Y-103636606D03*
%TO.N,/CART*%
X145463037Y-102886605D03*
X141893016Y-102886605D03*
X144233017Y-102886605D03*
X140663025Y-107356606D03*
X140663021Y-102096614D03*
X144233025Y-107356606D03*
X145463037Y-102046601D03*
X141893025Y-106546606D03*
X140663025Y-106546606D03*
X145463025Y-106546606D03*
X144233025Y-106546606D03*
X144233017Y-102046601D03*
X140663021Y-102886605D03*
X141893016Y-102096614D03*
X145463025Y-107356607D03*
X141893025Y-107356606D03*
%TO.N,VCC*%
X188008025Y-107181606D03*
X187993025Y-102286606D03*
%TO.N,Net-(J3-PadA5)*%
X189567082Y-105675663D03*
%TO.N,Net-(J3-PadB5)*%
X189533025Y-103691606D03*
%TD*%
%TA.AperFunction,Conductor*%
%TO.N,GND*%
G36*
X150186141Y-98554499D02*
G01*
X150211861Y-98599048D01*
X150202928Y-98649706D01*
X150183945Y-98668693D01*
X150185238Y-98670234D01*
X150103409Y-98738896D01*
X150100114Y-98744603D01*
X150053288Y-98825708D01*
X150053287Y-98825711D01*
X150050000Y-98831404D01*
X150031451Y-98936600D01*
X150050000Y-99041796D01*
X150053287Y-99047489D01*
X150053288Y-99047492D01*
X150079363Y-99092655D01*
X150103409Y-99134304D01*
X150185237Y-99202966D01*
X150285615Y-99239500D01*
X150392433Y-99239500D01*
X150492811Y-99202966D01*
X150574639Y-99134304D01*
X150598685Y-99092655D01*
X150624760Y-99047492D01*
X150624761Y-99047489D01*
X150628048Y-99041796D01*
X150645966Y-98940179D01*
X150648032Y-98936600D01*
X150645966Y-98933021D01*
X150629190Y-98837879D01*
X150629189Y-98837878D01*
X150628048Y-98831404D01*
X150624761Y-98825711D01*
X150624760Y-98825708D01*
X150598259Y-98779808D01*
X150574639Y-98738896D01*
X150492811Y-98670234D01*
X150494792Y-98667873D01*
X150469579Y-98637821D01*
X150469582Y-98586382D01*
X150502649Y-98546979D01*
X150540245Y-98536906D01*
X150899803Y-98536906D01*
X150948141Y-98554499D01*
X150973861Y-98599048D01*
X150964928Y-98649706D01*
X150945945Y-98668693D01*
X150947238Y-98670234D01*
X150865409Y-98738896D01*
X150862114Y-98744603D01*
X150815288Y-98825708D01*
X150815287Y-98825711D01*
X150812000Y-98831404D01*
X150810859Y-98837878D01*
X150810858Y-98837879D01*
X150794082Y-98933021D01*
X150792016Y-98936600D01*
X150794082Y-98940179D01*
X150812000Y-99041796D01*
X150815287Y-99047489D01*
X150815288Y-99047492D01*
X150841363Y-99092655D01*
X150865409Y-99134304D01*
X150947237Y-99202966D01*
X151047615Y-99239500D01*
X151154433Y-99239500D01*
X151254811Y-99202966D01*
X151336639Y-99134304D01*
X151360685Y-99092655D01*
X151386760Y-99047492D01*
X151386761Y-99047489D01*
X151390048Y-99041796D01*
X151407966Y-98940179D01*
X151410032Y-98936600D01*
X151407966Y-98933021D01*
X151391190Y-98837879D01*
X151391189Y-98837878D01*
X151390048Y-98831404D01*
X151386761Y-98825711D01*
X151386760Y-98825708D01*
X151360259Y-98779808D01*
X151336639Y-98738896D01*
X151254811Y-98670234D01*
X151256792Y-98667873D01*
X151231579Y-98637821D01*
X151231582Y-98586382D01*
X151264649Y-98546979D01*
X151302245Y-98536906D01*
X151661803Y-98536906D01*
X151710141Y-98554499D01*
X151735861Y-98599048D01*
X151726928Y-98649706D01*
X151707945Y-98668693D01*
X151709238Y-98670234D01*
X151627409Y-98738896D01*
X151624114Y-98744603D01*
X151577288Y-98825708D01*
X151577287Y-98825711D01*
X151574000Y-98831404D01*
X151572859Y-98837878D01*
X151572858Y-98837879D01*
X151556082Y-98933021D01*
X151554016Y-98936600D01*
X151556082Y-98940179D01*
X151574000Y-99041796D01*
X151577287Y-99047489D01*
X151577288Y-99047492D01*
X151603363Y-99092655D01*
X151627409Y-99134304D01*
X151709237Y-99202966D01*
X151809615Y-99239500D01*
X151916433Y-99239500D01*
X152016811Y-99202966D01*
X152098639Y-99134304D01*
X152122685Y-99092655D01*
X152148760Y-99047492D01*
X152148761Y-99047489D01*
X152152048Y-99041796D01*
X152169966Y-98940179D01*
X152172032Y-98936600D01*
X152169966Y-98933021D01*
X152153190Y-98837879D01*
X152153189Y-98837878D01*
X152152048Y-98831404D01*
X152148761Y-98825711D01*
X152148760Y-98825708D01*
X152122259Y-98779808D01*
X152098639Y-98738896D01*
X152016811Y-98670234D01*
X152018792Y-98667873D01*
X151993579Y-98637821D01*
X151993582Y-98586382D01*
X152026649Y-98546979D01*
X152064245Y-98536906D01*
X152423803Y-98536906D01*
X152472141Y-98554499D01*
X152497861Y-98599048D01*
X152488928Y-98649706D01*
X152469945Y-98668693D01*
X152471238Y-98670234D01*
X152389409Y-98738896D01*
X152386114Y-98744603D01*
X152339288Y-98825708D01*
X152339287Y-98825711D01*
X152336000Y-98831404D01*
X152334859Y-98837878D01*
X152334858Y-98837879D01*
X152318082Y-98933021D01*
X152316016Y-98936600D01*
X152318082Y-98940179D01*
X152336000Y-99041796D01*
X152339287Y-99047489D01*
X152339288Y-99047492D01*
X152365363Y-99092655D01*
X152389409Y-99134304D01*
X152471237Y-99202966D01*
X152571615Y-99239500D01*
X152678433Y-99239500D01*
X152778811Y-99202966D01*
X152860639Y-99134304D01*
X152884685Y-99092655D01*
X152910760Y-99047492D01*
X152910761Y-99047489D01*
X152914048Y-99041796D01*
X152931966Y-98940179D01*
X152934032Y-98936600D01*
X152931966Y-98933021D01*
X152915190Y-98837879D01*
X152915189Y-98837878D01*
X152914048Y-98831404D01*
X152910761Y-98825711D01*
X152910760Y-98825708D01*
X152884259Y-98779808D01*
X152860639Y-98738896D01*
X152778811Y-98670234D01*
X152780792Y-98667873D01*
X152755579Y-98637821D01*
X152755582Y-98586382D01*
X152788649Y-98546979D01*
X152826245Y-98536906D01*
X153185803Y-98536906D01*
X153234141Y-98554499D01*
X153259861Y-98599048D01*
X153250928Y-98649706D01*
X153231945Y-98668693D01*
X153233238Y-98670234D01*
X153151409Y-98738896D01*
X153148114Y-98744603D01*
X153101288Y-98825708D01*
X153101287Y-98825711D01*
X153098000Y-98831404D01*
X153096859Y-98837878D01*
X153096858Y-98837879D01*
X153080082Y-98933021D01*
X153078016Y-98936600D01*
X153080082Y-98940179D01*
X153098000Y-99041796D01*
X153101287Y-99047489D01*
X153101288Y-99047492D01*
X153127363Y-99092655D01*
X153151409Y-99134304D01*
X153233237Y-99202966D01*
X153333615Y-99239500D01*
X153440433Y-99239500D01*
X153540811Y-99202966D01*
X153622639Y-99134304D01*
X153646685Y-99092655D01*
X153672760Y-99047492D01*
X153672761Y-99047489D01*
X153676048Y-99041796D01*
X153693966Y-98940179D01*
X153696032Y-98936600D01*
X153693966Y-98933021D01*
X153677190Y-98837879D01*
X153677189Y-98837878D01*
X153676048Y-98831404D01*
X153672761Y-98825711D01*
X153672760Y-98825708D01*
X153646259Y-98779808D01*
X153622639Y-98738896D01*
X153540811Y-98670234D01*
X153542792Y-98667873D01*
X153517579Y-98637821D01*
X153517582Y-98586382D01*
X153550649Y-98546979D01*
X153588245Y-98536906D01*
X153947803Y-98536906D01*
X153996141Y-98554499D01*
X154021861Y-98599048D01*
X154012928Y-98649706D01*
X153993945Y-98668693D01*
X153995238Y-98670234D01*
X153913409Y-98738896D01*
X153910114Y-98744603D01*
X153863288Y-98825708D01*
X153863287Y-98825711D01*
X153860000Y-98831404D01*
X153858859Y-98837878D01*
X153858858Y-98837879D01*
X153842082Y-98933021D01*
X153840016Y-98936600D01*
X153842082Y-98940179D01*
X153860000Y-99041796D01*
X153863287Y-99047489D01*
X153863288Y-99047492D01*
X153889363Y-99092655D01*
X153913409Y-99134304D01*
X153995237Y-99202966D01*
X154095615Y-99239500D01*
X154202433Y-99239500D01*
X154302811Y-99202966D01*
X154384639Y-99134304D01*
X154408685Y-99092655D01*
X154434760Y-99047492D01*
X154434761Y-99047489D01*
X154438048Y-99041796D01*
X154455966Y-98940179D01*
X154458032Y-98936600D01*
X154455966Y-98933021D01*
X154439190Y-98837879D01*
X154439189Y-98837878D01*
X154438048Y-98831404D01*
X154434761Y-98825711D01*
X154434760Y-98825708D01*
X154408259Y-98779808D01*
X154384639Y-98738896D01*
X154302811Y-98670234D01*
X154304792Y-98667873D01*
X154279579Y-98637821D01*
X154279582Y-98586382D01*
X154312649Y-98546979D01*
X154350245Y-98536906D01*
X154709803Y-98536906D01*
X154758141Y-98554499D01*
X154783861Y-98599048D01*
X154774928Y-98649706D01*
X154755945Y-98668693D01*
X154757238Y-98670234D01*
X154675409Y-98738896D01*
X154672114Y-98744603D01*
X154625288Y-98825708D01*
X154625287Y-98825711D01*
X154622000Y-98831404D01*
X154620859Y-98837878D01*
X154620858Y-98837879D01*
X154604082Y-98933021D01*
X154602016Y-98936600D01*
X154604082Y-98940179D01*
X154622000Y-99041796D01*
X154625287Y-99047489D01*
X154625288Y-99047492D01*
X154651363Y-99092655D01*
X154675409Y-99134304D01*
X154757237Y-99202966D01*
X154857615Y-99239500D01*
X154964433Y-99239500D01*
X155064811Y-99202966D01*
X155146639Y-99134304D01*
X155170685Y-99092655D01*
X155196760Y-99047492D01*
X155196761Y-99047489D01*
X155200048Y-99041796D01*
X155217966Y-98940179D01*
X155220031Y-98936602D01*
X155217967Y-98933027D01*
X155201190Y-98837879D01*
X155201189Y-98837878D01*
X155200048Y-98831404D01*
X155196761Y-98825711D01*
X155196760Y-98825708D01*
X155170259Y-98779808D01*
X155146639Y-98738896D01*
X155064811Y-98670234D01*
X155066792Y-98667873D01*
X155041579Y-98637821D01*
X155041582Y-98586382D01*
X155074649Y-98546979D01*
X155112245Y-98536906D01*
X155471815Y-98536906D01*
X155520153Y-98554499D01*
X155545873Y-98599048D01*
X155536940Y-98649706D01*
X155517946Y-98668699D01*
X155519239Y-98670240D01*
X155437410Y-98738902D01*
X155434121Y-98744599D01*
X155387289Y-98825714D01*
X155387288Y-98825717D01*
X155384001Y-98831410D01*
X155382860Y-98837884D01*
X155382859Y-98837885D01*
X155366083Y-98933027D01*
X155364018Y-98936604D01*
X155366082Y-98940179D01*
X155384001Y-99041802D01*
X155387288Y-99047495D01*
X155387289Y-99047498D01*
X155413364Y-99092661D01*
X155437410Y-99134310D01*
X155519238Y-99202972D01*
X155619616Y-99239506D01*
X155726434Y-99239506D01*
X155826812Y-99202972D01*
X155908640Y-99134310D01*
X155932686Y-99092661D01*
X155958761Y-99047498D01*
X155958762Y-99047495D01*
X155962049Y-99041802D01*
X155979967Y-98940185D01*
X155982033Y-98936606D01*
X155979967Y-98933027D01*
X155963191Y-98837885D01*
X155963190Y-98837884D01*
X155962049Y-98831410D01*
X155958762Y-98825717D01*
X155958761Y-98825714D01*
X155911931Y-98744603D01*
X155908640Y-98738902D01*
X155826812Y-98670240D01*
X155828789Y-98667884D01*
X155803565Y-98637808D01*
X155803577Y-98586369D01*
X155836652Y-98546972D01*
X155874236Y-98536906D01*
X156233815Y-98536906D01*
X156282153Y-98554499D01*
X156307873Y-98599048D01*
X156298940Y-98649706D01*
X156279946Y-98668699D01*
X156281239Y-98670240D01*
X156199410Y-98738902D01*
X156196121Y-98744599D01*
X156149289Y-98825714D01*
X156149288Y-98825717D01*
X156146001Y-98831410D01*
X156144860Y-98837884D01*
X156144859Y-98837885D01*
X156128083Y-98933027D01*
X156126017Y-98936606D01*
X156128083Y-98940185D01*
X156146001Y-99041802D01*
X156149288Y-99047495D01*
X156149289Y-99047498D01*
X156175364Y-99092661D01*
X156199410Y-99134310D01*
X156281238Y-99202972D01*
X156381616Y-99239506D01*
X156488434Y-99239506D01*
X156588812Y-99202972D01*
X156670640Y-99134310D01*
X156694686Y-99092661D01*
X156720761Y-99047498D01*
X156720762Y-99047495D01*
X156724049Y-99041802D01*
X156741967Y-98940185D01*
X156744033Y-98936606D01*
X156741967Y-98933027D01*
X156725191Y-98837885D01*
X156725190Y-98837884D01*
X156724049Y-98831410D01*
X156720762Y-98825717D01*
X156720761Y-98825714D01*
X156673931Y-98744603D01*
X156670640Y-98738902D01*
X156588812Y-98670240D01*
X156590789Y-98667884D01*
X156565565Y-98637808D01*
X156565577Y-98586369D01*
X156598652Y-98546972D01*
X156636236Y-98536906D01*
X156995815Y-98536906D01*
X157044153Y-98554499D01*
X157069873Y-98599048D01*
X157060940Y-98649706D01*
X157041946Y-98668699D01*
X157043239Y-98670240D01*
X156961410Y-98738902D01*
X156958121Y-98744599D01*
X156911289Y-98825714D01*
X156911288Y-98825717D01*
X156908001Y-98831410D01*
X156906860Y-98837884D01*
X156906859Y-98837885D01*
X156890083Y-98933027D01*
X156888017Y-98936606D01*
X156890083Y-98940185D01*
X156908001Y-99041802D01*
X156911288Y-99047495D01*
X156911289Y-99047498D01*
X156937364Y-99092661D01*
X156961410Y-99134310D01*
X157043238Y-99202972D01*
X157143616Y-99239506D01*
X157250434Y-99239506D01*
X157350812Y-99202972D01*
X157432640Y-99134310D01*
X157456686Y-99092661D01*
X157482761Y-99047498D01*
X157482762Y-99047495D01*
X157486049Y-99041802D01*
X157503967Y-98940185D01*
X157506033Y-98936606D01*
X157503967Y-98933027D01*
X157487191Y-98837885D01*
X157487190Y-98837884D01*
X157486049Y-98831410D01*
X157482762Y-98825717D01*
X157482761Y-98825714D01*
X157435931Y-98744603D01*
X157432640Y-98738902D01*
X157350812Y-98670240D01*
X157352789Y-98667884D01*
X157327565Y-98637808D01*
X157327577Y-98586369D01*
X157360652Y-98546972D01*
X157398236Y-98536906D01*
X157757815Y-98536906D01*
X157806153Y-98554499D01*
X157831873Y-98599048D01*
X157822940Y-98649706D01*
X157803946Y-98668699D01*
X157805239Y-98670240D01*
X157723410Y-98738902D01*
X157720121Y-98744599D01*
X157673289Y-98825714D01*
X157673288Y-98825717D01*
X157670001Y-98831410D01*
X157668860Y-98837884D01*
X157668859Y-98837885D01*
X157652083Y-98933027D01*
X157650017Y-98936606D01*
X157652083Y-98940185D01*
X157670001Y-99041802D01*
X157673288Y-99047495D01*
X157673289Y-99047498D01*
X157699364Y-99092661D01*
X157723410Y-99134310D01*
X157805238Y-99202972D01*
X157905616Y-99239506D01*
X158012434Y-99239506D01*
X158112812Y-99202972D01*
X158194640Y-99134310D01*
X158218686Y-99092661D01*
X158244761Y-99047498D01*
X158244762Y-99047495D01*
X158248049Y-99041802D01*
X158265967Y-98940185D01*
X158268033Y-98936606D01*
X158265967Y-98933027D01*
X158249191Y-98837885D01*
X158249190Y-98837884D01*
X158248049Y-98831410D01*
X158244762Y-98825717D01*
X158244761Y-98825714D01*
X158197931Y-98744603D01*
X158194640Y-98738902D01*
X158112812Y-98670240D01*
X158114789Y-98667884D01*
X158089565Y-98637808D01*
X158089577Y-98586369D01*
X158122652Y-98546972D01*
X158160236Y-98536906D01*
X158519815Y-98536906D01*
X158568153Y-98554499D01*
X158593873Y-98599048D01*
X158584940Y-98649706D01*
X158565946Y-98668699D01*
X158567239Y-98670240D01*
X158485410Y-98738902D01*
X158482121Y-98744599D01*
X158435289Y-98825714D01*
X158435288Y-98825717D01*
X158432001Y-98831410D01*
X158430860Y-98837884D01*
X158430859Y-98837885D01*
X158414083Y-98933027D01*
X158412017Y-98936606D01*
X158414083Y-98940185D01*
X158432001Y-99041802D01*
X158435288Y-99047495D01*
X158435289Y-99047498D01*
X158461364Y-99092661D01*
X158485410Y-99134310D01*
X158567238Y-99202972D01*
X158667616Y-99239506D01*
X158774434Y-99239506D01*
X158874812Y-99202972D01*
X158956640Y-99134310D01*
X158980686Y-99092661D01*
X159006761Y-99047498D01*
X159006762Y-99047495D01*
X159010049Y-99041802D01*
X159027967Y-98940185D01*
X159030033Y-98936606D01*
X159027967Y-98933027D01*
X159011191Y-98837885D01*
X159011190Y-98837884D01*
X159010049Y-98831410D01*
X159006762Y-98825717D01*
X159006761Y-98825714D01*
X158959931Y-98744603D01*
X158956640Y-98738902D01*
X158874812Y-98670240D01*
X158876789Y-98667884D01*
X158851565Y-98637808D01*
X158851577Y-98586369D01*
X158884652Y-98546972D01*
X158922236Y-98536906D01*
X159281815Y-98536906D01*
X159330153Y-98554499D01*
X159355873Y-98599048D01*
X159346940Y-98649706D01*
X159327946Y-98668699D01*
X159329239Y-98670240D01*
X159247410Y-98738902D01*
X159244121Y-98744599D01*
X159197289Y-98825714D01*
X159197288Y-98825717D01*
X159194001Y-98831410D01*
X159192860Y-98837884D01*
X159192859Y-98837885D01*
X159176083Y-98933027D01*
X159174017Y-98936606D01*
X159176083Y-98940185D01*
X159194001Y-99041802D01*
X159197288Y-99047495D01*
X159197289Y-99047498D01*
X159223364Y-99092661D01*
X159247410Y-99134310D01*
X159329238Y-99202972D01*
X159429616Y-99239506D01*
X159536434Y-99239506D01*
X159636812Y-99202972D01*
X159718640Y-99134310D01*
X159742686Y-99092661D01*
X159768761Y-99047498D01*
X159768762Y-99047495D01*
X159772049Y-99041802D01*
X159789967Y-98940185D01*
X159792033Y-98936606D01*
X159789967Y-98933027D01*
X159773191Y-98837885D01*
X159773190Y-98837884D01*
X159772049Y-98831410D01*
X159768762Y-98825717D01*
X159768761Y-98825714D01*
X159721931Y-98744603D01*
X159718640Y-98738902D01*
X159636812Y-98670240D01*
X159638789Y-98667884D01*
X159613565Y-98637808D01*
X159613577Y-98586369D01*
X159646652Y-98546972D01*
X159684236Y-98536906D01*
X160043815Y-98536906D01*
X160092153Y-98554499D01*
X160117873Y-98599048D01*
X160108940Y-98649706D01*
X160089946Y-98668699D01*
X160091239Y-98670240D01*
X160009410Y-98738902D01*
X160006121Y-98744599D01*
X159959289Y-98825714D01*
X159959288Y-98825717D01*
X159956001Y-98831410D01*
X159954860Y-98837884D01*
X159954859Y-98837885D01*
X159938083Y-98933027D01*
X159936017Y-98936606D01*
X159938083Y-98940185D01*
X159956001Y-99041802D01*
X159959288Y-99047495D01*
X159959289Y-99047498D01*
X159985364Y-99092661D01*
X160009410Y-99134310D01*
X160091238Y-99202972D01*
X160191616Y-99239506D01*
X160298434Y-99239506D01*
X160398812Y-99202972D01*
X160480640Y-99134310D01*
X160504686Y-99092661D01*
X160530761Y-99047498D01*
X160530762Y-99047495D01*
X160534049Y-99041802D01*
X160551967Y-98940185D01*
X160554033Y-98936606D01*
X160551967Y-98933027D01*
X160535191Y-98837885D01*
X160535190Y-98837884D01*
X160534049Y-98831410D01*
X160530762Y-98825717D01*
X160530761Y-98825714D01*
X160483931Y-98744603D01*
X160480640Y-98738902D01*
X160398812Y-98670240D01*
X160400789Y-98667884D01*
X160375565Y-98637808D01*
X160375577Y-98586369D01*
X160408652Y-98546972D01*
X160446236Y-98536906D01*
X160805815Y-98536906D01*
X160854153Y-98554499D01*
X160879873Y-98599048D01*
X160870940Y-98649706D01*
X160851946Y-98668699D01*
X160853239Y-98670240D01*
X160771410Y-98738902D01*
X160768121Y-98744599D01*
X160721289Y-98825714D01*
X160721288Y-98825717D01*
X160718001Y-98831410D01*
X160716860Y-98837884D01*
X160716859Y-98837885D01*
X160700083Y-98933027D01*
X160698017Y-98936606D01*
X160700083Y-98940185D01*
X160718001Y-99041802D01*
X160721288Y-99047495D01*
X160721289Y-99047498D01*
X160747364Y-99092661D01*
X160771410Y-99134310D01*
X160853238Y-99202972D01*
X160953616Y-99239506D01*
X161060434Y-99239506D01*
X161160812Y-99202972D01*
X161242640Y-99134310D01*
X161266686Y-99092661D01*
X161292761Y-99047498D01*
X161292762Y-99047495D01*
X161296049Y-99041802D01*
X161313967Y-98940185D01*
X161316033Y-98936606D01*
X161313967Y-98933027D01*
X161297191Y-98837885D01*
X161297190Y-98837884D01*
X161296049Y-98831410D01*
X161292762Y-98825717D01*
X161292761Y-98825714D01*
X161245931Y-98744603D01*
X161242640Y-98738902D01*
X161160812Y-98670240D01*
X161162789Y-98667884D01*
X161137565Y-98637808D01*
X161137577Y-98586369D01*
X161170652Y-98546972D01*
X161208236Y-98536906D01*
X161567815Y-98536906D01*
X161616153Y-98554499D01*
X161641873Y-98599048D01*
X161632940Y-98649706D01*
X161613946Y-98668699D01*
X161615239Y-98670240D01*
X161533410Y-98738902D01*
X161530121Y-98744599D01*
X161483289Y-98825714D01*
X161483288Y-98825717D01*
X161480001Y-98831410D01*
X161478860Y-98837884D01*
X161478859Y-98837885D01*
X161462083Y-98933027D01*
X161460017Y-98936606D01*
X161462083Y-98940185D01*
X161480001Y-99041802D01*
X161483288Y-99047495D01*
X161483289Y-99047498D01*
X161509364Y-99092661D01*
X161533410Y-99134310D01*
X161615238Y-99202972D01*
X161715616Y-99239506D01*
X161822434Y-99239506D01*
X161922812Y-99202972D01*
X162004640Y-99134310D01*
X162028686Y-99092661D01*
X162054761Y-99047498D01*
X162054762Y-99047495D01*
X162058049Y-99041802D01*
X162075967Y-98940185D01*
X162078033Y-98936606D01*
X162075967Y-98933027D01*
X162059191Y-98837885D01*
X162059190Y-98837884D01*
X162058049Y-98831410D01*
X162054762Y-98825717D01*
X162054761Y-98825714D01*
X162007931Y-98744603D01*
X162004640Y-98738902D01*
X161922812Y-98670240D01*
X161924789Y-98667884D01*
X161899565Y-98637808D01*
X161899577Y-98586369D01*
X161932652Y-98546972D01*
X161970236Y-98536906D01*
X162329815Y-98536906D01*
X162378153Y-98554499D01*
X162403873Y-98599048D01*
X162394940Y-98649706D01*
X162375946Y-98668699D01*
X162377239Y-98670240D01*
X162295410Y-98738902D01*
X162292121Y-98744599D01*
X162245289Y-98825714D01*
X162245288Y-98825717D01*
X162242001Y-98831410D01*
X162240860Y-98837884D01*
X162240859Y-98837885D01*
X162224083Y-98933027D01*
X162222017Y-98936606D01*
X162224083Y-98940185D01*
X162242001Y-99041802D01*
X162245288Y-99047495D01*
X162245289Y-99047498D01*
X162271364Y-99092661D01*
X162295410Y-99134310D01*
X162377238Y-99202972D01*
X162477616Y-99239506D01*
X162584434Y-99239506D01*
X162684812Y-99202972D01*
X162766640Y-99134310D01*
X162790686Y-99092661D01*
X162816761Y-99047498D01*
X162816762Y-99047495D01*
X162820049Y-99041802D01*
X162837967Y-98940185D01*
X162840033Y-98936606D01*
X162837967Y-98933027D01*
X162821191Y-98837885D01*
X162821190Y-98837884D01*
X162820049Y-98831410D01*
X162816762Y-98825717D01*
X162816761Y-98825714D01*
X162769931Y-98744603D01*
X162766640Y-98738902D01*
X162684812Y-98670240D01*
X162686789Y-98667884D01*
X162661565Y-98637808D01*
X162661577Y-98586369D01*
X162694652Y-98546972D01*
X162732236Y-98536906D01*
X163091815Y-98536906D01*
X163140153Y-98554499D01*
X163165873Y-98599048D01*
X163156940Y-98649706D01*
X163137946Y-98668699D01*
X163139239Y-98670240D01*
X163057410Y-98738902D01*
X163054121Y-98744599D01*
X163007289Y-98825714D01*
X163007288Y-98825717D01*
X163004001Y-98831410D01*
X163002860Y-98837884D01*
X163002859Y-98837885D01*
X162986083Y-98933027D01*
X162984017Y-98936606D01*
X162986083Y-98940185D01*
X163004001Y-99041802D01*
X163007288Y-99047495D01*
X163007289Y-99047498D01*
X163033364Y-99092661D01*
X163057410Y-99134310D01*
X163139238Y-99202972D01*
X163239616Y-99239506D01*
X163346434Y-99239506D01*
X163446812Y-99202972D01*
X163528640Y-99134310D01*
X163552686Y-99092661D01*
X163578761Y-99047498D01*
X163578762Y-99047495D01*
X163582049Y-99041802D01*
X163599967Y-98940185D01*
X163602033Y-98936606D01*
X163599967Y-98933027D01*
X163583191Y-98837885D01*
X163583190Y-98837884D01*
X163582049Y-98831410D01*
X163578762Y-98825717D01*
X163578761Y-98825714D01*
X163531931Y-98744603D01*
X163528640Y-98738902D01*
X163446812Y-98670240D01*
X163448789Y-98667884D01*
X163423565Y-98637808D01*
X163423577Y-98586369D01*
X163456652Y-98546972D01*
X163494236Y-98536906D01*
X163853815Y-98536906D01*
X163902153Y-98554499D01*
X163927873Y-98599048D01*
X163918940Y-98649706D01*
X163899946Y-98668699D01*
X163901239Y-98670240D01*
X163819410Y-98738902D01*
X163816121Y-98744599D01*
X163769289Y-98825714D01*
X163769288Y-98825717D01*
X163766001Y-98831410D01*
X163764860Y-98837884D01*
X163764859Y-98837885D01*
X163748083Y-98933027D01*
X163746017Y-98936606D01*
X163748083Y-98940185D01*
X163766001Y-99041802D01*
X163769288Y-99047495D01*
X163769289Y-99047498D01*
X163795364Y-99092661D01*
X163819410Y-99134310D01*
X163901238Y-99202972D01*
X164001616Y-99239506D01*
X164108434Y-99239506D01*
X164208812Y-99202972D01*
X164290640Y-99134310D01*
X164314686Y-99092661D01*
X164340761Y-99047498D01*
X164340762Y-99047495D01*
X164344049Y-99041802D01*
X164361967Y-98940185D01*
X164364033Y-98936606D01*
X164361967Y-98933027D01*
X164345191Y-98837885D01*
X164345190Y-98837884D01*
X164344049Y-98831410D01*
X164340762Y-98825717D01*
X164340761Y-98825714D01*
X164293931Y-98744603D01*
X164290640Y-98738902D01*
X164208812Y-98670240D01*
X164210789Y-98667884D01*
X164185565Y-98637808D01*
X164185577Y-98586369D01*
X164218652Y-98546972D01*
X164256236Y-98536906D01*
X164615815Y-98536906D01*
X164664153Y-98554499D01*
X164689873Y-98599048D01*
X164680940Y-98649706D01*
X164661946Y-98668699D01*
X164663239Y-98670240D01*
X164581410Y-98738902D01*
X164578121Y-98744599D01*
X164531289Y-98825714D01*
X164531288Y-98825717D01*
X164528001Y-98831410D01*
X164526860Y-98837884D01*
X164526859Y-98837885D01*
X164510083Y-98933027D01*
X164508017Y-98936606D01*
X164510083Y-98940185D01*
X164528001Y-99041802D01*
X164531288Y-99047495D01*
X164531289Y-99047498D01*
X164557364Y-99092661D01*
X164581410Y-99134310D01*
X164663238Y-99202972D01*
X164763616Y-99239506D01*
X164870434Y-99239506D01*
X164970812Y-99202972D01*
X165052640Y-99134310D01*
X165076686Y-99092661D01*
X165102761Y-99047498D01*
X165102762Y-99047495D01*
X165106049Y-99041802D01*
X165123967Y-98940185D01*
X165126033Y-98936606D01*
X165123967Y-98933027D01*
X165107191Y-98837885D01*
X165107190Y-98837884D01*
X165106049Y-98831410D01*
X165102762Y-98825717D01*
X165102761Y-98825714D01*
X165055931Y-98744603D01*
X165052640Y-98738902D01*
X164970812Y-98670240D01*
X164972789Y-98667884D01*
X164947565Y-98637808D01*
X164947577Y-98586369D01*
X164980652Y-98546972D01*
X165018236Y-98536906D01*
X165377815Y-98536906D01*
X165426153Y-98554499D01*
X165451873Y-98599048D01*
X165442940Y-98649706D01*
X165423946Y-98668699D01*
X165425239Y-98670240D01*
X165343410Y-98738902D01*
X165340121Y-98744599D01*
X165293289Y-98825714D01*
X165293288Y-98825717D01*
X165290001Y-98831410D01*
X165288860Y-98837884D01*
X165288859Y-98837885D01*
X165272083Y-98933027D01*
X165270017Y-98936606D01*
X165272083Y-98940185D01*
X165290001Y-99041802D01*
X165293288Y-99047495D01*
X165293289Y-99047498D01*
X165319364Y-99092661D01*
X165343410Y-99134310D01*
X165425238Y-99202972D01*
X165525616Y-99239506D01*
X165632434Y-99239506D01*
X165732812Y-99202972D01*
X165814640Y-99134310D01*
X165838686Y-99092661D01*
X165864761Y-99047498D01*
X165864762Y-99047495D01*
X165868049Y-99041802D01*
X165885967Y-98940185D01*
X165888033Y-98936606D01*
X165885967Y-98933027D01*
X165869191Y-98837885D01*
X165869190Y-98837884D01*
X165868049Y-98831410D01*
X165864762Y-98825717D01*
X165864761Y-98825714D01*
X165817931Y-98744603D01*
X165814640Y-98738902D01*
X165732812Y-98670240D01*
X165734789Y-98667884D01*
X165709565Y-98637808D01*
X165709577Y-98586369D01*
X165742652Y-98546972D01*
X165780236Y-98536906D01*
X166139815Y-98536906D01*
X166188153Y-98554499D01*
X166213873Y-98599048D01*
X166204940Y-98649706D01*
X166185946Y-98668699D01*
X166187239Y-98670240D01*
X166105410Y-98738902D01*
X166102121Y-98744599D01*
X166055289Y-98825714D01*
X166055288Y-98825717D01*
X166052001Y-98831410D01*
X166050860Y-98837884D01*
X166050859Y-98837885D01*
X166034083Y-98933027D01*
X166032017Y-98936606D01*
X166034083Y-98940185D01*
X166052001Y-99041802D01*
X166055288Y-99047495D01*
X166055289Y-99047498D01*
X166081364Y-99092661D01*
X166105410Y-99134310D01*
X166187238Y-99202972D01*
X166287616Y-99239506D01*
X166394434Y-99239506D01*
X166494812Y-99202972D01*
X166576640Y-99134310D01*
X166600686Y-99092661D01*
X166626761Y-99047498D01*
X166626762Y-99047495D01*
X166630049Y-99041802D01*
X166647967Y-98940185D01*
X166650033Y-98936606D01*
X166647967Y-98933027D01*
X166631191Y-98837885D01*
X166631190Y-98837884D01*
X166630049Y-98831410D01*
X166626762Y-98825717D01*
X166626761Y-98825714D01*
X166579931Y-98744603D01*
X166576640Y-98738902D01*
X166494812Y-98670240D01*
X166496789Y-98667884D01*
X166471565Y-98637808D01*
X166471577Y-98586369D01*
X166504652Y-98546972D01*
X166542236Y-98536906D01*
X166901815Y-98536906D01*
X166950153Y-98554499D01*
X166975873Y-98599048D01*
X166966940Y-98649706D01*
X166947946Y-98668699D01*
X166949239Y-98670240D01*
X166867410Y-98738902D01*
X166864121Y-98744599D01*
X166817289Y-98825714D01*
X166817288Y-98825717D01*
X166814001Y-98831410D01*
X166812860Y-98837884D01*
X166812859Y-98837885D01*
X166796083Y-98933027D01*
X166794017Y-98936606D01*
X166796083Y-98940185D01*
X166814001Y-99041802D01*
X166817288Y-99047495D01*
X166817289Y-99047498D01*
X166843364Y-99092661D01*
X166867410Y-99134310D01*
X166949238Y-99202972D01*
X167049616Y-99239506D01*
X167156434Y-99239506D01*
X167256812Y-99202972D01*
X167338640Y-99134310D01*
X167362686Y-99092661D01*
X167388761Y-99047498D01*
X167388762Y-99047495D01*
X167392049Y-99041802D01*
X167409967Y-98940185D01*
X167412033Y-98936606D01*
X167409967Y-98933027D01*
X167393191Y-98837885D01*
X167393190Y-98837884D01*
X167392049Y-98831410D01*
X167388762Y-98825717D01*
X167388761Y-98825714D01*
X167341931Y-98744603D01*
X167338640Y-98738902D01*
X167256812Y-98670240D01*
X167258789Y-98667884D01*
X167233565Y-98637808D01*
X167233577Y-98586369D01*
X167266652Y-98546972D01*
X167304236Y-98536906D01*
X167663815Y-98536906D01*
X167712153Y-98554499D01*
X167737873Y-98599048D01*
X167728940Y-98649706D01*
X167709946Y-98668699D01*
X167711239Y-98670240D01*
X167629410Y-98738902D01*
X167626121Y-98744599D01*
X167579289Y-98825714D01*
X167579288Y-98825717D01*
X167576001Y-98831410D01*
X167574860Y-98837884D01*
X167574859Y-98837885D01*
X167558083Y-98933027D01*
X167556017Y-98936606D01*
X167558083Y-98940185D01*
X167576001Y-99041802D01*
X167579288Y-99047495D01*
X167579289Y-99047498D01*
X167605364Y-99092661D01*
X167629410Y-99134310D01*
X167711238Y-99202972D01*
X167811616Y-99239506D01*
X167918434Y-99239506D01*
X168018812Y-99202972D01*
X168100640Y-99134310D01*
X168124686Y-99092661D01*
X168150761Y-99047498D01*
X168150762Y-99047495D01*
X168154049Y-99041802D01*
X168171967Y-98940185D01*
X168174033Y-98936606D01*
X168171967Y-98933027D01*
X168155191Y-98837885D01*
X168155190Y-98837884D01*
X168154049Y-98831410D01*
X168150762Y-98825717D01*
X168150761Y-98825714D01*
X168103931Y-98744603D01*
X168100640Y-98738902D01*
X168018812Y-98670240D01*
X168020789Y-98667884D01*
X167995565Y-98637808D01*
X167995577Y-98586369D01*
X168028652Y-98546972D01*
X168066236Y-98536906D01*
X168425815Y-98536906D01*
X168474153Y-98554499D01*
X168499873Y-98599048D01*
X168490940Y-98649706D01*
X168471946Y-98668699D01*
X168473239Y-98670240D01*
X168391410Y-98738902D01*
X168388121Y-98744599D01*
X168341289Y-98825714D01*
X168341288Y-98825717D01*
X168338001Y-98831410D01*
X168336860Y-98837884D01*
X168336859Y-98837885D01*
X168320083Y-98933027D01*
X168318017Y-98936606D01*
X168320083Y-98940185D01*
X168338001Y-99041802D01*
X168341288Y-99047495D01*
X168341289Y-99047498D01*
X168367364Y-99092661D01*
X168391410Y-99134310D01*
X168473238Y-99202972D01*
X168573616Y-99239506D01*
X168680434Y-99239506D01*
X168780812Y-99202972D01*
X168862640Y-99134310D01*
X168886686Y-99092661D01*
X168912761Y-99047498D01*
X168912762Y-99047495D01*
X168916049Y-99041802D01*
X168933967Y-98940185D01*
X168936033Y-98936606D01*
X168933967Y-98933027D01*
X168917191Y-98837885D01*
X168917190Y-98837884D01*
X168916049Y-98831410D01*
X168912762Y-98825717D01*
X168912761Y-98825714D01*
X168865931Y-98744603D01*
X168862640Y-98738902D01*
X168780812Y-98670240D01*
X168782789Y-98667884D01*
X168757565Y-98637808D01*
X168757577Y-98586369D01*
X168790652Y-98546972D01*
X168828236Y-98536906D01*
X169187815Y-98536906D01*
X169236153Y-98554499D01*
X169261873Y-98599048D01*
X169252940Y-98649706D01*
X169233946Y-98668699D01*
X169235239Y-98670240D01*
X169153410Y-98738902D01*
X169150121Y-98744599D01*
X169103289Y-98825714D01*
X169103288Y-98825717D01*
X169100001Y-98831410D01*
X169098860Y-98837884D01*
X169098859Y-98837885D01*
X169082083Y-98933027D01*
X169080017Y-98936606D01*
X169082083Y-98940185D01*
X169100001Y-99041802D01*
X169103288Y-99047495D01*
X169103289Y-99047498D01*
X169129364Y-99092661D01*
X169153410Y-99134310D01*
X169235238Y-99202972D01*
X169335616Y-99239506D01*
X169442434Y-99239506D01*
X169542812Y-99202972D01*
X169624640Y-99134310D01*
X169648686Y-99092661D01*
X169674761Y-99047498D01*
X169674762Y-99047495D01*
X169678049Y-99041802D01*
X169695967Y-98940185D01*
X169698033Y-98936606D01*
X169695967Y-98933027D01*
X169679191Y-98837885D01*
X169679190Y-98837884D01*
X169678049Y-98831410D01*
X169674762Y-98825717D01*
X169674761Y-98825714D01*
X169627931Y-98744603D01*
X169624640Y-98738902D01*
X169542812Y-98670240D01*
X169544789Y-98667884D01*
X169519565Y-98637808D01*
X169519577Y-98586369D01*
X169552652Y-98546972D01*
X169590236Y-98536906D01*
X169949815Y-98536906D01*
X169998153Y-98554499D01*
X170023873Y-98599048D01*
X170014940Y-98649706D01*
X169995946Y-98668699D01*
X169997239Y-98670240D01*
X169915410Y-98738902D01*
X169912121Y-98744599D01*
X169865289Y-98825714D01*
X169865288Y-98825717D01*
X169862001Y-98831410D01*
X169860860Y-98837884D01*
X169860859Y-98837885D01*
X169844083Y-98933027D01*
X169842017Y-98936606D01*
X169844083Y-98940185D01*
X169862001Y-99041802D01*
X169865288Y-99047495D01*
X169865289Y-99047498D01*
X169891364Y-99092661D01*
X169915410Y-99134310D01*
X169997238Y-99202972D01*
X170097616Y-99239506D01*
X170204434Y-99239506D01*
X170304812Y-99202972D01*
X170386640Y-99134310D01*
X170410686Y-99092661D01*
X170436761Y-99047498D01*
X170436762Y-99047495D01*
X170440049Y-99041802D01*
X170457967Y-98940185D01*
X170460033Y-98936606D01*
X170457967Y-98933027D01*
X170441191Y-98837885D01*
X170441190Y-98837884D01*
X170440049Y-98831410D01*
X170436762Y-98825717D01*
X170436761Y-98825714D01*
X170389931Y-98744603D01*
X170386640Y-98738902D01*
X170304812Y-98670240D01*
X170306789Y-98667884D01*
X170281565Y-98637808D01*
X170281577Y-98586369D01*
X170314652Y-98546972D01*
X170352236Y-98536906D01*
X170711815Y-98536906D01*
X170760153Y-98554499D01*
X170785873Y-98599048D01*
X170776940Y-98649706D01*
X170757946Y-98668699D01*
X170759239Y-98670240D01*
X170677410Y-98738902D01*
X170674121Y-98744599D01*
X170627289Y-98825714D01*
X170627288Y-98825717D01*
X170624001Y-98831410D01*
X170622860Y-98837884D01*
X170622859Y-98837885D01*
X170606083Y-98933027D01*
X170604017Y-98936606D01*
X170606083Y-98940185D01*
X170624001Y-99041802D01*
X170627288Y-99047495D01*
X170627289Y-99047498D01*
X170653364Y-99092661D01*
X170677410Y-99134310D01*
X170759238Y-99202972D01*
X170859616Y-99239506D01*
X170966434Y-99239506D01*
X171066812Y-99202972D01*
X171148640Y-99134310D01*
X171172686Y-99092661D01*
X171198761Y-99047498D01*
X171198762Y-99047495D01*
X171202049Y-99041802D01*
X171219967Y-98940185D01*
X171222033Y-98936606D01*
X171219967Y-98933027D01*
X171203191Y-98837885D01*
X171203190Y-98837884D01*
X171202049Y-98831410D01*
X171198762Y-98825717D01*
X171198761Y-98825714D01*
X171151931Y-98744603D01*
X171148640Y-98738902D01*
X171066812Y-98670240D01*
X171068789Y-98667884D01*
X171043565Y-98637808D01*
X171043577Y-98586369D01*
X171076652Y-98546972D01*
X171114236Y-98536906D01*
X171473815Y-98536906D01*
X171522153Y-98554499D01*
X171547873Y-98599048D01*
X171538940Y-98649706D01*
X171519946Y-98668699D01*
X171521239Y-98670240D01*
X171439410Y-98738902D01*
X171436121Y-98744599D01*
X171389289Y-98825714D01*
X171389288Y-98825717D01*
X171386001Y-98831410D01*
X171384860Y-98837884D01*
X171384859Y-98837885D01*
X171368083Y-98933027D01*
X171366017Y-98936606D01*
X171368083Y-98940185D01*
X171386001Y-99041802D01*
X171389288Y-99047495D01*
X171389289Y-99047498D01*
X171415364Y-99092661D01*
X171439410Y-99134310D01*
X171521238Y-99202972D01*
X171621616Y-99239506D01*
X171728434Y-99239506D01*
X171828812Y-99202972D01*
X171910640Y-99134310D01*
X171934686Y-99092661D01*
X171960761Y-99047498D01*
X171960762Y-99047495D01*
X171964049Y-99041802D01*
X171981967Y-98940185D01*
X171984033Y-98936606D01*
X171981967Y-98933027D01*
X171965191Y-98837885D01*
X171965190Y-98837884D01*
X171964049Y-98831410D01*
X171960762Y-98825717D01*
X171960761Y-98825714D01*
X171913931Y-98744603D01*
X171910640Y-98738902D01*
X171828812Y-98670240D01*
X171830789Y-98667884D01*
X171805565Y-98637808D01*
X171805577Y-98586369D01*
X171838652Y-98546972D01*
X171876236Y-98536906D01*
X172235815Y-98536906D01*
X172284153Y-98554499D01*
X172309873Y-98599048D01*
X172300940Y-98649706D01*
X172281946Y-98668699D01*
X172283239Y-98670240D01*
X172201410Y-98738902D01*
X172198121Y-98744599D01*
X172151289Y-98825714D01*
X172151288Y-98825717D01*
X172148001Y-98831410D01*
X172146860Y-98837884D01*
X172146859Y-98837885D01*
X172130083Y-98933027D01*
X172128017Y-98936606D01*
X172130083Y-98940185D01*
X172148001Y-99041802D01*
X172151288Y-99047495D01*
X172151289Y-99047498D01*
X172177364Y-99092661D01*
X172201410Y-99134310D01*
X172283238Y-99202972D01*
X172383616Y-99239506D01*
X172490434Y-99239506D01*
X172590812Y-99202972D01*
X172672640Y-99134310D01*
X172696686Y-99092661D01*
X172722761Y-99047498D01*
X172722762Y-99047495D01*
X172726049Y-99041802D01*
X172743967Y-98940185D01*
X172746033Y-98936606D01*
X172743967Y-98933027D01*
X172727191Y-98837885D01*
X172727190Y-98837884D01*
X172726049Y-98831410D01*
X172722762Y-98825717D01*
X172722761Y-98825714D01*
X172675931Y-98744603D01*
X172672640Y-98738902D01*
X172590812Y-98670240D01*
X172592789Y-98667884D01*
X172567565Y-98637808D01*
X172567577Y-98586369D01*
X172600652Y-98546972D01*
X172638236Y-98536906D01*
X172997815Y-98536906D01*
X173046153Y-98554499D01*
X173071873Y-98599048D01*
X173062940Y-98649706D01*
X173043946Y-98668699D01*
X173045239Y-98670240D01*
X172963410Y-98738902D01*
X172960121Y-98744599D01*
X172913289Y-98825714D01*
X172913288Y-98825717D01*
X172910001Y-98831410D01*
X172908860Y-98837884D01*
X172908859Y-98837885D01*
X172892083Y-98933027D01*
X172890017Y-98936606D01*
X172892083Y-98940185D01*
X172910001Y-99041802D01*
X172913288Y-99047495D01*
X172913289Y-99047498D01*
X172939364Y-99092661D01*
X172963410Y-99134310D01*
X173045238Y-99202972D01*
X173145616Y-99239506D01*
X173252434Y-99239506D01*
X173352812Y-99202972D01*
X173434640Y-99134310D01*
X173458686Y-99092661D01*
X173484761Y-99047498D01*
X173484762Y-99047495D01*
X173488049Y-99041802D01*
X173505967Y-98940185D01*
X173508033Y-98936606D01*
X173505967Y-98933027D01*
X173489191Y-98837885D01*
X173489190Y-98837884D01*
X173488049Y-98831410D01*
X173484762Y-98825717D01*
X173484761Y-98825714D01*
X173437931Y-98744603D01*
X173434640Y-98738902D01*
X173352812Y-98670240D01*
X173354789Y-98667884D01*
X173329565Y-98637808D01*
X173329577Y-98586369D01*
X173362652Y-98546972D01*
X173400236Y-98536906D01*
X173759815Y-98536906D01*
X173808153Y-98554499D01*
X173833873Y-98599048D01*
X173824940Y-98649706D01*
X173805946Y-98668699D01*
X173807239Y-98670240D01*
X173725410Y-98738902D01*
X173722121Y-98744599D01*
X173675289Y-98825714D01*
X173675288Y-98825717D01*
X173672001Y-98831410D01*
X173670860Y-98837884D01*
X173670859Y-98837885D01*
X173654083Y-98933027D01*
X173652017Y-98936606D01*
X173654083Y-98940185D01*
X173672001Y-99041802D01*
X173675288Y-99047495D01*
X173675289Y-99047498D01*
X173701364Y-99092661D01*
X173725410Y-99134310D01*
X173807238Y-99202972D01*
X173907616Y-99239506D01*
X174014434Y-99239506D01*
X174114812Y-99202972D01*
X174196640Y-99134310D01*
X174220686Y-99092661D01*
X174246761Y-99047498D01*
X174246762Y-99047495D01*
X174250049Y-99041802D01*
X174267967Y-98940185D01*
X174270033Y-98936606D01*
X174267967Y-98933027D01*
X174251191Y-98837885D01*
X174251190Y-98837884D01*
X174250049Y-98831410D01*
X174246762Y-98825717D01*
X174246761Y-98825714D01*
X174199931Y-98744603D01*
X174196640Y-98738902D01*
X174114812Y-98670240D01*
X174116789Y-98667884D01*
X174091565Y-98637808D01*
X174091577Y-98586369D01*
X174124652Y-98546972D01*
X174162236Y-98536906D01*
X174521815Y-98536906D01*
X174570153Y-98554499D01*
X174595873Y-98599048D01*
X174586940Y-98649706D01*
X174567946Y-98668699D01*
X174569239Y-98670240D01*
X174487410Y-98738902D01*
X174484121Y-98744599D01*
X174437289Y-98825714D01*
X174437288Y-98825717D01*
X174434001Y-98831410D01*
X174432860Y-98837884D01*
X174432859Y-98837885D01*
X174416083Y-98933027D01*
X174414017Y-98936606D01*
X174416083Y-98940185D01*
X174434001Y-99041802D01*
X174437288Y-99047495D01*
X174437289Y-99047498D01*
X174463364Y-99092661D01*
X174487410Y-99134310D01*
X174569238Y-99202972D01*
X174669616Y-99239506D01*
X174776434Y-99239506D01*
X174876812Y-99202972D01*
X174958640Y-99134310D01*
X174982686Y-99092661D01*
X175008761Y-99047498D01*
X175008762Y-99047495D01*
X175012049Y-99041802D01*
X175029967Y-98940185D01*
X175032033Y-98936606D01*
X175029967Y-98933027D01*
X175013191Y-98837885D01*
X175013190Y-98837884D01*
X175012049Y-98831410D01*
X175008762Y-98825717D01*
X175008761Y-98825714D01*
X174961931Y-98744603D01*
X174958640Y-98738902D01*
X174876812Y-98670240D01*
X174878789Y-98667884D01*
X174853565Y-98637808D01*
X174853577Y-98586369D01*
X174886652Y-98546972D01*
X174924236Y-98536906D01*
X175283815Y-98536906D01*
X175332153Y-98554499D01*
X175357873Y-98599048D01*
X175348940Y-98649706D01*
X175329946Y-98668699D01*
X175331239Y-98670240D01*
X175249410Y-98738902D01*
X175246121Y-98744599D01*
X175199289Y-98825714D01*
X175199288Y-98825717D01*
X175196001Y-98831410D01*
X175194860Y-98837884D01*
X175194859Y-98837885D01*
X175178083Y-98933027D01*
X175176017Y-98936606D01*
X175178083Y-98940185D01*
X175196001Y-99041802D01*
X175199288Y-99047495D01*
X175199289Y-99047498D01*
X175225364Y-99092661D01*
X175249410Y-99134310D01*
X175331238Y-99202972D01*
X175431616Y-99239506D01*
X175538434Y-99239506D01*
X175638812Y-99202972D01*
X175720640Y-99134310D01*
X175744686Y-99092661D01*
X175770761Y-99047498D01*
X175770762Y-99047495D01*
X175774049Y-99041802D01*
X175791967Y-98940185D01*
X175794033Y-98936606D01*
X175791967Y-98933027D01*
X175775191Y-98837885D01*
X175775190Y-98837884D01*
X175774049Y-98831410D01*
X175770762Y-98825717D01*
X175770761Y-98825714D01*
X175723931Y-98744603D01*
X175720640Y-98738902D01*
X175638812Y-98670240D01*
X175640789Y-98667884D01*
X175615565Y-98637808D01*
X175615577Y-98586369D01*
X175648652Y-98546972D01*
X175686236Y-98536906D01*
X176045815Y-98536906D01*
X176094153Y-98554499D01*
X176119873Y-98599048D01*
X176110940Y-98649706D01*
X176091946Y-98668699D01*
X176093239Y-98670240D01*
X176011410Y-98738902D01*
X176008121Y-98744599D01*
X175961289Y-98825714D01*
X175961288Y-98825717D01*
X175958001Y-98831410D01*
X175956860Y-98837884D01*
X175956859Y-98837885D01*
X175940083Y-98933027D01*
X175938017Y-98936606D01*
X175940083Y-98940185D01*
X175958001Y-99041802D01*
X175961288Y-99047495D01*
X175961289Y-99047498D01*
X175987364Y-99092661D01*
X176011410Y-99134310D01*
X176093238Y-99202972D01*
X176193616Y-99239506D01*
X176300434Y-99239506D01*
X176400812Y-99202972D01*
X176482640Y-99134310D01*
X176506686Y-99092661D01*
X176532761Y-99047498D01*
X176532762Y-99047495D01*
X176536049Y-99041802D01*
X176553967Y-98940185D01*
X176556033Y-98936606D01*
X176553967Y-98933027D01*
X176537191Y-98837885D01*
X176537190Y-98837884D01*
X176536049Y-98831410D01*
X176532762Y-98825717D01*
X176532761Y-98825714D01*
X176485931Y-98744603D01*
X176482640Y-98738902D01*
X176400812Y-98670240D01*
X176402789Y-98667884D01*
X176377565Y-98637808D01*
X176377577Y-98586369D01*
X176410652Y-98546972D01*
X176448236Y-98536906D01*
X176807815Y-98536906D01*
X176856153Y-98554499D01*
X176881873Y-98599048D01*
X176872940Y-98649706D01*
X176853946Y-98668699D01*
X176855239Y-98670240D01*
X176773410Y-98738902D01*
X176770121Y-98744599D01*
X176723289Y-98825714D01*
X176723288Y-98825717D01*
X176720001Y-98831410D01*
X176718860Y-98837884D01*
X176718859Y-98837885D01*
X176702083Y-98933027D01*
X176700017Y-98936606D01*
X176702083Y-98940185D01*
X176720001Y-99041802D01*
X176723288Y-99047495D01*
X176723289Y-99047498D01*
X176749364Y-99092661D01*
X176773410Y-99134310D01*
X176855238Y-99202972D01*
X176955616Y-99239506D01*
X177062434Y-99239506D01*
X177162812Y-99202972D01*
X177244640Y-99134310D01*
X177268686Y-99092661D01*
X177294761Y-99047498D01*
X177294762Y-99047495D01*
X177298049Y-99041802D01*
X177315967Y-98940185D01*
X177318033Y-98936606D01*
X177315967Y-98933027D01*
X177299191Y-98837885D01*
X177299190Y-98837884D01*
X177298049Y-98831410D01*
X177294762Y-98825717D01*
X177294761Y-98825714D01*
X177247931Y-98744603D01*
X177244640Y-98738902D01*
X177162812Y-98670240D01*
X177164789Y-98667884D01*
X177139565Y-98637808D01*
X177139577Y-98586369D01*
X177172652Y-98546972D01*
X177210236Y-98536906D01*
X177569815Y-98536906D01*
X177618153Y-98554499D01*
X177643873Y-98599048D01*
X177634940Y-98649706D01*
X177615946Y-98668699D01*
X177617239Y-98670240D01*
X177535410Y-98738902D01*
X177532121Y-98744599D01*
X177485289Y-98825714D01*
X177485288Y-98825717D01*
X177482001Y-98831410D01*
X177480860Y-98837884D01*
X177480859Y-98837885D01*
X177464083Y-98933027D01*
X177462017Y-98936606D01*
X177464083Y-98940185D01*
X177482001Y-99041802D01*
X177485288Y-99047495D01*
X177485289Y-99047498D01*
X177511364Y-99092661D01*
X177535410Y-99134310D01*
X177617238Y-99202972D01*
X177717616Y-99239506D01*
X177824434Y-99239506D01*
X177924812Y-99202972D01*
X178006640Y-99134310D01*
X178030686Y-99092661D01*
X178056761Y-99047498D01*
X178056762Y-99047495D01*
X178060049Y-99041802D01*
X178077967Y-98940185D01*
X178080033Y-98936606D01*
X178077967Y-98933027D01*
X178061191Y-98837885D01*
X178061190Y-98837884D01*
X178060049Y-98831410D01*
X178056762Y-98825717D01*
X178056761Y-98825714D01*
X178009931Y-98744603D01*
X178006640Y-98738902D01*
X177924812Y-98670240D01*
X177926789Y-98667884D01*
X177901565Y-98637808D01*
X177901577Y-98586369D01*
X177934652Y-98546972D01*
X177972236Y-98536906D01*
X178331815Y-98536906D01*
X178380153Y-98554499D01*
X178405873Y-98599048D01*
X178396940Y-98649706D01*
X178377946Y-98668699D01*
X178379239Y-98670240D01*
X178297410Y-98738902D01*
X178294121Y-98744599D01*
X178247289Y-98825714D01*
X178247288Y-98825717D01*
X178244001Y-98831410D01*
X178242860Y-98837884D01*
X178242859Y-98837885D01*
X178226083Y-98933027D01*
X178224017Y-98936606D01*
X178226083Y-98940185D01*
X178244001Y-99041802D01*
X178247288Y-99047495D01*
X178247289Y-99047498D01*
X178273364Y-99092661D01*
X178297410Y-99134310D01*
X178379238Y-99202972D01*
X178479616Y-99239506D01*
X178586434Y-99239506D01*
X178686812Y-99202972D01*
X178768640Y-99134310D01*
X178792686Y-99092661D01*
X178818761Y-99047498D01*
X178818762Y-99047495D01*
X178822049Y-99041802D01*
X178839967Y-98940185D01*
X178842033Y-98936606D01*
X178839967Y-98933027D01*
X178823191Y-98837885D01*
X178823190Y-98837884D01*
X178822049Y-98831410D01*
X178818762Y-98825717D01*
X178818761Y-98825714D01*
X178771931Y-98744603D01*
X178768640Y-98738902D01*
X178686812Y-98670240D01*
X178688789Y-98667884D01*
X178663565Y-98637808D01*
X178663577Y-98586369D01*
X178696652Y-98546972D01*
X178734236Y-98536906D01*
X179093815Y-98536906D01*
X179142153Y-98554499D01*
X179167873Y-98599048D01*
X179158940Y-98649706D01*
X179139946Y-98668699D01*
X179141239Y-98670240D01*
X179059410Y-98738902D01*
X179056121Y-98744599D01*
X179009289Y-98825714D01*
X179009288Y-98825717D01*
X179006001Y-98831410D01*
X179004860Y-98837884D01*
X179004859Y-98837885D01*
X178988083Y-98933027D01*
X178986017Y-98936606D01*
X178988083Y-98940185D01*
X179006001Y-99041802D01*
X179009288Y-99047495D01*
X179009289Y-99047498D01*
X179035364Y-99092661D01*
X179059410Y-99134310D01*
X179141238Y-99202972D01*
X179241616Y-99239506D01*
X179348434Y-99239506D01*
X179448812Y-99202972D01*
X179530640Y-99134310D01*
X179554686Y-99092661D01*
X179580761Y-99047498D01*
X179580762Y-99047495D01*
X179584049Y-99041802D01*
X179601967Y-98940185D01*
X179604033Y-98936606D01*
X179601967Y-98933027D01*
X179585191Y-98837885D01*
X179585190Y-98837884D01*
X179584049Y-98831410D01*
X179580762Y-98825717D01*
X179580761Y-98825714D01*
X179533931Y-98744603D01*
X179530640Y-98738902D01*
X179448812Y-98670240D01*
X179450789Y-98667884D01*
X179425565Y-98637808D01*
X179425577Y-98586369D01*
X179458652Y-98546972D01*
X179496236Y-98536906D01*
X179855815Y-98536906D01*
X179904153Y-98554499D01*
X179929873Y-98599048D01*
X179920940Y-98649706D01*
X179901946Y-98668699D01*
X179903239Y-98670240D01*
X179821410Y-98738902D01*
X179818121Y-98744599D01*
X179771289Y-98825714D01*
X179771288Y-98825717D01*
X179768001Y-98831410D01*
X179766860Y-98837884D01*
X179766859Y-98837885D01*
X179750083Y-98933027D01*
X179748017Y-98936606D01*
X179750083Y-98940185D01*
X179768001Y-99041802D01*
X179771288Y-99047495D01*
X179771289Y-99047498D01*
X179797364Y-99092661D01*
X179821410Y-99134310D01*
X179903238Y-99202972D01*
X180003616Y-99239506D01*
X180110434Y-99239506D01*
X180210812Y-99202972D01*
X180292640Y-99134310D01*
X180316686Y-99092661D01*
X180342761Y-99047498D01*
X180342762Y-99047495D01*
X180346049Y-99041802D01*
X180363967Y-98940185D01*
X180366033Y-98936606D01*
X180363967Y-98933027D01*
X180347191Y-98837885D01*
X180347190Y-98837884D01*
X180346049Y-98831410D01*
X180342762Y-98825717D01*
X180342761Y-98825714D01*
X180295931Y-98744603D01*
X180292640Y-98738902D01*
X180210812Y-98670240D01*
X180212789Y-98667884D01*
X180187565Y-98637808D01*
X180187577Y-98586369D01*
X180220652Y-98546972D01*
X180258236Y-98536906D01*
X180617815Y-98536906D01*
X180666153Y-98554499D01*
X180691873Y-98599048D01*
X180682940Y-98649706D01*
X180663946Y-98668699D01*
X180665239Y-98670240D01*
X180583410Y-98738902D01*
X180580121Y-98744599D01*
X180533289Y-98825714D01*
X180533288Y-98825717D01*
X180530001Y-98831410D01*
X180528860Y-98837884D01*
X180528859Y-98837885D01*
X180512083Y-98933027D01*
X180510017Y-98936606D01*
X180512083Y-98940185D01*
X180530001Y-99041802D01*
X180533288Y-99047495D01*
X180533289Y-99047498D01*
X180559364Y-99092661D01*
X180583410Y-99134310D01*
X180665238Y-99202972D01*
X180765616Y-99239506D01*
X180872434Y-99239506D01*
X180972812Y-99202972D01*
X181054640Y-99134310D01*
X181078686Y-99092661D01*
X181104761Y-99047498D01*
X181104762Y-99047495D01*
X181108049Y-99041802D01*
X181125967Y-98940185D01*
X181128033Y-98936606D01*
X181125967Y-98933027D01*
X181109191Y-98837885D01*
X181109190Y-98837884D01*
X181108049Y-98831410D01*
X181104762Y-98825717D01*
X181104761Y-98825714D01*
X181057931Y-98744603D01*
X181054640Y-98738902D01*
X180972812Y-98670240D01*
X180974789Y-98667884D01*
X180949565Y-98637808D01*
X180949577Y-98586369D01*
X180982652Y-98546972D01*
X181020236Y-98536906D01*
X181379815Y-98536906D01*
X181428153Y-98554499D01*
X181453873Y-98599048D01*
X181444940Y-98649706D01*
X181425946Y-98668699D01*
X181427239Y-98670240D01*
X181345410Y-98738902D01*
X181342121Y-98744599D01*
X181295289Y-98825714D01*
X181295288Y-98825717D01*
X181292001Y-98831410D01*
X181290860Y-98837884D01*
X181290859Y-98837885D01*
X181274083Y-98933027D01*
X181272017Y-98936606D01*
X181274083Y-98940185D01*
X181292001Y-99041802D01*
X181295288Y-99047495D01*
X181295289Y-99047498D01*
X181321364Y-99092661D01*
X181345410Y-99134310D01*
X181427238Y-99202972D01*
X181527616Y-99239506D01*
X181634434Y-99239506D01*
X181734812Y-99202972D01*
X181816640Y-99134310D01*
X181840686Y-99092661D01*
X181866761Y-99047498D01*
X181866762Y-99047495D01*
X181870049Y-99041802D01*
X181887967Y-98940185D01*
X181890033Y-98936606D01*
X181887967Y-98933027D01*
X181871191Y-98837885D01*
X181871190Y-98837884D01*
X181870049Y-98831410D01*
X181866762Y-98825717D01*
X181866761Y-98825714D01*
X181819931Y-98744603D01*
X181816640Y-98738902D01*
X181734812Y-98670240D01*
X181736789Y-98667884D01*
X181711565Y-98637808D01*
X181711577Y-98586369D01*
X181744652Y-98546972D01*
X181782236Y-98536906D01*
X182141815Y-98536906D01*
X182190153Y-98554499D01*
X182215873Y-98599048D01*
X182206940Y-98649706D01*
X182187946Y-98668699D01*
X182189239Y-98670240D01*
X182107410Y-98738902D01*
X182104121Y-98744599D01*
X182057289Y-98825714D01*
X182057288Y-98825717D01*
X182054001Y-98831410D01*
X182052860Y-98837884D01*
X182052859Y-98837885D01*
X182036083Y-98933027D01*
X182034017Y-98936606D01*
X182036083Y-98940185D01*
X182054001Y-99041802D01*
X182057288Y-99047495D01*
X182057289Y-99047498D01*
X182083364Y-99092661D01*
X182107410Y-99134310D01*
X182189238Y-99202972D01*
X182289616Y-99239506D01*
X182396434Y-99239506D01*
X182496812Y-99202972D01*
X182578640Y-99134310D01*
X182602686Y-99092661D01*
X182628761Y-99047498D01*
X182628762Y-99047495D01*
X182632049Y-99041802D01*
X182649967Y-98940185D01*
X182652033Y-98936606D01*
X182649967Y-98933027D01*
X182633191Y-98837885D01*
X182633190Y-98837884D01*
X182632049Y-98831410D01*
X182628762Y-98825717D01*
X182628761Y-98825714D01*
X182581931Y-98744603D01*
X182578640Y-98738902D01*
X182496812Y-98670240D01*
X182498789Y-98667884D01*
X182473565Y-98637808D01*
X182473577Y-98586369D01*
X182506652Y-98546972D01*
X182544236Y-98536906D01*
X182903815Y-98536906D01*
X182952153Y-98554499D01*
X182977873Y-98599048D01*
X182968940Y-98649706D01*
X182949946Y-98668699D01*
X182951239Y-98670240D01*
X182869410Y-98738902D01*
X182866121Y-98744599D01*
X182819289Y-98825714D01*
X182819288Y-98825717D01*
X182816001Y-98831410D01*
X182814860Y-98837884D01*
X182814859Y-98837885D01*
X182798083Y-98933027D01*
X182796017Y-98936606D01*
X182798083Y-98940185D01*
X182816001Y-99041802D01*
X182819288Y-99047495D01*
X182819289Y-99047498D01*
X182845364Y-99092661D01*
X182869410Y-99134310D01*
X182951238Y-99202972D01*
X183051616Y-99239506D01*
X183158434Y-99239506D01*
X183258812Y-99202972D01*
X183340640Y-99134310D01*
X183364686Y-99092661D01*
X183390761Y-99047498D01*
X183390762Y-99047495D01*
X183394049Y-99041802D01*
X183411967Y-98940185D01*
X183414033Y-98936606D01*
X183411967Y-98933027D01*
X183395191Y-98837885D01*
X183395190Y-98837884D01*
X183394049Y-98831410D01*
X183390762Y-98825717D01*
X183390761Y-98825714D01*
X183343931Y-98744603D01*
X183340640Y-98738902D01*
X183258812Y-98670240D01*
X183260789Y-98667884D01*
X183235565Y-98637808D01*
X183235577Y-98586369D01*
X183268652Y-98546972D01*
X183306236Y-98536906D01*
X183665815Y-98536906D01*
X183714153Y-98554499D01*
X183739873Y-98599048D01*
X183730940Y-98649706D01*
X183711946Y-98668699D01*
X183713239Y-98670240D01*
X183631410Y-98738902D01*
X183628121Y-98744599D01*
X183581289Y-98825714D01*
X183581288Y-98825717D01*
X183578001Y-98831410D01*
X183576860Y-98837884D01*
X183576859Y-98837885D01*
X183560083Y-98933027D01*
X183558017Y-98936606D01*
X183560083Y-98940185D01*
X183578001Y-99041802D01*
X183581288Y-99047495D01*
X183581289Y-99047498D01*
X183607364Y-99092661D01*
X183631410Y-99134310D01*
X183713238Y-99202972D01*
X183813616Y-99239506D01*
X183920434Y-99239506D01*
X184020812Y-99202972D01*
X184102640Y-99134310D01*
X184126686Y-99092661D01*
X184152761Y-99047498D01*
X184152762Y-99047495D01*
X184156049Y-99041802D01*
X184173967Y-98940185D01*
X184176033Y-98936606D01*
X184173967Y-98933027D01*
X184157191Y-98837885D01*
X184157190Y-98837884D01*
X184156049Y-98831410D01*
X184152762Y-98825717D01*
X184152761Y-98825714D01*
X184105931Y-98744603D01*
X184102640Y-98738902D01*
X184020812Y-98670240D01*
X184022789Y-98667884D01*
X183997565Y-98637808D01*
X183997577Y-98586369D01*
X184030652Y-98546972D01*
X184068236Y-98536906D01*
X184427815Y-98536906D01*
X184476153Y-98554499D01*
X184501873Y-98599048D01*
X184492940Y-98649706D01*
X184473946Y-98668699D01*
X184475239Y-98670240D01*
X184393410Y-98738902D01*
X184390121Y-98744599D01*
X184343289Y-98825714D01*
X184343288Y-98825717D01*
X184340001Y-98831410D01*
X184338860Y-98837884D01*
X184338859Y-98837885D01*
X184322083Y-98933027D01*
X184320017Y-98936606D01*
X184322083Y-98940185D01*
X184340001Y-99041802D01*
X184343288Y-99047495D01*
X184343289Y-99047498D01*
X184369364Y-99092661D01*
X184393410Y-99134310D01*
X184475238Y-99202972D01*
X184575616Y-99239506D01*
X184682434Y-99239506D01*
X184782812Y-99202972D01*
X184864640Y-99134310D01*
X184888686Y-99092661D01*
X184914761Y-99047498D01*
X184914762Y-99047495D01*
X184918049Y-99041802D01*
X184935967Y-98940185D01*
X184938033Y-98936606D01*
X184935967Y-98933027D01*
X184919191Y-98837885D01*
X184919190Y-98837884D01*
X184918049Y-98831410D01*
X184914762Y-98825717D01*
X184914761Y-98825714D01*
X184867931Y-98744603D01*
X184864640Y-98738902D01*
X184782812Y-98670240D01*
X184784789Y-98667884D01*
X184759565Y-98637808D01*
X184759577Y-98586369D01*
X184792652Y-98546972D01*
X184830236Y-98536906D01*
X185189815Y-98536906D01*
X185238153Y-98554499D01*
X185263873Y-98599048D01*
X185254940Y-98649706D01*
X185235946Y-98668699D01*
X185237239Y-98670240D01*
X185155410Y-98738902D01*
X185152121Y-98744599D01*
X185105289Y-98825714D01*
X185105288Y-98825717D01*
X185102001Y-98831410D01*
X185100860Y-98837884D01*
X185100859Y-98837885D01*
X185084083Y-98933027D01*
X185082017Y-98936606D01*
X185084083Y-98940185D01*
X185102001Y-99041802D01*
X185105288Y-99047495D01*
X185105289Y-99047498D01*
X185131364Y-99092661D01*
X185155410Y-99134310D01*
X185237238Y-99202972D01*
X185337616Y-99239506D01*
X185444434Y-99239506D01*
X185544812Y-99202972D01*
X185626640Y-99134310D01*
X185650686Y-99092661D01*
X185676761Y-99047498D01*
X185676762Y-99047495D01*
X185680049Y-99041802D01*
X185697967Y-98940185D01*
X185700033Y-98936606D01*
X185697967Y-98933027D01*
X185681191Y-98837885D01*
X185681190Y-98837884D01*
X185680049Y-98831410D01*
X185676762Y-98825717D01*
X185676761Y-98825714D01*
X185629931Y-98744603D01*
X185626640Y-98738902D01*
X185544812Y-98670240D01*
X185546789Y-98667884D01*
X185521565Y-98637808D01*
X185521577Y-98586369D01*
X185554652Y-98546972D01*
X185592236Y-98536906D01*
X185951815Y-98536906D01*
X186000153Y-98554499D01*
X186025873Y-98599048D01*
X186016940Y-98649706D01*
X185997946Y-98668699D01*
X185999239Y-98670240D01*
X185917410Y-98738902D01*
X185914121Y-98744599D01*
X185867289Y-98825714D01*
X185867288Y-98825717D01*
X185864001Y-98831410D01*
X185862860Y-98837884D01*
X185862859Y-98837885D01*
X185846083Y-98933027D01*
X185844017Y-98936606D01*
X185846083Y-98940185D01*
X185864001Y-99041802D01*
X185867288Y-99047495D01*
X185867289Y-99047498D01*
X185893364Y-99092661D01*
X185917410Y-99134310D01*
X185999238Y-99202972D01*
X186099616Y-99239506D01*
X186206434Y-99239506D01*
X186306812Y-99202972D01*
X186388640Y-99134310D01*
X186412686Y-99092661D01*
X186438761Y-99047498D01*
X186438762Y-99047495D01*
X186442049Y-99041802D01*
X186459967Y-98940185D01*
X186462033Y-98936606D01*
X186459967Y-98933027D01*
X186443191Y-98837885D01*
X186443190Y-98837884D01*
X186442049Y-98831410D01*
X186438762Y-98825717D01*
X186438761Y-98825714D01*
X186391931Y-98744603D01*
X186388640Y-98738902D01*
X186306812Y-98670240D01*
X186308789Y-98667884D01*
X186283565Y-98637808D01*
X186283577Y-98586369D01*
X186316652Y-98546972D01*
X186354236Y-98536906D01*
X186713815Y-98536906D01*
X186762153Y-98554499D01*
X186787873Y-98599048D01*
X186778940Y-98649706D01*
X186759946Y-98668699D01*
X186761239Y-98670240D01*
X186679410Y-98738902D01*
X186676121Y-98744599D01*
X186629289Y-98825714D01*
X186629288Y-98825717D01*
X186626001Y-98831410D01*
X186624860Y-98837884D01*
X186624859Y-98837885D01*
X186608083Y-98933027D01*
X186606017Y-98936606D01*
X186608083Y-98940185D01*
X186626001Y-99041802D01*
X186629288Y-99047495D01*
X186629289Y-99047498D01*
X186655364Y-99092661D01*
X186679410Y-99134310D01*
X186761238Y-99202972D01*
X186861616Y-99239506D01*
X186968434Y-99239506D01*
X187068812Y-99202972D01*
X187150640Y-99134310D01*
X187174686Y-99092661D01*
X187200761Y-99047498D01*
X187200762Y-99047495D01*
X187204049Y-99041802D01*
X187221967Y-98940185D01*
X187224033Y-98936606D01*
X187221967Y-98933027D01*
X187205191Y-98837885D01*
X187205190Y-98837884D01*
X187204049Y-98831410D01*
X187200762Y-98825717D01*
X187200761Y-98825714D01*
X187153931Y-98744603D01*
X187150640Y-98738902D01*
X187068812Y-98670240D01*
X187070789Y-98667884D01*
X187045565Y-98637808D01*
X187045577Y-98586369D01*
X187078652Y-98546972D01*
X187116236Y-98536906D01*
X187475815Y-98536906D01*
X187524153Y-98554499D01*
X187549873Y-98599048D01*
X187540940Y-98649706D01*
X187521946Y-98668699D01*
X187523239Y-98670240D01*
X187441410Y-98738902D01*
X187438121Y-98744599D01*
X187391289Y-98825714D01*
X187391288Y-98825717D01*
X187388001Y-98831410D01*
X187386860Y-98837884D01*
X187386859Y-98837885D01*
X187370083Y-98933027D01*
X187368017Y-98936606D01*
X187370083Y-98940185D01*
X187388001Y-99041802D01*
X187391288Y-99047495D01*
X187391289Y-99047498D01*
X187417364Y-99092661D01*
X187441410Y-99134310D01*
X187523238Y-99202972D01*
X187623616Y-99239506D01*
X187730434Y-99239506D01*
X187830812Y-99202972D01*
X187912640Y-99134310D01*
X187936686Y-99092661D01*
X187962761Y-99047498D01*
X187962762Y-99047495D01*
X187966049Y-99041802D01*
X187983967Y-98940185D01*
X187986033Y-98936606D01*
X187983967Y-98933027D01*
X187967191Y-98837885D01*
X187967190Y-98837884D01*
X187966049Y-98831410D01*
X187962762Y-98825717D01*
X187962761Y-98825714D01*
X187915931Y-98744603D01*
X187912640Y-98738902D01*
X187830812Y-98670240D01*
X187832789Y-98667884D01*
X187807565Y-98637808D01*
X187807577Y-98586369D01*
X187840652Y-98546972D01*
X187878236Y-98536906D01*
X188237815Y-98536906D01*
X188286153Y-98554499D01*
X188311873Y-98599048D01*
X188302940Y-98649706D01*
X188283946Y-98668699D01*
X188285239Y-98670240D01*
X188203410Y-98738902D01*
X188200121Y-98744599D01*
X188153289Y-98825714D01*
X188153288Y-98825717D01*
X188150001Y-98831410D01*
X188148860Y-98837884D01*
X188148859Y-98837885D01*
X188132083Y-98933027D01*
X188130017Y-98936606D01*
X188132083Y-98940185D01*
X188150001Y-99041802D01*
X188153288Y-99047495D01*
X188153289Y-99047498D01*
X188179364Y-99092661D01*
X188203410Y-99134310D01*
X188285238Y-99202972D01*
X188385616Y-99239506D01*
X188492434Y-99239506D01*
X188592812Y-99202972D01*
X188674640Y-99134310D01*
X188698686Y-99092661D01*
X188724761Y-99047498D01*
X188724762Y-99047495D01*
X188728049Y-99041802D01*
X188745967Y-98940185D01*
X188748033Y-98936606D01*
X188745967Y-98933027D01*
X188729191Y-98837885D01*
X188729190Y-98837884D01*
X188728049Y-98831410D01*
X188724762Y-98825717D01*
X188724761Y-98825714D01*
X188677931Y-98744603D01*
X188674640Y-98738902D01*
X188592812Y-98670240D01*
X188594789Y-98667884D01*
X188569565Y-98637808D01*
X188569577Y-98586369D01*
X188602652Y-98546972D01*
X188640236Y-98536906D01*
X188999815Y-98536906D01*
X189048153Y-98554499D01*
X189073873Y-98599048D01*
X189064940Y-98649706D01*
X189045946Y-98668699D01*
X189047239Y-98670240D01*
X188965410Y-98738902D01*
X188962121Y-98744599D01*
X188915289Y-98825714D01*
X188915288Y-98825717D01*
X188912001Y-98831410D01*
X188910860Y-98837884D01*
X188910859Y-98837885D01*
X188894083Y-98933027D01*
X188892017Y-98936606D01*
X188894083Y-98940185D01*
X188912001Y-99041802D01*
X188915288Y-99047495D01*
X188915289Y-99047498D01*
X188941364Y-99092661D01*
X188965410Y-99134310D01*
X189047238Y-99202972D01*
X189147616Y-99239506D01*
X189254434Y-99239506D01*
X189354812Y-99202972D01*
X189436640Y-99134310D01*
X189460686Y-99092661D01*
X189486761Y-99047498D01*
X189486762Y-99047495D01*
X189490049Y-99041802D01*
X189507967Y-98940185D01*
X189510033Y-98936606D01*
X189507967Y-98933027D01*
X189491191Y-98837885D01*
X189491190Y-98837884D01*
X189490049Y-98831410D01*
X189486762Y-98825717D01*
X189486761Y-98825714D01*
X189439931Y-98744603D01*
X189436640Y-98738902D01*
X189354812Y-98670240D01*
X189356789Y-98667884D01*
X189331565Y-98637808D01*
X189331577Y-98586369D01*
X189364652Y-98546972D01*
X189402236Y-98536906D01*
X189761815Y-98536906D01*
X189810153Y-98554499D01*
X189835873Y-98599048D01*
X189826940Y-98649706D01*
X189807946Y-98668699D01*
X189809239Y-98670240D01*
X189727410Y-98738902D01*
X189724121Y-98744599D01*
X189677289Y-98825714D01*
X189677288Y-98825717D01*
X189674001Y-98831410D01*
X189672860Y-98837884D01*
X189672859Y-98837885D01*
X189656083Y-98933027D01*
X189654017Y-98936606D01*
X189656083Y-98940185D01*
X189674001Y-99041802D01*
X189677288Y-99047495D01*
X189677289Y-99047498D01*
X189703364Y-99092661D01*
X189727410Y-99134310D01*
X189809238Y-99202972D01*
X189909616Y-99239506D01*
X190016434Y-99239506D01*
X190116812Y-99202972D01*
X190198640Y-99134310D01*
X190222686Y-99092661D01*
X190248761Y-99047498D01*
X190248762Y-99047495D01*
X190252049Y-99041802D01*
X190270598Y-98936606D01*
X190252049Y-98831410D01*
X190248762Y-98825717D01*
X190248761Y-98825714D01*
X190201931Y-98744603D01*
X190198640Y-98738902D01*
X190116812Y-98670240D01*
X190118789Y-98667884D01*
X190093565Y-98637808D01*
X190093577Y-98586369D01*
X190126652Y-98546972D01*
X190164236Y-98536906D01*
X194863441Y-98536906D01*
X194863467Y-98536908D01*
X194863498Y-98536918D01*
X194863594Y-98536918D01*
X194904444Y-98536908D01*
X194919119Y-98538350D01*
X194971669Y-98548793D01*
X194998786Y-98560021D01*
X195037056Y-98585588D01*
X195057810Y-98606342D01*
X195083377Y-98644609D01*
X195094605Y-98671722D01*
X195105035Y-98724198D01*
X195106477Y-98738872D01*
X195106468Y-98779896D01*
X195106477Y-98779924D01*
X195106479Y-98779949D01*
X195106479Y-110724219D01*
X195105034Y-110738891D01*
X195094582Y-110791434D01*
X195083352Y-110818543D01*
X195057768Y-110856830D01*
X195037022Y-110877575D01*
X195004312Y-110899431D01*
X194998737Y-110903156D01*
X194971628Y-110914384D01*
X194918948Y-110924861D01*
X194904282Y-110926305D01*
X194863535Y-110926303D01*
X194863439Y-110926303D01*
X194863434Y-110926305D01*
X164708833Y-110926305D01*
X164660495Y-110908712D01*
X164634775Y-110864163D01*
X164633633Y-110851121D01*
X164633631Y-110838047D01*
X164633379Y-109626606D01*
X169995452Y-109626606D01*
X169996594Y-109633083D01*
X170012169Y-109721410D01*
X170014001Y-109731802D01*
X170017288Y-109737495D01*
X170017289Y-109737498D01*
X170043364Y-109782661D01*
X170067410Y-109824310D01*
X170149238Y-109892972D01*
X170249616Y-109929506D01*
X170356434Y-109929506D01*
X170456812Y-109892972D01*
X170538640Y-109824310D01*
X170562686Y-109782661D01*
X170588761Y-109737498D01*
X170588762Y-109737495D01*
X170592049Y-109731802D01*
X170593882Y-109721410D01*
X170609456Y-109633083D01*
X170610598Y-109626606D01*
X170609456Y-109620129D01*
X170593191Y-109527885D01*
X170593190Y-109527884D01*
X170592049Y-109521410D01*
X170588762Y-109515717D01*
X170588761Y-109515714D01*
X170541931Y-109434603D01*
X170538640Y-109428902D01*
X170456812Y-109360240D01*
X170356434Y-109323706D01*
X170249616Y-109323706D01*
X170206948Y-109339236D01*
X170155420Y-109357990D01*
X170155419Y-109357991D01*
X170149239Y-109360240D01*
X170067410Y-109428902D01*
X170064121Y-109434599D01*
X170017289Y-109515714D01*
X170017288Y-109515717D01*
X170014001Y-109521410D01*
X170012860Y-109527884D01*
X170012859Y-109527885D01*
X169996594Y-109620129D01*
X169995452Y-109626606D01*
X164633379Y-109626606D01*
X164633199Y-108765324D01*
X164633064Y-108117912D01*
X168105456Y-108117912D01*
X168124005Y-108223108D01*
X168127292Y-108228801D01*
X168127293Y-108228804D01*
X168145019Y-108259506D01*
X168177414Y-108315616D01*
X168259242Y-108384278D01*
X168359620Y-108420812D01*
X168466438Y-108420812D01*
X168566816Y-108384278D01*
X168648644Y-108315616D01*
X168681039Y-108259506D01*
X168698765Y-108228804D01*
X168698766Y-108228801D01*
X168702053Y-108223108D01*
X168720602Y-108117912D01*
X168717289Y-108099124D01*
X168703195Y-108019191D01*
X168703194Y-108019190D01*
X168702053Y-108012716D01*
X168698766Y-108007023D01*
X168698765Y-108007020D01*
X168669658Y-107956606D01*
X171875452Y-107956606D01*
X171876594Y-107963083D01*
X171889376Y-108035570D01*
X171894001Y-108061802D01*
X171897288Y-108067495D01*
X171897289Y-108067498D01*
X171915769Y-108099506D01*
X171947410Y-108154310D01*
X172029238Y-108222972D01*
X172129616Y-108259506D01*
X172236434Y-108259506D01*
X172336812Y-108222972D01*
X172418640Y-108154310D01*
X172450281Y-108099506D01*
X172468761Y-108067498D01*
X172468762Y-108067495D01*
X172472049Y-108061802D01*
X172476675Y-108035570D01*
X172489456Y-107963083D01*
X172490598Y-107956606D01*
X172489456Y-107950129D01*
X172473191Y-107857885D01*
X172473190Y-107857884D01*
X172472049Y-107851410D01*
X172468762Y-107845717D01*
X172468761Y-107845714D01*
X172433309Y-107784310D01*
X172418640Y-107758902D01*
X172336905Y-107690318D01*
X189005925Y-107690318D01*
X189007440Y-107695476D01*
X189007440Y-107695479D01*
X189041940Y-107812972D01*
X189044642Y-107822174D01*
X189047550Y-107826699D01*
X189111309Y-107925909D01*
X189118939Y-107937782D01*
X189123000Y-107941301D01*
X189123001Y-107941302D01*
X189140663Y-107956606D01*
X189222796Y-108027775D01*
X189347801Y-108084863D01*
X189379700Y-108089449D01*
X189446987Y-108099124D01*
X189446993Y-108099124D01*
X189449647Y-108099506D01*
X189518003Y-108099506D01*
X189520657Y-108099124D01*
X189520663Y-108099124D01*
X189587950Y-108089449D01*
X189619849Y-108084863D01*
X189744854Y-108027775D01*
X189826987Y-107956606D01*
X189844649Y-107941302D01*
X189844650Y-107941301D01*
X189848711Y-107937782D01*
X189856342Y-107925909D01*
X189920100Y-107826699D01*
X189923008Y-107822174D01*
X189925710Y-107812972D01*
X189960210Y-107695479D01*
X189960210Y-107695476D01*
X189961725Y-107690318D01*
X189961725Y-107552894D01*
X189957571Y-107538744D01*
X189924523Y-107426197D01*
X189924523Y-107426196D01*
X189923008Y-107421038D01*
X189899636Y-107384671D01*
X189851618Y-107309953D01*
X189851617Y-107309952D01*
X189848711Y-107305430D01*
X189744854Y-107215437D01*
X189619849Y-107158349D01*
X189587950Y-107153763D01*
X189520663Y-107144088D01*
X189520657Y-107144088D01*
X189518003Y-107143706D01*
X189449647Y-107143706D01*
X189446993Y-107144088D01*
X189446987Y-107144088D01*
X189379700Y-107153763D01*
X189347801Y-107158349D01*
X189222796Y-107215437D01*
X189118939Y-107305430D01*
X189116033Y-107309952D01*
X189116032Y-107309953D01*
X189068014Y-107384671D01*
X189044642Y-107421038D01*
X189043127Y-107426196D01*
X189043127Y-107426197D01*
X189010080Y-107538744D01*
X189005925Y-107552894D01*
X189005925Y-107690318D01*
X172336905Y-107690318D01*
X172336812Y-107690240D01*
X172236434Y-107653706D01*
X172129616Y-107653706D01*
X172117640Y-107658065D01*
X172035420Y-107687990D01*
X172035419Y-107687991D01*
X172029239Y-107690240D01*
X171947410Y-107758902D01*
X171944121Y-107764599D01*
X171897289Y-107845714D01*
X171897288Y-107845717D01*
X171894001Y-107851410D01*
X171892860Y-107857884D01*
X171892859Y-107857885D01*
X171876594Y-107950129D01*
X171875452Y-107956606D01*
X168669658Y-107956606D01*
X168664833Y-107948249D01*
X168648644Y-107920208D01*
X168566816Y-107851546D01*
X168466438Y-107815012D01*
X168359620Y-107815012D01*
X168327510Y-107826699D01*
X168265424Y-107849296D01*
X168265423Y-107849297D01*
X168259243Y-107851546D01*
X168177414Y-107920208D01*
X168169879Y-107933259D01*
X168127293Y-108007020D01*
X168127292Y-108007023D01*
X168124005Y-108012716D01*
X168122864Y-108019190D01*
X168122863Y-108019191D01*
X168108769Y-108099124D01*
X168105456Y-108117912D01*
X164633064Y-108117912D01*
X164633028Y-107944865D01*
X164633028Y-107944864D01*
X164633025Y-107931606D01*
X157033025Y-107931606D01*
X157033123Y-108404465D01*
X157033632Y-110851089D01*
X157016049Y-110899431D01*
X156971506Y-110925160D01*
X156958432Y-110926305D01*
X143032191Y-110926305D01*
X142983853Y-110908712D01*
X142958133Y-110864163D01*
X142967066Y-110813505D01*
X142983853Y-110793499D01*
X143013604Y-110768535D01*
X143013605Y-110768534D01*
X143018647Y-110764303D01*
X143065443Y-110683250D01*
X143068768Y-110677491D01*
X143068769Y-110677488D01*
X143072056Y-110671795D01*
X143090605Y-110566599D01*
X143072056Y-110461403D01*
X143068769Y-110455710D01*
X143068768Y-110455707D01*
X143021938Y-110374596D01*
X143018647Y-110368895D01*
X142936819Y-110300233D01*
X142836441Y-110263699D01*
X142729623Y-110263699D01*
X142686955Y-110279229D01*
X142635427Y-110297983D01*
X142635426Y-110297984D01*
X142629246Y-110300233D01*
X142547417Y-110368895D01*
X142544128Y-110374592D01*
X142497296Y-110455707D01*
X142497295Y-110455710D01*
X142494008Y-110461403D01*
X142475459Y-110566599D01*
X142494008Y-110671795D01*
X142497295Y-110677488D01*
X142497296Y-110677491D01*
X142500621Y-110683250D01*
X142547417Y-110764303D01*
X142552459Y-110768534D01*
X142552460Y-110768535D01*
X142582211Y-110793499D01*
X142607931Y-110838047D01*
X142598998Y-110888705D01*
X142559592Y-110921770D01*
X142533873Y-110926305D01*
X107111373Y-110926305D01*
X107111365Y-110926302D01*
X107111215Y-110926302D01*
X107070414Y-110926305D01*
X107055752Y-110924862D01*
X107003166Y-110914404D01*
X106976059Y-110903176D01*
X106937765Y-110877590D01*
X106917017Y-110856844D01*
X106891429Y-110818552D01*
X106880199Y-110791443D01*
X106880198Y-110791434D01*
X106869770Y-110739016D01*
X106868325Y-110724345D01*
X106868325Y-109826606D01*
X142655452Y-109826606D01*
X142656594Y-109833083D01*
X142666409Y-109888744D01*
X142674001Y-109931802D01*
X142677288Y-109937495D01*
X142677289Y-109937498D01*
X142703364Y-109982661D01*
X142727410Y-110024310D01*
X142809238Y-110092972D01*
X142909616Y-110129506D01*
X143016434Y-110129506D01*
X143116812Y-110092972D01*
X143198640Y-110024310D01*
X143222686Y-109982661D01*
X143248761Y-109937498D01*
X143248762Y-109937495D01*
X143252049Y-109931802D01*
X143259642Y-109888744D01*
X143269456Y-109833083D01*
X143270598Y-109826606D01*
X143254886Y-109737498D01*
X143253191Y-109727885D01*
X143253190Y-109727884D01*
X143252049Y-109721410D01*
X143248762Y-109715717D01*
X143248761Y-109715714D01*
X143201931Y-109634603D01*
X143198640Y-109628902D01*
X143116812Y-109560240D01*
X143016434Y-109523706D01*
X142909616Y-109523706D01*
X142866948Y-109539236D01*
X142815420Y-109557990D01*
X142815419Y-109557991D01*
X142809239Y-109560240D01*
X142727410Y-109628902D01*
X142724121Y-109634599D01*
X142677289Y-109715714D01*
X142677288Y-109715717D01*
X142674001Y-109721410D01*
X142672860Y-109727884D01*
X142672859Y-109727885D01*
X142671164Y-109737498D01*
X142655452Y-109826606D01*
X106868325Y-109826606D01*
X106868325Y-109096606D01*
X146955452Y-109096606D01*
X146974001Y-109201802D01*
X146977288Y-109207495D01*
X146977289Y-109207498D01*
X147003364Y-109252661D01*
X147027410Y-109294310D01*
X147083887Y-109341700D01*
X147103301Y-109357990D01*
X147109238Y-109362972D01*
X147209616Y-109399506D01*
X147316434Y-109399506D01*
X147416812Y-109362972D01*
X147422750Y-109357990D01*
X147442163Y-109341700D01*
X147498640Y-109294310D01*
X147522686Y-109252661D01*
X147548761Y-109207498D01*
X147548762Y-109207495D01*
X147552049Y-109201802D01*
X147570598Y-109096606D01*
X147552049Y-108991410D01*
X147548762Y-108985717D01*
X147548761Y-108985714D01*
X147501931Y-108904603D01*
X147498640Y-108898902D01*
X147416812Y-108830240D01*
X147316434Y-108793706D01*
X147209616Y-108793706D01*
X147166948Y-108809236D01*
X147115420Y-108827990D01*
X147115419Y-108827991D01*
X147109239Y-108830240D01*
X147027410Y-108898902D01*
X147024121Y-108904599D01*
X146977289Y-108985714D01*
X146977288Y-108985717D01*
X146974001Y-108991410D01*
X146955452Y-109096606D01*
X106868325Y-109096606D01*
X106868325Y-108666603D01*
X142705456Y-108666603D01*
X142724005Y-108771799D01*
X142727292Y-108777492D01*
X142727293Y-108777495D01*
X142736653Y-108793706D01*
X142777414Y-108864307D01*
X142859242Y-108932969D01*
X142959620Y-108969503D01*
X143066438Y-108969503D01*
X143166816Y-108932969D01*
X143248644Y-108864307D01*
X143289405Y-108793706D01*
X143298765Y-108777495D01*
X143298766Y-108777492D01*
X143302053Y-108771799D01*
X143320602Y-108666603D01*
X143302053Y-108561407D01*
X143298766Y-108555714D01*
X143298765Y-108555711D01*
X143251935Y-108474600D01*
X143248644Y-108468899D01*
X143166816Y-108400237D01*
X143066438Y-108363703D01*
X142959620Y-108363703D01*
X142916952Y-108379233D01*
X142865424Y-108397987D01*
X142865423Y-108397988D01*
X142859243Y-108400237D01*
X142777414Y-108468899D01*
X142774125Y-108474596D01*
X142727293Y-108555711D01*
X142727292Y-108555714D01*
X142724005Y-108561407D01*
X142705456Y-108666603D01*
X106868325Y-108666603D01*
X106868325Y-107689213D01*
X106885918Y-107640875D01*
X106890351Y-107636039D01*
X107267458Y-107258932D01*
X107314078Y-107237192D01*
X107320632Y-107236906D01*
X125907601Y-107236906D01*
X125914691Y-107237398D01*
X125920115Y-107239216D01*
X125968344Y-107236986D01*
X125971817Y-107236906D01*
X125991314Y-107236906D01*
X125994734Y-107236267D01*
X125998193Y-107235946D01*
X125998196Y-107235976D01*
X126003506Y-107235360D01*
X126008390Y-107235134D01*
X126027172Y-107234266D01*
X126027173Y-107234266D01*
X126034134Y-107233944D01*
X126040508Y-107231130D01*
X126040511Y-107231129D01*
X126045962Y-107228722D01*
X126062511Y-107223597D01*
X126075222Y-107221221D01*
X126101295Y-107205077D01*
X126110501Y-107200225D01*
X126113232Y-107199019D01*
X126138550Y-107187840D01*
X126147688Y-107178702D01*
X126161274Y-107167940D01*
X126166342Y-107164802D01*
X126166343Y-107164801D01*
X126172267Y-107161133D01*
X126190746Y-107136663D01*
X126197583Y-107128807D01*
X126667458Y-106658932D01*
X126714078Y-106637192D01*
X126720632Y-106636906D01*
X138107601Y-106636906D01*
X138114691Y-106637398D01*
X138120115Y-106639216D01*
X138168344Y-106636986D01*
X138171817Y-106636906D01*
X138191314Y-106636906D01*
X138194734Y-106636267D01*
X138198193Y-106635946D01*
X138198196Y-106635976D01*
X138203506Y-106635360D01*
X138208390Y-106635134D01*
X138227172Y-106634266D01*
X138227173Y-106634266D01*
X138234134Y-106633944D01*
X138240508Y-106631130D01*
X138240511Y-106631129D01*
X138245962Y-106628722D01*
X138262511Y-106623597D01*
X138275222Y-106621221D01*
X138301295Y-106605077D01*
X138310501Y-106600225D01*
X138315800Y-106597885D01*
X138338550Y-106587840D01*
X138347688Y-106578702D01*
X138361274Y-106567940D01*
X138366342Y-106564802D01*
X138366343Y-106564801D01*
X138372267Y-106561133D01*
X138390742Y-106536668D01*
X138397579Y-106528811D01*
X138667460Y-106258931D01*
X138714080Y-106237192D01*
X138720634Y-106236906D01*
X139834925Y-106236906D01*
X139883263Y-106254499D01*
X139908983Y-106299048D01*
X139910125Y-106312106D01*
X139910125Y-107497540D01*
X139913038Y-107534554D01*
X139959061Y-107692965D01*
X139961470Y-107697038D01*
X140038152Y-107826699D01*
X140043033Y-107834953D01*
X140159678Y-107951598D01*
X140301666Y-108035570D01*
X140460077Y-108081593D01*
X140478258Y-108083024D01*
X140495613Y-108084390D01*
X140495621Y-108084390D01*
X140497091Y-108084506D01*
X145628959Y-108084506D01*
X145630429Y-108084390D01*
X145630437Y-108084390D01*
X145647792Y-108083024D01*
X145665973Y-108081593D01*
X145824384Y-108035570D01*
X145966372Y-107951598D01*
X146083017Y-107834953D01*
X146087899Y-107826699D01*
X146164580Y-107697038D01*
X146166989Y-107692965D01*
X146209511Y-107546606D01*
X146395452Y-107546606D01*
X146396594Y-107553083D01*
X146411222Y-107636039D01*
X146414001Y-107651802D01*
X146417288Y-107657495D01*
X146417289Y-107657498D01*
X146435142Y-107688420D01*
X146467410Y-107744310D01*
X146549238Y-107812972D01*
X146649616Y-107849506D01*
X146756434Y-107849506D01*
X146856812Y-107812972D01*
X146938640Y-107744310D01*
X146970908Y-107688420D01*
X146988761Y-107657498D01*
X146988762Y-107657495D01*
X146992049Y-107651802D01*
X146994829Y-107636039D01*
X147003545Y-107586606D01*
X147485452Y-107586606D01*
X147486594Y-107593083D01*
X147502791Y-107684938D01*
X147504001Y-107691802D01*
X147507288Y-107697495D01*
X147507289Y-107697498D01*
X147531025Y-107738609D01*
X147557410Y-107784310D01*
X147639238Y-107852972D01*
X147739616Y-107889506D01*
X147846434Y-107889506D01*
X147946812Y-107852972D01*
X148028640Y-107784310D01*
X148055025Y-107738609D01*
X148078761Y-107697498D01*
X148078762Y-107697495D01*
X148082049Y-107691802D01*
X148083260Y-107684938D01*
X148099456Y-107593083D01*
X148100598Y-107586606D01*
X148084893Y-107497540D01*
X148083191Y-107487885D01*
X148083190Y-107487884D01*
X148082049Y-107481410D01*
X148078762Y-107475717D01*
X148078761Y-107475714D01*
X148049708Y-107425394D01*
X148028640Y-107388902D01*
X147946812Y-107320240D01*
X147846434Y-107283706D01*
X147739616Y-107283706D01*
X147696948Y-107299236D01*
X147645420Y-107317990D01*
X147645419Y-107317991D01*
X147639239Y-107320240D01*
X147634201Y-107324468D01*
X147634200Y-107324468D01*
X147598291Y-107354599D01*
X147557410Y-107388902D01*
X147554121Y-107394599D01*
X147507289Y-107475714D01*
X147507288Y-107475717D01*
X147504001Y-107481410D01*
X147502860Y-107487884D01*
X147502859Y-107487885D01*
X147501157Y-107497540D01*
X147485452Y-107586606D01*
X147003545Y-107586606D01*
X147009456Y-107553083D01*
X147010598Y-107546606D01*
X146992049Y-107441410D01*
X146988762Y-107435717D01*
X146988761Y-107435714D01*
X146941931Y-107354603D01*
X146938640Y-107348902D01*
X146856812Y-107280240D01*
X146846828Y-107276606D01*
X148245452Y-107276606D01*
X148246594Y-107283083D01*
X148251552Y-107311198D01*
X148264001Y-107381802D01*
X148267288Y-107387495D01*
X148267289Y-107387498D01*
X148278060Y-107406153D01*
X148317410Y-107474310D01*
X148346856Y-107499018D01*
X148393599Y-107538240D01*
X148399238Y-107542972D01*
X148499616Y-107579506D01*
X148606434Y-107579506D01*
X148706812Y-107542972D01*
X148712452Y-107538240D01*
X148759194Y-107499018D01*
X148788640Y-107474310D01*
X148827990Y-107406153D01*
X148838761Y-107387498D01*
X148838762Y-107387495D01*
X148842049Y-107381802D01*
X148854499Y-107311198D01*
X148859456Y-107283083D01*
X148860598Y-107276606D01*
X148853132Y-107234266D01*
X148843847Y-107181606D01*
X187548043Y-107181606D01*
X187566676Y-107311198D01*
X187621064Y-107430291D01*
X187706801Y-107529237D01*
X187816942Y-107600020D01*
X187822099Y-107601534D01*
X187822103Y-107601536D01*
X187937400Y-107635390D01*
X187942563Y-107636906D01*
X188073487Y-107636906D01*
X188078650Y-107635390D01*
X188193947Y-107601536D01*
X188193951Y-107601534D01*
X188199108Y-107600020D01*
X188309249Y-107529237D01*
X188394986Y-107430291D01*
X188449374Y-107311198D01*
X188468007Y-107181606D01*
X188449374Y-107052014D01*
X188394986Y-106932921D01*
X188309249Y-106833975D01*
X188199108Y-106763192D01*
X188193951Y-106761678D01*
X188193947Y-106761676D01*
X188078650Y-106727822D01*
X188073487Y-106726306D01*
X187942563Y-106726306D01*
X187937400Y-106727822D01*
X187822103Y-106761676D01*
X187822099Y-106761678D01*
X187816942Y-106763192D01*
X187706801Y-106833975D01*
X187621064Y-106932921D01*
X187566676Y-107052014D01*
X187548043Y-107181606D01*
X148843847Y-107181606D01*
X148843191Y-107177885D01*
X148843190Y-107177884D01*
X148842049Y-107171410D01*
X148838762Y-107165717D01*
X148838761Y-107165714D01*
X148791931Y-107084603D01*
X148788640Y-107078902D01*
X148706812Y-107010240D01*
X148606434Y-106973706D01*
X148499616Y-106973706D01*
X148474158Y-106982972D01*
X148405420Y-107007990D01*
X148405419Y-107007991D01*
X148399239Y-107010240D01*
X148317410Y-107078902D01*
X148314121Y-107084599D01*
X148267289Y-107165714D01*
X148267288Y-107165717D01*
X148264001Y-107171410D01*
X148262860Y-107177884D01*
X148262859Y-107177885D01*
X148252918Y-107234266D01*
X148245452Y-107276606D01*
X146846828Y-107276606D01*
X146756434Y-107243706D01*
X146649616Y-107243706D01*
X146607783Y-107258932D01*
X146555420Y-107277990D01*
X146555419Y-107277991D01*
X146549239Y-107280240D01*
X146544201Y-107284468D01*
X146544200Y-107284468D01*
X146523413Y-107301910D01*
X146467410Y-107348902D01*
X146464121Y-107354599D01*
X146417289Y-107435714D01*
X146417288Y-107435717D01*
X146414001Y-107441410D01*
X146395452Y-107546606D01*
X146209511Y-107546606D01*
X146213012Y-107534554D01*
X146215925Y-107497540D01*
X146215924Y-106736606D01*
X146515452Y-106736606D01*
X146516594Y-106743083D01*
X146529333Y-106815327D01*
X146534001Y-106841802D01*
X146537288Y-106847495D01*
X146537289Y-106847498D01*
X146561025Y-106888609D01*
X146587410Y-106934310D01*
X146669238Y-107002972D01*
X146769616Y-107039506D01*
X146876434Y-107039506D01*
X146976812Y-107002972D01*
X147058640Y-106934310D01*
X147085025Y-106888609D01*
X147108761Y-106847498D01*
X147108762Y-106847495D01*
X147112049Y-106841802D01*
X147116718Y-106815327D01*
X147129456Y-106743083D01*
X147130598Y-106736606D01*
X147128214Y-106723083D01*
X147123545Y-106696606D01*
X147525452Y-106696606D01*
X147526594Y-106703083D01*
X147539806Y-106778009D01*
X147544001Y-106801802D01*
X147547288Y-106807495D01*
X147547289Y-106807498D01*
X147567095Y-106841802D01*
X147597410Y-106894310D01*
X147679238Y-106962972D01*
X147779616Y-106999506D01*
X147886434Y-106999506D01*
X147986812Y-106962972D01*
X148068640Y-106894310D01*
X148098955Y-106841802D01*
X148118761Y-106807498D01*
X148118762Y-106807495D01*
X148122049Y-106801802D01*
X148126245Y-106778009D01*
X148139456Y-106703083D01*
X148140598Y-106696606D01*
X148130244Y-106637885D01*
X148123191Y-106597885D01*
X148123190Y-106597884D01*
X148122049Y-106591410D01*
X148118762Y-106585717D01*
X148118761Y-106585714D01*
X148071931Y-106504603D01*
X148068640Y-106498902D01*
X148006316Y-106446606D01*
X148575452Y-106446606D01*
X148576594Y-106453083D01*
X148592732Y-106544603D01*
X148594001Y-106551802D01*
X148597288Y-106557495D01*
X148597289Y-106557498D01*
X148611962Y-106582912D01*
X148647410Y-106644310D01*
X148729238Y-106712972D01*
X148829616Y-106749506D01*
X148936434Y-106749506D01*
X149036812Y-106712972D01*
X149118640Y-106644310D01*
X149154088Y-106582912D01*
X149168761Y-106557498D01*
X149168762Y-106557495D01*
X149172049Y-106551802D01*
X149173319Y-106544603D01*
X149189456Y-106453083D01*
X149190598Y-106446606D01*
X149187316Y-106427991D01*
X149173191Y-106347885D01*
X149173190Y-106347884D01*
X149172049Y-106341410D01*
X149168762Y-106335717D01*
X149168761Y-106335714D01*
X149142686Y-106290551D01*
X149118640Y-106248902D01*
X149058703Y-106198609D01*
X149041851Y-106184468D01*
X149041850Y-106184467D01*
X149036812Y-106180240D01*
X148982458Y-106160457D01*
X149916622Y-106160457D01*
X149957472Y-106326192D01*
X149959586Y-106330220D01*
X150031894Y-106467991D01*
X150036798Y-106477335D01*
X150149989Y-106605102D01*
X150290469Y-106702068D01*
X150294722Y-106703681D01*
X150294726Y-106703683D01*
X150445820Y-106760985D01*
X150445821Y-106760985D01*
X150450071Y-106762597D01*
X150454580Y-106763144D01*
X150454582Y-106763145D01*
X150500279Y-106768693D01*
X150577001Y-106778009D01*
X150662043Y-106778009D01*
X150738765Y-106768693D01*
X150784462Y-106763145D01*
X150784464Y-106763144D01*
X150788973Y-106762597D01*
X150793223Y-106760985D01*
X150793224Y-106760985D01*
X150910243Y-106716606D01*
X189695452Y-106716606D01*
X189696594Y-106723083D01*
X189709333Y-106795327D01*
X189714001Y-106821802D01*
X189717288Y-106827495D01*
X189717289Y-106827498D01*
X189725548Y-106841802D01*
X189767410Y-106914310D01*
X189849238Y-106982972D01*
X189949616Y-107019506D01*
X190056434Y-107019506D01*
X190156812Y-106982972D01*
X190238640Y-106914310D01*
X190280502Y-106841802D01*
X190288761Y-106827498D01*
X190288762Y-106827495D01*
X190292049Y-106821802D01*
X190296718Y-106795327D01*
X190309456Y-106723083D01*
X190310598Y-106716606D01*
X190308214Y-106703083D01*
X190293191Y-106617885D01*
X190293190Y-106617884D01*
X190292049Y-106611410D01*
X190288762Y-106605717D01*
X190288761Y-106605714D01*
X190241931Y-106524603D01*
X190238640Y-106518902D01*
X190177966Y-106467990D01*
X190161851Y-106454468D01*
X190161850Y-106454467D01*
X190156812Y-106450240D01*
X190056434Y-106413706D01*
X189949616Y-106413706D01*
X189910371Y-106427990D01*
X189855420Y-106447990D01*
X189855419Y-106447991D01*
X189849239Y-106450240D01*
X189844201Y-106454468D01*
X189844200Y-106454468D01*
X189796288Y-106494671D01*
X189767410Y-106518902D01*
X189764121Y-106524599D01*
X189717289Y-106605714D01*
X189717288Y-106605717D01*
X189714001Y-106611410D01*
X189712860Y-106617884D01*
X189712859Y-106617885D01*
X189697836Y-106703083D01*
X189695452Y-106716606D01*
X150910243Y-106716606D01*
X150944318Y-106703683D01*
X150944322Y-106703681D01*
X150948575Y-106702068D01*
X151089055Y-106605102D01*
X151202246Y-106477335D01*
X151207151Y-106467991D01*
X151263920Y-106359826D01*
X180425447Y-106359826D01*
X180426589Y-106366303D01*
X180441390Y-106450240D01*
X180443996Y-106465022D01*
X180447283Y-106470715D01*
X180447284Y-106470718D01*
X180466848Y-106504603D01*
X180497405Y-106557530D01*
X180533527Y-106587840D01*
X180561617Y-106611410D01*
X180579233Y-106626192D01*
X180679611Y-106662726D01*
X180786429Y-106662726D01*
X180886807Y-106626192D01*
X180904424Y-106611410D01*
X180932513Y-106587840D01*
X180968635Y-106557530D01*
X180999192Y-106504603D01*
X181018756Y-106470718D01*
X181018757Y-106470715D01*
X181022044Y-106465022D01*
X181024651Y-106450240D01*
X181039451Y-106366303D01*
X181040593Y-106359826D01*
X181039451Y-106353349D01*
X181023186Y-106261105D01*
X181023185Y-106261104D01*
X181022044Y-106254630D01*
X181018757Y-106248937D01*
X181018756Y-106248934D01*
X180981536Y-106184468D01*
X180968635Y-106162122D01*
X180886807Y-106093460D01*
X180880627Y-106091211D01*
X180875648Y-106088336D01*
X180842584Y-106048930D01*
X180842586Y-105997490D01*
X180875650Y-105958087D01*
X180880623Y-105955216D01*
X180886807Y-105952965D01*
X180968635Y-105884303D01*
X181005761Y-105819998D01*
X181018756Y-105797491D01*
X181018757Y-105797488D01*
X181022044Y-105791795D01*
X181023602Y-105782963D01*
X181039451Y-105693076D01*
X181040593Y-105686599D01*
X181038664Y-105675663D01*
X189107100Y-105675663D01*
X189125733Y-105805255D01*
X189180121Y-105924348D01*
X189265858Y-106023294D01*
X189375999Y-106094077D01*
X189381156Y-106095591D01*
X189381160Y-106095593D01*
X189478894Y-106124290D01*
X189501620Y-106130963D01*
X189632544Y-106130963D01*
X189655270Y-106124290D01*
X189753004Y-106095593D01*
X189753008Y-106095591D01*
X189758165Y-106094077D01*
X189868306Y-106023294D01*
X189954043Y-105924348D01*
X190008431Y-105805255D01*
X190027064Y-105675663D01*
X190024939Y-105660880D01*
X190009196Y-105551393D01*
X190008431Y-105546071D01*
X189954043Y-105426978D01*
X189868306Y-105328032D01*
X189758165Y-105257249D01*
X189753008Y-105255735D01*
X189753004Y-105255733D01*
X189637707Y-105221879D01*
X189632544Y-105220363D01*
X189501620Y-105220363D01*
X189496457Y-105221879D01*
X189381160Y-105255733D01*
X189381156Y-105255735D01*
X189375999Y-105257249D01*
X189265858Y-105328032D01*
X189180121Y-105426978D01*
X189125733Y-105546071D01*
X189124968Y-105551393D01*
X189109226Y-105660880D01*
X189107100Y-105675663D01*
X181038664Y-105675663D01*
X181038613Y-105675372D01*
X181023186Y-105587878D01*
X181023185Y-105587877D01*
X181022044Y-105581403D01*
X181018757Y-105575710D01*
X181018756Y-105575707D01*
X180985433Y-105517990D01*
X180968635Y-105488895D01*
X180901193Y-105432304D01*
X180891846Y-105424461D01*
X180891845Y-105424460D01*
X180886807Y-105420233D01*
X180786429Y-105383699D01*
X180679611Y-105383699D01*
X180646446Y-105395770D01*
X180585415Y-105417983D01*
X180585414Y-105417984D01*
X180579234Y-105420233D01*
X180574196Y-105424461D01*
X180574195Y-105424461D01*
X180567528Y-105430055D01*
X180497405Y-105488895D01*
X180490436Y-105500966D01*
X180447284Y-105575707D01*
X180447283Y-105575710D01*
X180443996Y-105581403D01*
X180442855Y-105587877D01*
X180442854Y-105587878D01*
X180427427Y-105675372D01*
X180425447Y-105686599D01*
X180426589Y-105693076D01*
X180442439Y-105782963D01*
X180443996Y-105791795D01*
X180447283Y-105797488D01*
X180447284Y-105797491D01*
X180460279Y-105819998D01*
X180497405Y-105884303D01*
X180579233Y-105952965D01*
X180585413Y-105955214D01*
X180590392Y-105958089D01*
X180623456Y-105997495D01*
X180623454Y-106048935D01*
X180590390Y-106088338D01*
X180585415Y-106091210D01*
X180579234Y-106093460D01*
X180574196Y-106097688D01*
X180574195Y-106097688D01*
X180534539Y-106130963D01*
X180497405Y-106162122D01*
X180494116Y-106167819D01*
X180447284Y-106248934D01*
X180447283Y-106248937D01*
X180443996Y-106254630D01*
X180442855Y-106261104D01*
X180442854Y-106261105D01*
X180426589Y-106353349D01*
X180425447Y-106359826D01*
X151263920Y-106359826D01*
X151279458Y-106330220D01*
X151281572Y-106326192D01*
X151322422Y-106160457D01*
X151322422Y-105989761D01*
X151281572Y-105824026D01*
X151264656Y-105791795D01*
X151215780Y-105698670D01*
X170927757Y-105698670D01*
X170928899Y-105705147D01*
X170944405Y-105793083D01*
X170946306Y-105803866D01*
X170949593Y-105809559D01*
X170949594Y-105809562D01*
X170975669Y-105854725D01*
X170999715Y-105896374D01*
X171056192Y-105943764D01*
X171074823Y-105959397D01*
X171081543Y-105965036D01*
X171181921Y-106001570D01*
X171288739Y-106001570D01*
X171389117Y-105965036D01*
X171395838Y-105959397D01*
X171414468Y-105943764D01*
X171470945Y-105896374D01*
X171494991Y-105854725D01*
X171521066Y-105809562D01*
X171521067Y-105809559D01*
X171524354Y-105803866D01*
X171526256Y-105793083D01*
X171541761Y-105705147D01*
X171542903Y-105698670D01*
X171541761Y-105692193D01*
X171525496Y-105599949D01*
X171525495Y-105599948D01*
X171524354Y-105593474D01*
X171521067Y-105587781D01*
X171521066Y-105587778D01*
X171483709Y-105523074D01*
X171479970Y-105516597D01*
X171755462Y-105516597D01*
X171756604Y-105523074D01*
X171769217Y-105594603D01*
X171774011Y-105621793D01*
X171777298Y-105627486D01*
X171777299Y-105627489D01*
X171803374Y-105672652D01*
X171827420Y-105714301D01*
X171909248Y-105782963D01*
X172009626Y-105819497D01*
X172116444Y-105819497D01*
X172216822Y-105782963D01*
X172298650Y-105714301D01*
X172322696Y-105672652D01*
X172348771Y-105627489D01*
X172348772Y-105627486D01*
X172352059Y-105621793D01*
X172356854Y-105594603D01*
X172369466Y-105523074D01*
X172370608Y-105516597D01*
X172364977Y-105484664D01*
X172353201Y-105417876D01*
X172353200Y-105417875D01*
X172352059Y-105411401D01*
X172348772Y-105405708D01*
X172348771Y-105405705D01*
X172303926Y-105328032D01*
X172298650Y-105318893D01*
X172216822Y-105250231D01*
X172116444Y-105213697D01*
X172009626Y-105213697D01*
X171987358Y-105221802D01*
X171915430Y-105247981D01*
X171915429Y-105247982D01*
X171909249Y-105250231D01*
X171827420Y-105318893D01*
X171824131Y-105324590D01*
X171777299Y-105405705D01*
X171777298Y-105405708D01*
X171774011Y-105411401D01*
X171772870Y-105417875D01*
X171772869Y-105417876D01*
X171761093Y-105484664D01*
X171755462Y-105516597D01*
X171479970Y-105516597D01*
X171470945Y-105500966D01*
X171411085Y-105450737D01*
X171394156Y-105436532D01*
X171394155Y-105436531D01*
X171389117Y-105432304D01*
X171288739Y-105395770D01*
X171181921Y-105395770D01*
X171154625Y-105405705D01*
X171087725Y-105430054D01*
X171087724Y-105430055D01*
X171081544Y-105432304D01*
X170999715Y-105500966D01*
X170996426Y-105506663D01*
X170949594Y-105587778D01*
X170949593Y-105587781D01*
X170946306Y-105593474D01*
X170945165Y-105599948D01*
X170945164Y-105599949D01*
X170928899Y-105692193D01*
X170927757Y-105698670D01*
X151215780Y-105698670D01*
X151204360Y-105676910D01*
X151204358Y-105676907D01*
X151202246Y-105672883D01*
X151089055Y-105545116D01*
X150948575Y-105448150D01*
X150944322Y-105446537D01*
X150944318Y-105446535D01*
X150793224Y-105389233D01*
X150793223Y-105389233D01*
X150788973Y-105387621D01*
X150784464Y-105387074D01*
X150784462Y-105387073D01*
X150738765Y-105381525D01*
X150662043Y-105372209D01*
X150577001Y-105372209D01*
X150500279Y-105381525D01*
X150454582Y-105387073D01*
X150454580Y-105387074D01*
X150450071Y-105387621D01*
X150445821Y-105389233D01*
X150445820Y-105389233D01*
X150294726Y-105446535D01*
X150294722Y-105446537D01*
X150290469Y-105448150D01*
X150149989Y-105545116D01*
X150036798Y-105672883D01*
X150034686Y-105676907D01*
X150034684Y-105676910D01*
X149974388Y-105791795D01*
X149957472Y-105824026D01*
X149916622Y-105989761D01*
X149916622Y-106160457D01*
X148982458Y-106160457D01*
X148936434Y-106143706D01*
X148829616Y-106143706D01*
X148797020Y-106155570D01*
X148735420Y-106177990D01*
X148735419Y-106177991D01*
X148729239Y-106180240D01*
X148647410Y-106248902D01*
X148644121Y-106254599D01*
X148597289Y-106335714D01*
X148597288Y-106335717D01*
X148594001Y-106341410D01*
X148592860Y-106347884D01*
X148592859Y-106347885D01*
X148578734Y-106427991D01*
X148575452Y-106446606D01*
X148006316Y-106446606D01*
X147986812Y-106430240D01*
X147886434Y-106393706D01*
X147779616Y-106393706D01*
X147736948Y-106409236D01*
X147685420Y-106427990D01*
X147685419Y-106427991D01*
X147679239Y-106430240D01*
X147674201Y-106434468D01*
X147674200Y-106434468D01*
X147650365Y-106454468D01*
X147597410Y-106498902D01*
X147594121Y-106504599D01*
X147547289Y-106585714D01*
X147547288Y-106585717D01*
X147544001Y-106591410D01*
X147542860Y-106597884D01*
X147542859Y-106597885D01*
X147535806Y-106637885D01*
X147525452Y-106696606D01*
X147123545Y-106696606D01*
X147113191Y-106637885D01*
X147113190Y-106637884D01*
X147112049Y-106631410D01*
X147108762Y-106625717D01*
X147108761Y-106625714D01*
X147073593Y-106564802D01*
X147058640Y-106538902D01*
X146989323Y-106480738D01*
X146981851Y-106474468D01*
X146981850Y-106474467D01*
X146976812Y-106470240D01*
X146876434Y-106433706D01*
X146769616Y-106433706D01*
X146751969Y-106440129D01*
X146675420Y-106467990D01*
X146675419Y-106467991D01*
X146669239Y-106470240D01*
X146664201Y-106474468D01*
X146664200Y-106474468D01*
X146628291Y-106504599D01*
X146587410Y-106538902D01*
X146584121Y-106544599D01*
X146537289Y-106625714D01*
X146537288Y-106625717D01*
X146534001Y-106631410D01*
X146532860Y-106637884D01*
X146532859Y-106637885D01*
X146517836Y-106723083D01*
X146515452Y-106736606D01*
X146215924Y-106736606D01*
X146215924Y-106312106D01*
X146233517Y-106263768D01*
X146278066Y-106238048D01*
X146291124Y-106236906D01*
X147509951Y-106236906D01*
X147520720Y-106238408D01*
X147520728Y-106238319D01*
X147527665Y-106238962D01*
X147534368Y-106240869D01*
X147541307Y-106240226D01*
X147573674Y-106237227D01*
X147580612Y-106236906D01*
X147591314Y-106236906D01*
X147601845Y-106234937D01*
X147608705Y-106233981D01*
X147627132Y-106232273D01*
X147641083Y-106230981D01*
X147641084Y-106230981D01*
X147648021Y-106230338D01*
X147654257Y-106227233D01*
X147660962Y-106225325D01*
X147660986Y-106225410D01*
X147661905Y-106225102D01*
X147661873Y-106225019D01*
X147668371Y-106222502D01*
X147675222Y-106221221D01*
X147708804Y-106200427D01*
X147714842Y-106197065D01*
X147750196Y-106179461D01*
X147754890Y-106174312D01*
X147760452Y-106170112D01*
X147760506Y-106170183D01*
X147761254Y-106169562D01*
X147761193Y-106169495D01*
X147766340Y-106164803D01*
X147772267Y-106161133D01*
X147796055Y-106129632D01*
X147800491Y-106124290D01*
X147822402Y-106100255D01*
X147822403Y-106100254D01*
X147827092Y-106095110D01*
X147829607Y-106088618D01*
X147833278Y-106082689D01*
X147833353Y-106082735D01*
X147833827Y-106081884D01*
X147833747Y-106081844D01*
X147836852Y-106075609D01*
X147841052Y-106070047D01*
X147842959Y-106063345D01*
X147842960Y-106063343D01*
X147851855Y-106032078D01*
X147854058Y-106025503D01*
X147861613Y-106006002D01*
X147895481Y-105967285D01*
X147946312Y-105959397D01*
X147986869Y-105983372D01*
X147987410Y-105984310D01*
X148069238Y-106052972D01*
X148169616Y-106089506D01*
X148276434Y-106089506D01*
X148376812Y-106052972D01*
X148458640Y-105984310D01*
X148496086Y-105919451D01*
X148508761Y-105897498D01*
X148508762Y-105897495D01*
X148512049Y-105891802D01*
X148513372Y-105884303D01*
X148529456Y-105793083D01*
X148530598Y-105786606D01*
X148517849Y-105714301D01*
X148513191Y-105687885D01*
X148513190Y-105687884D01*
X148512049Y-105681410D01*
X148508762Y-105675717D01*
X148508761Y-105675714D01*
X148477629Y-105621793D01*
X148458640Y-105588902D01*
X148398864Y-105538744D01*
X148381851Y-105524468D01*
X148381850Y-105524467D01*
X148376812Y-105520240D01*
X148276434Y-105483706D01*
X148169616Y-105483706D01*
X148126948Y-105499236D01*
X148075420Y-105517990D01*
X148075419Y-105517991D01*
X148069239Y-105520240D01*
X148064201Y-105524468D01*
X148064200Y-105524468D01*
X147991862Y-105585166D01*
X147943524Y-105602759D01*
X147895187Y-105585165D01*
X147869467Y-105540617D01*
X147868325Y-105527559D01*
X147868325Y-105116606D01*
X148605452Y-105116606D01*
X148606594Y-105123083D01*
X148613174Y-105160397D01*
X148624001Y-105221802D01*
X148627288Y-105227495D01*
X148627289Y-105227498D01*
X148651902Y-105270129D01*
X148677410Y-105314310D01*
X148759238Y-105382972D01*
X148859616Y-105419506D01*
X148966434Y-105419506D01*
X149066812Y-105382972D01*
X149148640Y-105314310D01*
X149170408Y-105276606D01*
X155895452Y-105276606D01*
X155896594Y-105283083D01*
X155903914Y-105324594D01*
X155914001Y-105381802D01*
X155917288Y-105387495D01*
X155917289Y-105387498D01*
X155934828Y-105417876D01*
X155967410Y-105474310D01*
X156010087Y-105510120D01*
X156030870Y-105527559D01*
X156049238Y-105542972D01*
X156149616Y-105579506D01*
X156256434Y-105579506D01*
X156356812Y-105542972D01*
X156375181Y-105527559D01*
X156395963Y-105510120D01*
X156438640Y-105474310D01*
X156471222Y-105417876D01*
X156488761Y-105387498D01*
X156488762Y-105387495D01*
X156492049Y-105381802D01*
X156497233Y-105352404D01*
X164819184Y-105352404D01*
X164820326Y-105358881D01*
X164836067Y-105448150D01*
X164837733Y-105457600D01*
X164841020Y-105463293D01*
X164841021Y-105463296D01*
X164862770Y-105500966D01*
X164891142Y-105550108D01*
X164972970Y-105618770D01*
X165073348Y-105655304D01*
X165180166Y-105655304D01*
X165280544Y-105618770D01*
X165362372Y-105550108D01*
X165390744Y-105500966D01*
X165412493Y-105463296D01*
X165412494Y-105463293D01*
X165415781Y-105457600D01*
X165417448Y-105448150D01*
X165433188Y-105358881D01*
X165434330Y-105352404D01*
X165428359Y-105318541D01*
X165416923Y-105253683D01*
X165416922Y-105253682D01*
X165415781Y-105247208D01*
X165412494Y-105241515D01*
X165412493Y-105241512D01*
X165375758Y-105177885D01*
X165362372Y-105154700D01*
X165280544Y-105086038D01*
X165180166Y-105049504D01*
X165073348Y-105049504D01*
X165030680Y-105065034D01*
X164979152Y-105083788D01*
X164979151Y-105083789D01*
X164972971Y-105086038D01*
X164891142Y-105154700D01*
X164887853Y-105160397D01*
X164841021Y-105241512D01*
X164841020Y-105241515D01*
X164837733Y-105247208D01*
X164836592Y-105253682D01*
X164836591Y-105253683D01*
X164825155Y-105318541D01*
X164819184Y-105352404D01*
X156497233Y-105352404D01*
X156502137Y-105324594D01*
X156509456Y-105283083D01*
X156510598Y-105276606D01*
X156499793Y-105215327D01*
X156493191Y-105177885D01*
X156493190Y-105177884D01*
X156492049Y-105171410D01*
X156488762Y-105165717D01*
X156488761Y-105165714D01*
X156453309Y-105104310D01*
X156438640Y-105078902D01*
X156356812Y-105010240D01*
X156256434Y-104973706D01*
X156149616Y-104973706D01*
X156106948Y-104989236D01*
X156055420Y-105007990D01*
X156055419Y-105007991D01*
X156049239Y-105010240D01*
X156044201Y-105014468D01*
X156044200Y-105014468D01*
X155999763Y-105051755D01*
X155967410Y-105078902D01*
X155964121Y-105084599D01*
X155917289Y-105165714D01*
X155917288Y-105165717D01*
X155914001Y-105171410D01*
X155912860Y-105177884D01*
X155912859Y-105177885D01*
X155906257Y-105215327D01*
X155895452Y-105276606D01*
X149170408Y-105276606D01*
X149174148Y-105270129D01*
X149198761Y-105227498D01*
X149198762Y-105227495D01*
X149202049Y-105221802D01*
X149212877Y-105160397D01*
X149219456Y-105123083D01*
X149220598Y-105116606D01*
X149214954Y-105084599D01*
X149203191Y-105017885D01*
X149203190Y-105017884D01*
X149202049Y-105011410D01*
X149198762Y-105005717D01*
X149198761Y-105005714D01*
X149171916Y-104959217D01*
X149148640Y-104918902D01*
X149133986Y-104906606D01*
X174395452Y-104906606D01*
X174396594Y-104913083D01*
X174407681Y-104975957D01*
X174414001Y-105011802D01*
X174417288Y-105017495D01*
X174417289Y-105017498D01*
X174435768Y-105049504D01*
X174467410Y-105104310D01*
X174549238Y-105172972D01*
X174649616Y-105209506D01*
X174756434Y-105209506D01*
X174856812Y-105172972D01*
X174938640Y-105104310D01*
X174970282Y-105049504D01*
X174988761Y-105017498D01*
X174988762Y-105017495D01*
X174992049Y-105011802D01*
X174998370Y-104975957D01*
X175009456Y-104913083D01*
X175010598Y-104906606D01*
X175009456Y-104900129D01*
X174993191Y-104807885D01*
X174993190Y-104807884D01*
X174992049Y-104801410D01*
X174988762Y-104795717D01*
X174988761Y-104795714D01*
X174941931Y-104714603D01*
X174938640Y-104708902D01*
X174888234Y-104666606D01*
X189115452Y-104666606D01*
X189116594Y-104673083D01*
X189126391Y-104728641D01*
X189134001Y-104771802D01*
X189137288Y-104777495D01*
X189137289Y-104777498D01*
X189147806Y-104795714D01*
X189187410Y-104864310D01*
X189269238Y-104932972D01*
X189369616Y-104969506D01*
X189476434Y-104969506D01*
X189576812Y-104932972D01*
X189658640Y-104864310D01*
X189698244Y-104795714D01*
X189708761Y-104777498D01*
X189708762Y-104777495D01*
X189712049Y-104771802D01*
X189719660Y-104728641D01*
X189729456Y-104673083D01*
X189730598Y-104666606D01*
X189729456Y-104660129D01*
X189713191Y-104567885D01*
X189713190Y-104567884D01*
X189712049Y-104561410D01*
X189708762Y-104555717D01*
X189708761Y-104555714D01*
X189675621Y-104498315D01*
X189658640Y-104468902D01*
X189576812Y-104400240D01*
X189476434Y-104363706D01*
X189369616Y-104363706D01*
X189326948Y-104379236D01*
X189275420Y-104397990D01*
X189275419Y-104397991D01*
X189269239Y-104400240D01*
X189264203Y-104404466D01*
X189264200Y-104404468D01*
X189243890Y-104421510D01*
X189187410Y-104468902D01*
X189184121Y-104474599D01*
X189137289Y-104555714D01*
X189137288Y-104555717D01*
X189134001Y-104561410D01*
X189132860Y-104567884D01*
X189132859Y-104567885D01*
X189116594Y-104660129D01*
X189115452Y-104666606D01*
X174888234Y-104666606D01*
X174856812Y-104640240D01*
X174756434Y-104603706D01*
X174649616Y-104603706D01*
X174606948Y-104619236D01*
X174555420Y-104637990D01*
X174555419Y-104637991D01*
X174549239Y-104640240D01*
X174467410Y-104708902D01*
X174464121Y-104714599D01*
X174417289Y-104795714D01*
X174417288Y-104795717D01*
X174414001Y-104801410D01*
X174412860Y-104807884D01*
X174412859Y-104807885D01*
X174396594Y-104900129D01*
X174395452Y-104906606D01*
X149133986Y-104906606D01*
X149066812Y-104850240D01*
X148966434Y-104813706D01*
X148859616Y-104813706D01*
X148816948Y-104829236D01*
X148765420Y-104847990D01*
X148765419Y-104847991D01*
X148759239Y-104850240D01*
X148754201Y-104854468D01*
X148754200Y-104854468D01*
X148717624Y-104885159D01*
X148677410Y-104918902D01*
X148674121Y-104924599D01*
X148627289Y-105005714D01*
X148627288Y-105005717D01*
X148624001Y-105011410D01*
X148622860Y-105017884D01*
X148622859Y-105017885D01*
X148611096Y-105084599D01*
X148605452Y-105116606D01*
X147868325Y-105116606D01*
X147868325Y-104959217D01*
X147885918Y-104910879D01*
X147930467Y-104885159D01*
X147981125Y-104894092D01*
X147991862Y-104901610D01*
X148029238Y-104932972D01*
X148129616Y-104969506D01*
X148236434Y-104969506D01*
X148336812Y-104932972D01*
X148418640Y-104864310D01*
X148458244Y-104795714D01*
X148468761Y-104777498D01*
X148468762Y-104777495D01*
X148472049Y-104771802D01*
X148479660Y-104728641D01*
X148489456Y-104673083D01*
X148490598Y-104666606D01*
X148489456Y-104660129D01*
X148473191Y-104567885D01*
X148473190Y-104567884D01*
X148472049Y-104561410D01*
X148468762Y-104555717D01*
X148468761Y-104555714D01*
X148452013Y-104526706D01*
X155544522Y-104526706D01*
X155545664Y-104533183D01*
X155551883Y-104568450D01*
X155563071Y-104631902D01*
X155566358Y-104637595D01*
X155566359Y-104637598D01*
X155583107Y-104666606D01*
X155616480Y-104724410D01*
X155698308Y-104793072D01*
X155798686Y-104829606D01*
X155905504Y-104829606D01*
X156005882Y-104793072D01*
X156087710Y-104724410D01*
X156121083Y-104666606D01*
X156137831Y-104637598D01*
X156137832Y-104637595D01*
X156141119Y-104631902D01*
X156152308Y-104568450D01*
X156158526Y-104533183D01*
X156159668Y-104526706D01*
X156152891Y-104488272D01*
X156142261Y-104427985D01*
X156142260Y-104427984D01*
X156141119Y-104421510D01*
X156137832Y-104415817D01*
X156137831Y-104415814D01*
X156091001Y-104334703D01*
X156087710Y-104329002D01*
X156005882Y-104260340D01*
X155905504Y-104223806D01*
X155798686Y-104223806D01*
X155786111Y-104228383D01*
X155704490Y-104258090D01*
X155704489Y-104258091D01*
X155698309Y-104260340D01*
X155616480Y-104329002D01*
X155613191Y-104334699D01*
X155566359Y-104415814D01*
X155566358Y-104415817D01*
X155563071Y-104421510D01*
X155561930Y-104427984D01*
X155561929Y-104427985D01*
X155551299Y-104488272D01*
X155544522Y-104526706D01*
X148452013Y-104526706D01*
X148435621Y-104498315D01*
X148418640Y-104468902D01*
X148336812Y-104400240D01*
X148236434Y-104363706D01*
X148129616Y-104363706D01*
X148086948Y-104379236D01*
X148035420Y-104397990D01*
X148035419Y-104397991D01*
X148029239Y-104400240D01*
X147991861Y-104431604D01*
X147943525Y-104449196D01*
X147895187Y-104431603D01*
X147869467Y-104387054D01*
X147868325Y-104373996D01*
X147868325Y-104221906D01*
X156295452Y-104221906D01*
X156296594Y-104228383D01*
X156302975Y-104264568D01*
X156314001Y-104327102D01*
X156317288Y-104332795D01*
X156317289Y-104332798D01*
X156318387Y-104334699D01*
X156367410Y-104419610D01*
X156449238Y-104488272D01*
X156549616Y-104524806D01*
X156656434Y-104524806D01*
X156756812Y-104488272D01*
X156838640Y-104419610D01*
X156887663Y-104334699D01*
X156888761Y-104332798D01*
X156888762Y-104332795D01*
X156892049Y-104327102D01*
X156895715Y-104306312D01*
X158405450Y-104306312D01*
X158406592Y-104312789D01*
X158422758Y-104404468D01*
X158423999Y-104411508D01*
X158427286Y-104417201D01*
X158427287Y-104417204D01*
X158445758Y-104449196D01*
X158477408Y-104504016D01*
X158559236Y-104572678D01*
X158659614Y-104609212D01*
X158766432Y-104609212D01*
X158866810Y-104572678D01*
X158948638Y-104504016D01*
X158980288Y-104449196D01*
X158998759Y-104417204D01*
X158998760Y-104417201D01*
X159002047Y-104411508D01*
X159003289Y-104404468D01*
X159019454Y-104312789D01*
X159020596Y-104306312D01*
X159019454Y-104299835D01*
X159003189Y-104207591D01*
X159003188Y-104207590D01*
X159002047Y-104201116D01*
X158998760Y-104195423D01*
X158998759Y-104195420D01*
X158957054Y-104123185D01*
X158948638Y-104108608D01*
X158866810Y-104039946D01*
X158766432Y-104003412D01*
X158659614Y-104003412D01*
X158616946Y-104018942D01*
X158565418Y-104037696D01*
X158565417Y-104037697D01*
X158559237Y-104039946D01*
X158554199Y-104044174D01*
X158554198Y-104044174D01*
X158516103Y-104076139D01*
X158477408Y-104108608D01*
X158474119Y-104114305D01*
X158427287Y-104195420D01*
X158427286Y-104195423D01*
X158423999Y-104201116D01*
X158422858Y-104207590D01*
X158422857Y-104207591D01*
X158406592Y-104299835D01*
X158405450Y-104306312D01*
X156895715Y-104306312D01*
X156903076Y-104264568D01*
X156909456Y-104228383D01*
X156910598Y-104221906D01*
X156905928Y-104195420D01*
X156893191Y-104123185D01*
X156893190Y-104123184D01*
X156892049Y-104116710D01*
X156888762Y-104111017D01*
X156888761Y-104111014D01*
X156862686Y-104065851D01*
X156838640Y-104024202D01*
X156756812Y-103955540D01*
X156656434Y-103919006D01*
X156549616Y-103919006D01*
X156506948Y-103934536D01*
X156455420Y-103953290D01*
X156455419Y-103953291D01*
X156449239Y-103955540D01*
X156367410Y-104024202D01*
X156364121Y-104029899D01*
X156317289Y-104111014D01*
X156317288Y-104111017D01*
X156314001Y-104116710D01*
X156312860Y-104123184D01*
X156312859Y-104123185D01*
X156300122Y-104195420D01*
X156295452Y-104221906D01*
X147868325Y-104221906D01*
X147868325Y-103584680D01*
X147869827Y-103573911D01*
X147869738Y-103573903D01*
X147870381Y-103566966D01*
X147872288Y-103560263D01*
X147868646Y-103520957D01*
X147868325Y-103514019D01*
X147868325Y-103503317D01*
X147866356Y-103492786D01*
X147865399Y-103485921D01*
X147864244Y-103473451D01*
X152603628Y-103473451D01*
X152644478Y-103639186D01*
X152646592Y-103643214D01*
X152711817Y-103767489D01*
X152723804Y-103790329D01*
X152836995Y-103918096D01*
X152977475Y-104015062D01*
X152981728Y-104016675D01*
X152981732Y-104016677D01*
X153132826Y-104073979D01*
X153132827Y-104073979D01*
X153137077Y-104075591D01*
X153141586Y-104076138D01*
X153141588Y-104076139D01*
X153187285Y-104081687D01*
X153264007Y-104091003D01*
X153349049Y-104091003D01*
X153425771Y-104081687D01*
X153471468Y-104076139D01*
X153471470Y-104076138D01*
X153475979Y-104075591D01*
X153480229Y-104073979D01*
X153480230Y-104073979D01*
X153631324Y-104016677D01*
X153631328Y-104016675D01*
X153635581Y-104015062D01*
X153776061Y-103918096D01*
X153889252Y-103790329D01*
X153901240Y-103767489D01*
X153966464Y-103643214D01*
X153968578Y-103639186D01*
X153974143Y-103616606D01*
X157015452Y-103616606D01*
X157016594Y-103623083D01*
X157032321Y-103712272D01*
X157034001Y-103721802D01*
X157037288Y-103727495D01*
X157037289Y-103727498D01*
X157051704Y-103752465D01*
X157087410Y-103814310D01*
X157169238Y-103882972D01*
X157269616Y-103919506D01*
X157376434Y-103919506D01*
X157476812Y-103882972D01*
X157558640Y-103814310D01*
X157594346Y-103752465D01*
X157608761Y-103727498D01*
X157608762Y-103727495D01*
X157612049Y-103721802D01*
X157613730Y-103712272D01*
X157617374Y-103691606D01*
X189073043Y-103691606D01*
X189091676Y-103821198D01*
X189146064Y-103940291D01*
X189231801Y-104039237D01*
X189341942Y-104110020D01*
X189347099Y-104111534D01*
X189347103Y-104111536D01*
X189462400Y-104145390D01*
X189467563Y-104146906D01*
X189598487Y-104146906D01*
X189603650Y-104145390D01*
X189718947Y-104111536D01*
X189718951Y-104111534D01*
X189724108Y-104110020D01*
X189834249Y-104039237D01*
X189919986Y-103940291D01*
X189974374Y-103821198D01*
X189993007Y-103691606D01*
X189974374Y-103562014D01*
X189919986Y-103442921D01*
X189834249Y-103343975D01*
X189724108Y-103273192D01*
X189718951Y-103271678D01*
X189718947Y-103271676D01*
X189603650Y-103237822D01*
X189598487Y-103236306D01*
X189467563Y-103236306D01*
X189462400Y-103237822D01*
X189347103Y-103271676D01*
X189347099Y-103271678D01*
X189341942Y-103273192D01*
X189231801Y-103343975D01*
X189146064Y-103442921D01*
X189091676Y-103562014D01*
X189073043Y-103691606D01*
X157617374Y-103691606D01*
X157629456Y-103623083D01*
X157630598Y-103616606D01*
X157619440Y-103553324D01*
X157613191Y-103517885D01*
X157613190Y-103517884D01*
X157612049Y-103511410D01*
X157608762Y-103505717D01*
X157608761Y-103505714D01*
X157570158Y-103438852D01*
X157558640Y-103418902D01*
X157476812Y-103350240D01*
X157376434Y-103313706D01*
X157269616Y-103313706D01*
X157226948Y-103329236D01*
X157175420Y-103347990D01*
X157175419Y-103347991D01*
X157169239Y-103350240D01*
X157164201Y-103354468D01*
X157164200Y-103354468D01*
X157105773Y-103403494D01*
X157087410Y-103418902D01*
X157075892Y-103438852D01*
X157037289Y-103505714D01*
X157037288Y-103505717D01*
X157034001Y-103511410D01*
X157032860Y-103517884D01*
X157032859Y-103517885D01*
X157026610Y-103553324D01*
X157015452Y-103616606D01*
X153974143Y-103616606D01*
X154009428Y-103473451D01*
X154009428Y-103302755D01*
X153974465Y-103160906D01*
X156285452Y-103160906D01*
X156286594Y-103167383D01*
X156296743Y-103224938D01*
X156304001Y-103266102D01*
X156307288Y-103271795D01*
X156307289Y-103271798D01*
X156321539Y-103296479D01*
X156357410Y-103358610D01*
X156367992Y-103367489D01*
X156422809Y-103413486D01*
X156439238Y-103427272D01*
X156539616Y-103463806D01*
X156646434Y-103463806D01*
X156746812Y-103427272D01*
X156763242Y-103413486D01*
X156818058Y-103367489D01*
X156828640Y-103358610D01*
X156864511Y-103296479D01*
X156878761Y-103271798D01*
X156878762Y-103271795D01*
X156882049Y-103266102D01*
X156889308Y-103224938D01*
X156899456Y-103167383D01*
X156900598Y-103160906D01*
X156882049Y-103055710D01*
X156878762Y-103050017D01*
X156878761Y-103050014D01*
X156841731Y-102985877D01*
X156828640Y-102963202D01*
X156746812Y-102894540D01*
X156646434Y-102858006D01*
X156539616Y-102858006D01*
X156513424Y-102867539D01*
X156445420Y-102892290D01*
X156445419Y-102892291D01*
X156439239Y-102894540D01*
X156434201Y-102898768D01*
X156434200Y-102898768D01*
X156372021Y-102950942D01*
X156357410Y-102963202D01*
X156354121Y-102968899D01*
X156307289Y-103050014D01*
X156307288Y-103050017D01*
X156304001Y-103055710D01*
X156285452Y-103160906D01*
X153974465Y-103160906D01*
X153968578Y-103137020D01*
X153889252Y-102985877D01*
X153776061Y-102858110D01*
X153635581Y-102761144D01*
X153631328Y-102759531D01*
X153631324Y-102759529D01*
X153480230Y-102702227D01*
X153480229Y-102702227D01*
X153475979Y-102700615D01*
X153471470Y-102700068D01*
X153471468Y-102700067D01*
X153425771Y-102694519D01*
X153349049Y-102685203D01*
X153264007Y-102685203D01*
X153187285Y-102694519D01*
X153141588Y-102700067D01*
X153141586Y-102700068D01*
X153137077Y-102700615D01*
X153132827Y-102702227D01*
X153132826Y-102702227D01*
X152981732Y-102759529D01*
X152981728Y-102759531D01*
X152977475Y-102761144D01*
X152836995Y-102858110D01*
X152723804Y-102985877D01*
X152644478Y-103137020D01*
X152603628Y-103302755D01*
X152603628Y-103473451D01*
X147864244Y-103473451D01*
X147862400Y-103453548D01*
X147862400Y-103453547D01*
X147861757Y-103446610D01*
X147858652Y-103440374D01*
X147856744Y-103433669D01*
X147856829Y-103433645D01*
X147856521Y-103432726D01*
X147856438Y-103432758D01*
X147853921Y-103426260D01*
X147852640Y-103419409D01*
X147831846Y-103385827D01*
X147828484Y-103379789D01*
X147810880Y-103344435D01*
X147805731Y-103339741D01*
X147801531Y-103334179D01*
X147801602Y-103334125D01*
X147800981Y-103333377D01*
X147800914Y-103333438D01*
X147796222Y-103328291D01*
X147792552Y-103322364D01*
X147761051Y-103298576D01*
X147755709Y-103294140D01*
X147731674Y-103272229D01*
X147731673Y-103272228D01*
X147726529Y-103267539D01*
X147720037Y-103265024D01*
X147714108Y-103261353D01*
X147714154Y-103261278D01*
X147713303Y-103260804D01*
X147713263Y-103260884D01*
X147707028Y-103257779D01*
X147701466Y-103253579D01*
X147694764Y-103251672D01*
X147694762Y-103251671D01*
X147673696Y-103245678D01*
X147663492Y-103242774D01*
X147656928Y-103240575D01*
X147620095Y-103226306D01*
X147613124Y-103226306D01*
X147606277Y-103225026D01*
X147606293Y-103224938D01*
X147605330Y-103224804D01*
X147605322Y-103224893D01*
X147598385Y-103224250D01*
X147591682Y-103222343D01*
X147584743Y-103222986D01*
X147552376Y-103225985D01*
X147545438Y-103226306D01*
X146291125Y-103226306D01*
X146242787Y-103208713D01*
X146217067Y-103164164D01*
X146215925Y-103151106D01*
X146215925Y-102526610D01*
X146385459Y-102526610D01*
X146386601Y-102533087D01*
X146400705Y-102613072D01*
X146404008Y-102631806D01*
X146407295Y-102637499D01*
X146407296Y-102637502D01*
X146410450Y-102642964D01*
X146457417Y-102724314D01*
X146539245Y-102792976D01*
X146639623Y-102829510D01*
X146746441Y-102829510D01*
X146846819Y-102792976D01*
X146928647Y-102724314D01*
X146975614Y-102642964D01*
X146978768Y-102637502D01*
X146978769Y-102637499D01*
X146982056Y-102631806D01*
X146985360Y-102613072D01*
X146999463Y-102533087D01*
X147000605Y-102526610D01*
X146995155Y-102495703D01*
X146983198Y-102427889D01*
X146983197Y-102427888D01*
X146982056Y-102421414D01*
X146978769Y-102415721D01*
X146978768Y-102415718D01*
X146956182Y-102376598D01*
X147365442Y-102376598D01*
X147366584Y-102383075D01*
X147372425Y-102416198D01*
X147383991Y-102481794D01*
X147387278Y-102487487D01*
X147387279Y-102487490D01*
X147399048Y-102507874D01*
X147437400Y-102574302D01*
X147475885Y-102606595D01*
X147512719Y-102637502D01*
X147519228Y-102642964D01*
X147619606Y-102679498D01*
X147726424Y-102679498D01*
X147826802Y-102642964D01*
X147833312Y-102637502D01*
X147870145Y-102606595D01*
X164725453Y-102606595D01*
X164726595Y-102613072D01*
X164742316Y-102702227D01*
X164744002Y-102711791D01*
X164747289Y-102717484D01*
X164747290Y-102717487D01*
X164767491Y-102752475D01*
X164797411Y-102804299D01*
X164836838Y-102837382D01*
X164867211Y-102862868D01*
X164879239Y-102872961D01*
X164979617Y-102909495D01*
X165086435Y-102909495D01*
X165186813Y-102872961D01*
X165198842Y-102862868D01*
X165229214Y-102837382D01*
X165268641Y-102804299D01*
X165298561Y-102752475D01*
X165318762Y-102717487D01*
X165318763Y-102717484D01*
X165322050Y-102711791D01*
X165323737Y-102702227D01*
X165339457Y-102613072D01*
X165340599Y-102606595D01*
X165338046Y-102592117D01*
X173015454Y-102592117D01*
X173016596Y-102598594D01*
X173031868Y-102685203D01*
X173034003Y-102697313D01*
X173037290Y-102703006D01*
X173037291Y-102703009D01*
X173063366Y-102748172D01*
X173087412Y-102789821D01*
X173143526Y-102836906D01*
X173160823Y-102851420D01*
X173169240Y-102858483D01*
X173269618Y-102895017D01*
X173376436Y-102895017D01*
X173476814Y-102858483D01*
X173485232Y-102851420D01*
X173502528Y-102836906D01*
X173558642Y-102789821D01*
X173582688Y-102748172D01*
X173608763Y-102703009D01*
X173608764Y-102703006D01*
X173612051Y-102697313D01*
X173614187Y-102685203D01*
X173629458Y-102598594D01*
X173630600Y-102592117D01*
X173627459Y-102574302D01*
X173613193Y-102493396D01*
X173613192Y-102493395D01*
X173612051Y-102486921D01*
X173608764Y-102481228D01*
X173608763Y-102481225D01*
X173570942Y-102415718D01*
X173558642Y-102394413D01*
X173487368Y-102334607D01*
X173481853Y-102329979D01*
X173481852Y-102329978D01*
X173476814Y-102325751D01*
X173376436Y-102289217D01*
X173269618Y-102289217D01*
X173232771Y-102302628D01*
X173175422Y-102323501D01*
X173175421Y-102323502D01*
X173169241Y-102325751D01*
X173164203Y-102329979D01*
X173164202Y-102329979D01*
X173139219Y-102350942D01*
X173087412Y-102394413D01*
X173075112Y-102415718D01*
X173037291Y-102481225D01*
X173037290Y-102481228D01*
X173034003Y-102486921D01*
X173032862Y-102493395D01*
X173032861Y-102493396D01*
X173018595Y-102574302D01*
X173015454Y-102592117D01*
X165338046Y-102592117D01*
X165328026Y-102535291D01*
X165323192Y-102507874D01*
X165323191Y-102507873D01*
X165322050Y-102501399D01*
X165318763Y-102495706D01*
X165318762Y-102495703D01*
X165275871Y-102421414D01*
X165268641Y-102408891D01*
X165186813Y-102340229D01*
X165086435Y-102303695D01*
X164979617Y-102303695D01*
X164957099Y-102311891D01*
X164885421Y-102337979D01*
X164885420Y-102337980D01*
X164879240Y-102340229D01*
X164874202Y-102344457D01*
X164874201Y-102344457D01*
X164843616Y-102370121D01*
X164797411Y-102408891D01*
X164793192Y-102416198D01*
X164747290Y-102495703D01*
X164747289Y-102495706D01*
X164744002Y-102501399D01*
X164742861Y-102507873D01*
X164742860Y-102507874D01*
X164738026Y-102535291D01*
X164725453Y-102606595D01*
X147870145Y-102606595D01*
X147908630Y-102574302D01*
X147946982Y-102507874D01*
X147958751Y-102487490D01*
X147958752Y-102487487D01*
X147962039Y-102481794D01*
X147973606Y-102416198D01*
X147979446Y-102383075D01*
X147980588Y-102376598D01*
X147973779Y-102337980D01*
X147963181Y-102277877D01*
X147963180Y-102277876D01*
X147962039Y-102271402D01*
X147958752Y-102265709D01*
X147958751Y-102265706D01*
X147932676Y-102220543D01*
X147908630Y-102178894D01*
X147826802Y-102110232D01*
X147726424Y-102073698D01*
X147619606Y-102073698D01*
X147576938Y-102089228D01*
X147525410Y-102107982D01*
X147525409Y-102107983D01*
X147519229Y-102110232D01*
X147437400Y-102178894D01*
X147434111Y-102184591D01*
X147387279Y-102265706D01*
X147387278Y-102265709D01*
X147383991Y-102271402D01*
X147382850Y-102277876D01*
X147382849Y-102277877D01*
X147372251Y-102337980D01*
X147365442Y-102376598D01*
X146956182Y-102376598D01*
X146952442Y-102370121D01*
X146928647Y-102328906D01*
X146855513Y-102267539D01*
X146851858Y-102264472D01*
X146851857Y-102264471D01*
X146846819Y-102260244D01*
X146746441Y-102223710D01*
X146639623Y-102223710D01*
X146632491Y-102226306D01*
X146545427Y-102257994D01*
X146545426Y-102257995D01*
X146539246Y-102260244D01*
X146534208Y-102264472D01*
X146534207Y-102264472D01*
X146501487Y-102291927D01*
X146457417Y-102328906D01*
X146448451Y-102344435D01*
X146407296Y-102415718D01*
X146407295Y-102415721D01*
X146404008Y-102421414D01*
X146402867Y-102427888D01*
X146402866Y-102427889D01*
X146390909Y-102495703D01*
X146385459Y-102526610D01*
X146215925Y-102526610D01*
X146215925Y-102026103D01*
X158405450Y-102026103D01*
X158406592Y-102032580D01*
X158419888Y-102107983D01*
X158423999Y-102131299D01*
X158427286Y-102136992D01*
X158427287Y-102136995D01*
X158436020Y-102152121D01*
X158477408Y-102223807D01*
X158559236Y-102292469D01*
X158659614Y-102329003D01*
X158766432Y-102329003D01*
X158866810Y-102292469D01*
X158948638Y-102223807D01*
X158990026Y-102152121D01*
X158998759Y-102136995D01*
X158998760Y-102136992D01*
X159002047Y-102131299D01*
X159006159Y-102107983D01*
X159019454Y-102032580D01*
X159020596Y-102026103D01*
X159010201Y-101967152D01*
X159007572Y-101952240D01*
X168929353Y-101952240D01*
X168930495Y-101958717D01*
X168946009Y-102046699D01*
X168947902Y-102057436D01*
X168951189Y-102063129D01*
X168951190Y-102063132D01*
X168957644Y-102074310D01*
X169001311Y-102149944D01*
X169083139Y-102218606D01*
X169183517Y-102255140D01*
X169290335Y-102255140D01*
X169390713Y-102218606D01*
X169472541Y-102149944D01*
X169474471Y-102146601D01*
X170365447Y-102146601D01*
X170366589Y-102153078D01*
X170382666Y-102244252D01*
X170383996Y-102251797D01*
X170387283Y-102257490D01*
X170387284Y-102257493D01*
X170404093Y-102286606D01*
X170437405Y-102344305D01*
X170475890Y-102376598D01*
X170509336Y-102404662D01*
X170519233Y-102412967D01*
X170619611Y-102449501D01*
X170726429Y-102449501D01*
X170826807Y-102412967D01*
X170836705Y-102404662D01*
X170870150Y-102376598D01*
X170908635Y-102344305D01*
X170941947Y-102286606D01*
X187533043Y-102286606D01*
X187551676Y-102416198D01*
X187606064Y-102535291D01*
X187691801Y-102634237D01*
X187801942Y-102705020D01*
X187807099Y-102706534D01*
X187807103Y-102706536D01*
X187922400Y-102740390D01*
X187927563Y-102741906D01*
X188058487Y-102741906D01*
X188063650Y-102740390D01*
X188178947Y-102706536D01*
X188178951Y-102706534D01*
X188184108Y-102705020D01*
X188294249Y-102634237D01*
X188379986Y-102535291D01*
X188434374Y-102416198D01*
X188453007Y-102286606D01*
X188434374Y-102157014D01*
X188379986Y-102037921D01*
X188294249Y-101938975D01*
X188249658Y-101910318D01*
X189005925Y-101910318D01*
X189007440Y-101915476D01*
X189007440Y-101915479D01*
X189039923Y-102026103D01*
X189044642Y-102042174D01*
X189047550Y-102046699D01*
X189096227Y-102122441D01*
X189118939Y-102157782D01*
X189123000Y-102161301D01*
X189123001Y-102161302D01*
X189124349Y-102162470D01*
X189222796Y-102247775D01*
X189347801Y-102304863D01*
X189379700Y-102309449D01*
X189446987Y-102319124D01*
X189446993Y-102319124D01*
X189449647Y-102319506D01*
X189518003Y-102319506D01*
X189520657Y-102319124D01*
X189520663Y-102319124D01*
X189587950Y-102309449D01*
X189619849Y-102304863D01*
X189744854Y-102247775D01*
X189843301Y-102162470D01*
X189844649Y-102161302D01*
X189844650Y-102161301D01*
X189848711Y-102157782D01*
X189871424Y-102122441D01*
X189920100Y-102046699D01*
X189923008Y-102042174D01*
X189927727Y-102026103D01*
X189960210Y-101915479D01*
X189960210Y-101915476D01*
X189961725Y-101910318D01*
X189961725Y-101772894D01*
X189959104Y-101763965D01*
X189924523Y-101646197D01*
X189924523Y-101646196D01*
X189923008Y-101641038D01*
X189909541Y-101620083D01*
X189851618Y-101529953D01*
X189851617Y-101529952D01*
X189848711Y-101525430D01*
X189836632Y-101514963D01*
X189794881Y-101478786D01*
X189744854Y-101435437D01*
X189619849Y-101378349D01*
X189587950Y-101373763D01*
X189520663Y-101364088D01*
X189520657Y-101364088D01*
X189518003Y-101363706D01*
X189449647Y-101363706D01*
X189446993Y-101364088D01*
X189446987Y-101364088D01*
X189379700Y-101373763D01*
X189347801Y-101378349D01*
X189222796Y-101435437D01*
X189172769Y-101478786D01*
X189131019Y-101514963D01*
X189118939Y-101525430D01*
X189116033Y-101529952D01*
X189116032Y-101529953D01*
X189058109Y-101620083D01*
X189044642Y-101641038D01*
X189043127Y-101646196D01*
X189043127Y-101646197D01*
X189008547Y-101763965D01*
X189005925Y-101772894D01*
X189005925Y-101910318D01*
X188249658Y-101910318D01*
X188184108Y-101868192D01*
X188178951Y-101866678D01*
X188178947Y-101866676D01*
X188063650Y-101832822D01*
X188058487Y-101831306D01*
X187927563Y-101831306D01*
X187922400Y-101832822D01*
X187807103Y-101866676D01*
X187807099Y-101866678D01*
X187801942Y-101868192D01*
X187691801Y-101938975D01*
X187606064Y-102037921D01*
X187551676Y-102157014D01*
X187533043Y-102286606D01*
X170941947Y-102286606D01*
X170958756Y-102257493D01*
X170958757Y-102257490D01*
X170962044Y-102251797D01*
X170963375Y-102244252D01*
X170979451Y-102153078D01*
X170980593Y-102146601D01*
X170973784Y-102107983D01*
X170963186Y-102047880D01*
X170963185Y-102047879D01*
X170962044Y-102041405D01*
X170958757Y-102035712D01*
X170958756Y-102035709D01*
X170919174Y-101967152D01*
X170908635Y-101948897D01*
X170852158Y-101901507D01*
X170831846Y-101884463D01*
X170831845Y-101884462D01*
X170826807Y-101880235D01*
X170726429Y-101843701D01*
X170619611Y-101843701D01*
X170592636Y-101853519D01*
X170525415Y-101877985D01*
X170525414Y-101877986D01*
X170519234Y-101880235D01*
X170514196Y-101884463D01*
X170514195Y-101884463D01*
X170465918Y-101924972D01*
X170437405Y-101948897D01*
X170426866Y-101967152D01*
X170387284Y-102035709D01*
X170387283Y-102035712D01*
X170383996Y-102041405D01*
X170382855Y-102047879D01*
X170382854Y-102047880D01*
X170372256Y-102107983D01*
X170365447Y-102146601D01*
X169474471Y-102146601D01*
X169516208Y-102074310D01*
X169522662Y-102063132D01*
X169522663Y-102063129D01*
X169525950Y-102057436D01*
X169527844Y-102046699D01*
X169543357Y-101958717D01*
X169544499Y-101952240D01*
X169543164Y-101944668D01*
X169527092Y-101853519D01*
X169527091Y-101853518D01*
X169525950Y-101847044D01*
X169522663Y-101841351D01*
X169522662Y-101841348D01*
X169484927Y-101775989D01*
X169472541Y-101754536D01*
X169390713Y-101685874D01*
X169349278Y-101670793D01*
X169641164Y-101670793D01*
X169642306Y-101677270D01*
X169656451Y-101757487D01*
X169659713Y-101775989D01*
X169663000Y-101781682D01*
X169663001Y-101781685D01*
X169676547Y-101805147D01*
X169713122Y-101868497D01*
X169794950Y-101937159D01*
X169895328Y-101973693D01*
X170002146Y-101973693D01*
X170102524Y-101937159D01*
X170184352Y-101868497D01*
X170220927Y-101805147D01*
X170234473Y-101781685D01*
X170234474Y-101781682D01*
X170237761Y-101775989D01*
X170241024Y-101757487D01*
X170255168Y-101677270D01*
X170256310Y-101670793D01*
X170251063Y-101641038D01*
X170238903Y-101572072D01*
X170238902Y-101572071D01*
X170237761Y-101565597D01*
X170234474Y-101559904D01*
X170234473Y-101559901D01*
X170187643Y-101478790D01*
X170184352Y-101473089D01*
X170122989Y-101421599D01*
X170107563Y-101408655D01*
X170107562Y-101408654D01*
X170102524Y-101404427D01*
X170002146Y-101367893D01*
X169895328Y-101367893D01*
X169865301Y-101378822D01*
X169801132Y-101402177D01*
X169801131Y-101402178D01*
X169794951Y-101404427D01*
X169789913Y-101408655D01*
X169789912Y-101408655D01*
X169788767Y-101409616D01*
X169713122Y-101473089D01*
X169709833Y-101478786D01*
X169663001Y-101559901D01*
X169663000Y-101559904D01*
X169659713Y-101565597D01*
X169658572Y-101572071D01*
X169658571Y-101572072D01*
X169646411Y-101641038D01*
X169641164Y-101670793D01*
X169349278Y-101670793D01*
X169290335Y-101649340D01*
X169183517Y-101649340D01*
X169142371Y-101664316D01*
X169089321Y-101683624D01*
X169089320Y-101683625D01*
X169083140Y-101685874D01*
X169078102Y-101690102D01*
X169078101Y-101690102D01*
X169038653Y-101723203D01*
X169001311Y-101754536D01*
X168998022Y-101760233D01*
X168951190Y-101841348D01*
X168951189Y-101841351D01*
X168947902Y-101847044D01*
X168946761Y-101853518D01*
X168946760Y-101853519D01*
X168930688Y-101944668D01*
X168929353Y-101952240D01*
X159007572Y-101952240D01*
X159003189Y-101927382D01*
X159003188Y-101927381D01*
X159002047Y-101920907D01*
X158998760Y-101915214D01*
X158998759Y-101915211D01*
X158963141Y-101853519D01*
X158948638Y-101828399D01*
X158891617Y-101780553D01*
X158871849Y-101763965D01*
X158871848Y-101763964D01*
X158866810Y-101759737D01*
X158766432Y-101723203D01*
X158659614Y-101723203D01*
X158616946Y-101738733D01*
X158565418Y-101757487D01*
X158565417Y-101757488D01*
X158559237Y-101759737D01*
X158554199Y-101763965D01*
X158554198Y-101763965D01*
X158542240Y-101773999D01*
X158477408Y-101828399D01*
X158468160Y-101844417D01*
X158427287Y-101915211D01*
X158427286Y-101915214D01*
X158423999Y-101920907D01*
X158422858Y-101927381D01*
X158422857Y-101927382D01*
X158415845Y-101967152D01*
X158405450Y-102026103D01*
X146215925Y-102026103D01*
X146215925Y-101965672D01*
X146215471Y-101959895D01*
X146213313Y-101932486D01*
X146213012Y-101928658D01*
X146166989Y-101770247D01*
X146096816Y-101651591D01*
X146085426Y-101632332D01*
X146085425Y-101632331D01*
X146083017Y-101628259D01*
X146056377Y-101601619D01*
X146505449Y-101601619D01*
X146506591Y-101608096D01*
X146520306Y-101685874D01*
X146523998Y-101706815D01*
X146527285Y-101712508D01*
X146527286Y-101712511D01*
X146534207Y-101724498D01*
X146577407Y-101799323D01*
X146659235Y-101867985D01*
X146759613Y-101904519D01*
X146866431Y-101904519D01*
X146966809Y-101867985D01*
X147048637Y-101799323D01*
X147091837Y-101724498D01*
X147098758Y-101712511D01*
X147098759Y-101712508D01*
X147102046Y-101706815D01*
X147105739Y-101685874D01*
X147118481Y-101613606D01*
X148155458Y-101613606D01*
X148156600Y-101620083D01*
X148170752Y-101700340D01*
X148174007Y-101718802D01*
X148177294Y-101724495D01*
X148177295Y-101724498D01*
X148197927Y-101760233D01*
X148227416Y-101811310D01*
X148268701Y-101845952D01*
X148295569Y-101868497D01*
X148309244Y-101879972D01*
X148409622Y-101916506D01*
X148516440Y-101916506D01*
X148616818Y-101879972D01*
X148630494Y-101868497D01*
X148657361Y-101845952D01*
X148698646Y-101811310D01*
X148728135Y-101760233D01*
X148748767Y-101724498D01*
X148748768Y-101724495D01*
X148752055Y-101718802D01*
X148755311Y-101700340D01*
X148769462Y-101620083D01*
X148770604Y-101613606D01*
X148763938Y-101575802D01*
X167891678Y-101575802D01*
X167892820Y-101582279D01*
X167908428Y-101670793D01*
X167910227Y-101680998D01*
X167913514Y-101686691D01*
X167913515Y-101686694D01*
X167928421Y-101712511D01*
X167963636Y-101773506D01*
X168045464Y-101842168D01*
X168145842Y-101878702D01*
X168252660Y-101878702D01*
X168353038Y-101842168D01*
X168434866Y-101773506D01*
X168470081Y-101712511D01*
X168484987Y-101686694D01*
X168484988Y-101686691D01*
X168488275Y-101680998D01*
X168490075Y-101670793D01*
X168505682Y-101582279D01*
X168506824Y-101575802D01*
X168497942Y-101525430D01*
X168489417Y-101477081D01*
X168489416Y-101477080D01*
X168488275Y-101470606D01*
X168484988Y-101464913D01*
X168484987Y-101464910D01*
X168448768Y-101402177D01*
X168434866Y-101378098D01*
X168353038Y-101309436D01*
X168252660Y-101272902D01*
X168145842Y-101272902D01*
X168103174Y-101288432D01*
X168051646Y-101307186D01*
X168051645Y-101307187D01*
X168045465Y-101309436D01*
X167963636Y-101378098D01*
X167960347Y-101383795D01*
X167913515Y-101464910D01*
X167913514Y-101464913D01*
X167910227Y-101470606D01*
X167909086Y-101477080D01*
X167909085Y-101477081D01*
X167900560Y-101525430D01*
X167891678Y-101575802D01*
X148763938Y-101575802D01*
X148753197Y-101514885D01*
X148753196Y-101514884D01*
X148752055Y-101508410D01*
X148748768Y-101502717D01*
X148748767Y-101502714D01*
X148701937Y-101421603D01*
X148698646Y-101415902D01*
X148616818Y-101347240D01*
X148516440Y-101310706D01*
X148409622Y-101310706D01*
X148401495Y-101313664D01*
X148315426Y-101344990D01*
X148315425Y-101344991D01*
X148309245Y-101347240D01*
X148304207Y-101351468D01*
X148304206Y-101351468D01*
X148272170Y-101378349D01*
X148227416Y-101415902D01*
X148224127Y-101421599D01*
X148177295Y-101502714D01*
X148177294Y-101502717D01*
X148174007Y-101508410D01*
X148172866Y-101514884D01*
X148172865Y-101514885D01*
X148162124Y-101575802D01*
X148155458Y-101613606D01*
X147118481Y-101613606D01*
X147119453Y-101608096D01*
X147120595Y-101601619D01*
X147105315Y-101514963D01*
X147103188Y-101502898D01*
X147103187Y-101502897D01*
X147102046Y-101496423D01*
X147098759Y-101490730D01*
X147098758Y-101490727D01*
X147063726Y-101430051D01*
X147048637Y-101403915D01*
X146966809Y-101335253D01*
X146866431Y-101298719D01*
X146759613Y-101298719D01*
X146730168Y-101309436D01*
X146665417Y-101333003D01*
X146665416Y-101333004D01*
X146659236Y-101335253D01*
X146654198Y-101339481D01*
X146654197Y-101339481D01*
X146625327Y-101363706D01*
X146577407Y-101403915D01*
X146574118Y-101409612D01*
X146527286Y-101490727D01*
X146527285Y-101490730D01*
X146523998Y-101496423D01*
X146522857Y-101502897D01*
X146522856Y-101502898D01*
X146520729Y-101514963D01*
X146505449Y-101601619D01*
X146056377Y-101601619D01*
X145966372Y-101511614D01*
X145960955Y-101508410D01*
X145887400Y-101464910D01*
X145824384Y-101427642D01*
X145665973Y-101381619D01*
X145647792Y-101380188D01*
X145630437Y-101378822D01*
X145630429Y-101378822D01*
X145628959Y-101378706D01*
X140497091Y-101378706D01*
X140495621Y-101378822D01*
X140495613Y-101378822D01*
X140478258Y-101380188D01*
X140460077Y-101381619D01*
X140301666Y-101427642D01*
X140238650Y-101464910D01*
X140165096Y-101508410D01*
X140159678Y-101511614D01*
X140043033Y-101628259D01*
X140040625Y-101632331D01*
X140040624Y-101632332D01*
X140029234Y-101651591D01*
X139959061Y-101770247D01*
X139913038Y-101928658D01*
X139912737Y-101932486D01*
X139910580Y-101959895D01*
X139910125Y-101965672D01*
X139910126Y-102592117D01*
X139910126Y-103151106D01*
X139892533Y-103199444D01*
X139847984Y-103225164D01*
X139834926Y-103226306D01*
X138720632Y-103226306D01*
X138672294Y-103208713D01*
X138667458Y-103204280D01*
X138418099Y-102954921D01*
X138413430Y-102949556D01*
X138410880Y-102944435D01*
X138405729Y-102939739D01*
X138375182Y-102911891D01*
X138372670Y-102909492D01*
X138358901Y-102895723D01*
X138356032Y-102893758D01*
X138353354Y-102891534D01*
X138353373Y-102891511D01*
X138349185Y-102888193D01*
X138339593Y-102879449D01*
X138326529Y-102867539D01*
X138319782Y-102864925D01*
X138314473Y-102862868D01*
X138299143Y-102854788D01*
X138294227Y-102851420D01*
X138294226Y-102851420D01*
X138288478Y-102847482D01*
X138281696Y-102845887D01*
X138281694Y-102845886D01*
X138258633Y-102840462D01*
X138248688Y-102837382D01*
X138230853Y-102830474D01*
X138220095Y-102826306D01*
X138207171Y-102826306D01*
X138189954Y-102824308D01*
X138184156Y-102822944D01*
X138184149Y-102822944D01*
X138177369Y-102821349D01*
X138156158Y-102824308D01*
X138147003Y-102825585D01*
X138136613Y-102826306D01*
X126720632Y-102826306D01*
X126672294Y-102808713D01*
X126667458Y-102804280D01*
X126218099Y-102354921D01*
X126213430Y-102349556D01*
X126210880Y-102344435D01*
X126204484Y-102338604D01*
X126175182Y-102311891D01*
X126172670Y-102309492D01*
X126158901Y-102295723D01*
X126156032Y-102293758D01*
X126153354Y-102291534D01*
X126153373Y-102291511D01*
X126149185Y-102288193D01*
X126131679Y-102272234D01*
X126126529Y-102267539D01*
X126118612Y-102264472D01*
X126114473Y-102262868D01*
X126099143Y-102254788D01*
X126094227Y-102251420D01*
X126094226Y-102251420D01*
X126088478Y-102247482D01*
X126081696Y-102245887D01*
X126081694Y-102245886D01*
X126058633Y-102240462D01*
X126048688Y-102237382D01*
X126026597Y-102228825D01*
X126026598Y-102228825D01*
X126020095Y-102226306D01*
X126007171Y-102226306D01*
X125989954Y-102224308D01*
X125984156Y-102222944D01*
X125984149Y-102222944D01*
X125977369Y-102221349D01*
X125956158Y-102224308D01*
X125947003Y-102225585D01*
X125936613Y-102226306D01*
X107320632Y-102226306D01*
X107272294Y-102208713D01*
X107267458Y-102204280D01*
X106890351Y-101827173D01*
X106868611Y-101780553D01*
X106868325Y-101773999D01*
X106868325Y-100851606D01*
X148155458Y-100851606D01*
X148156600Y-100858083D01*
X148171800Y-100944283D01*
X148174007Y-100956802D01*
X148177294Y-100962495D01*
X148177295Y-100962498D01*
X148198081Y-100998500D01*
X148227416Y-101049310D01*
X148309244Y-101117972D01*
X148409622Y-101154506D01*
X148516440Y-101154506D01*
X148616818Y-101117972D01*
X148698646Y-101049310D01*
X148727981Y-100998500D01*
X148748767Y-100962498D01*
X148748768Y-100962495D01*
X148752055Y-100956802D01*
X148754263Y-100944283D01*
X148769462Y-100858083D01*
X148770604Y-100851606D01*
X148762650Y-100806497D01*
X165985445Y-100806497D01*
X165986587Y-100812974D01*
X165992334Y-100845564D01*
X166003994Y-100911693D01*
X166007281Y-100917386D01*
X166007282Y-100917389D01*
X166026299Y-100950327D01*
X166057403Y-101004201D01*
X166139231Y-101072863D01*
X166239609Y-101109397D01*
X166346427Y-101109397D01*
X166446805Y-101072863D01*
X166528633Y-101004201D01*
X166559487Y-100950760D01*
X169394411Y-100950760D01*
X169395553Y-100957237D01*
X169411572Y-101048083D01*
X169412960Y-101055956D01*
X169416247Y-101061649D01*
X169416248Y-101061652D01*
X169442323Y-101106815D01*
X169466369Y-101148464D01*
X169548197Y-101217126D01*
X169648575Y-101253660D01*
X169755393Y-101253660D01*
X169855771Y-101217126D01*
X169937599Y-101148464D01*
X169961645Y-101106815D01*
X169987720Y-101061652D01*
X169987721Y-101061649D01*
X169991008Y-101055956D01*
X169992397Y-101048083D01*
X169993539Y-101041606D01*
X174905443Y-101041606D01*
X174906585Y-101048083D01*
X174917000Y-101107146D01*
X174923992Y-101146802D01*
X174927279Y-101152495D01*
X174927280Y-101152498D01*
X174953355Y-101197661D01*
X174977401Y-101239310D01*
X175059229Y-101307972D01*
X175159607Y-101344506D01*
X175266425Y-101344506D01*
X175366803Y-101307972D01*
X175448631Y-101239310D01*
X175472677Y-101197661D01*
X175498752Y-101152498D01*
X175498753Y-101152495D01*
X175502040Y-101146802D01*
X175509033Y-101107146D01*
X175519447Y-101048083D01*
X175520589Y-101041606D01*
X175519447Y-101035129D01*
X175503182Y-100942885D01*
X175503181Y-100942884D01*
X175502040Y-100936410D01*
X175498753Y-100930717D01*
X175498752Y-100930714D01*
X175456818Y-100858083D01*
X175448631Y-100843902D01*
X175366803Y-100775240D01*
X175266425Y-100738706D01*
X175159607Y-100738706D01*
X175131805Y-100748825D01*
X175065411Y-100772990D01*
X175065410Y-100772991D01*
X175059230Y-100775240D01*
X174977401Y-100843902D01*
X174974112Y-100849599D01*
X174927280Y-100930714D01*
X174927279Y-100930717D01*
X174923992Y-100936410D01*
X174922851Y-100942884D01*
X174922850Y-100942885D01*
X174906585Y-101035129D01*
X174905443Y-101041606D01*
X169993539Y-101041606D01*
X170008415Y-100957237D01*
X170009557Y-100950760D01*
X170003673Y-100917389D01*
X169992150Y-100852039D01*
X169992149Y-100852038D01*
X169991008Y-100845564D01*
X169987721Y-100839871D01*
X169987720Y-100839868D01*
X169940890Y-100758757D01*
X169937599Y-100753056D01*
X169855771Y-100684394D01*
X169755393Y-100647860D01*
X169648575Y-100647860D01*
X169631975Y-100653902D01*
X169554379Y-100682144D01*
X169554378Y-100682145D01*
X169548198Y-100684394D01*
X169466369Y-100753056D01*
X169463080Y-100758753D01*
X169416248Y-100839868D01*
X169416247Y-100839871D01*
X169412960Y-100845564D01*
X169411819Y-100852038D01*
X169411818Y-100852039D01*
X169400295Y-100917389D01*
X169394411Y-100950760D01*
X166559487Y-100950760D01*
X166559737Y-100950327D01*
X166578754Y-100917389D01*
X166578755Y-100917386D01*
X166582042Y-100911693D01*
X166593703Y-100845564D01*
X166599449Y-100812974D01*
X166600591Y-100806497D01*
X166592173Y-100758757D01*
X166583184Y-100707776D01*
X166583183Y-100707775D01*
X166582042Y-100701301D01*
X166578755Y-100695608D01*
X166578754Y-100695605D01*
X166531924Y-100614494D01*
X166528633Y-100608793D01*
X166446805Y-100540131D01*
X166346427Y-100503597D01*
X166239609Y-100503597D01*
X166207381Y-100515327D01*
X166145413Y-100537881D01*
X166145412Y-100537882D01*
X166139232Y-100540131D01*
X166134194Y-100544359D01*
X166134193Y-100544359D01*
X166126330Y-100550957D01*
X166057403Y-100608793D01*
X166054114Y-100614490D01*
X166007282Y-100695605D01*
X166007281Y-100695608D01*
X166003994Y-100701301D01*
X166002853Y-100707775D01*
X166002852Y-100707776D01*
X165993863Y-100758757D01*
X165985445Y-100806497D01*
X148762650Y-100806497D01*
X148754232Y-100758757D01*
X148753197Y-100752885D01*
X148753196Y-100752884D01*
X148752055Y-100746410D01*
X148748768Y-100740717D01*
X148748767Y-100740714D01*
X148701937Y-100659603D01*
X148698646Y-100653902D01*
X148616818Y-100585240D01*
X148516440Y-100548706D01*
X148409622Y-100548706D01*
X148366954Y-100564236D01*
X148315426Y-100582990D01*
X148315425Y-100582991D01*
X148309245Y-100585240D01*
X148304207Y-100589468D01*
X148304206Y-100589468D01*
X148281175Y-100608793D01*
X148227416Y-100653902D01*
X148224127Y-100659599D01*
X148177295Y-100740714D01*
X148177294Y-100740717D01*
X148174007Y-100746410D01*
X148172866Y-100752884D01*
X148172865Y-100752885D01*
X148171830Y-100758757D01*
X148155458Y-100851606D01*
X106868325Y-100851606D01*
X106868325Y-100416606D01*
X151085452Y-100416606D01*
X151104001Y-100521802D01*
X151107288Y-100527495D01*
X151107289Y-100527498D01*
X151114583Y-100540131D01*
X151157410Y-100614310D01*
X151239238Y-100682972D01*
X151339616Y-100719506D01*
X151446434Y-100719506D01*
X151546812Y-100682972D01*
X151628640Y-100614310D01*
X151671467Y-100540131D01*
X151678761Y-100527498D01*
X151678762Y-100527495D01*
X151682049Y-100521802D01*
X151700598Y-100416606D01*
X151698066Y-100402245D01*
X151683191Y-100317885D01*
X151683190Y-100317884D01*
X151682049Y-100311410D01*
X151678762Y-100305717D01*
X151678761Y-100305714D01*
X151631931Y-100224603D01*
X151628640Y-100218902D01*
X151546812Y-100150240D01*
X151446434Y-100113706D01*
X151339616Y-100113706D01*
X151296948Y-100129236D01*
X151245420Y-100147990D01*
X151245419Y-100147991D01*
X151239239Y-100150240D01*
X151234201Y-100154468D01*
X151234200Y-100154468D01*
X151179559Y-100200317D01*
X151157410Y-100218902D01*
X151154121Y-100224599D01*
X151107289Y-100305714D01*
X151107288Y-100305717D01*
X151104001Y-100311410D01*
X151102860Y-100317884D01*
X151102859Y-100317885D01*
X151087984Y-100402245D01*
X151085452Y-100416606D01*
X106868325Y-100416606D01*
X106868325Y-100101596D01*
X146505449Y-100101596D01*
X146506591Y-100108073D01*
X146513630Y-100147990D01*
X146523998Y-100206792D01*
X146527285Y-100212485D01*
X146527286Y-100212488D01*
X146534281Y-100224603D01*
X146577407Y-100299300D01*
X146659235Y-100367962D01*
X146759613Y-100404496D01*
X146866431Y-100404496D01*
X146966809Y-100367962D01*
X147048637Y-100299300D01*
X147091763Y-100224603D01*
X147098758Y-100212488D01*
X147098759Y-100212485D01*
X147102046Y-100206792D01*
X147112415Y-100147990D01*
X147119453Y-100108073D01*
X147120595Y-100101596D01*
X147118481Y-100089606D01*
X148155458Y-100089606D01*
X148156600Y-100096083D01*
X148159708Y-100113706D01*
X148174007Y-100194802D01*
X148177294Y-100200495D01*
X148177295Y-100200498D01*
X148180929Y-100206792D01*
X148227416Y-100287310D01*
X148309244Y-100355972D01*
X148409622Y-100392506D01*
X148516440Y-100392506D01*
X148616818Y-100355972D01*
X148698646Y-100287310D01*
X148745133Y-100206792D01*
X148748767Y-100200498D01*
X148748768Y-100200495D01*
X148752055Y-100194802D01*
X148766355Y-100113706D01*
X148769462Y-100096083D01*
X148770604Y-100089606D01*
X148755070Y-100001506D01*
X148753197Y-99990885D01*
X148753196Y-99990884D01*
X148752055Y-99984410D01*
X148748768Y-99978717D01*
X148748767Y-99978714D01*
X148705568Y-99903892D01*
X148698646Y-99891902D01*
X148616818Y-99823240D01*
X148516440Y-99786706D01*
X148409622Y-99786706D01*
X148380441Y-99797327D01*
X148315426Y-99820990D01*
X148315425Y-99820991D01*
X148309245Y-99823240D01*
X148227416Y-99891902D01*
X148224127Y-99897599D01*
X148177295Y-99978714D01*
X148177294Y-99978717D01*
X148174007Y-99984410D01*
X148172866Y-99990884D01*
X148172865Y-99990885D01*
X148170992Y-100001506D01*
X148155458Y-100089606D01*
X147118481Y-100089606D01*
X147102046Y-99996400D01*
X147098759Y-99990707D01*
X147098758Y-99990704D01*
X147051928Y-99909593D01*
X147048637Y-99903892D01*
X146966809Y-99835230D01*
X146866431Y-99798696D01*
X146759613Y-99798696D01*
X146729951Y-99809492D01*
X146665417Y-99832980D01*
X146665416Y-99832981D01*
X146659236Y-99835230D01*
X146577407Y-99903892D01*
X146574118Y-99909589D01*
X146527286Y-99990704D01*
X146527285Y-99990707D01*
X146523998Y-99996400D01*
X146505449Y-100101596D01*
X106868325Y-100101596D01*
X106868325Y-99698600D01*
X150031451Y-99698600D01*
X150032593Y-99705077D01*
X150046987Y-99786706D01*
X150050000Y-99803796D01*
X150053287Y-99809489D01*
X150053288Y-99809492D01*
X150059927Y-99820991D01*
X150103409Y-99896304D01*
X150185237Y-99964966D01*
X150285615Y-100001500D01*
X150392433Y-100001500D01*
X150492811Y-99964966D01*
X150574639Y-99896304D01*
X150618121Y-99820991D01*
X150624760Y-99809492D01*
X150624761Y-99809489D01*
X150628048Y-99803796D01*
X150631062Y-99786706D01*
X150645966Y-99702179D01*
X150648032Y-99698600D01*
X150792016Y-99698600D01*
X150794082Y-99702179D01*
X150808987Y-99786706D01*
X150812000Y-99803796D01*
X150815287Y-99809489D01*
X150815288Y-99809492D01*
X150821927Y-99820991D01*
X150865409Y-99896304D01*
X150947237Y-99964966D01*
X151047615Y-100001500D01*
X151154433Y-100001500D01*
X151254811Y-99964966D01*
X151336639Y-99896304D01*
X151380121Y-99820991D01*
X151386760Y-99809492D01*
X151386761Y-99809489D01*
X151390048Y-99803796D01*
X151393062Y-99786706D01*
X151407966Y-99702179D01*
X151410032Y-99698600D01*
X151554016Y-99698600D01*
X151556082Y-99702179D01*
X151570987Y-99786706D01*
X151574000Y-99803796D01*
X151577287Y-99809489D01*
X151577288Y-99809492D01*
X151583927Y-99820991D01*
X151627409Y-99896304D01*
X151709237Y-99964966D01*
X151809615Y-100001500D01*
X151916433Y-100001500D01*
X152016811Y-99964966D01*
X152098639Y-99896304D01*
X152142121Y-99820991D01*
X152148760Y-99809492D01*
X152148761Y-99809489D01*
X152152048Y-99803796D01*
X152155062Y-99786706D01*
X152169966Y-99702179D01*
X152172032Y-99698600D01*
X152316016Y-99698600D01*
X152318082Y-99702179D01*
X152332987Y-99786706D01*
X152336000Y-99803796D01*
X152339287Y-99809489D01*
X152339288Y-99809492D01*
X152345927Y-99820991D01*
X152389409Y-99896304D01*
X152471237Y-99964966D01*
X152571615Y-100001500D01*
X152678433Y-100001500D01*
X152778811Y-99964966D01*
X152860639Y-99896304D01*
X152904121Y-99820991D01*
X152910760Y-99809492D01*
X152910761Y-99809489D01*
X152914048Y-99803796D01*
X152917062Y-99786706D01*
X152931966Y-99702179D01*
X152934032Y-99698600D01*
X153078016Y-99698600D01*
X153080082Y-99702179D01*
X153094987Y-99786706D01*
X153098000Y-99803796D01*
X153101287Y-99809489D01*
X153101288Y-99809492D01*
X153107927Y-99820991D01*
X153151409Y-99896304D01*
X153233237Y-99964966D01*
X153333615Y-100001500D01*
X153440433Y-100001500D01*
X153540811Y-99964966D01*
X153622639Y-99896304D01*
X153666121Y-99820991D01*
X153672760Y-99809492D01*
X153672761Y-99809489D01*
X153676048Y-99803796D01*
X153679062Y-99786706D01*
X153693966Y-99702179D01*
X153696032Y-99698600D01*
X153840016Y-99698600D01*
X153842082Y-99702179D01*
X153856987Y-99786706D01*
X153860000Y-99803796D01*
X153863287Y-99809489D01*
X153863288Y-99809492D01*
X153869927Y-99820991D01*
X153913409Y-99896304D01*
X153995237Y-99964966D01*
X154095615Y-100001500D01*
X154202433Y-100001500D01*
X154302811Y-99964966D01*
X154384639Y-99896304D01*
X154428121Y-99820991D01*
X154434760Y-99809492D01*
X154434761Y-99809489D01*
X154438048Y-99803796D01*
X154441062Y-99786706D01*
X154455966Y-99702179D01*
X154458032Y-99698600D01*
X154602016Y-99698600D01*
X154604082Y-99702179D01*
X154618987Y-99786706D01*
X154622000Y-99803796D01*
X154625287Y-99809489D01*
X154625288Y-99809492D01*
X154631927Y-99820991D01*
X154675409Y-99896304D01*
X154757237Y-99964966D01*
X154857615Y-100001500D01*
X154964433Y-100001500D01*
X155064811Y-99964966D01*
X155146639Y-99896304D01*
X155190121Y-99820991D01*
X155196760Y-99809492D01*
X155196761Y-99809489D01*
X155200048Y-99803796D01*
X155203062Y-99786706D01*
X155217966Y-99702179D01*
X155220032Y-99698600D01*
X155364016Y-99698600D01*
X155366082Y-99702179D01*
X155380987Y-99786706D01*
X155384000Y-99803796D01*
X155387287Y-99809489D01*
X155387288Y-99809492D01*
X155393927Y-99820991D01*
X155437409Y-99896304D01*
X155519237Y-99964966D01*
X155619615Y-100001500D01*
X155726433Y-100001500D01*
X155826811Y-99964966D01*
X155908639Y-99896304D01*
X155952121Y-99820991D01*
X155958760Y-99809492D01*
X155958761Y-99809489D01*
X155962048Y-99803796D01*
X155965062Y-99786706D01*
X155979966Y-99702179D01*
X155982030Y-99698604D01*
X156126018Y-99698604D01*
X156128082Y-99702179D01*
X156146001Y-99803802D01*
X156149288Y-99809495D01*
X156149289Y-99809498D01*
X156162847Y-99832981D01*
X156199410Y-99896310D01*
X156281238Y-99964972D01*
X156381616Y-100001506D01*
X156488434Y-100001506D01*
X156588812Y-99964972D01*
X156670640Y-99896310D01*
X156707203Y-99832981D01*
X156720761Y-99809498D01*
X156720762Y-99809495D01*
X156724049Y-99803802D01*
X156741967Y-99702185D01*
X156744033Y-99698606D01*
X156888017Y-99698606D01*
X156890083Y-99702185D01*
X156908001Y-99803802D01*
X156911288Y-99809495D01*
X156911289Y-99809498D01*
X156924847Y-99832981D01*
X156961410Y-99896310D01*
X157043238Y-99964972D01*
X157143616Y-100001506D01*
X157250434Y-100001506D01*
X157350812Y-99964972D01*
X157432640Y-99896310D01*
X157469203Y-99832981D01*
X157482761Y-99809498D01*
X157482762Y-99809495D01*
X157486049Y-99803802D01*
X157503967Y-99702185D01*
X157506033Y-99698606D01*
X157650017Y-99698606D01*
X157652083Y-99702185D01*
X157670001Y-99803802D01*
X157673288Y-99809495D01*
X157673289Y-99809498D01*
X157686847Y-99832981D01*
X157723410Y-99896310D01*
X157805238Y-99964972D01*
X157905616Y-100001506D01*
X158012434Y-100001506D01*
X158112812Y-99964972D01*
X158194640Y-99896310D01*
X158231203Y-99832981D01*
X158244761Y-99809498D01*
X158244762Y-99809495D01*
X158248049Y-99803802D01*
X158265967Y-99702185D01*
X158268033Y-99698606D01*
X158412017Y-99698606D01*
X158414083Y-99702185D01*
X158432001Y-99803802D01*
X158435288Y-99809495D01*
X158435289Y-99809498D01*
X158448847Y-99832981D01*
X158485410Y-99896310D01*
X158567238Y-99964972D01*
X158667616Y-100001506D01*
X158774434Y-100001506D01*
X158874812Y-99964972D01*
X158956640Y-99896310D01*
X158993203Y-99832981D01*
X159006761Y-99809498D01*
X159006762Y-99809495D01*
X159010049Y-99803802D01*
X159027967Y-99702185D01*
X159030033Y-99698606D01*
X159174017Y-99698606D01*
X159176083Y-99702185D01*
X159194001Y-99803802D01*
X159197288Y-99809495D01*
X159197289Y-99809498D01*
X159210847Y-99832981D01*
X159247410Y-99896310D01*
X159329238Y-99964972D01*
X159429616Y-100001506D01*
X159536434Y-100001506D01*
X159636812Y-99964972D01*
X159718640Y-99896310D01*
X159755203Y-99832981D01*
X159768761Y-99809498D01*
X159768762Y-99809495D01*
X159772049Y-99803802D01*
X159789967Y-99702185D01*
X159792033Y-99698606D01*
X159936017Y-99698606D01*
X159938083Y-99702185D01*
X159956001Y-99803802D01*
X159959288Y-99809495D01*
X159959289Y-99809498D01*
X159972847Y-99832981D01*
X160009410Y-99896310D01*
X160091238Y-99964972D01*
X160191616Y-100001506D01*
X160298434Y-100001506D01*
X160398812Y-99964972D01*
X160480640Y-99896310D01*
X160517203Y-99832981D01*
X160530761Y-99809498D01*
X160530762Y-99809495D01*
X160534049Y-99803802D01*
X160551967Y-99702185D01*
X160554033Y-99698606D01*
X160698017Y-99698606D01*
X160700083Y-99702185D01*
X160718001Y-99803802D01*
X160721288Y-99809495D01*
X160721289Y-99809498D01*
X160734847Y-99832981D01*
X160771410Y-99896310D01*
X160853238Y-99964972D01*
X160953616Y-100001506D01*
X161060434Y-100001506D01*
X161160812Y-99964972D01*
X161242640Y-99896310D01*
X161279203Y-99832981D01*
X161292761Y-99809498D01*
X161292762Y-99809495D01*
X161296049Y-99803802D01*
X161313967Y-99702185D01*
X161316033Y-99698606D01*
X161460017Y-99698606D01*
X161462083Y-99702185D01*
X161480001Y-99803802D01*
X161483288Y-99809495D01*
X161483289Y-99809498D01*
X161496847Y-99832981D01*
X161533410Y-99896310D01*
X161615238Y-99964972D01*
X161715616Y-100001506D01*
X161822434Y-100001506D01*
X161922812Y-99964972D01*
X162004640Y-99896310D01*
X162041203Y-99832981D01*
X162054761Y-99809498D01*
X162054762Y-99809495D01*
X162058049Y-99803802D01*
X162075967Y-99702185D01*
X162078033Y-99698606D01*
X162222017Y-99698606D01*
X162224083Y-99702185D01*
X162242001Y-99803802D01*
X162245288Y-99809495D01*
X162245289Y-99809498D01*
X162258847Y-99832981D01*
X162295410Y-99896310D01*
X162377238Y-99964972D01*
X162477616Y-100001506D01*
X162584434Y-100001506D01*
X162684812Y-99964972D01*
X162766640Y-99896310D01*
X162803203Y-99832981D01*
X162816761Y-99809498D01*
X162816762Y-99809495D01*
X162820049Y-99803802D01*
X162837967Y-99702185D01*
X162840033Y-99698606D01*
X162984017Y-99698606D01*
X162986083Y-99702185D01*
X163004001Y-99803802D01*
X163007288Y-99809495D01*
X163007289Y-99809498D01*
X163020847Y-99832981D01*
X163057410Y-99896310D01*
X163139238Y-99964972D01*
X163239616Y-100001506D01*
X163346434Y-100001506D01*
X163446812Y-99964972D01*
X163528640Y-99896310D01*
X163565203Y-99832981D01*
X163578761Y-99809498D01*
X163578762Y-99809495D01*
X163582049Y-99803802D01*
X163599967Y-99702185D01*
X163602033Y-99698606D01*
X163746017Y-99698606D01*
X163748083Y-99702185D01*
X163766001Y-99803802D01*
X163769288Y-99809495D01*
X163769289Y-99809498D01*
X163782847Y-99832981D01*
X163819410Y-99896310D01*
X163901238Y-99964972D01*
X164001616Y-100001506D01*
X164108434Y-100001506D01*
X164208812Y-99964972D01*
X164290640Y-99896310D01*
X164327203Y-99832981D01*
X164340761Y-99809498D01*
X164340762Y-99809495D01*
X164344049Y-99803802D01*
X164361967Y-99702185D01*
X164364033Y-99698606D01*
X164508017Y-99698606D01*
X164510083Y-99702185D01*
X164528001Y-99803802D01*
X164531288Y-99809495D01*
X164531289Y-99809498D01*
X164544847Y-99832981D01*
X164581410Y-99896310D01*
X164663238Y-99964972D01*
X164763616Y-100001506D01*
X164870434Y-100001506D01*
X164970812Y-99964972D01*
X165052640Y-99896310D01*
X165089203Y-99832981D01*
X165102761Y-99809498D01*
X165102762Y-99809495D01*
X165106049Y-99803802D01*
X165123967Y-99702185D01*
X165126033Y-99698606D01*
X165270017Y-99698606D01*
X165272083Y-99702185D01*
X165290001Y-99803802D01*
X165293288Y-99809495D01*
X165293289Y-99809498D01*
X165306847Y-99832981D01*
X165343410Y-99896310D01*
X165425238Y-99964972D01*
X165525616Y-100001506D01*
X165632434Y-100001506D01*
X165732812Y-99964972D01*
X165814640Y-99896310D01*
X165851203Y-99832981D01*
X165864761Y-99809498D01*
X165864762Y-99809495D01*
X165868049Y-99803802D01*
X165885967Y-99702184D01*
X165888034Y-99698604D01*
X165888033Y-99698602D01*
X166032015Y-99698602D01*
X166034083Y-99702184D01*
X166048987Y-99786706D01*
X166052000Y-99803796D01*
X166055287Y-99809489D01*
X166055288Y-99809492D01*
X166061927Y-99820991D01*
X166105409Y-99896304D01*
X166187237Y-99964966D01*
X166287615Y-100001500D01*
X166394433Y-100001500D01*
X166494811Y-99964966D01*
X166576639Y-99896304D01*
X166620121Y-99820991D01*
X166626760Y-99809492D01*
X166626761Y-99809489D01*
X166630048Y-99803796D01*
X166633062Y-99786706D01*
X166647966Y-99702179D01*
X166650032Y-99698600D01*
X166794016Y-99698600D01*
X166796082Y-99702179D01*
X166810987Y-99786706D01*
X166814000Y-99803796D01*
X166817287Y-99809489D01*
X166817288Y-99809492D01*
X166823927Y-99820991D01*
X166867409Y-99896304D01*
X166949237Y-99964966D01*
X167049615Y-100001500D01*
X167156433Y-100001500D01*
X167256811Y-99964966D01*
X167338639Y-99896304D01*
X167382121Y-99820991D01*
X167388760Y-99809492D01*
X167388761Y-99809489D01*
X167392048Y-99803796D01*
X167395062Y-99786706D01*
X167409966Y-99702179D01*
X167412030Y-99698604D01*
X167556018Y-99698604D01*
X167558082Y-99702179D01*
X167576001Y-99803802D01*
X167579288Y-99809495D01*
X167579289Y-99809498D01*
X167592847Y-99832981D01*
X167629410Y-99896310D01*
X167711238Y-99964972D01*
X167811616Y-100001506D01*
X167918434Y-100001506D01*
X168018812Y-99964972D01*
X168100640Y-99896310D01*
X168137203Y-99832981D01*
X168150761Y-99809498D01*
X168150762Y-99809495D01*
X168154049Y-99803802D01*
X168171967Y-99702185D01*
X168174033Y-99698606D01*
X168318017Y-99698606D01*
X168320083Y-99702185D01*
X168338001Y-99803802D01*
X168341288Y-99809495D01*
X168341289Y-99809498D01*
X168354847Y-99832981D01*
X168391410Y-99896310D01*
X168473238Y-99964972D01*
X168573616Y-100001506D01*
X168680434Y-100001506D01*
X168780812Y-99964972D01*
X168862640Y-99896310D01*
X168899203Y-99832981D01*
X168912761Y-99809498D01*
X168912762Y-99809495D01*
X168916049Y-99803802D01*
X168933967Y-99702185D01*
X168936033Y-99698606D01*
X169080017Y-99698606D01*
X169082083Y-99702185D01*
X169100001Y-99803802D01*
X169103288Y-99809495D01*
X169103289Y-99809498D01*
X169116847Y-99832981D01*
X169153410Y-99896310D01*
X169235238Y-99964972D01*
X169335616Y-100001506D01*
X169442434Y-100001506D01*
X169542812Y-99964972D01*
X169624640Y-99896310D01*
X169661203Y-99832981D01*
X169674761Y-99809498D01*
X169674762Y-99809495D01*
X169678049Y-99803802D01*
X169695967Y-99702185D01*
X169698033Y-99698606D01*
X169842017Y-99698606D01*
X169844083Y-99702185D01*
X169862001Y-99803802D01*
X169865288Y-99809495D01*
X169865289Y-99809498D01*
X169878847Y-99832981D01*
X169915410Y-99896310D01*
X169997238Y-99964972D01*
X170097616Y-100001506D01*
X170204434Y-100001506D01*
X170304812Y-99964972D01*
X170386640Y-99896310D01*
X170423203Y-99832981D01*
X170436761Y-99809498D01*
X170436762Y-99809495D01*
X170440049Y-99803802D01*
X170457967Y-99702185D01*
X170460033Y-99698606D01*
X170604017Y-99698606D01*
X170606083Y-99702185D01*
X170624001Y-99803802D01*
X170627288Y-99809495D01*
X170627289Y-99809498D01*
X170640847Y-99832981D01*
X170677410Y-99896310D01*
X170759238Y-99964972D01*
X170859616Y-100001506D01*
X170966434Y-100001506D01*
X171066812Y-99964972D01*
X171148640Y-99896310D01*
X171185203Y-99832981D01*
X171198761Y-99809498D01*
X171198762Y-99809495D01*
X171202049Y-99803802D01*
X171219967Y-99702185D01*
X171222033Y-99698606D01*
X171366017Y-99698606D01*
X171368083Y-99702185D01*
X171386001Y-99803802D01*
X171389288Y-99809495D01*
X171389289Y-99809498D01*
X171402847Y-99832981D01*
X171439410Y-99896310D01*
X171521238Y-99964972D01*
X171621616Y-100001506D01*
X171728434Y-100001506D01*
X171828812Y-99964972D01*
X171910640Y-99896310D01*
X171947203Y-99832981D01*
X171960761Y-99809498D01*
X171960762Y-99809495D01*
X171964049Y-99803802D01*
X171981967Y-99702185D01*
X171984033Y-99698606D01*
X172128017Y-99698606D01*
X172130083Y-99702185D01*
X172148001Y-99803802D01*
X172151288Y-99809495D01*
X172151289Y-99809498D01*
X172164847Y-99832981D01*
X172201410Y-99896310D01*
X172283238Y-99964972D01*
X172383616Y-100001506D01*
X172490434Y-100001506D01*
X172590812Y-99964972D01*
X172672640Y-99896310D01*
X172709203Y-99832981D01*
X172722761Y-99809498D01*
X172722762Y-99809495D01*
X172726049Y-99803802D01*
X172743967Y-99702185D01*
X172746033Y-99698606D01*
X172890017Y-99698606D01*
X172892083Y-99702185D01*
X172910001Y-99803802D01*
X172913288Y-99809495D01*
X172913289Y-99809498D01*
X172926847Y-99832981D01*
X172963410Y-99896310D01*
X173045238Y-99964972D01*
X173145616Y-100001506D01*
X173252434Y-100001506D01*
X173352812Y-99964972D01*
X173434640Y-99896310D01*
X173471203Y-99832981D01*
X173484761Y-99809498D01*
X173484762Y-99809495D01*
X173488049Y-99803802D01*
X173505967Y-99702185D01*
X173508033Y-99698606D01*
X173652017Y-99698606D01*
X173654083Y-99702185D01*
X173672001Y-99803802D01*
X173675288Y-99809495D01*
X173675289Y-99809498D01*
X173688847Y-99832981D01*
X173725410Y-99896310D01*
X173807238Y-99964972D01*
X173907616Y-100001506D01*
X174014434Y-100001506D01*
X174114812Y-99964972D01*
X174196640Y-99896310D01*
X174233203Y-99832981D01*
X174246761Y-99809498D01*
X174246762Y-99809495D01*
X174250049Y-99803802D01*
X174267967Y-99702185D01*
X174270033Y-99698606D01*
X174414017Y-99698606D01*
X174416083Y-99702185D01*
X174434001Y-99803802D01*
X174437288Y-99809495D01*
X174437289Y-99809498D01*
X174450847Y-99832981D01*
X174487410Y-99896310D01*
X174569238Y-99964972D01*
X174669616Y-100001506D01*
X174776434Y-100001506D01*
X174876812Y-99964972D01*
X174958640Y-99896310D01*
X174995203Y-99832981D01*
X175008761Y-99809498D01*
X175008762Y-99809495D01*
X175012049Y-99803802D01*
X175029967Y-99702185D01*
X175032033Y-99698606D01*
X175176017Y-99698606D01*
X175178083Y-99702185D01*
X175196001Y-99803802D01*
X175199288Y-99809495D01*
X175199289Y-99809498D01*
X175212847Y-99832981D01*
X175249410Y-99896310D01*
X175331238Y-99964972D01*
X175431616Y-100001506D01*
X175538434Y-100001506D01*
X175638812Y-99964972D01*
X175720640Y-99896310D01*
X175757203Y-99832981D01*
X175770761Y-99809498D01*
X175770762Y-99809495D01*
X175774049Y-99803802D01*
X175791967Y-99702185D01*
X175794033Y-99698606D01*
X175938017Y-99698606D01*
X175940083Y-99702185D01*
X175958001Y-99803802D01*
X175961288Y-99809495D01*
X175961289Y-99809498D01*
X175974847Y-99832981D01*
X176011410Y-99896310D01*
X176093238Y-99964972D01*
X176193616Y-100001506D01*
X176300434Y-100001506D01*
X176400812Y-99964972D01*
X176482640Y-99896310D01*
X176519203Y-99832981D01*
X176532761Y-99809498D01*
X176532762Y-99809495D01*
X176536049Y-99803802D01*
X176553967Y-99702185D01*
X176556033Y-99698606D01*
X176700017Y-99698606D01*
X176702083Y-99702185D01*
X176720001Y-99803802D01*
X176723288Y-99809495D01*
X176723289Y-99809498D01*
X176736847Y-99832981D01*
X176773410Y-99896310D01*
X176855238Y-99964972D01*
X176955616Y-100001506D01*
X177062434Y-100001506D01*
X177162812Y-99964972D01*
X177244640Y-99896310D01*
X177281203Y-99832981D01*
X177294761Y-99809498D01*
X177294762Y-99809495D01*
X177298049Y-99803802D01*
X177315967Y-99702185D01*
X177318033Y-99698606D01*
X177462017Y-99698606D01*
X177464083Y-99702185D01*
X177482001Y-99803802D01*
X177485288Y-99809495D01*
X177485289Y-99809498D01*
X177498847Y-99832981D01*
X177535410Y-99896310D01*
X177617238Y-99964972D01*
X177717616Y-100001506D01*
X177824434Y-100001506D01*
X177924812Y-99964972D01*
X178006640Y-99896310D01*
X178043203Y-99832981D01*
X178056761Y-99809498D01*
X178056762Y-99809495D01*
X178060049Y-99803802D01*
X178077967Y-99702185D01*
X178080033Y-99698606D01*
X178224017Y-99698606D01*
X178226083Y-99702185D01*
X178244001Y-99803802D01*
X178247288Y-99809495D01*
X178247289Y-99809498D01*
X178260847Y-99832981D01*
X178297410Y-99896310D01*
X178379238Y-99964972D01*
X178479616Y-100001506D01*
X178586434Y-100001506D01*
X178686812Y-99964972D01*
X178768640Y-99896310D01*
X178805203Y-99832981D01*
X178818761Y-99809498D01*
X178818762Y-99809495D01*
X178822049Y-99803802D01*
X178839967Y-99702185D01*
X178842033Y-99698606D01*
X178986017Y-99698606D01*
X178988083Y-99702185D01*
X179006001Y-99803802D01*
X179009288Y-99809495D01*
X179009289Y-99809498D01*
X179022847Y-99832981D01*
X179059410Y-99896310D01*
X179141238Y-99964972D01*
X179241616Y-100001506D01*
X179348434Y-100001506D01*
X179448812Y-99964972D01*
X179530640Y-99896310D01*
X179567203Y-99832981D01*
X179580761Y-99809498D01*
X179580762Y-99809495D01*
X179584049Y-99803802D01*
X179601967Y-99702185D01*
X179604033Y-99698606D01*
X179748017Y-99698606D01*
X179750083Y-99702185D01*
X179768001Y-99803802D01*
X179771288Y-99809495D01*
X179771289Y-99809498D01*
X179784847Y-99832981D01*
X179821410Y-99896310D01*
X179903238Y-99964972D01*
X180003616Y-100001506D01*
X180110434Y-100001506D01*
X180210812Y-99964972D01*
X180292640Y-99896310D01*
X180329203Y-99832981D01*
X180342761Y-99809498D01*
X180342762Y-99809495D01*
X180346049Y-99803802D01*
X180363967Y-99702185D01*
X180366033Y-99698606D01*
X180510017Y-99698606D01*
X180512083Y-99702185D01*
X180530001Y-99803802D01*
X180533288Y-99809495D01*
X180533289Y-99809498D01*
X180546847Y-99832981D01*
X180583410Y-99896310D01*
X180665238Y-99964972D01*
X180765616Y-100001506D01*
X180872434Y-100001506D01*
X180972812Y-99964972D01*
X181054640Y-99896310D01*
X181091203Y-99832981D01*
X181104761Y-99809498D01*
X181104762Y-99809495D01*
X181108049Y-99803802D01*
X181125967Y-99702185D01*
X181128033Y-99698606D01*
X181272017Y-99698606D01*
X181274083Y-99702185D01*
X181292001Y-99803802D01*
X181295288Y-99809495D01*
X181295289Y-99809498D01*
X181308847Y-99832981D01*
X181345410Y-99896310D01*
X181427238Y-99964972D01*
X181527616Y-100001506D01*
X181634434Y-100001506D01*
X181734812Y-99964972D01*
X181816640Y-99896310D01*
X181853203Y-99832981D01*
X181866761Y-99809498D01*
X181866762Y-99809495D01*
X181870049Y-99803802D01*
X181887967Y-99702185D01*
X181890033Y-99698606D01*
X182034017Y-99698606D01*
X182036083Y-99702185D01*
X182054001Y-99803802D01*
X182057288Y-99809495D01*
X182057289Y-99809498D01*
X182070847Y-99832981D01*
X182107410Y-99896310D01*
X182189238Y-99964972D01*
X182289616Y-100001506D01*
X182396434Y-100001506D01*
X182496812Y-99964972D01*
X182578640Y-99896310D01*
X182615203Y-99832981D01*
X182628761Y-99809498D01*
X182628762Y-99809495D01*
X182632049Y-99803802D01*
X182649967Y-99702185D01*
X182652033Y-99698606D01*
X182796017Y-99698606D01*
X182798083Y-99702185D01*
X182816001Y-99803802D01*
X182819288Y-99809495D01*
X182819289Y-99809498D01*
X182832847Y-99832981D01*
X182869410Y-99896310D01*
X182951238Y-99964972D01*
X183051616Y-100001506D01*
X183158434Y-100001506D01*
X183258812Y-99964972D01*
X183340640Y-99896310D01*
X183377203Y-99832981D01*
X183390761Y-99809498D01*
X183390762Y-99809495D01*
X183394049Y-99803802D01*
X183411967Y-99702185D01*
X183414033Y-99698606D01*
X183558017Y-99698606D01*
X183560083Y-99702185D01*
X183578001Y-99803802D01*
X183581288Y-99809495D01*
X183581289Y-99809498D01*
X183594847Y-99832981D01*
X183631410Y-99896310D01*
X183713238Y-99964972D01*
X183813616Y-100001506D01*
X183920434Y-100001506D01*
X184020812Y-99964972D01*
X184102640Y-99896310D01*
X184139203Y-99832981D01*
X184152761Y-99809498D01*
X184152762Y-99809495D01*
X184156049Y-99803802D01*
X184173967Y-99702185D01*
X184176033Y-99698606D01*
X184320017Y-99698606D01*
X184322083Y-99702185D01*
X184340001Y-99803802D01*
X184343288Y-99809495D01*
X184343289Y-99809498D01*
X184356847Y-99832981D01*
X184393410Y-99896310D01*
X184475238Y-99964972D01*
X184575616Y-100001506D01*
X184682434Y-100001506D01*
X184782812Y-99964972D01*
X184864640Y-99896310D01*
X184901203Y-99832981D01*
X184914761Y-99809498D01*
X184914762Y-99809495D01*
X184918049Y-99803802D01*
X184935967Y-99702185D01*
X184938033Y-99698606D01*
X185082017Y-99698606D01*
X185084083Y-99702185D01*
X185102001Y-99803802D01*
X185105288Y-99809495D01*
X185105289Y-99809498D01*
X185118847Y-99832981D01*
X185155410Y-99896310D01*
X185237238Y-99964972D01*
X185337616Y-100001506D01*
X185444434Y-100001506D01*
X185544812Y-99964972D01*
X185626640Y-99896310D01*
X185663203Y-99832981D01*
X185676761Y-99809498D01*
X185676762Y-99809495D01*
X185680049Y-99803802D01*
X185697967Y-99702185D01*
X185700033Y-99698606D01*
X185844017Y-99698606D01*
X185846083Y-99702185D01*
X185864001Y-99803802D01*
X185867288Y-99809495D01*
X185867289Y-99809498D01*
X185880847Y-99832981D01*
X185917410Y-99896310D01*
X185999238Y-99964972D01*
X186099616Y-100001506D01*
X186206434Y-100001506D01*
X186306812Y-99964972D01*
X186388640Y-99896310D01*
X186425203Y-99832981D01*
X186438761Y-99809498D01*
X186438762Y-99809495D01*
X186442049Y-99803802D01*
X186459967Y-99702185D01*
X186462033Y-99698606D01*
X186606017Y-99698606D01*
X186608083Y-99702185D01*
X186626001Y-99803802D01*
X186629288Y-99809495D01*
X186629289Y-99809498D01*
X186642847Y-99832981D01*
X186679410Y-99896310D01*
X186761238Y-99964972D01*
X186861616Y-100001506D01*
X186968434Y-100001506D01*
X187068812Y-99964972D01*
X187150640Y-99896310D01*
X187187203Y-99832981D01*
X187200761Y-99809498D01*
X187200762Y-99809495D01*
X187204049Y-99803802D01*
X187221967Y-99702185D01*
X187224033Y-99698606D01*
X187368017Y-99698606D01*
X187370083Y-99702185D01*
X187388001Y-99803802D01*
X187391288Y-99809495D01*
X187391289Y-99809498D01*
X187404847Y-99832981D01*
X187441410Y-99896310D01*
X187523238Y-99964972D01*
X187623616Y-100001506D01*
X187730434Y-100001506D01*
X187830812Y-99964972D01*
X187912640Y-99896310D01*
X187949203Y-99832981D01*
X187962761Y-99809498D01*
X187962762Y-99809495D01*
X187966049Y-99803802D01*
X187984598Y-99698606D01*
X187966049Y-99593410D01*
X187962762Y-99587717D01*
X187962761Y-99587714D01*
X187915931Y-99506603D01*
X187912640Y-99500902D01*
X187830812Y-99432240D01*
X187730434Y-99395706D01*
X187623616Y-99395706D01*
X187580948Y-99411236D01*
X187529420Y-99429990D01*
X187529419Y-99429991D01*
X187523239Y-99432240D01*
X187441410Y-99500902D01*
X187438121Y-99506599D01*
X187391289Y-99587714D01*
X187391288Y-99587717D01*
X187388001Y-99593410D01*
X187386860Y-99599884D01*
X187386859Y-99599885D01*
X187370083Y-99695027D01*
X187368017Y-99698606D01*
X187224033Y-99698606D01*
X187221967Y-99695027D01*
X187205191Y-99599885D01*
X187205190Y-99599884D01*
X187204049Y-99593410D01*
X187200762Y-99587717D01*
X187200761Y-99587714D01*
X187153931Y-99506603D01*
X187150640Y-99500902D01*
X187068812Y-99432240D01*
X186968434Y-99395706D01*
X186861616Y-99395706D01*
X186818948Y-99411236D01*
X186767420Y-99429990D01*
X186767419Y-99429991D01*
X186761239Y-99432240D01*
X186679410Y-99500902D01*
X186676121Y-99506599D01*
X186629289Y-99587714D01*
X186629288Y-99587717D01*
X186626001Y-99593410D01*
X186624860Y-99599884D01*
X186624859Y-99599885D01*
X186608083Y-99695027D01*
X186606017Y-99698606D01*
X186462033Y-99698606D01*
X186459967Y-99695027D01*
X186443191Y-99599885D01*
X186443190Y-99599884D01*
X186442049Y-99593410D01*
X186438762Y-99587717D01*
X186438761Y-99587714D01*
X186391931Y-99506603D01*
X186388640Y-99500902D01*
X186306812Y-99432240D01*
X186206434Y-99395706D01*
X186099616Y-99395706D01*
X186056948Y-99411236D01*
X186005420Y-99429990D01*
X186005419Y-99429991D01*
X185999239Y-99432240D01*
X185917410Y-99500902D01*
X185914121Y-99506599D01*
X185867289Y-99587714D01*
X185867288Y-99587717D01*
X185864001Y-99593410D01*
X185862860Y-99599884D01*
X185862859Y-99599885D01*
X185846083Y-99695027D01*
X185844017Y-99698606D01*
X185700033Y-99698606D01*
X185697967Y-99695027D01*
X185681191Y-99599885D01*
X185681190Y-99599884D01*
X185680049Y-99593410D01*
X185676762Y-99587717D01*
X185676761Y-99587714D01*
X185629931Y-99506603D01*
X185626640Y-99500902D01*
X185544812Y-99432240D01*
X185444434Y-99395706D01*
X185337616Y-99395706D01*
X185294948Y-99411236D01*
X185243420Y-99429990D01*
X185243419Y-99429991D01*
X185237239Y-99432240D01*
X185155410Y-99500902D01*
X185152121Y-99506599D01*
X185105289Y-99587714D01*
X185105288Y-99587717D01*
X185102001Y-99593410D01*
X185100860Y-99599884D01*
X185100859Y-99599885D01*
X185084083Y-99695027D01*
X185082017Y-99698606D01*
X184938033Y-99698606D01*
X184935967Y-99695027D01*
X184919191Y-99599885D01*
X184919190Y-99599884D01*
X184918049Y-99593410D01*
X184914762Y-99587717D01*
X184914761Y-99587714D01*
X184867931Y-99506603D01*
X184864640Y-99500902D01*
X184782812Y-99432240D01*
X184682434Y-99395706D01*
X184575616Y-99395706D01*
X184532948Y-99411236D01*
X184481420Y-99429990D01*
X184481419Y-99429991D01*
X184475239Y-99432240D01*
X184393410Y-99500902D01*
X184390121Y-99506599D01*
X184343289Y-99587714D01*
X184343288Y-99587717D01*
X184340001Y-99593410D01*
X184338860Y-99599884D01*
X184338859Y-99599885D01*
X184322083Y-99695027D01*
X184320017Y-99698606D01*
X184176033Y-99698606D01*
X184173967Y-99695027D01*
X184157191Y-99599885D01*
X184157190Y-99599884D01*
X184156049Y-99593410D01*
X184152762Y-99587717D01*
X184152761Y-99587714D01*
X184105931Y-99506603D01*
X184102640Y-99500902D01*
X184020812Y-99432240D01*
X183920434Y-99395706D01*
X183813616Y-99395706D01*
X183770948Y-99411236D01*
X183719420Y-99429990D01*
X183719419Y-99429991D01*
X183713239Y-99432240D01*
X183631410Y-99500902D01*
X183628121Y-99506599D01*
X183581289Y-99587714D01*
X183581288Y-99587717D01*
X183578001Y-99593410D01*
X183576860Y-99599884D01*
X183576859Y-99599885D01*
X183560083Y-99695027D01*
X183558017Y-99698606D01*
X183414033Y-99698606D01*
X183411967Y-99695027D01*
X183395191Y-99599885D01*
X183395190Y-99599884D01*
X183394049Y-99593410D01*
X183390762Y-99587717D01*
X183390761Y-99587714D01*
X183343931Y-99506603D01*
X183340640Y-99500902D01*
X183258812Y-99432240D01*
X183158434Y-99395706D01*
X183051616Y-99395706D01*
X183008948Y-99411236D01*
X182957420Y-99429990D01*
X182957419Y-99429991D01*
X182951239Y-99432240D01*
X182869410Y-99500902D01*
X182866121Y-99506599D01*
X182819289Y-99587714D01*
X182819288Y-99587717D01*
X182816001Y-99593410D01*
X182814860Y-99599884D01*
X182814859Y-99599885D01*
X182798083Y-99695027D01*
X182796017Y-99698606D01*
X182652033Y-99698606D01*
X182649967Y-99695027D01*
X182633191Y-99599885D01*
X182633190Y-99599884D01*
X182632049Y-99593410D01*
X182628762Y-99587717D01*
X182628761Y-99587714D01*
X182581931Y-99506603D01*
X182578640Y-99500902D01*
X182496812Y-99432240D01*
X182396434Y-99395706D01*
X182289616Y-99395706D01*
X182246948Y-99411236D01*
X182195420Y-99429990D01*
X182195419Y-99429991D01*
X182189239Y-99432240D01*
X182107410Y-99500902D01*
X182104121Y-99506599D01*
X182057289Y-99587714D01*
X182057288Y-99587717D01*
X182054001Y-99593410D01*
X182052860Y-99599884D01*
X182052859Y-99599885D01*
X182036083Y-99695027D01*
X182034017Y-99698606D01*
X181890033Y-99698606D01*
X181887967Y-99695027D01*
X181871191Y-99599885D01*
X181871190Y-99599884D01*
X181870049Y-99593410D01*
X181866762Y-99587717D01*
X181866761Y-99587714D01*
X181819931Y-99506603D01*
X181816640Y-99500902D01*
X181734812Y-99432240D01*
X181634434Y-99395706D01*
X181527616Y-99395706D01*
X181484948Y-99411236D01*
X181433420Y-99429990D01*
X181433419Y-99429991D01*
X181427239Y-99432240D01*
X181345410Y-99500902D01*
X181342121Y-99506599D01*
X181295289Y-99587714D01*
X181295288Y-99587717D01*
X181292001Y-99593410D01*
X181290860Y-99599884D01*
X181290859Y-99599885D01*
X181274083Y-99695027D01*
X181272017Y-99698606D01*
X181128033Y-99698606D01*
X181125967Y-99695027D01*
X181109191Y-99599885D01*
X181109190Y-99599884D01*
X181108049Y-99593410D01*
X181104762Y-99587717D01*
X181104761Y-99587714D01*
X181057931Y-99506603D01*
X181054640Y-99500902D01*
X180972812Y-99432240D01*
X180872434Y-99395706D01*
X180765616Y-99395706D01*
X180722948Y-99411236D01*
X180671420Y-99429990D01*
X180671419Y-99429991D01*
X180665239Y-99432240D01*
X180583410Y-99500902D01*
X180580121Y-99506599D01*
X180533289Y-99587714D01*
X180533288Y-99587717D01*
X180530001Y-99593410D01*
X180528860Y-99599884D01*
X180528859Y-99599885D01*
X180512083Y-99695027D01*
X180510017Y-99698606D01*
X180366033Y-99698606D01*
X180363967Y-99695027D01*
X180347191Y-99599885D01*
X180347190Y-99599884D01*
X180346049Y-99593410D01*
X180342762Y-99587717D01*
X180342761Y-99587714D01*
X180295931Y-99506603D01*
X180292640Y-99500902D01*
X180210812Y-99432240D01*
X180110434Y-99395706D01*
X180003616Y-99395706D01*
X179960948Y-99411236D01*
X179909420Y-99429990D01*
X179909419Y-99429991D01*
X179903239Y-99432240D01*
X179821410Y-99500902D01*
X179818121Y-99506599D01*
X179771289Y-99587714D01*
X179771288Y-99587717D01*
X179768001Y-99593410D01*
X179766860Y-99599884D01*
X179766859Y-99599885D01*
X179750083Y-99695027D01*
X179748017Y-99698606D01*
X179604033Y-99698606D01*
X179601967Y-99695027D01*
X179585191Y-99599885D01*
X179585190Y-99599884D01*
X179584049Y-99593410D01*
X179580762Y-99587717D01*
X179580761Y-99587714D01*
X179533931Y-99506603D01*
X179530640Y-99500902D01*
X179448812Y-99432240D01*
X179348434Y-99395706D01*
X179241616Y-99395706D01*
X179198948Y-99411236D01*
X179147420Y-99429990D01*
X179147419Y-99429991D01*
X179141239Y-99432240D01*
X179059410Y-99500902D01*
X179056121Y-99506599D01*
X179009289Y-99587714D01*
X179009288Y-99587717D01*
X179006001Y-99593410D01*
X179004860Y-99599884D01*
X179004859Y-99599885D01*
X178988083Y-99695027D01*
X178986017Y-99698606D01*
X178842033Y-99698606D01*
X178839967Y-99695027D01*
X178823191Y-99599885D01*
X178823190Y-99599884D01*
X178822049Y-99593410D01*
X178818762Y-99587717D01*
X178818761Y-99587714D01*
X178771931Y-99506603D01*
X178768640Y-99500902D01*
X178686812Y-99432240D01*
X178586434Y-99395706D01*
X178479616Y-99395706D01*
X178436948Y-99411236D01*
X178385420Y-99429990D01*
X178385419Y-99429991D01*
X178379239Y-99432240D01*
X178297410Y-99500902D01*
X178294121Y-99506599D01*
X178247289Y-99587714D01*
X178247288Y-99587717D01*
X178244001Y-99593410D01*
X178242860Y-99599884D01*
X178242859Y-99599885D01*
X178226083Y-99695027D01*
X178224017Y-99698606D01*
X178080033Y-99698606D01*
X178077967Y-99695027D01*
X178061191Y-99599885D01*
X178061190Y-99599884D01*
X178060049Y-99593410D01*
X178056762Y-99587717D01*
X178056761Y-99587714D01*
X178009931Y-99506603D01*
X178006640Y-99500902D01*
X177924812Y-99432240D01*
X177824434Y-99395706D01*
X177717616Y-99395706D01*
X177674948Y-99411236D01*
X177623420Y-99429990D01*
X177623419Y-99429991D01*
X177617239Y-99432240D01*
X177535410Y-99500902D01*
X177532121Y-99506599D01*
X177485289Y-99587714D01*
X177485288Y-99587717D01*
X177482001Y-99593410D01*
X177480860Y-99599884D01*
X177480859Y-99599885D01*
X177464083Y-99695027D01*
X177462017Y-99698606D01*
X177318033Y-99698606D01*
X177315967Y-99695027D01*
X177299191Y-99599885D01*
X177299190Y-99599884D01*
X177298049Y-99593410D01*
X177294762Y-99587717D01*
X177294761Y-99587714D01*
X177247931Y-99506603D01*
X177244640Y-99500902D01*
X177162812Y-99432240D01*
X177062434Y-99395706D01*
X176955616Y-99395706D01*
X176912948Y-99411236D01*
X176861420Y-99429990D01*
X176861419Y-99429991D01*
X176855239Y-99432240D01*
X176773410Y-99500902D01*
X176770121Y-99506599D01*
X176723289Y-99587714D01*
X176723288Y-99587717D01*
X176720001Y-99593410D01*
X176718860Y-99599884D01*
X176718859Y-99599885D01*
X176702083Y-99695027D01*
X176700017Y-99698606D01*
X176556033Y-99698606D01*
X176553967Y-99695027D01*
X176537191Y-99599885D01*
X176537190Y-99599884D01*
X176536049Y-99593410D01*
X176532762Y-99587717D01*
X176532761Y-99587714D01*
X176485931Y-99506603D01*
X176482640Y-99500902D01*
X176400812Y-99432240D01*
X176300434Y-99395706D01*
X176193616Y-99395706D01*
X176150948Y-99411236D01*
X176099420Y-99429990D01*
X176099419Y-99429991D01*
X176093239Y-99432240D01*
X176011410Y-99500902D01*
X176008121Y-99506599D01*
X175961289Y-99587714D01*
X175961288Y-99587717D01*
X175958001Y-99593410D01*
X175956860Y-99599884D01*
X175956859Y-99599885D01*
X175940083Y-99695027D01*
X175938017Y-99698606D01*
X175794033Y-99698606D01*
X175791967Y-99695027D01*
X175775191Y-99599885D01*
X175775190Y-99599884D01*
X175774049Y-99593410D01*
X175770762Y-99587717D01*
X175770761Y-99587714D01*
X175723931Y-99506603D01*
X175720640Y-99500902D01*
X175638812Y-99432240D01*
X175538434Y-99395706D01*
X175431616Y-99395706D01*
X175388948Y-99411236D01*
X175337420Y-99429990D01*
X175337419Y-99429991D01*
X175331239Y-99432240D01*
X175249410Y-99500902D01*
X175246121Y-99506599D01*
X175199289Y-99587714D01*
X175199288Y-99587717D01*
X175196001Y-99593410D01*
X175194860Y-99599884D01*
X175194859Y-99599885D01*
X175178083Y-99695027D01*
X175176017Y-99698606D01*
X175032033Y-99698606D01*
X175029967Y-99695027D01*
X175013191Y-99599885D01*
X175013190Y-99599884D01*
X175012049Y-99593410D01*
X175008762Y-99587717D01*
X175008761Y-99587714D01*
X174961931Y-99506603D01*
X174958640Y-99500902D01*
X174876812Y-99432240D01*
X174776434Y-99395706D01*
X174669616Y-99395706D01*
X174626948Y-99411236D01*
X174575420Y-99429990D01*
X174575419Y-99429991D01*
X174569239Y-99432240D01*
X174487410Y-99500902D01*
X174484121Y-99506599D01*
X174437289Y-99587714D01*
X174437288Y-99587717D01*
X174434001Y-99593410D01*
X174432860Y-99599884D01*
X174432859Y-99599885D01*
X174416083Y-99695027D01*
X174414017Y-99698606D01*
X174270033Y-99698606D01*
X174267967Y-99695027D01*
X174251191Y-99599885D01*
X174251190Y-99599884D01*
X174250049Y-99593410D01*
X174246762Y-99587717D01*
X174246761Y-99587714D01*
X174199931Y-99506603D01*
X174196640Y-99500902D01*
X174114812Y-99432240D01*
X174014434Y-99395706D01*
X173907616Y-99395706D01*
X173864948Y-99411236D01*
X173813420Y-99429990D01*
X173813419Y-99429991D01*
X173807239Y-99432240D01*
X173725410Y-99500902D01*
X173722121Y-99506599D01*
X173675289Y-99587714D01*
X173675288Y-99587717D01*
X173672001Y-99593410D01*
X173670860Y-99599884D01*
X173670859Y-99599885D01*
X173654083Y-99695027D01*
X173652017Y-99698606D01*
X173508033Y-99698606D01*
X173505967Y-99695027D01*
X173489191Y-99599885D01*
X173489190Y-99599884D01*
X173488049Y-99593410D01*
X173484762Y-99587717D01*
X173484761Y-99587714D01*
X173437931Y-99506603D01*
X173434640Y-99500902D01*
X173352812Y-99432240D01*
X173252434Y-99395706D01*
X173145616Y-99395706D01*
X173102948Y-99411236D01*
X173051420Y-99429990D01*
X173051419Y-99429991D01*
X173045239Y-99432240D01*
X172963410Y-99500902D01*
X172960121Y-99506599D01*
X172913289Y-99587714D01*
X172913288Y-99587717D01*
X172910001Y-99593410D01*
X172908860Y-99599884D01*
X172908859Y-99599885D01*
X172892083Y-99695027D01*
X172890017Y-99698606D01*
X172746033Y-99698606D01*
X172743967Y-99695027D01*
X172727191Y-99599885D01*
X172727190Y-99599884D01*
X172726049Y-99593410D01*
X172722762Y-99587717D01*
X172722761Y-99587714D01*
X172675931Y-99506603D01*
X172672640Y-99500902D01*
X172590812Y-99432240D01*
X172490434Y-99395706D01*
X172383616Y-99395706D01*
X172340948Y-99411236D01*
X172289420Y-99429990D01*
X172289419Y-99429991D01*
X172283239Y-99432240D01*
X172201410Y-99500902D01*
X172198121Y-99506599D01*
X172151289Y-99587714D01*
X172151288Y-99587717D01*
X172148001Y-99593410D01*
X172146860Y-99599884D01*
X172146859Y-99599885D01*
X172130083Y-99695027D01*
X172128017Y-99698606D01*
X171984033Y-99698606D01*
X171981967Y-99695027D01*
X171965191Y-99599885D01*
X171965190Y-99599884D01*
X171964049Y-99593410D01*
X171960762Y-99587717D01*
X171960761Y-99587714D01*
X171913931Y-99506603D01*
X171910640Y-99500902D01*
X171828812Y-99432240D01*
X171728434Y-99395706D01*
X171621616Y-99395706D01*
X171578948Y-99411236D01*
X171527420Y-99429990D01*
X171527419Y-99429991D01*
X171521239Y-99432240D01*
X171439410Y-99500902D01*
X171436121Y-99506599D01*
X171389289Y-99587714D01*
X171389288Y-99587717D01*
X171386001Y-99593410D01*
X171384860Y-99599884D01*
X171384859Y-99599885D01*
X171368083Y-99695027D01*
X171366017Y-99698606D01*
X171222033Y-99698606D01*
X171219967Y-99695027D01*
X171203191Y-99599885D01*
X171203190Y-99599884D01*
X171202049Y-99593410D01*
X171198762Y-99587717D01*
X171198761Y-99587714D01*
X171151931Y-99506603D01*
X171148640Y-99500902D01*
X171066812Y-99432240D01*
X170966434Y-99395706D01*
X170859616Y-99395706D01*
X170816948Y-99411236D01*
X170765420Y-99429990D01*
X170765419Y-99429991D01*
X170759239Y-99432240D01*
X170677410Y-99500902D01*
X170674121Y-99506599D01*
X170627289Y-99587714D01*
X170627288Y-99587717D01*
X170624001Y-99593410D01*
X170622860Y-99599884D01*
X170622859Y-99599885D01*
X170606083Y-99695027D01*
X170604017Y-99698606D01*
X170460033Y-99698606D01*
X170457967Y-99695027D01*
X170441191Y-99599885D01*
X170441190Y-99599884D01*
X170440049Y-99593410D01*
X170436762Y-99587717D01*
X170436761Y-99587714D01*
X170389931Y-99506603D01*
X170386640Y-99500902D01*
X170304812Y-99432240D01*
X170204434Y-99395706D01*
X170097616Y-99395706D01*
X170054948Y-99411236D01*
X170003420Y-99429990D01*
X170003419Y-99429991D01*
X169997239Y-99432240D01*
X169915410Y-99500902D01*
X169912121Y-99506599D01*
X169865289Y-99587714D01*
X169865288Y-99587717D01*
X169862001Y-99593410D01*
X169860860Y-99599884D01*
X169860859Y-99599885D01*
X169844083Y-99695027D01*
X169842017Y-99698606D01*
X169698033Y-99698606D01*
X169695967Y-99695027D01*
X169679191Y-99599885D01*
X169679190Y-99599884D01*
X169678049Y-99593410D01*
X169674762Y-99587717D01*
X169674761Y-99587714D01*
X169627931Y-99506603D01*
X169624640Y-99500902D01*
X169542812Y-99432240D01*
X169442434Y-99395706D01*
X169335616Y-99395706D01*
X169292948Y-99411236D01*
X169241420Y-99429990D01*
X169241419Y-99429991D01*
X169235239Y-99432240D01*
X169153410Y-99500902D01*
X169150121Y-99506599D01*
X169103289Y-99587714D01*
X169103288Y-99587717D01*
X169100001Y-99593410D01*
X169098860Y-99599884D01*
X169098859Y-99599885D01*
X169082083Y-99695027D01*
X169080017Y-99698606D01*
X168936033Y-99698606D01*
X168933967Y-99695027D01*
X168917191Y-99599885D01*
X168917190Y-99599884D01*
X168916049Y-99593410D01*
X168912762Y-99587717D01*
X168912761Y-99587714D01*
X168865931Y-99506603D01*
X168862640Y-99500902D01*
X168780812Y-99432240D01*
X168680434Y-99395706D01*
X168573616Y-99395706D01*
X168530948Y-99411236D01*
X168479420Y-99429990D01*
X168479419Y-99429991D01*
X168473239Y-99432240D01*
X168391410Y-99500902D01*
X168388121Y-99506599D01*
X168341289Y-99587714D01*
X168341288Y-99587717D01*
X168338001Y-99593410D01*
X168336860Y-99599884D01*
X168336859Y-99599885D01*
X168320083Y-99695027D01*
X168318017Y-99698606D01*
X168174033Y-99698606D01*
X168171967Y-99695027D01*
X168155191Y-99599885D01*
X168155190Y-99599884D01*
X168154049Y-99593410D01*
X168150762Y-99587717D01*
X168150761Y-99587714D01*
X168103931Y-99506603D01*
X168100640Y-99500902D01*
X168018812Y-99432240D01*
X167918434Y-99395706D01*
X167811616Y-99395706D01*
X167768948Y-99411236D01*
X167717420Y-99429990D01*
X167717419Y-99429991D01*
X167711239Y-99432240D01*
X167629410Y-99500902D01*
X167626121Y-99506599D01*
X167579289Y-99587714D01*
X167579288Y-99587717D01*
X167576001Y-99593410D01*
X167574860Y-99599884D01*
X167574859Y-99599885D01*
X167558083Y-99695027D01*
X167556018Y-99698604D01*
X167412030Y-99698604D01*
X167412031Y-99698602D01*
X167409967Y-99695027D01*
X167393190Y-99599879D01*
X167393189Y-99599878D01*
X167392048Y-99593404D01*
X167388761Y-99587711D01*
X167388760Y-99587708D01*
X167362685Y-99542545D01*
X167338639Y-99500896D01*
X167256811Y-99432234D01*
X167156433Y-99395700D01*
X167049615Y-99395700D01*
X167006947Y-99411230D01*
X166955419Y-99429984D01*
X166955418Y-99429985D01*
X166949238Y-99432234D01*
X166867409Y-99500896D01*
X166864114Y-99506603D01*
X166817288Y-99587708D01*
X166817287Y-99587711D01*
X166814000Y-99593404D01*
X166812859Y-99599878D01*
X166812858Y-99599879D01*
X166796082Y-99695021D01*
X166794016Y-99698600D01*
X166650032Y-99698600D01*
X166647966Y-99695021D01*
X166631190Y-99599879D01*
X166631189Y-99599878D01*
X166630048Y-99593404D01*
X166626761Y-99587711D01*
X166626760Y-99587708D01*
X166600685Y-99542545D01*
X166576639Y-99500896D01*
X166494811Y-99432234D01*
X166394433Y-99395700D01*
X166287615Y-99395700D01*
X166244947Y-99411230D01*
X166193419Y-99429984D01*
X166193418Y-99429985D01*
X166187238Y-99432234D01*
X166105409Y-99500896D01*
X166102114Y-99506603D01*
X166055288Y-99587708D01*
X166055287Y-99587711D01*
X166052000Y-99593404D01*
X166050859Y-99599878D01*
X166050858Y-99599879D01*
X166034082Y-99695022D01*
X166032015Y-99698602D01*
X165888033Y-99698602D01*
X165885966Y-99695022D01*
X165869191Y-99599885D01*
X165869190Y-99599884D01*
X165868049Y-99593410D01*
X165864762Y-99587717D01*
X165864761Y-99587714D01*
X165817931Y-99506603D01*
X165814640Y-99500902D01*
X165732812Y-99432240D01*
X165632434Y-99395706D01*
X165525616Y-99395706D01*
X165482948Y-99411236D01*
X165431420Y-99429990D01*
X165431419Y-99429991D01*
X165425239Y-99432240D01*
X165343410Y-99500902D01*
X165340121Y-99506599D01*
X165293289Y-99587714D01*
X165293288Y-99587717D01*
X165290001Y-99593410D01*
X165288860Y-99599884D01*
X165288859Y-99599885D01*
X165272083Y-99695027D01*
X165270017Y-99698606D01*
X165126033Y-99698606D01*
X165123967Y-99695027D01*
X165107191Y-99599885D01*
X165107190Y-99599884D01*
X165106049Y-99593410D01*
X165102762Y-99587717D01*
X165102761Y-99587714D01*
X165055931Y-99506603D01*
X165052640Y-99500902D01*
X164970812Y-99432240D01*
X164870434Y-99395706D01*
X164763616Y-99395706D01*
X164720948Y-99411236D01*
X164669420Y-99429990D01*
X164669419Y-99429991D01*
X164663239Y-99432240D01*
X164581410Y-99500902D01*
X164578121Y-99506599D01*
X164531289Y-99587714D01*
X164531288Y-99587717D01*
X164528001Y-99593410D01*
X164526860Y-99599884D01*
X164526859Y-99599885D01*
X164510083Y-99695027D01*
X164508017Y-99698606D01*
X164364033Y-99698606D01*
X164361967Y-99695027D01*
X164345191Y-99599885D01*
X164345190Y-99599884D01*
X164344049Y-99593410D01*
X164340762Y-99587717D01*
X164340761Y-99587714D01*
X164293931Y-99506603D01*
X164290640Y-99500902D01*
X164208812Y-99432240D01*
X164108434Y-99395706D01*
X164001616Y-99395706D01*
X163958948Y-99411236D01*
X163907420Y-99429990D01*
X163907419Y-99429991D01*
X163901239Y-99432240D01*
X163819410Y-99500902D01*
X163816121Y-99506599D01*
X163769289Y-99587714D01*
X163769288Y-99587717D01*
X163766001Y-99593410D01*
X163764860Y-99599884D01*
X163764859Y-99599885D01*
X163748083Y-99695027D01*
X163746017Y-99698606D01*
X163602033Y-99698606D01*
X163599967Y-99695027D01*
X163583191Y-99599885D01*
X163583190Y-99599884D01*
X163582049Y-99593410D01*
X163578762Y-99587717D01*
X163578761Y-99587714D01*
X163531931Y-99506603D01*
X163528640Y-99500902D01*
X163446812Y-99432240D01*
X163346434Y-99395706D01*
X163239616Y-99395706D01*
X163196948Y-99411236D01*
X163145420Y-99429990D01*
X163145419Y-99429991D01*
X163139239Y-99432240D01*
X163057410Y-99500902D01*
X163054121Y-99506599D01*
X163007289Y-99587714D01*
X163007288Y-99587717D01*
X163004001Y-99593410D01*
X163002860Y-99599884D01*
X163002859Y-99599885D01*
X162986083Y-99695027D01*
X162984017Y-99698606D01*
X162840033Y-99698606D01*
X162837967Y-99695027D01*
X162821191Y-99599885D01*
X162821190Y-99599884D01*
X162820049Y-99593410D01*
X162816762Y-99587717D01*
X162816761Y-99587714D01*
X162769931Y-99506603D01*
X162766640Y-99500902D01*
X162684812Y-99432240D01*
X162584434Y-99395706D01*
X162477616Y-99395706D01*
X162434948Y-99411236D01*
X162383420Y-99429990D01*
X162383419Y-99429991D01*
X162377239Y-99432240D01*
X162295410Y-99500902D01*
X162292121Y-99506599D01*
X162245289Y-99587714D01*
X162245288Y-99587717D01*
X162242001Y-99593410D01*
X162240860Y-99599884D01*
X162240859Y-99599885D01*
X162224083Y-99695027D01*
X162222017Y-99698606D01*
X162078033Y-99698606D01*
X162075967Y-99695027D01*
X162059191Y-99599885D01*
X162059190Y-99599884D01*
X162058049Y-99593410D01*
X162054762Y-99587717D01*
X162054761Y-99587714D01*
X162007931Y-99506603D01*
X162004640Y-99500902D01*
X161922812Y-99432240D01*
X161822434Y-99395706D01*
X161715616Y-99395706D01*
X161672948Y-99411236D01*
X161621420Y-99429990D01*
X161621419Y-99429991D01*
X161615239Y-99432240D01*
X161533410Y-99500902D01*
X161530121Y-99506599D01*
X161483289Y-99587714D01*
X161483288Y-99587717D01*
X161480001Y-99593410D01*
X161478860Y-99599884D01*
X161478859Y-99599885D01*
X161462083Y-99695027D01*
X161460017Y-99698606D01*
X161316033Y-99698606D01*
X161313967Y-99695027D01*
X161297191Y-99599885D01*
X161297190Y-99599884D01*
X161296049Y-99593410D01*
X161292762Y-99587717D01*
X161292761Y-99587714D01*
X161245931Y-99506603D01*
X161242640Y-99500902D01*
X161160812Y-99432240D01*
X161060434Y-99395706D01*
X160953616Y-99395706D01*
X160910948Y-99411236D01*
X160859420Y-99429990D01*
X160859419Y-99429991D01*
X160853239Y-99432240D01*
X160771410Y-99500902D01*
X160768121Y-99506599D01*
X160721289Y-99587714D01*
X160721288Y-99587717D01*
X160718001Y-99593410D01*
X160716860Y-99599884D01*
X160716859Y-99599885D01*
X160700083Y-99695027D01*
X160698017Y-99698606D01*
X160554033Y-99698606D01*
X160551967Y-99695027D01*
X160535191Y-99599885D01*
X160535190Y-99599884D01*
X160534049Y-99593410D01*
X160530762Y-99587717D01*
X160530761Y-99587714D01*
X160483931Y-99506603D01*
X160480640Y-99500902D01*
X160398812Y-99432240D01*
X160298434Y-99395706D01*
X160191616Y-99395706D01*
X160148948Y-99411236D01*
X160097420Y-99429990D01*
X160097419Y-99429991D01*
X160091239Y-99432240D01*
X160009410Y-99500902D01*
X160006121Y-99506599D01*
X159959289Y-99587714D01*
X159959288Y-99587717D01*
X159956001Y-99593410D01*
X159954860Y-99599884D01*
X159954859Y-99599885D01*
X159938083Y-99695027D01*
X159936017Y-99698606D01*
X159792033Y-99698606D01*
X159789967Y-99695027D01*
X159773191Y-99599885D01*
X159773190Y-99599884D01*
X159772049Y-99593410D01*
X159768762Y-99587717D01*
X159768761Y-99587714D01*
X159721931Y-99506603D01*
X159718640Y-99500902D01*
X159636812Y-99432240D01*
X159536434Y-99395706D01*
X159429616Y-99395706D01*
X159386948Y-99411236D01*
X159335420Y-99429990D01*
X159335419Y-99429991D01*
X159329239Y-99432240D01*
X159247410Y-99500902D01*
X159244121Y-99506599D01*
X159197289Y-99587714D01*
X159197288Y-99587717D01*
X159194001Y-99593410D01*
X159192860Y-99599884D01*
X159192859Y-99599885D01*
X159176083Y-99695027D01*
X159174017Y-99698606D01*
X159030033Y-99698606D01*
X159027967Y-99695027D01*
X159011191Y-99599885D01*
X159011190Y-99599884D01*
X159010049Y-99593410D01*
X159006762Y-99587717D01*
X159006761Y-99587714D01*
X158959931Y-99506603D01*
X158956640Y-99500902D01*
X158874812Y-99432240D01*
X158774434Y-99395706D01*
X158667616Y-99395706D01*
X158624948Y-99411236D01*
X158573420Y-99429990D01*
X158573419Y-99429991D01*
X158567239Y-99432240D01*
X158485410Y-99500902D01*
X158482121Y-99506599D01*
X158435289Y-99587714D01*
X158435288Y-99587717D01*
X158432001Y-99593410D01*
X158430860Y-99599884D01*
X158430859Y-99599885D01*
X158414083Y-99695027D01*
X158412017Y-99698606D01*
X158268033Y-99698606D01*
X158265967Y-99695027D01*
X158249191Y-99599885D01*
X158249190Y-99599884D01*
X158248049Y-99593410D01*
X158244762Y-99587717D01*
X158244761Y-99587714D01*
X158197931Y-99506603D01*
X158194640Y-99500902D01*
X158112812Y-99432240D01*
X158012434Y-99395706D01*
X157905616Y-99395706D01*
X157862948Y-99411236D01*
X157811420Y-99429990D01*
X157811419Y-99429991D01*
X157805239Y-99432240D01*
X157723410Y-99500902D01*
X157720121Y-99506599D01*
X157673289Y-99587714D01*
X157673288Y-99587717D01*
X157670001Y-99593410D01*
X157668860Y-99599884D01*
X157668859Y-99599885D01*
X157652083Y-99695027D01*
X157650017Y-99698606D01*
X157506033Y-99698606D01*
X157503967Y-99695027D01*
X157487191Y-99599885D01*
X157487190Y-99599884D01*
X157486049Y-99593410D01*
X157482762Y-99587717D01*
X157482761Y-99587714D01*
X157435931Y-99506603D01*
X157432640Y-99500902D01*
X157350812Y-99432240D01*
X157250434Y-99395706D01*
X157143616Y-99395706D01*
X157100948Y-99411236D01*
X157049420Y-99429990D01*
X157049419Y-99429991D01*
X157043239Y-99432240D01*
X156961410Y-99500902D01*
X156958121Y-99506599D01*
X156911289Y-99587714D01*
X156911288Y-99587717D01*
X156908001Y-99593410D01*
X156906860Y-99599884D01*
X156906859Y-99599885D01*
X156890083Y-99695027D01*
X156888017Y-99698606D01*
X156744033Y-99698606D01*
X156741967Y-99695027D01*
X156725191Y-99599885D01*
X156725190Y-99599884D01*
X156724049Y-99593410D01*
X156720762Y-99587717D01*
X156720761Y-99587714D01*
X156673931Y-99506603D01*
X156670640Y-99500902D01*
X156588812Y-99432240D01*
X156488434Y-99395706D01*
X156381616Y-99395706D01*
X156338948Y-99411236D01*
X156287420Y-99429990D01*
X156287419Y-99429991D01*
X156281239Y-99432240D01*
X156199410Y-99500902D01*
X156196121Y-99506599D01*
X156149289Y-99587714D01*
X156149288Y-99587717D01*
X156146001Y-99593410D01*
X156144860Y-99599884D01*
X156144859Y-99599885D01*
X156128083Y-99695027D01*
X156126018Y-99698604D01*
X155982030Y-99698604D01*
X155982031Y-99698602D01*
X155979967Y-99695027D01*
X155963190Y-99599879D01*
X155963189Y-99599878D01*
X155962048Y-99593404D01*
X155958761Y-99587711D01*
X155958760Y-99587708D01*
X155932685Y-99542545D01*
X155908639Y-99500896D01*
X155826811Y-99432234D01*
X155726433Y-99395700D01*
X155619615Y-99395700D01*
X155576947Y-99411230D01*
X155525419Y-99429984D01*
X155525418Y-99429985D01*
X155519238Y-99432234D01*
X155437409Y-99500896D01*
X155434114Y-99506603D01*
X155387288Y-99587708D01*
X155387287Y-99587711D01*
X155384000Y-99593404D01*
X155382859Y-99599878D01*
X155382858Y-99599879D01*
X155366082Y-99695021D01*
X155364016Y-99698600D01*
X155220032Y-99698600D01*
X155217966Y-99695021D01*
X155201190Y-99599879D01*
X155201189Y-99599878D01*
X155200048Y-99593404D01*
X155196761Y-99587711D01*
X155196760Y-99587708D01*
X155170685Y-99542545D01*
X155146639Y-99500896D01*
X155064811Y-99432234D01*
X154964433Y-99395700D01*
X154857615Y-99395700D01*
X154814947Y-99411230D01*
X154763419Y-99429984D01*
X154763418Y-99429985D01*
X154757238Y-99432234D01*
X154675409Y-99500896D01*
X154672114Y-99506603D01*
X154625288Y-99587708D01*
X154625287Y-99587711D01*
X154622000Y-99593404D01*
X154620859Y-99599878D01*
X154620858Y-99599879D01*
X154604082Y-99695021D01*
X154602016Y-99698600D01*
X154458032Y-99698600D01*
X154455966Y-99695021D01*
X154439190Y-99599879D01*
X154439189Y-99599878D01*
X154438048Y-99593404D01*
X154434761Y-99587711D01*
X154434760Y-99587708D01*
X154408685Y-99542545D01*
X154384639Y-99500896D01*
X154302811Y-99432234D01*
X154202433Y-99395700D01*
X154095615Y-99395700D01*
X154052947Y-99411230D01*
X154001419Y-99429984D01*
X154001418Y-99429985D01*
X153995238Y-99432234D01*
X153913409Y-99500896D01*
X153910114Y-99506603D01*
X153863288Y-99587708D01*
X153863287Y-99587711D01*
X153860000Y-99593404D01*
X153858859Y-99599878D01*
X153858858Y-99599879D01*
X153842082Y-99695021D01*
X153840016Y-99698600D01*
X153696032Y-99698600D01*
X153693966Y-99695021D01*
X153677190Y-99599879D01*
X153677189Y-99599878D01*
X153676048Y-99593404D01*
X153672761Y-99587711D01*
X153672760Y-99587708D01*
X153646685Y-99542545D01*
X153622639Y-99500896D01*
X153540811Y-99432234D01*
X153440433Y-99395700D01*
X153333615Y-99395700D01*
X153290947Y-99411230D01*
X153239419Y-99429984D01*
X153239418Y-99429985D01*
X153233238Y-99432234D01*
X153151409Y-99500896D01*
X153148114Y-99506603D01*
X153101288Y-99587708D01*
X153101287Y-99587711D01*
X153098000Y-99593404D01*
X153096859Y-99599878D01*
X153096858Y-99599879D01*
X153080082Y-99695021D01*
X153078016Y-99698600D01*
X152934032Y-99698600D01*
X152931966Y-99695021D01*
X152915190Y-99599879D01*
X152915189Y-99599878D01*
X152914048Y-99593404D01*
X152910761Y-99587711D01*
X152910760Y-99587708D01*
X152884685Y-99542545D01*
X152860639Y-99500896D01*
X152778811Y-99432234D01*
X152678433Y-99395700D01*
X152571615Y-99395700D01*
X152528947Y-99411230D01*
X152477419Y-99429984D01*
X152477418Y-99429985D01*
X152471238Y-99432234D01*
X152389409Y-99500896D01*
X152386114Y-99506603D01*
X152339288Y-99587708D01*
X152339287Y-99587711D01*
X152336000Y-99593404D01*
X152334859Y-99599878D01*
X152334858Y-99599879D01*
X152318082Y-99695021D01*
X152316016Y-99698600D01*
X152172032Y-99698600D01*
X152169966Y-99695021D01*
X152153190Y-99599879D01*
X152153189Y-99599878D01*
X152152048Y-99593404D01*
X152148761Y-99587711D01*
X152148760Y-99587708D01*
X152122685Y-99542545D01*
X152098639Y-99500896D01*
X152016811Y-99432234D01*
X151916433Y-99395700D01*
X151809615Y-99395700D01*
X151766947Y-99411230D01*
X151715419Y-99429984D01*
X151715418Y-99429985D01*
X151709238Y-99432234D01*
X151627409Y-99500896D01*
X151624114Y-99506603D01*
X151577288Y-99587708D01*
X151577287Y-99587711D01*
X151574000Y-99593404D01*
X151572859Y-99599878D01*
X151572858Y-99599879D01*
X151556082Y-99695021D01*
X151554016Y-99698600D01*
X151410032Y-99698600D01*
X151407966Y-99695021D01*
X151391190Y-99599879D01*
X151391189Y-99599878D01*
X151390048Y-99593404D01*
X151386761Y-99587711D01*
X151386760Y-99587708D01*
X151360685Y-99542545D01*
X151336639Y-99500896D01*
X151254811Y-99432234D01*
X151154433Y-99395700D01*
X151047615Y-99395700D01*
X151004947Y-99411230D01*
X150953419Y-99429984D01*
X150953418Y-99429985D01*
X150947238Y-99432234D01*
X150865409Y-99500896D01*
X150862114Y-99506603D01*
X150815288Y-99587708D01*
X150815287Y-99587711D01*
X150812000Y-99593404D01*
X150810859Y-99599878D01*
X150810858Y-99599879D01*
X150794082Y-99695021D01*
X150792016Y-99698600D01*
X150648032Y-99698600D01*
X150645966Y-99695021D01*
X150629190Y-99599879D01*
X150629189Y-99599878D01*
X150628048Y-99593404D01*
X150624761Y-99587711D01*
X150624760Y-99587708D01*
X150598685Y-99542545D01*
X150574639Y-99500896D01*
X150492811Y-99432234D01*
X150392433Y-99395700D01*
X150285615Y-99395700D01*
X150242947Y-99411230D01*
X150191419Y-99429984D01*
X150191418Y-99429985D01*
X150185238Y-99432234D01*
X150103409Y-99500896D01*
X150100114Y-99506603D01*
X150053288Y-99587708D01*
X150053287Y-99587711D01*
X150050000Y-99593404D01*
X150031451Y-99698600D01*
X106868325Y-99698600D01*
X106868325Y-98779960D01*
X106868326Y-98779957D01*
X106868325Y-98739007D01*
X106869770Y-98724337D01*
X106880225Y-98671773D01*
X106891454Y-98644663D01*
X106917038Y-98606376D01*
X106937783Y-98585632D01*
X106976070Y-98560050D01*
X107003176Y-98548824D01*
X107055848Y-98538349D01*
X107070510Y-98536906D01*
X107111217Y-98536909D01*
X107111365Y-98536909D01*
X107111373Y-98536906D01*
X150137803Y-98536906D01*
X150186141Y-98554499D01*
G37*
%TD.AperFunction*%
%TD*%
M02*
