%TF.GenerationSoftware,KiCad,Pcbnew,(6.0.7-1)-1*%
%TF.CreationDate,2022-09-06T17:11:03+08:00*%
%TF.ProjectId,ESP_PD210,4553505f-5044-4323-9130-2e6b69636164,rev?*%
%TF.SameCoordinates,Original*%
%TF.FileFunction,Legend,Top*%
%TF.FilePolarity,Positive*%
%FSLAX46Y46*%
G04 Gerber Fmt 4.6, Leading zero omitted, Abs format (unit mm)*
G04 Created by KiCad (PCBNEW (6.0.7-1)-1) date 2022-09-06 17:11:03*
%MOMM*%
%LPD*%
G01*
G04 APERTURE LIST*
%ADD10C,0.120000*%
%ADD11C,0.050000*%
%ADD12C,0.250000*%
G04 APERTURE END LIST*
D10*
%TO.C,AE1*%
X154770000Y-103435000D02*
X153370000Y-103435000D01*
X154770000Y-105235000D02*
X153370000Y-105235000D01*
%TO.C,C14*%
X133810000Y-103722164D02*
X133810000Y-103937836D01*
X134530000Y-103722164D02*
X134530000Y-103937836D01*
%TO.C,R8*%
X166813633Y-99385002D02*
X166506351Y-99385002D01*
X166813633Y-100145002D02*
X166506351Y-100145002D01*
%TO.C,C23*%
X158350000Y-101572164D02*
X158350000Y-101787836D01*
X157630000Y-101572164D02*
X157630000Y-101787836D01*
%TO.C,R23*%
X169760000Y-96038641D02*
X169760000Y-95731359D01*
X169000000Y-96038641D02*
X169000000Y-95731359D01*
%TO.C,C16*%
X166552156Y-100420000D02*
X166767828Y-100420000D01*
X166552156Y-101140000D02*
X166767828Y-101140000D01*
%TO.C,C11*%
X163020000Y-103942833D02*
X163020000Y-103727161D01*
X162300000Y-103942833D02*
X162300000Y-103727161D01*
%TO.C,C8*%
X176187836Y-95955000D02*
X175972164Y-95955000D01*
X176187836Y-96675000D02*
X175972164Y-96675000D01*
%TO.C,TH1*%
X167027258Y-103492500D02*
X166552742Y-103492500D01*
X167027258Y-104537500D02*
X166552742Y-104537500D01*
%TO.C,R5*%
X135760000Y-103676359D02*
X135760000Y-103983641D01*
X135000000Y-103676359D02*
X135000000Y-103983641D01*
%TO.C,R2*%
X158153641Y-96340000D02*
X157846359Y-96340000D01*
X158153641Y-95580000D02*
X157846359Y-95580000D01*
%TO.C,C5*%
X157857836Y-98090000D02*
X157642164Y-98090000D01*
X157857836Y-97370000D02*
X157642164Y-97370000D01*
%TO.C,R1*%
X176233641Y-98970000D02*
X175926359Y-98970000D01*
X176233641Y-98210000D02*
X175926359Y-98210000D01*
%TO.C,C15*%
X164272176Y-95500006D02*
X164487848Y-95500006D01*
X164272176Y-96220006D02*
X164487848Y-96220006D01*
%TO.C,R18*%
X164070000Y-103881359D02*
X164070000Y-104188641D01*
X164830000Y-103881359D02*
X164830000Y-104188641D01*
%TO.C,X1*%
X155040000Y-95730000D02*
X152440000Y-95730000D01*
X152440000Y-95730000D02*
X152440000Y-98930000D01*
%TO.C,R10*%
X140780001Y-103983641D02*
X140780001Y-103676359D01*
X141540001Y-103983641D02*
X141540001Y-103676359D01*
%TO.C,R22*%
X169000000Y-97801359D02*
X169000000Y-98108641D01*
X169760000Y-97801359D02*
X169760000Y-98108641D01*
%TO.C,C13*%
X176187836Y-95675000D02*
X175972164Y-95675000D01*
X176187836Y-94955000D02*
X175972164Y-94955000D01*
%TO.C,C10*%
X166622164Y-102655000D02*
X166837836Y-102655000D01*
X166622164Y-101935000D02*
X166837836Y-101935000D01*
%TO.C,SW1*%
X141297984Y-100260010D02*
X141297984Y-97997269D01*
X143984990Y-102947016D02*
X141297984Y-100260010D01*
X144119340Y-95175913D02*
X146382082Y-95175913D01*
X149069087Y-100125660D02*
X149069087Y-97862918D01*
X146382082Y-95175913D02*
X149069087Y-97862918D01*
X143984990Y-102947016D02*
X146247731Y-102947016D01*
X146180000Y-99065000D02*
G75*
G03*
X146180000Y-99065000I-1000000J0D01*
G01*
%TO.C,R19*%
X178436359Y-104315000D02*
X178743641Y-104315000D01*
X178436359Y-105075000D02*
X178743641Y-105075000D01*
%TO.C,C2*%
X176187836Y-102350000D02*
X175972164Y-102350000D01*
X176187836Y-103070000D02*
X175972164Y-103070000D01*
%TO.C,C7*%
X175972164Y-100175000D02*
X176187836Y-100175000D01*
X175972164Y-99455000D02*
X176187836Y-99455000D01*
%TO.C,C3*%
X176187836Y-100955000D02*
X175972164Y-100955000D01*
X176187836Y-101675000D02*
X175972164Y-101675000D01*
D11*
%TO.C,U1*%
X180100000Y-94715000D02*
X180100000Y-103415000D01*
D10*
X170210000Y-94635000D02*
X170210000Y-103495000D01*
X170410000Y-103695000D02*
X172260000Y-103695000D01*
X172260000Y-94435000D02*
X170410000Y-94435000D01*
X170210000Y-103495000D02*
G75*
G03*
X170410000Y-103695000I200000J0D01*
G01*
X170410000Y-94435000D02*
G75*
G03*
X170210000Y-94635000I0J-200000D01*
G01*
D12*
X178225000Y-102165000D02*
G75*
G03*
X178225000Y-102165000I-125000J0D01*
G01*
X178225000Y-95965000D02*
G75*
G03*
X178225000Y-95965000I-125000J0D01*
G01*
D10*
%TO.C,D1*%
X136550000Y-104820000D02*
X139100000Y-104820000D01*
X136550000Y-103120000D02*
X136550000Y-104820000D01*
X136550000Y-103120000D02*
X139100000Y-103120000D01*
%TO.C,C1*%
X175972164Y-104040000D02*
X176187836Y-104040000D01*
X175972164Y-103320000D02*
X176187836Y-103320000D01*
%TO.C,U2*%
X159480000Y-96955000D02*
X159955000Y-96955000D01*
X163700000Y-101175000D02*
X163225000Y-101175000D01*
X163700000Y-96955000D02*
X163225000Y-96955000D01*
X159480000Y-100700000D02*
X159480000Y-101175000D01*
X163700000Y-97430000D02*
X163700000Y-96955000D01*
X159480000Y-97430000D02*
X159480000Y-96955000D01*
X163700000Y-100700000D02*
X163700000Y-101175000D01*
%TO.C,C12*%
X160250000Y-103717153D02*
X160250000Y-103932825D01*
X160970000Y-103717153D02*
X160970000Y-103932825D01*
%TO.C,J3*%
X187300800Y-103765000D02*
X189200800Y-103765000D01*
X189200800Y-103765000D02*
X189200800Y-94365000D01*
X183400800Y-103765000D02*
X185400800Y-103765000D01*
X183400800Y-94365000D02*
X185400800Y-94365000D01*
X187300800Y-94365000D02*
X189200800Y-94365000D01*
%TO.C,R9*%
X142100000Y-103676359D02*
X142100000Y-103983641D01*
X142860000Y-103676359D02*
X142860000Y-103983641D01*
%TO.C,R20*%
X179170000Y-96478641D02*
X179170000Y-96171359D01*
X179930000Y-96478641D02*
X179930000Y-96171359D01*
%TO.C,C17*%
X166542174Y-97214989D02*
X166757846Y-97214989D01*
X166542174Y-97934989D02*
X166757846Y-97934989D01*
%TO.C,C22*%
X154751787Y-100827836D02*
X154751787Y-100612164D01*
X155471787Y-100827836D02*
X155471787Y-100612164D01*
%TO.C,R21*%
X179170000Y-101651359D02*
X179170000Y-101958641D01*
X179930000Y-101651359D02*
X179930000Y-101958641D01*
%TO.C,R14*%
X166803651Y-98350000D02*
X166496369Y-98350000D01*
X166803651Y-99110000D02*
X166496369Y-99110000D01*
%TO.C,C6*%
X156020000Y-96407836D02*
X156020000Y-96192164D01*
X155300000Y-96407836D02*
X155300000Y-96192164D01*
%TO.C,C9*%
X176187836Y-97050000D02*
X175972164Y-97050000D01*
X176187836Y-97770000D02*
X175972164Y-97770000D01*
%TO.C,R13*%
X178743641Y-104085000D02*
X178436359Y-104085000D01*
X178743641Y-103325000D02*
X178436359Y-103325000D01*
%TO.C,C4*%
X157267836Y-100000000D02*
X157052164Y-100000000D01*
X157267836Y-99280000D02*
X157052164Y-99280000D01*
%TD*%
M02*
