%TF.GenerationSoftware,KiCad,Pcbnew,(6.0.7-1)-1*%
%TF.CreationDate,2022-09-06T17:11:03+08:00*%
%TF.ProjectId,ESP_PD210,4553505f-5044-4323-9130-2e6b69636164,rev?*%
%TF.SameCoordinates,Original*%
%TF.FileFunction,Profile,NP*%
%FSLAX46Y46*%
G04 Gerber Fmt 4.6, Leading zero omitted, Abs format (unit mm)*
G04 Created by KiCad (PCBNEW (6.0.7-1)-1) date 2022-09-06 17:11:03*
%MOMM*%
%LPD*%
G01*
G04 APERTURE LIST*
%TA.AperFunction,Profile*%
%ADD10C,0.100000*%
%TD*%
G04 APERTURE END LIST*
D10*
X99780001Y-105064999D02*
G75*
G03*
X100280000Y-105564999I499999J-1D01*
G01*
X188128759Y-105564959D02*
G75*
G03*
X188628759Y-105064999I41J499959D01*
G01*
X188628800Y-93065000D02*
G75*
G03*
X188128754Y-92565000I-500000J0D01*
G01*
X100280000Y-92565000D02*
G75*
G03*
X99780000Y-93065000I0J-500000D01*
G01*
X188128759Y-105564999D02*
X100280000Y-105564999D01*
X99780000Y-96265000D02*
X99780000Y-93065000D01*
X188628754Y-93065000D02*
X188628754Y-105065000D01*
X188128754Y-92565000D02*
X100280000Y-92565000D01*
X99780000Y-105064999D02*
X99780000Y-101865000D01*
%TO.C,J2*%
X119780000Y-100665000D02*
X131380000Y-100665000D01*
X131780000Y-97865000D02*
X140780000Y-97865000D01*
X119780000Y-97465000D02*
X131380000Y-97465000D01*
X131380000Y-97465000D02*
X131780000Y-97865000D01*
X131380000Y-100665000D02*
X131780000Y-100265000D01*
X100380000Y-101265000D02*
X99780000Y-101865000D01*
X100380000Y-101265000D02*
X119180000Y-101265000D01*
X119780000Y-97465000D02*
X119180000Y-96865000D01*
X131780000Y-100265000D02*
X140780000Y-100265000D01*
X119180000Y-101265000D02*
X119780000Y-100665000D01*
X100380000Y-96865000D02*
X99780000Y-96265000D01*
X140780000Y-97865000D02*
X140780000Y-100265000D01*
X100380000Y-96865000D02*
X119180000Y-96865000D01*
%TD*%
M02*
