%TF.GenerationSoftware,KiCad,Pcbnew,(6.0.7-1)-1*%
%TF.CreationDate,2022-09-06T17:11:03+08:00*%
%TF.ProjectId,ESP_PD210,4553505f-5044-4323-9130-2e6b69636164,rev?*%
%TF.SameCoordinates,Original*%
%TF.FileFunction,Copper,L3,Inr*%
%TF.FilePolarity,Positive*%
%FSLAX46Y46*%
G04 Gerber Fmt 4.6, Leading zero omitted, Abs format (unit mm)*
G04 Created by KiCad (PCBNEW (6.0.7-1)-1) date 2022-09-06 17:11:03*
%MOMM*%
%LPD*%
G01*
G04 APERTURE LIST*
G04 Aperture macros list*
%AMFreePoly0*
4,1,17,-3.000000,0.500000,-2.988336,0.607368,-2.938573,0.740112,-2.853553,0.853553,-2.740112,0.938573,-2.607368,0.988336,-2.500000,1.000000,2.500000,1.000000,2.607368,0.988336,2.740112,0.938573,2.853553,0.853553,2.938573,0.740112,2.988336,0.607368,3.000000,0.500000,3.000000,-1.000000,-3.000000,-1.000000,-3.000000,0.500000,-3.000000,0.500000,$1*%
G04 Aperture macros list end*
%TA.AperFunction,ComponentPad*%
%ADD10FreePoly0,180.000000*%
%TD*%
%TA.AperFunction,ComponentPad*%
%ADD11FreePoly0,0.000000*%
%TD*%
%TA.AperFunction,ComponentPad*%
%ADD12O,2.100000X1.000000*%
%TD*%
%TA.AperFunction,ComponentPad*%
%ADD13O,1.600000X1.000000*%
%TD*%
%TA.AperFunction,ViaPad*%
%ADD14C,0.604800*%
%TD*%
%TA.AperFunction,Conductor*%
%ADD15C,0.254000*%
%TD*%
G04 APERTURE END LIST*
D10*
%TO.N,/CART*%
%TO.C,J2*%
X136280000Y-101265000D03*
D11*
X136280000Y-96865000D03*
%TD*%
D12*
%TO.N,GND*%
%TO.C,J3*%
X182170800Y-103385000D03*
X182170800Y-94745000D03*
D13*
X186350800Y-103385000D03*
X186350800Y-94745000D03*
%TD*%
D14*
%TO.N,GND*%
X160828002Y-98303012D03*
X152489992Y-100419992D03*
X160828002Y-99065012D03*
X161590002Y-99065012D03*
X163460000Y-102970000D03*
X161590002Y-98303012D03*
X162352002Y-98303012D03*
X160828002Y-99827012D03*
X138270000Y-103380000D03*
X161590002Y-99827012D03*
X162352002Y-99827012D03*
X156510000Y-97970000D03*
%TO.N,+3V3*%
X163889995Y-96479995D03*
X163520000Y-103960000D03*
X158343732Y-99685798D03*
X158250001Y-96939989D03*
X173949995Y-100019993D03*
X165400000Y-102290000D03*
X136230004Y-102999997D03*
X167920000Y-99240000D03*
X173949995Y-100693220D03*
X166540002Y-96925511D03*
X168429991Y-95375000D03*
%TO.N,/CART*%
X138680012Y-97219999D03*
X135109991Y-97219999D03*
X137449992Y-97219999D03*
X133880000Y-101690000D03*
X141440000Y-100120000D03*
X133879996Y-96430008D03*
X137450000Y-101690000D03*
X141400000Y-99000000D03*
X140029997Y-95935013D03*
X138680012Y-96379995D03*
X135110000Y-100880000D03*
X142100000Y-100780000D03*
X133880000Y-100880000D03*
X138680000Y-100880000D03*
X141680006Y-95947000D03*
X141010000Y-101920000D03*
X141680006Y-94423000D03*
X137450000Y-100880000D03*
X137449992Y-96379995D03*
X140029997Y-94434990D03*
X141050000Y-101030000D03*
X139910007Y-96860004D03*
X140889990Y-96709992D03*
X141680006Y-95185000D03*
X133879996Y-97219999D03*
X141770000Y-101610000D03*
X135109991Y-96430008D03*
X138680000Y-101690001D03*
X135110000Y-101690000D03*
X140040000Y-101070000D03*
X139920000Y-101880000D03*
X142130000Y-99450000D03*
%TO.N,VCC*%
X143555999Y-94031994D03*
X148127999Y-94031994D03*
X155748000Y-94032000D03*
X173274000Y-93270000D03*
X170226000Y-93270000D03*
X158796000Y-94032000D03*
X180894000Y-94032000D03*
X175560000Y-93270000D03*
X161844000Y-94032000D03*
X167940000Y-94032000D03*
X144317999Y-93269994D03*
X170226000Y-94032000D03*
X170988000Y-93270000D03*
X158034000Y-93270000D03*
X167178000Y-94032000D03*
X148890000Y-93270000D03*
X154986000Y-94032000D03*
X150414000Y-94032000D03*
X165654000Y-94032000D03*
X167178000Y-93270000D03*
X182640000Y-99000000D03*
X161082000Y-94032000D03*
X168702000Y-93270000D03*
X174798000Y-93270000D03*
X143555999Y-93269994D03*
X168702000Y-94032000D03*
X169464000Y-93270000D03*
X169464000Y-94032000D03*
X145079999Y-93269994D03*
X182418000Y-93270000D03*
X152700000Y-94032000D03*
X177846000Y-93270000D03*
X152700000Y-93270000D03*
X154224000Y-93270000D03*
X149652000Y-93270000D03*
X153462000Y-94032000D03*
X166416000Y-93270000D03*
X158796000Y-93270000D03*
X174798000Y-94032000D03*
X161082000Y-93270000D03*
X160319999Y-94031994D03*
X165654000Y-93270000D03*
X176322000Y-93270000D03*
X175560000Y-94032000D03*
X159557999Y-94031994D03*
X153462000Y-93270000D03*
X176322000Y-94032000D03*
X171750000Y-94032000D03*
X183180000Y-93270000D03*
X164130000Y-93270000D03*
X179370000Y-94032000D03*
X151938000Y-93270000D03*
X156510000Y-94032000D03*
X159558000Y-93270000D03*
X177084000Y-93270000D03*
X180132000Y-93270000D03*
X170988000Y-94032000D03*
X178608000Y-94032000D03*
X145079999Y-94031994D03*
X144610000Y-94750000D03*
X167940000Y-93270000D03*
X173274000Y-94032000D03*
X179370000Y-93270000D03*
X154224000Y-94032000D03*
X161844000Y-93270000D03*
X149652000Y-94032000D03*
X148127999Y-93269994D03*
X146603999Y-93269994D03*
X148889999Y-94031994D03*
X180894000Y-93270000D03*
X164130000Y-94032000D03*
X160320000Y-93270000D03*
X154986000Y-93270000D03*
X151938000Y-94032000D03*
X181225000Y-101515000D03*
X171750000Y-93270000D03*
X162606000Y-94032000D03*
X172512000Y-93270000D03*
X166416000Y-94032000D03*
X177084000Y-94032000D03*
X158034000Y-94032000D03*
X163368000Y-94032000D03*
X144317999Y-94031994D03*
X174036000Y-93270000D03*
X177846000Y-94032000D03*
X162606000Y-93270000D03*
X151176000Y-94032000D03*
X181210000Y-96620000D03*
X180132000Y-94032000D03*
X183220000Y-101050000D03*
X146603999Y-94031994D03*
X178608000Y-93270000D03*
X157272000Y-94032000D03*
X164892000Y-94032000D03*
X181656000Y-93270000D03*
X174036000Y-94032000D03*
X147365999Y-93269994D03*
X157272000Y-93270000D03*
X151176000Y-93270000D03*
X163368000Y-93270000D03*
X145841999Y-94031994D03*
X150414000Y-93270000D03*
X172512000Y-94032000D03*
X164892000Y-93270000D03*
X147365999Y-94031994D03*
X155748000Y-93270000D03*
X145841999Y-93269994D03*
X156510000Y-93270000D03*
%TO.N,Net-(J3-PadA5)*%
X182784057Y-100009057D03*
%TO.N,Net-(J3-PadB5)*%
X182750000Y-98025000D03*
%TD*%
D15*
%TO.N,+3V3*%
X148411800Y-102798200D02*
X154430000Y-96780000D01*
X158090012Y-96780000D02*
X158250001Y-96939989D01*
X166538709Y-96926804D02*
X166540002Y-96925511D01*
X166879480Y-96925511D02*
X168429991Y-95375000D01*
X154430000Y-96780000D02*
X158090012Y-96780000D01*
X136230004Y-102999997D02*
X136431801Y-102798200D01*
X163730000Y-103960000D02*
X163520000Y-103960000D01*
X165400000Y-102290000D02*
X163730000Y-103960000D01*
X167920000Y-98305509D02*
X167920000Y-99240000D01*
X166540002Y-96925511D02*
X167920000Y-98305509D01*
X166540002Y-96925511D02*
X166879480Y-96925511D01*
X136431801Y-102798200D02*
X148411800Y-102798200D01*
%TD*%
%TA.AperFunction,Conductor*%
%TO.N,VCC*%
G36*
X183773372Y-92887893D02*
G01*
X183799092Y-92932442D01*
X183800234Y-92945345D01*
X183813677Y-99553364D01*
X183820049Y-102685266D01*
X183802554Y-102733639D01*
X183758058Y-102759450D01*
X183745020Y-102760619D01*
X182931246Y-102762472D01*
X182912374Y-102760110D01*
X182807858Y-102733275D01*
X182807855Y-102733275D01*
X182803280Y-102732100D01*
X181579725Y-102732100D01*
X181577374Y-102732397D01*
X181461832Y-102746993D01*
X181461830Y-102746994D01*
X181457140Y-102747586D01*
X181452746Y-102749326D01*
X181452741Y-102749327D01*
X181424047Y-102760687D01*
X181396537Y-102765967D01*
X180407570Y-102768220D01*
X179906034Y-102769363D01*
X179857658Y-102751880D01*
X179831836Y-102707390D01*
X179830664Y-102694249D01*
X179829891Y-102020525D01*
X182222453Y-102020525D01*
X182260071Y-102152148D01*
X182333119Y-102267921D01*
X182435724Y-102358539D01*
X182440571Y-102360815D01*
X182440573Y-102360816D01*
X182447285Y-102363967D01*
X182559639Y-102416717D01*
X182605690Y-102423887D01*
X182660706Y-102432454D01*
X182660711Y-102432454D01*
X182663573Y-102432900D01*
X182735112Y-102432900D01*
X182773781Y-102427362D01*
X182831007Y-102419167D01*
X182831011Y-102419166D01*
X182836310Y-102418407D01*
X182841184Y-102416191D01*
X182841187Y-102416190D01*
X182914452Y-102382878D01*
X182960926Y-102361748D01*
X183012743Y-102317100D01*
X183060577Y-102275884D01*
X183060580Y-102275881D01*
X183064631Y-102272390D01*
X183139088Y-102157517D01*
X183178311Y-102026364D01*
X183178380Y-102015171D01*
X183179114Y-101894829D01*
X183179147Y-101889475D01*
X183141529Y-101757852D01*
X183068481Y-101642079D01*
X182965876Y-101551461D01*
X182961029Y-101549185D01*
X182961027Y-101549184D01*
X182907983Y-101524280D01*
X182841961Y-101493283D01*
X182795910Y-101486113D01*
X182740894Y-101477546D01*
X182740889Y-101477546D01*
X182738027Y-101477100D01*
X182666488Y-101477100D01*
X182627819Y-101482638D01*
X182570593Y-101490833D01*
X182570589Y-101490834D01*
X182565290Y-101491593D01*
X182560416Y-101493809D01*
X182560413Y-101493810D01*
X182487148Y-101527122D01*
X182440674Y-101548252D01*
X182394141Y-101588347D01*
X182341023Y-101634116D01*
X182341020Y-101634119D01*
X182336969Y-101637610D01*
X182262512Y-101752483D01*
X182259367Y-101763000D01*
X182226638Y-101872439D01*
X182223289Y-101883636D01*
X182223256Y-101888991D01*
X182223256Y-101888993D01*
X182222947Y-101939706D01*
X182222453Y-102020525D01*
X179829891Y-102020525D01*
X179827578Y-100003437D01*
X182324109Y-100003437D01*
X182324803Y-100008744D01*
X182324803Y-100008747D01*
X182331604Y-100060749D01*
X182341020Y-100132755D01*
X182343176Y-100137655D01*
X182384139Y-100230751D01*
X182393545Y-100252129D01*
X182477464Y-100351963D01*
X182586030Y-100424230D01*
X182710515Y-100463122D01*
X182777617Y-100464352D01*
X182835549Y-100465414D01*
X182835551Y-100465414D01*
X182840911Y-100465512D01*
X182846082Y-100464102D01*
X182846084Y-100464102D01*
X182913843Y-100445629D01*
X182966738Y-100431208D01*
X183077879Y-100362967D01*
X183081471Y-100358999D01*
X183081473Y-100358997D01*
X183161804Y-100270248D01*
X183161805Y-100270247D01*
X183165399Y-100266276D01*
X183170266Y-100256232D01*
X183210644Y-100172891D01*
X183222264Y-100148907D01*
X183243902Y-100020295D01*
X183244039Y-100009057D01*
X183236241Y-99954606D01*
X183226310Y-99885258D01*
X183226309Y-99885254D01*
X183225550Y-99879955D01*
X183220897Y-99869720D01*
X183173789Y-99766112D01*
X183173788Y-99766111D01*
X183171570Y-99761232D01*
X183167507Y-99756516D01*
X183089938Y-99666493D01*
X183086438Y-99662431D01*
X182976997Y-99591496D01*
X182914522Y-99572812D01*
X182857181Y-99555663D01*
X182857178Y-99555663D01*
X182852047Y-99554128D01*
X182846692Y-99554095D01*
X182846690Y-99554095D01*
X182788199Y-99553738D01*
X182721630Y-99553331D01*
X182596232Y-99589170D01*
X182485934Y-99658763D01*
X182399601Y-99756516D01*
X182397325Y-99761363D01*
X182397324Y-99761365D01*
X182380152Y-99797940D01*
X182344174Y-99874571D01*
X182324109Y-100003437D01*
X179827578Y-100003437D01*
X179825302Y-98019380D01*
X182290052Y-98019380D01*
X182290746Y-98024687D01*
X182290746Y-98024690D01*
X182295644Y-98062142D01*
X182306963Y-98148698D01*
X182309119Y-98153598D01*
X182344476Y-98233953D01*
X182359488Y-98268072D01*
X182443407Y-98367906D01*
X182447866Y-98370874D01*
X182531365Y-98426455D01*
X182551973Y-98440173D01*
X182676458Y-98479065D01*
X182743560Y-98480295D01*
X182801492Y-98481357D01*
X182801494Y-98481357D01*
X182806854Y-98481455D01*
X182812025Y-98480045D01*
X182812027Y-98480045D01*
X182879786Y-98461572D01*
X182932681Y-98447151D01*
X183043822Y-98378910D01*
X183047414Y-98374942D01*
X183047416Y-98374940D01*
X183127747Y-98286191D01*
X183127748Y-98286190D01*
X183131342Y-98282219D01*
X183135098Y-98274468D01*
X183169723Y-98203001D01*
X183188207Y-98164850D01*
X183209845Y-98036238D01*
X183209982Y-98025000D01*
X183201863Y-97968308D01*
X183192253Y-97901201D01*
X183192252Y-97901197D01*
X183191493Y-97895898D01*
X183186840Y-97885663D01*
X183139732Y-97782055D01*
X183139731Y-97782054D01*
X183137513Y-97777175D01*
X183133450Y-97772459D01*
X183055881Y-97682436D01*
X183052381Y-97678374D01*
X182942940Y-97607439D01*
X182880465Y-97588755D01*
X182823124Y-97571606D01*
X182823121Y-97571606D01*
X182817990Y-97570071D01*
X182812635Y-97570038D01*
X182812633Y-97570038D01*
X182754142Y-97569681D01*
X182687573Y-97569274D01*
X182562175Y-97605113D01*
X182451877Y-97674706D01*
X182365544Y-97772459D01*
X182363268Y-97777306D01*
X182363267Y-97777308D01*
X182351261Y-97802880D01*
X182310117Y-97890514D01*
X182290052Y-98019380D01*
X179825302Y-98019380D01*
X179824784Y-97567557D01*
X179823262Y-96240525D01*
X182222453Y-96240525D01*
X182260071Y-96372148D01*
X182333119Y-96487921D01*
X182435724Y-96578539D01*
X182440571Y-96580815D01*
X182440573Y-96580816D01*
X182493617Y-96605720D01*
X182559639Y-96636717D01*
X182602881Y-96643450D01*
X182660706Y-96652454D01*
X182660711Y-96652454D01*
X182663573Y-96652900D01*
X182735112Y-96652900D01*
X182773781Y-96647362D01*
X182831007Y-96639167D01*
X182831011Y-96639166D01*
X182836310Y-96638407D01*
X182841184Y-96636191D01*
X182841187Y-96636190D01*
X182938076Y-96592137D01*
X182960926Y-96581748D01*
X183019922Y-96530914D01*
X183060577Y-96495884D01*
X183060580Y-96495881D01*
X183064631Y-96492390D01*
X183139088Y-96377517D01*
X183154170Y-96327087D01*
X183176776Y-96251498D01*
X183176776Y-96251495D01*
X183178311Y-96246364D01*
X183178380Y-96235171D01*
X183179114Y-96114829D01*
X183179147Y-96109475D01*
X183141529Y-95977852D01*
X183068481Y-95862079D01*
X182965876Y-95771461D01*
X182961029Y-95769185D01*
X182961027Y-95769184D01*
X182875245Y-95728910D01*
X182841961Y-95713283D01*
X182795910Y-95706113D01*
X182740894Y-95697546D01*
X182740889Y-95697546D01*
X182738027Y-95697100D01*
X182666488Y-95697100D01*
X182627819Y-95702638D01*
X182570593Y-95710833D01*
X182570589Y-95710834D01*
X182565290Y-95711593D01*
X182560416Y-95713809D01*
X182560413Y-95713810D01*
X182487148Y-95747122D01*
X182440674Y-95768252D01*
X182411455Y-95793429D01*
X182341023Y-95854116D01*
X182341020Y-95854119D01*
X182336969Y-95857610D01*
X182334058Y-95862101D01*
X182303533Y-95909196D01*
X182262512Y-95972483D01*
X182223289Y-96103636D01*
X182223256Y-96108991D01*
X182223256Y-96108993D01*
X182222883Y-96170111D01*
X182222453Y-96240525D01*
X179823262Y-96240525D01*
X179821500Y-94703678D01*
X180964010Y-94703678D01*
X180964307Y-94708399D01*
X180964307Y-94708400D01*
X180969210Y-94786322D01*
X180974368Y-94868314D01*
X180975829Y-94872810D01*
X181023882Y-95020706D01*
X181023884Y-95020709D01*
X181025343Y-95025201D01*
X181113734Y-95164482D01*
X181117184Y-95167722D01*
X181117185Y-95167723D01*
X181168652Y-95216054D01*
X181233985Y-95277405D01*
X181238134Y-95279686D01*
X181374393Y-95354596D01*
X181374396Y-95354597D01*
X181378541Y-95356876D01*
X181383126Y-95358053D01*
X181383128Y-95358054D01*
X181427241Y-95369380D01*
X181538320Y-95397900D01*
X182761875Y-95397900D01*
X182774572Y-95396296D01*
X182879768Y-95383007D01*
X182879770Y-95383006D01*
X182884460Y-95382414D01*
X182888856Y-95380674D01*
X182888858Y-95380673D01*
X182948962Y-95356876D01*
X183037837Y-95321688D01*
X183095648Y-95279686D01*
X183167464Y-95227508D01*
X183171293Y-95224726D01*
X183276443Y-95097622D01*
X183346680Y-94948361D01*
X183350593Y-94927851D01*
X183376703Y-94790972D01*
X183377590Y-94786322D01*
X183374628Y-94739242D01*
X183367529Y-94626404D01*
X183367529Y-94626403D01*
X183367232Y-94621686D01*
X183342734Y-94546288D01*
X183317718Y-94469294D01*
X183317716Y-94469291D01*
X183316257Y-94464799D01*
X183227866Y-94325518D01*
X183107615Y-94212595D01*
X183032124Y-94171093D01*
X182967207Y-94135404D01*
X182967204Y-94135403D01*
X182963059Y-94133124D01*
X182958474Y-94131947D01*
X182958472Y-94131946D01*
X182863594Y-94107586D01*
X182803280Y-94092100D01*
X181579725Y-94092100D01*
X181577374Y-94092397D01*
X181461832Y-94106993D01*
X181461830Y-94106994D01*
X181457140Y-94107586D01*
X181452744Y-94109326D01*
X181452742Y-94109327D01*
X181398404Y-94130841D01*
X181303763Y-94168312D01*
X181299936Y-94171092D01*
X181299935Y-94171093D01*
X181242813Y-94212595D01*
X181170307Y-94265274D01*
X181065157Y-94392378D01*
X180994920Y-94541639D01*
X180994033Y-94546287D01*
X180994033Y-94546288D01*
X180978618Y-94627100D01*
X180964010Y-94703678D01*
X179821500Y-94703678D01*
X179821176Y-94420987D01*
X165312665Y-94441520D01*
X145004335Y-94470261D01*
X145004334Y-94470261D01*
X144991076Y-94470280D01*
X144991070Y-94479382D01*
X144990049Y-96034849D01*
X144972424Y-96083175D01*
X144927859Y-96108866D01*
X144914849Y-96110000D01*
X142855200Y-96110000D01*
X142806862Y-96092407D01*
X142781142Y-96047858D01*
X142780000Y-96034800D01*
X142780000Y-92945500D01*
X142797593Y-92897162D01*
X142842142Y-92871442D01*
X142855200Y-92870300D01*
X183725034Y-92870300D01*
X183773372Y-92887893D01*
G37*
%TD.AperFunction*%
%TD*%
%TA.AperFunction,Conductor*%
%TO.N,/CART*%
G36*
X142552121Y-93670002D02*
G01*
X142598614Y-93723658D01*
X142610000Y-93776000D01*
X142610000Y-102364000D01*
X142589998Y-102432121D01*
X142536342Y-102478614D01*
X142484000Y-102490000D01*
X133226000Y-102490000D01*
X133157879Y-102469998D01*
X133111386Y-102416342D01*
X133100000Y-102364000D01*
X133100000Y-100696300D01*
X133120002Y-100628179D01*
X133173658Y-100581686D01*
X133226000Y-100570300D01*
X140726537Y-100570300D01*
X140738582Y-100570889D01*
X140749692Y-100574106D01*
X140788208Y-100570770D01*
X140799081Y-100570300D01*
X140808393Y-100570300D01*
X140815162Y-100569040D01*
X140827355Y-100567380D01*
X140841915Y-100566119D01*
X140851413Y-100565296D01*
X140851414Y-100565296D01*
X140863001Y-100564292D01*
X140873452Y-100559183D01*
X140876969Y-100558208D01*
X140880373Y-100556894D01*
X140891811Y-100554764D01*
X140901714Y-100548660D01*
X140901716Y-100548659D01*
X140922265Y-100535992D01*
X140933042Y-100530055D01*
X140965180Y-100514345D01*
X140973096Y-100505811D01*
X140976034Y-100503629D01*
X140978725Y-100501189D01*
X140988628Y-100495085D01*
X140995669Y-100485826D01*
X140995671Y-100485824D01*
X141010281Y-100466611D01*
X141018201Y-100457188D01*
X141034617Y-100439491D01*
X141042528Y-100430963D01*
X141046840Y-100420155D01*
X141048790Y-100417070D01*
X141050428Y-100413814D01*
X141057470Y-100404553D01*
X141067420Y-100370195D01*
X141071417Y-100358554D01*
X141081377Y-100333588D01*
X141084673Y-100325327D01*
X141085300Y-100318932D01*
X141085300Y-100315848D01*
X141085450Y-100312780D01*
X141085578Y-100312786D01*
X141085889Y-100306417D01*
X141089106Y-100295308D01*
X141085770Y-100256791D01*
X141085300Y-100245919D01*
X141085300Y-97918463D01*
X141085889Y-97906418D01*
X141089106Y-97895308D01*
X141085770Y-97856791D01*
X141085300Y-97845919D01*
X141085300Y-97836607D01*
X141084040Y-97829838D01*
X141082379Y-97817639D01*
X141080296Y-97793587D01*
X141080296Y-97793586D01*
X141079292Y-97781999D01*
X141074183Y-97771548D01*
X141073208Y-97768031D01*
X141071894Y-97764627D01*
X141069764Y-97753189D01*
X141050992Y-97722734D01*
X141045051Y-97711951D01*
X141029345Y-97679820D01*
X141020811Y-97671904D01*
X141018629Y-97668966D01*
X141016189Y-97666275D01*
X141010085Y-97656372D01*
X141000826Y-97649331D01*
X141000824Y-97649329D01*
X140981611Y-97634719D01*
X140972188Y-97626799D01*
X140954491Y-97610383D01*
X140954492Y-97610383D01*
X140945963Y-97602472D01*
X140935155Y-97598160D01*
X140932070Y-97596210D01*
X140928814Y-97594572D01*
X140919553Y-97587530D01*
X140908382Y-97584295D01*
X140908380Y-97584294D01*
X140885195Y-97577580D01*
X140873554Y-97573583D01*
X140862620Y-97569221D01*
X140840327Y-97560327D01*
X140833932Y-97559700D01*
X140830848Y-97559700D01*
X140827780Y-97559550D01*
X140827786Y-97559422D01*
X140821417Y-97559111D01*
X140810308Y-97555894D01*
X140777285Y-97558754D01*
X140771791Y-97559230D01*
X140760919Y-97559700D01*
X133226000Y-97559700D01*
X133157879Y-97539698D01*
X133111386Y-97486042D01*
X133100000Y-97433700D01*
X133100000Y-95816000D01*
X133120002Y-95747879D01*
X133173658Y-95701386D01*
X133226000Y-95690000D01*
X139550000Y-95690000D01*
X139550000Y-93776000D01*
X139570002Y-93707879D01*
X139623658Y-93661386D01*
X139676000Y-93650000D01*
X142484000Y-93650000D01*
X142552121Y-93670002D01*
G37*
%TD.AperFunction*%
%TD*%
%TA.AperFunction,Conductor*%
%TO.N,+3V3*%
G36*
X161022734Y-95999443D02*
G01*
X161090854Y-96019446D01*
X161131851Y-96062443D01*
X161154062Y-96100913D01*
X161165055Y-96119954D01*
X161173502Y-96127042D01*
X161228859Y-96173492D01*
X161252285Y-96193149D01*
X161262644Y-96196919D01*
X161262645Y-96196920D01*
X161312168Y-96214945D01*
X161359290Y-96232096D01*
X161473162Y-96232096D01*
X161520284Y-96214945D01*
X161569807Y-96196920D01*
X161569808Y-96196919D01*
X161580167Y-96193149D01*
X161603593Y-96173492D01*
X161658950Y-96127042D01*
X161667397Y-96119954D01*
X161700596Y-96062453D01*
X161751977Y-96013460D01*
X161809715Y-95999453D01*
X161922336Y-95999454D01*
X162031231Y-95999455D01*
X162099351Y-96019458D01*
X162145843Y-96073114D01*
X162155946Y-96143388D01*
X162150385Y-96165540D01*
X162145794Y-96173492D01*
X162143880Y-96184345D01*
X162143880Y-96184346D01*
X162127934Y-96274779D01*
X162126020Y-96285634D01*
X162145794Y-96397776D01*
X162202730Y-96496392D01*
X162289960Y-96569587D01*
X162300319Y-96573357D01*
X162300320Y-96573358D01*
X162386604Y-96604763D01*
X162396965Y-96608534D01*
X162510837Y-96608534D01*
X162521198Y-96604763D01*
X162607482Y-96573358D01*
X162607483Y-96573357D01*
X162617842Y-96569587D01*
X162705072Y-96496392D01*
X162762008Y-96397776D01*
X162771854Y-96341938D01*
X162803382Y-96278325D01*
X162864296Y-96241856D01*
X162935257Y-96244109D01*
X162976929Y-96267295D01*
X163001771Y-96288140D01*
X163012130Y-96291910D01*
X163012131Y-96291911D01*
X163024709Y-96296489D01*
X163108776Y-96327087D01*
X163222648Y-96327087D01*
X163306715Y-96296489D01*
X163319293Y-96291911D01*
X163319294Y-96291910D01*
X163329653Y-96288140D01*
X163396443Y-96232096D01*
X163408436Y-96222033D01*
X163416883Y-96214945D01*
X163434550Y-96184346D01*
X163458196Y-96143388D01*
X163473819Y-96116329D01*
X163475733Y-96105475D01*
X163475735Y-96105469D01*
X163476066Y-96103590D01*
X163477393Y-96100913D01*
X163479504Y-96095113D01*
X163480151Y-96095348D01*
X163507596Y-96039978D01*
X163568511Y-96003511D01*
X163600153Y-95999474D01*
X166353673Y-95999507D01*
X166421793Y-96019510D01*
X166468285Y-96073166D01*
X166479671Y-96125314D01*
X166481040Y-97020545D01*
X166484738Y-99439932D01*
X174294812Y-99449841D01*
X174362906Y-99469930D01*
X174409331Y-99523644D01*
X174420649Y-99575186D01*
X174428627Y-101114860D01*
X174429345Y-101253507D01*
X174409696Y-101321731D01*
X174356282Y-101368501D01*
X174303507Y-101380160D01*
X166505833Y-101390042D01*
X166487718Y-101390065D01*
X166487739Y-101403620D01*
X166489313Y-102433378D01*
X166469415Y-102501530D01*
X166415830Y-102548104D01*
X166363313Y-102559571D01*
X163692972Y-102559539D01*
X163653417Y-102550843D01*
X163652940Y-102552439D01*
X163527990Y-102515071D01*
X163519014Y-102515016D01*
X163519013Y-102515016D01*
X163465132Y-102514687D01*
X163397573Y-102514274D01*
X163272175Y-102550113D01*
X163272134Y-102549970D01*
X163227335Y-102559533D01*
X162081968Y-102559520D01*
X162013849Y-102539517D01*
X161967357Y-102485861D01*
X161959768Y-102450974D01*
X161957885Y-102451306D01*
X161957787Y-102450751D01*
X161938111Y-102339164D01*
X161909643Y-102289856D01*
X161886688Y-102250096D01*
X161886687Y-102250094D01*
X161881175Y-102240548D01*
X161793945Y-102167353D01*
X161783586Y-102163583D01*
X161783585Y-102163582D01*
X161697301Y-102132177D01*
X161697300Y-102132177D01*
X161686940Y-102128406D01*
X161573068Y-102128406D01*
X161562708Y-102132177D01*
X161562707Y-102132177D01*
X161476424Y-102163582D01*
X161476423Y-102163583D01*
X161466064Y-102167353D01*
X161378833Y-102240548D01*
X161373321Y-102250094D01*
X161373320Y-102250096D01*
X161350365Y-102289856D01*
X161321897Y-102339164D01*
X161302123Y-102451306D01*
X161298974Y-102450751D01*
X161284035Y-102501630D01*
X161230379Y-102548123D01*
X161178035Y-102559509D01*
X158173528Y-102559473D01*
X158105408Y-102539470D01*
X158058916Y-102485814D01*
X158047530Y-102433666D01*
X158045514Y-101114860D01*
X159541260Y-101114860D01*
X163641600Y-101114860D01*
X163641600Y-100790000D01*
X168532119Y-100790000D01*
X168551893Y-100902142D01*
X168608829Y-101000758D01*
X168696059Y-101073953D01*
X168706418Y-101077723D01*
X168706419Y-101077724D01*
X168792335Y-101108995D01*
X168803064Y-101112900D01*
X168916936Y-101112900D01*
X168927665Y-101108995D01*
X169013581Y-101077724D01*
X169013582Y-101077723D01*
X169023941Y-101073953D01*
X169111171Y-101000758D01*
X169168107Y-100902142D01*
X169187881Y-100790000D01*
X169168107Y-100677858D01*
X169111171Y-100579242D01*
X169023941Y-100506047D01*
X169013582Y-100502277D01*
X169013581Y-100502276D01*
X168927297Y-100470871D01*
X168927296Y-100470871D01*
X168916936Y-100467100D01*
X168803064Y-100467100D01*
X168792704Y-100470871D01*
X168792703Y-100470871D01*
X168706420Y-100502276D01*
X168706419Y-100502277D01*
X168696060Y-100506047D01*
X168608829Y-100579242D01*
X168551893Y-100677858D01*
X168532119Y-100790000D01*
X163641600Y-100790000D01*
X163641600Y-100032064D01*
X164124424Y-100032064D01*
X164144198Y-100144206D01*
X164201134Y-100242822D01*
X164288364Y-100316017D01*
X164298723Y-100319787D01*
X164298724Y-100319788D01*
X164385008Y-100351193D01*
X164395369Y-100354964D01*
X164509241Y-100354964D01*
X164519602Y-100351193D01*
X164605886Y-100319788D01*
X164605887Y-100319787D01*
X164616246Y-100316017D01*
X164703476Y-100242822D01*
X164760412Y-100144206D01*
X164774371Y-100065040D01*
X164805899Y-100001429D01*
X164866812Y-99964959D01*
X164937773Y-99967212D01*
X164996252Y-100007471D01*
X165007574Y-100023918D01*
X165028839Y-100060749D01*
X165116069Y-100133944D01*
X165126428Y-100137714D01*
X165126429Y-100137715D01*
X165144263Y-100144206D01*
X165223074Y-100172891D01*
X165336946Y-100172891D01*
X165415757Y-100144206D01*
X165433591Y-100137715D01*
X165433592Y-100137714D01*
X165443951Y-100133944D01*
X165531181Y-100060749D01*
X165541476Y-100042919D01*
X165582604Y-99971681D01*
X165588117Y-99962133D01*
X165607891Y-99849991D01*
X165588117Y-99737849D01*
X165531181Y-99639233D01*
X165443951Y-99566038D01*
X165433592Y-99562268D01*
X165433591Y-99562267D01*
X165347307Y-99530862D01*
X165347306Y-99530862D01*
X165336946Y-99527091D01*
X165223074Y-99527091D01*
X165212714Y-99530862D01*
X165212713Y-99530862D01*
X165126430Y-99562267D01*
X165126429Y-99562268D01*
X165116070Y-99566038D01*
X165028839Y-99639233D01*
X164971903Y-99737849D01*
X164969989Y-99748705D01*
X164957944Y-99817014D01*
X164926416Y-99880626D01*
X164865503Y-99917096D01*
X164794542Y-99914843D01*
X164736063Y-99874584D01*
X164724739Y-99858135D01*
X164713770Y-99839136D01*
X164703476Y-99821306D01*
X164616246Y-99748111D01*
X164605887Y-99744341D01*
X164605886Y-99744340D01*
X164519602Y-99712935D01*
X164519601Y-99712935D01*
X164509241Y-99709164D01*
X164395369Y-99709164D01*
X164385009Y-99712935D01*
X164385008Y-99712935D01*
X164298725Y-99744340D01*
X164298724Y-99744341D01*
X164288365Y-99748111D01*
X164201134Y-99821306D01*
X164195622Y-99830852D01*
X164195621Y-99830854D01*
X164172666Y-99870614D01*
X164144198Y-99919922D01*
X164124424Y-100032064D01*
X163641600Y-100032064D01*
X163641600Y-97014680D01*
X159541260Y-97014680D01*
X159541260Y-101114860D01*
X158045514Y-101114860D01*
X158037888Y-96125602D01*
X158057786Y-96057450D01*
X158111371Y-96010876D01*
X158163887Y-95999409D01*
X161022734Y-95999443D01*
G37*
%TD.AperFunction*%
%TD*%
%TA.AperFunction,Conductor*%
%TO.N,GND*%
G36*
X155660668Y-99561054D02*
G01*
X157759483Y-99561891D01*
X157827595Y-99581920D01*
X157874066Y-99635594D01*
X157885432Y-99687698D01*
X157887372Y-100956960D01*
X157887614Y-101115101D01*
X157889179Y-102138807D01*
X157869281Y-102206959D01*
X157815696Y-102253533D01*
X157763179Y-102265000D01*
X151546039Y-102265000D01*
X151477918Y-102244998D01*
X151431425Y-102191342D01*
X151420039Y-102138991D01*
X151420170Y-100237850D01*
X151440177Y-100169731D01*
X151457075Y-100148764D01*
X152009300Y-99596539D01*
X152071612Y-99562513D01*
X152098445Y-99559634D01*
X155660668Y-99561054D01*
G37*
%TD.AperFunction*%
%TD*%
M02*
