%TF.GenerationSoftware,KiCad,Pcbnew,(6.99.0-4266-g9b4505c6d2)*%
%TF.CreationDate,2022-11-13T11:25:58+08:00*%
%TF.ProjectId,ESP_PD210,4553505f-5044-4323-9130-2e6b69636164,Bata1*%
%TF.SameCoordinates,Original*%
%TF.FileFunction,Paste,Bot*%
%TF.FilePolarity,Positive*%
%FSLAX46Y46*%
G04 Gerber Fmt 4.6, Leading zero omitted, Abs format (unit mm)*
G04 Created by KiCad (PCBNEW (6.99.0-4266-g9b4505c6d2)) date 2022-11-13 11:25:58*
%MOMM*%
%LPD*%
G01*
G04 APERTURE LIST*
G04 Aperture macros list*
%AMRoundRect*
0 Rectangle with rounded corners*
0 $1 Rounding radius*
0 $2 $3 $4 $5 $6 $7 $8 $9 X,Y pos of 4 corners*
0 Add a 4 corners polygon primitive as box body*
4,1,4,$2,$3,$4,$5,$6,$7,$8,$9,$2,$3,0*
0 Add four circle primitives for the rounded corners*
1,1,$1+$1,$2,$3*
1,1,$1+$1,$4,$5*
1,1,$1+$1,$6,$7*
1,1,$1+$1,$8,$9*
0 Add four rect primitives between the rounded corners*
20,1,$1+$1,$2,$3,$4,$5,0*
20,1,$1+$1,$4,$5,$6,$7,0*
20,1,$1+$1,$6,$7,$8,$9,0*
20,1,$1+$1,$8,$9,$2,$3,0*%
G04 Aperture macros list end*
%ADD10RoundRect,0.140000X0.170000X-0.140000X0.170000X0.140000X-0.170000X0.140000X-0.170000X-0.140000X0*%
%ADD11RoundRect,0.135000X0.185000X-0.135000X0.185000X0.135000X-0.185000X0.135000X-0.185000X-0.135000X0*%
%ADD12RoundRect,0.250000X-0.375000X-0.850000X0.375000X-0.850000X0.375000X0.850000X-0.375000X0.850000X0*%
%ADD13RoundRect,0.150000X0.512500X0.150000X-0.512500X0.150000X-0.512500X-0.150000X0.512500X-0.150000X0*%
%ADD14R,0.640000X1.000000*%
%ADD15RoundRect,0.062500X0.287500X0.062500X-0.287500X0.062500X-0.287500X-0.062500X0.287500X-0.062500X0*%
%ADD16RoundRect,0.135000X0.135000X0.185000X-0.135000X0.185000X-0.135000X-0.185000X0.135000X-0.185000X0*%
%ADD17RoundRect,0.140000X-0.170000X0.140000X-0.170000X-0.140000X0.170000X-0.140000X0.170000X0.140000X0*%
%ADD18RoundRect,0.150000X0.150000X-0.512500X0.150000X0.512500X-0.150000X0.512500X-0.150000X-0.512500X0*%
%ADD19RoundRect,0.150000X0.587500X0.150000X-0.587500X0.150000X-0.587500X-0.150000X0.587500X-0.150000X0*%
%ADD20RoundRect,0.140000X0.140000X0.170000X-0.140000X0.170000X-0.140000X-0.170000X0.140000X-0.170000X0*%
%ADD21RoundRect,0.250000X-1.000000X0.250000X-1.000000X-0.250000X1.000000X-0.250000X1.000000X0.250000X0*%
%ADD22RoundRect,0.135000X-0.185000X0.135000X-0.185000X-0.135000X0.185000X-0.135000X0.185000X0.135000X0*%
%ADD23RoundRect,0.140000X-0.140000X-0.170000X0.140000X-0.170000X0.140000X0.170000X-0.140000X0.170000X0*%
G04 APERTURE END LIST*
D10*
%TO.C,C19*%
X192392225Y-103204642D03*
X192392225Y-102244642D03*
%TD*%
D11*
%TO.C,R15*%
X190812225Y-103234642D03*
X190812225Y-102214642D03*
%TD*%
D12*
%TO.C,L3*%
X183643026Y-107266606D03*
X185793026Y-107266606D03*
%TD*%
D13*
%TO.C,U5*%
X193530525Y-104474642D03*
X193530525Y-105424642D03*
X193530525Y-106374642D03*
X191255525Y-106374642D03*
X191255525Y-105424642D03*
X191255525Y-104474642D03*
%TD*%
D11*
%TO.C,R7*%
X156793025Y-102056606D03*
X156793025Y-101036606D03*
%TD*%
D13*
%TO.C,U3*%
X146180525Y-108666606D03*
X146180525Y-109616606D03*
X146180525Y-110566606D03*
X143905525Y-110566606D03*
X143905525Y-108666606D03*
%TD*%
D14*
%TO.C,Q2*%
X149173024Y-101446605D03*
X149173024Y-100256605D03*
X148343024Y-101446605D03*
X148343024Y-100256605D03*
D15*
X150158025Y-100101606D03*
X150158025Y-100601606D03*
X150158025Y-101101606D03*
X150158025Y-101601606D03*
X147358025Y-101601606D03*
X147358025Y-101101606D03*
X147358025Y-100601606D03*
X147358025Y-100101606D03*
%TD*%
D16*
%TO.C,R4*%
X151323025Y-103136606D03*
X150303025Y-103136606D03*
%TD*%
D17*
%TO.C,C21*%
X186243025Y-103386606D03*
X186243025Y-104346606D03*
%TD*%
D11*
%TO.C,R11*%
X181902640Y-103256606D03*
X181902640Y-102236606D03*
%TD*%
%TO.C,R6*%
X157873025Y-102056606D03*
X157873025Y-101036606D03*
%TD*%
D18*
%TO.C,U4*%
X185023026Y-105004106D03*
X184073026Y-105004106D03*
X183123026Y-105004106D03*
X183123026Y-102729106D03*
X184073026Y-102729106D03*
X185023026Y-102729106D03*
%TD*%
D19*
%TO.C,Q1*%
X155040525Y-101036606D03*
X155040525Y-102936606D03*
X153165525Y-101986606D03*
%TD*%
D10*
%TO.C,C20*%
X181923026Y-107756606D03*
X181923026Y-106796606D03*
%TD*%
D17*
%TO.C,C24*%
X141823025Y-108666603D03*
X141823025Y-109626603D03*
%TD*%
D20*
%TO.C,C25*%
X168413029Y-109016603D03*
X167453029Y-109016603D03*
%TD*%
D21*
%TO.C,SW2*%
X178573025Y-103556606D03*
X178573025Y-105906606D03*
%TD*%
D22*
%TO.C,R3*%
X151273025Y-101216606D03*
X151273025Y-102236606D03*
%TD*%
D16*
%TO.C,R16*%
X183703026Y-101316606D03*
X182683026Y-101316606D03*
%TD*%
D23*
%TO.C,C18*%
X184603026Y-101316606D03*
X185563026Y-101316606D03*
%TD*%
D11*
%TO.C,R17*%
X193972225Y-103234642D03*
X193972225Y-102214642D03*
%TD*%
%TO.C,R12*%
X181902640Y-105496606D03*
X181902640Y-104476606D03*
%TD*%
M02*
